<svg width="81" height="68" viewBox="0 0 81 68" fill="none" xmlns="http://www.w3.org/2000/svg">
<g clip-path="url(#clip0_1_4)">
<mask id="mask0_1_4" style="mask-type:luminance" maskUnits="userSpaceOnUse" x="0" y="0" width="81" height="68">
<path d="M81 0H0V68H81V0Z" fill="white"/>
</mask>
<g mask="url(#mask0_1_4)">
<path d="M58.7428 24.9176C58.8784 25.3426 58.5781 25.7793 58.0721 25.894C57.5656 26.0077 57.0456 25.7559 56.909 25.3309C56.7734 24.9059 57.0737 24.4692 57.5797 24.3545C58.0862 24.2397 58.6062 24.4926 58.7428 24.9176ZM52.0261 25.6029C51.5199 25.7166 51.2187 26.1543 51.3553 26.5793C51.4908 27.0043 52.0122 27.2572 52.5185 27.1425C53.0247 27.0288 53.3259 26.591 53.1892 26.166C53.0525 25.741 52.5324 25.4892 52.0261 25.6029ZM46.4726 26.8524C45.9663 26.9661 45.6651 27.4039 45.8018 27.8289C45.9372 28.2539 46.4586 28.5067 46.9649 28.392C47.4711 28.2783 47.7723 27.8416 47.6357 27.4156C47.499 26.9906 46.9788 26.7387 46.4726 26.8524ZM40.919 28.1019C40.4127 28.2156 40.1115 28.6533 40.2482 29.0783C40.3836 29.5033 40.9038 29.7563 41.4113 29.6415C41.9175 29.5278 42.2188 29.0911 42.0821 28.665C41.9454 28.24 41.4252 27.9872 40.919 28.1019ZM35.3654 29.3503C34.8592 29.464 34.5579 29.9018 34.6946 30.3268C34.8301 30.7518 35.3502 31.0047 35.8578 30.8899C36.364 30.7762 36.6652 30.3396 36.5285 29.9135C36.3918 29.4896 35.8717 29.2367 35.3654 29.3503ZM79.4119 29.141C78.0133 30.3852 75.816 31.3723 73.0555 31.9928L53.4968 36.3916L48.0622 44.0054C46.227 46.5776 43.3857 48.6008 40.0622 49.7015L32.6874 52.1432C32.4773 52.2121 32.2608 52.2452 32.0482 52.2452C31.5609 52.2452 31.094 52.0697 30.7573 51.7415C30.2751 51.271 30.2017 50.6195 30.57 50.0796L37.6372 39.8043C32.6924 40.6894 28.4045 41.159 24.7595 41.159C21.1398 41.159 18.1352 40.7 15.5926 39.8287L13.803 42.4319C13.0601 43.5124 11.8615 44.2827 10.4301 44.6047L8.25449 45.0934C8.10637 45.1274 7.95577 45.1444 7.8077 45.1444C7.33055 45.1444 6.87112 44.9776 6.53956 44.6706C6.1067 44.271 5.9751 43.7069 6.20039 43.2L9.37327 36.0324C9.32521 35.9836 9.27455 35.9379 9.22774 35.889C4.47658 30.9622 1.24165 27.508 0.36457 26.5666C0.0101951 26.1883 -0.0935858 25.69 0.0873984 25.2343C0.268383 24.7773 0.70882 24.431 1.26569 24.3067L6.76102 23.0699C7.84064 22.8256 8.98474 23.0625 9.8112 23.7032L17.1771 29.4269L33.5784 25.7368L20.8297 19.5573C20.1881 19.247 19.8628 18.652 20.0007 18.0411C20.1387 17.4302 20.7019 16.9754 21.4334 16.884L29.2752 15.9023C32.8051 15.4582 36.4728 16.0192 39.5977 17.4759L44.6615 19.8389C45.1209 20.0524 45.2854 20.538 45.031 20.9226C44.7766 21.3072 44.1969 21.4453 43.7413 21.2318L38.6763 18.8688C35.9172 17.581 32.6798 17.0891 29.5562 17.478L22.2308 18.3949L36.1729 25.1524L62.107 19.3183C67.1744 18.1793 70.828 20.0099 73.0091 21.1053C73.399 21.3009 73.7365 21.473 74.0254 21.592C76.8728 21.9373 80.19 23.276 80.8839 25.451C81.2581 26.6293 80.7219 27.9744 79.4119 29.141ZM38.9142 37.9481L40.7367 35.2982L22.1675 39.4749C26.5516 39.783 32.0457 39.2741 38.9142 37.9481ZM79.0484 25.8653C78.5943 24.4416 75.9159 23.4078 73.6279 23.156C73.5356 23.1464 73.4443 23.1252 73.3595 23.0922C73.0922 22.9913 72.7699 22.8372 72.4205 22.6651L66.2213 24.0591C65.7326 24.1686 65.1974 23.9316 65.0581 23.496C64.9226 23.072 65.2406 22.63 65.7288 22.5196L70.0358 21.5506C68.1313 20.7739 65.6759 20.1661 62.5968 20.8589L17.162 31.0801C16.8455 31.1513 16.5101 31.0823 16.271 30.8953L8.52277 24.873C8.17852 24.6063 7.70391 24.5064 7.25339 24.6095L2.04406 25.7814C3.13249 26.9459 6.24974 30.2673 10.7047 34.886C10.8553 35.0422 11.0085 35.1952 11.1667 35.3429C11.4071 35.5692 11.4515 35.8762 11.3375 36.1419C11.3413 36.145 11.3439 36.145 11.3477 36.1482L8.10389 43.4753L9.94027 43.063C10.8832 42.8516 11.6704 42.3426 12.1602 41.6318L16.4886 35.3386L13.9346 35.9134C13.4321 36.0229 12.9082 35.7742 12.7715 35.3503C12.6361 34.9253 12.936 34.4886 13.4423 34.3739L16.419 33.7034C17.0923 33.5547 17.8011 33.7544 18.2251 34.2187C18.6491 34.682 18.6984 35.3099 18.3504 35.8157L16.5519 38.4305C16.9569 38.5622 17.3543 38.7003 17.7884 38.8087L42.0796 33.3432L42.7073 32.4306C42.9706 32.0491 43.5464 31.9173 44.0033 32.1383C44.4577 32.3583 44.6133 32.846 44.3514 33.2263L32.476 50.4994L39.3673 48.2182C42.3036 47.2472 44.8121 45.461 46.4346 43.1873L56.2988 29.3684C56.5672 28.9912 57.152 28.868 57.6013 29.0943C57.8896 29.2399 58.0354 29.4938 58.0441 29.7573L75.3214 25.8707C75.8338 25.7591 76.349 26.0109 76.4829 26.4338C76.6184 26.8588 76.3198 27.2955 75.8122 27.4102L56.8674 31.6719L54.8991 34.4291L72.5636 30.4553C75.6211 29.7679 77.2232 28.7681 78.0294 28.0499C78.8664 27.304 79.2472 26.488 79.0484 25.8653ZM29.8119 30.5999C29.3056 30.7136 29.0044 31.1513 29.1411 31.5763C29.2765 32.0013 29.7967 32.2542 30.3042 32.1394C30.8105 32.0257 31.1117 31.588 30.975 31.163C30.8383 30.738 30.3181 30.4862 29.8119 30.5999Z" fill="#481210"/>
</g>
</g>
<defs>
<clipPath id="clip0_1_4">
<rect width="81" height="68" fill="white"/>
</clipPath>
</defs>
</svg>
