<svg xmlns="http://www.w3.org/2000/svg" viewBox="0 0 5.33 5.2"><g id="Layer_2" data-name="Layer 2"><g id="Layer_1-2" data-name="Layer 1"><path d="M4.47,3.61a.11.11,0,0,1-.09-.06.1.1,0,0,1,.06-.13.08.08,0,0,0,0-.08A1.83,1.83,0,0,0,2.66,1.52a.11.11,0,0,1-.1-.1.1.1,0,0,1,.1-.1,2,2,0,0,1,2,2,.27.27,0,0,1-.18.26Z"/><path d="M.85,3.61h0a.27.27,0,0,1-.18-.26,2,2,0,0,1,2-2,.09.09,0,0,1,.1.1.1.1,0,0,1-.1.1A1.83,1.83,0,0,0,.84,3.34a.08.08,0,0,0,.05.08A.1.1,0,0,1,1,3.55.11.11,0,0,1,.85,3.61Z"/><path d="M3.16,1.58a.09.09,0,0,1-.1-.1V1.3a.4.4,0,0,0-.4-.4.1.1,0,0,1-.1-.1.1.1,0,0,1,.1-.09.59.59,0,0,1,.6.59v.18A.1.1,0,0,1,3.16,1.58Z"/><path d="M2.17,1.58a.1.1,0,0,1-.1-.1V1.3A.59.59,0,0,1,2.66.71a.09.09,0,0,1,.1.09.09.09,0,0,1-.1.1.4.4,0,0,0-.39.4v.18A.09.09,0,0,1,2.17,1.58Z"/><path d="M4.74,5.2H.59a.47.47,0,0,1-.1-.92V3.9A.52.52,0,0,1,1,3.38H4.32a.52.52,0,0,1,.52.52v.38a.47.47,0,0,1-.1.92ZM.59,4.47A.27.27,0,0,0,.59,5H4.74a.27.27,0,0,0,0-.53.1.1,0,0,1-.1-.1V3.9a.32.32,0,0,0-.32-.32H1a.32.32,0,0,0-.32.32v.47A.1.1,0,0,1,.59,4.47Z"/><path d="M4.74,4.47H1.64a.11.11,0,0,1-.1-.1.1.1,0,0,1,.1-.1h3.1a.1.1,0,0,1,.1.1A.11.11,0,0,1,4.74,4.47Z"/><path d="M4,3H1.38a.11.11,0,0,1-.1-.1.1.1,0,0,1,.1-.1H4a.1.1,0,0,1,.1.1A.11.11,0,0,1,4,3Z"/><path d="M3.43,2.5H1.9a.1.1,0,0,1-.1-.1.09.09,0,0,1,.1-.1H3.43a.09.09,0,0,1,.1.1A.1.1,0,0,1,3.43,2.5Z"/><path d="M1.62,1.21l-.06,0L.52.48A.11.11,0,0,1,.5.34a.1.1,0,0,1,.14,0l1,.72a.1.1,0,0,1,0,.14A.12.12,0,0,1,1.62,1.21Z"/><path d="M.64,1.47a.09.09,0,0,1-.1-.1.1.1,0,0,1,.1-.1h.57a.11.11,0,0,1,.1.1.1.1,0,0,1-.1.1Z"/><path d="M1.72.73a.11.11,0,0,1-.1-.06L1.42.13A.09.09,0,0,1,1.48,0a.1.1,0,0,1,.13,0l.2.54a.1.1,0,0,1-.06.13Z"/><path d="M3.71,1.21a.12.12,0,0,1-.08,0,.1.1,0,0,1,0-.14l1-.72a.1.1,0,0,1,.14,0,.11.11,0,0,1,0,.14l-1,.71Z"/><path d="M4.69,1.47H4.12a.09.09,0,0,1-.1-.1.11.11,0,0,1,.1-.1h.57a.1.1,0,0,1,.1.1A.09.09,0,0,1,4.69,1.47Z"/><path d="M3.61.73h0A.1.1,0,0,1,3.52.6l.2-.54a.1.1,0,0,1,.13,0,.09.09,0,0,1,.06.12L3.7.67A.09.09,0,0,1,3.61.73Z"/><path d="M5.23,5.2H.1A.09.09,0,0,1,0,5.1.1.1,0,0,1,.1,5H5.23a.11.11,0,0,1,.1.1A.1.1,0,0,1,5.23,5.2Z"/></g></g></svg>