<svg xmlns="http://www.w3.org/2000/svg" viewBox="0 0 5.03 5.09"><g id="Layer_2" data-name="Layer 2"><g id="Layer_1-2" data-name="Layer 1"><path d="M3.66,5.09H.81a.57.57,0,0,1-.57-.57V.57A.57.57,0,0,1,.81,0H3.66a.09.09,0,0,1,.1.1.1.1,0,0,1-.1.1H.81A.37.37,0,0,0,.44.57v4a.37.37,0,0,0,.37.37H3.66a.1.1,0,0,1,0,.2Z"/><path d="M4.39,5.09h0a.62.62,0,0,1-.63-.6V.6A.62.62,0,0,1,4.35,0h0a.36.36,0,0,1,.36.37v1a.09.09,0,0,1-.1.09.1.1,0,0,1-.1-.09v-1A.16.16,0,0,0,4.39.2h0a.41.41,0,0,0-.43.4V4.49a.41.41,0,0,0,.43.4h0a.16.16,0,0,0,.16-.17v-1a.11.11,0,0,1,.1-.1.1.1,0,0,1,.1.1v1A.36.36,0,0,1,4.39,5.09Z"/><path d="M4.66,3.5H4.37a.09.09,0,0,1-.1-.1V1.69a.09.09,0,0,1,.1-.1h.29A.37.37,0,0,1,5,2V3.14A.37.37,0,0,1,4.66,3.5Zm-.19-.2h.19a.17.17,0,0,0,.17-.16V2a.17.17,0,0,0-.17-.16H4.47Z"/><path d="M3.43,1.7H1a.1.1,0,0,1-.1-.1A.09.09,0,0,1,1,1.5H3.43a.1.1,0,0,1,.1.1A.11.11,0,0,1,3.43,1.7Z"/><path d="M1.57,1.7H1.36a.24.24,0,0,1-.24-.24V1A.21.21,0,0,1,1.23.76V.54A.16.16,0,0,1,1.4.37h.13A.17.17,0,0,1,1.7.54V.76A.23.23,0,0,1,1.8,1v.51A.23.23,0,0,1,1.57,1.7ZM1.42.57V.82a.1.1,0,0,1-.07.1,0,0,0,0,0,0,0v.51a0,0,0,0,0,0,0h.21s0,0,0,0V1s0,0,0,0A.1.1,0,0,1,1.5.82V.57Z"/><path d="M2.35,1.7H2.14a.24.24,0,0,1-.24-.24V1A.21.21,0,0,1,2,.76V.54A.16.16,0,0,1,2.18.37h.13a.16.16,0,0,1,.17.17V.76A.21.21,0,0,1,2.59,1v.51A.24.24,0,0,1,2.35,1.7ZM2.21.57V.82a.11.11,0,0,1-.08.1,0,0,0,0,0,0,0v.51a0,0,0,0,0,0,0h.21a0,0,0,0,0,0,0V1a0,0,0,0,0,0,0,.11.11,0,0,1-.08-.1V.57Z"/><path d="M3.14,1.7H2.92a.23.23,0,0,1-.23-.24V1a.23.23,0,0,1,.1-.19V.54A.17.17,0,0,1,3,.37h.13a.17.17,0,0,1,.18.17V.76a.23.23,0,0,1,.1.19v.51A.24.24,0,0,1,3.14,1.7ZM3,.57V.82a.1.1,0,0,1-.08.1s0,0,0,0v.51s0,0,0,0h.22a0,0,0,0,0,0,0V1a0,0,0,0,0,0,0,.1.1,0,0,1-.07-.1V.57Z"/><path d="M3.43,3.21H1a.09.09,0,0,1-.1-.1A.1.1,0,0,1,1,3H3.43a.11.11,0,0,1,.1.1A.1.1,0,0,1,3.43,3.21Z"/><path d="M1.57,3.21H1.36A.23.23,0,0,1,1.12,3V2.46a.21.21,0,0,1,.11-.19V2.05a.17.17,0,0,1,.17-.17h.13a.18.18,0,0,1,.17.17v.22a.23.23,0,0,1,.1.19V3A.23.23,0,0,1,1.57,3.21ZM1.42,2.08v.25a.1.1,0,0,1-.07.1,0,0,0,0,0,0,0V3s0,0,0,0h.21a0,0,0,0,0,0,0V2.46s0,0,0,0a.1.1,0,0,1-.08-.1V2.08Z"/><path d="M2.35,3.21H2.14A.23.23,0,0,1,1.9,3V2.46A.21.21,0,0,1,2,2.27V2.05a.17.17,0,0,1,.17-.17h.13a.17.17,0,0,1,.17.17v.22a.21.21,0,0,1,.11.19V3A.23.23,0,0,1,2.35,3.21ZM2.21,2.08v.25a.11.11,0,0,1-.08.1,0,0,0,0,0,0,0V3s0,0,0,0h.21s0,0,0,0V2.46a0,0,0,0,0,0,0,.11.11,0,0,1-.08-.1V2.08Z"/><path d="M3.14,3.21H2.92A.23.23,0,0,1,2.69,3V2.46a.23.23,0,0,1,.1-.19V2.05A.18.18,0,0,1,3,1.88h.13a.18.18,0,0,1,.18.17v.22a.23.23,0,0,1,.1.19V3A.23.23,0,0,1,3.14,3.21ZM3,2.08v.25a.1.1,0,0,1-.08.1s0,0,0,0V3a0,0,0,0,0,0,0h.22a0,0,0,0,0,0,0V2.46a0,0,0,0,0,0,0,.1.1,0,0,1-.07-.1V2.08Z"/><path d="M3.43,4.72H1a.09.09,0,0,1-.1-.1.1.1,0,0,1,.1-.1H3.43a.11.11,0,0,1,.1.1A.1.1,0,0,1,3.43,4.72Z"/><path d="M1.57,4.72H1.36a.23.23,0,0,1-.24-.23V4a.23.23,0,0,1,.11-.19V3.57a.17.17,0,0,1,.17-.18h.13a.18.18,0,0,1,.17.18v.21A.24.24,0,0,1,1.8,4v.52A.23.23,0,0,1,1.57,4.72ZM1.42,3.59v.26a.1.1,0,0,1-.07.09s0,0,0,0v.52s0,0,0,0h.21a0,0,0,0,0,0,0V4s0,0,0,0a.09.09,0,0,1-.08-.09V3.59Z"/><path d="M2.35,4.72H2.14a.23.23,0,0,1-.24-.23V4A.23.23,0,0,1,2,3.78V3.57a.17.17,0,0,1,.17-.18h.13a.17.17,0,0,1,.17.18v.21A.23.23,0,0,1,2.59,4v.52A.23.23,0,0,1,2.35,4.72ZM2.21,3.59v.26a.11.11,0,0,1-.08.09s0,0,0,0v.52s0,0,0,0h.21s0,0,0,0V4s0,0,0,0a.11.11,0,0,1-.08-.09V3.59Z"/><path d="M3.14,4.72H2.92a.23.23,0,0,1-.23-.23V4a.24.24,0,0,1,.1-.19V3.57A.18.18,0,0,1,3,3.39h.13a.18.18,0,0,1,.18.18v.21a.24.24,0,0,1,.1.19v.52A.23.23,0,0,1,3.14,4.72ZM3,3.59v.26a.09.09,0,0,1-.08.09s0,0,0,0v.52a0,0,0,0,0,0,0h.22a0,0,0,0,0,0,0V4s0,0,0,0a.1.1,0,0,1-.07-.09V3.59Z"/><path d="M.73,4.55a.1.1,0,0,1-.1-.1V.64a.1.1,0,0,1,.1-.1.09.09,0,0,1,.1.1V4.45A.09.09,0,0,1,.73,4.55Z"/><path d="M4.85,5.09H.1a.1.1,0,0,1,0-.2H4.85a.1.1,0,1,1,0,.2Z"/><path d="M4.37,3.65a.1.1,0,0,1-.1-.1v-2a.1.1,0,0,1,.1-.1.11.11,0,0,1,.1.1v2A.11.11,0,0,1,4.37,3.65Z"/></g></g></svg>