<svg xmlns="http://www.w3.org/2000/svg" viewBox="0 0 5.51 4.9"><g id="Layer_2" data-name="Layer 2"><g id="Layer_1-2" data-name="Layer 1"><path d="M3.47,4.9H.26a.1.1,0,0,1-.1-.1V.49a.1.1,0,0,1,.1-.1H3.47a.1.1,0,0,1,.1.1V.66a.11.11,0,0,1-.1.1.1.1,0,0,1-.1-.1V.59h-3V4.7h3V4.27a.1.1,0,0,1,.1-.1.11.11,0,0,1,.1.1V4.8A.1.1,0,0,1,3.47,4.9Z"/><path d="M3.47.76a.1.1,0,0,1-.1-.1V.59H.65a.1.1,0,0,1-.1-.1V.1A.09.09,0,0,1,.65,0h3.2A.09.09,0,0,1,4,.1V.62a.09.09,0,0,1-.1.1.1.1,0,0,1-.1-.1V.2h-3V.39H3.47a.1.1,0,0,1,.1.1V.66A.11.11,0,0,1,3.47.76Z"/><path d="M4.13,3.15a.09.09,0,0,1-.07,0l-.41-.4a.11.11,0,0,1,0-.08V2.23a.1.1,0,0,1,.1-.1.09.09,0,0,1,.1.1V2.6L4.2,3a.1.1,0,0,1,0,.14A.11.11,0,0,1,4.13,3.15Z"/><path d="M3.72,1.81a.11.11,0,0,1-.1-.1V1.6a.11.11,0,0,1,.1-.1.1.1,0,0,1,.1.1v.11A.1.1,0,0,1,3.72,1.81Z"/><path d="M4.38,2.08a.11.11,0,0,1-.07,0,.1.1,0,0,1,0-.14l.08-.07A.1.1,0,0,1,4.53,2l-.08.07A.09.09,0,0,1,4.38,2.08Z"/><path d="M4.76,2.74h-.1a.09.09,0,0,1-.1-.1.1.1,0,0,1,.1-.1h.1a.1.1,0,0,1,.1.1A.09.09,0,0,1,4.76,2.74Z"/><path d="M4.46,3.48a.09.09,0,0,1-.07,0l-.08-.07a.1.1,0,0,1,.14-.14l.08.07a.1.1,0,0,1,0,.14A.11.11,0,0,1,4.46,3.48Z"/><path d="M3.72,3.78a.1.1,0,0,1-.1-.09V3.58a.11.11,0,0,1,.1-.1.1.1,0,0,1,.1.1v.11A.09.09,0,0,1,3.72,3.78Z"/><path d="M3,3.48a.11.11,0,0,1-.08,0,.12.12,0,0,1,0-.14L3,3.24a.1.1,0,0,1,.14.14l-.07.07A.11.11,0,0,1,3,3.48Z"/><path d="M2.79,2.74H2.68a.1.1,0,0,1-.1-.1.11.11,0,0,1,.1-.1h.11a.11.11,0,0,1,.1.1A.1.1,0,0,1,2.79,2.74Z"/><path d="M3.06,2.08a.09.09,0,0,1-.07,0L2.91,2a.12.12,0,0,1,0-.14.11.11,0,0,1,.15,0l.07.07a.1.1,0,0,1,0,.14A.11.11,0,0,1,3.06,2.08Z"/><path d="M3.72,4.05a1.41,1.41,0,1,1,1-.41A1.4,1.4,0,0,1,3.72,4.05Zm0-2.61A1.21,1.21,0,0,0,2.87,3.5a1.21,1.21,0,1,0,1.7-1.71A1.2,1.2,0,0,0,3.72,1.44Z"/><path d="M3.06,1.19A.09.09,0,0,1,3,1.13.1.1,0,0,1,3,1L3.29.91A.11.11,0,0,1,3.41,1a.11.11,0,0,1-.07.12.85.85,0,0,0-.24.08Z"/><path d="M5.32,3.28h0a.09.09,0,0,1-.06-.12,1.7,1.7,0,0,0,.08-.51V2.59a.09.09,0,0,1,.09-.1.11.11,0,0,1,.11.09v.06a1.56,1.56,0,0,1-.1.57A.1.1,0,0,1,5.32,3.28Zm0-1.18A.09.09,0,0,1,5.19,2a1.6,1.6,0,0,0-.31-.47.11.11,0,0,1,0-.14.1.1,0,0,1,.14,0A1.77,1.77,0,0,1,5.37,2a.11.11,0,0,1,0,.14Zm-.8-.86h0a1.47,1.47,0,0,0-.54-.16A.1.1,0,0,1,3.81,1,.09.09,0,0,1,3.92.87a1.65,1.65,0,0,1,.61.18.11.11,0,0,1,0,.13A.1.1,0,0,1,4.48,1.24Z"/><path d="M4.85,4a.09.09,0,0,1-.08,0,.11.11,0,0,1,0-.14l.06,0L5,3.64a.1.1,0,0,1,.16.13L5,3.91,4.92,4A.11.11,0,0,1,4.85,4Z"/><path d="M2.42,1.44H.79a.1.1,0,0,1-.1-.1.11.11,0,0,1,.1-.1H2.42a.11.11,0,0,1,.1.1A.1.1,0,0,1,2.42,1.44Z"/><path d="M2.42,1.11H.79A.1.1,0,0,1,.69,1a.11.11,0,0,1,.1-.1H2.42a.11.11,0,0,1,.1.1A.1.1,0,0,1,2.42,1.11Z"/><path d="M2.11,2.42H.79a.1.1,0,0,1,0-.2H2.11a.1.1,0,1,1,0,.2Z"/><path d="M2.16,2.09H.79A.11.11,0,0,1,.69,2a.1.1,0,0,1,.1-.1H2.16a.1.1,0,0,1,.1.1A.11.11,0,0,1,2.16,2.09Z"/><path d="M2.16,3.4H.79a.11.11,0,0,1-.1-.1.1.1,0,0,1,.1-.1H2.16a.1.1,0,0,1,.1.1A.11.11,0,0,1,2.16,3.4Z"/><path d="M2.11,3.07H.79A.11.11,0,0,1,.69,3a.1.1,0,0,1,.1-.1H2.11a.1.1,0,0,1,.1.1A.11.11,0,0,1,2.11,3.07Z"/><path d="M2.42,4.44H.79a.1.1,0,0,1-.1-.1.11.11,0,0,1,.1-.1H2.42a.11.11,0,0,1,.1.1A.1.1,0,0,1,2.42,4.44Z"/><path d="M2.42,4H.79a.1.1,0,0,1-.1-.1.11.11,0,0,1,.1-.1H2.42a.11.11,0,0,1,.1.1A.1.1,0,0,1,2.42,4Z"/><path d="M4.76,4.9H.1A.09.09,0,0,1,0,4.8a.1.1,0,0,1,.1-.1H4.76a.1.1,0,0,1,.1.1A.09.09,0,0,1,4.76,4.9Z"/><path d="M3.85,4.88a.11.11,0,0,1-.1-.1V4.24a.11.11,0,0,1,.1-.1.1.1,0,0,1,.1.1v.54A.1.1,0,0,1,3.85,4.88Z"/></g></g></svg>