<svg xmlns="http://www.w3.org/2000/svg" viewBox="0 0 4.78 5.35"><g id="Layer_2" data-name="Layer 2"><g id="Layer_1-2" data-name="Layer 1"><path d="M4.47,2.73H.31a.32.32,0,0,1,0-.63H4.47a.32.32,0,0,1,0,.63ZM.31,2.29a.13.13,0,0,0-.12.13.12.12,0,0,0,.12.12H4.47a.12.12,0,0,0,.12-.12.12.12,0,0,0-.12-.13Z"/><path d="M4.47,4.93H.31a.09.09,0,0,1-.09-.09V2.64a.09.09,0,0,1,.09-.1.09.09,0,0,1,.1.1V4.75h4V2.64a.09.09,0,0,1,.1-.1.09.09,0,0,1,.09.1v2.2A.09.09,0,0,1,4.47,4.93Z"/><path d="M1,3.61a.34.34,0,1,1,.33-.33A.34.34,0,0,1,1,3.61Zm0-.48a.15.15,0,0,0,0,.3.15.15,0,0,0,0-.3Z"/><path d="M.78,4.93a.09.09,0,0,1-.09-.08l0-.2a3.63,3.63,0,0,1,0-1.23A.1.1,0,0,1,.8,3.34a.1.1,0,0,1,.08.12,3.23,3.23,0,0,0,0,1.16l0,.21a.09.09,0,0,1-.08.1Z"/><path d="M1.15,4.93h0a.08.08,0,0,1-.07-.1l0-.21a3.76,3.76,0,0,0,0-1.16.1.1,0,0,1,.07-.12.1.1,0,0,1,.11.08,3.39,3.39,0,0,1,0,1.23l0,.2A.09.09,0,0,1,1.15,4.93Z"/><path d="M.78,3.21a.09.09,0,0,1-.09-.09V2.64a.09.09,0,0,1,.09-.1.1.1,0,0,1,.1.1v.48A.1.1,0,0,1,.78,3.21Z"/><path d="M1.15,3.21a.1.1,0,0,1-.1-.09V2.64a.1.1,0,0,1,.1-.1.09.09,0,0,1,.09.1v.48A.09.09,0,0,1,1.15,3.21Z"/><path d="M1.89,3.61a.34.34,0,1,1,0-.67.34.34,0,1,1,0,.67Zm0-.48A.15.15,0,1,0,2,3.28.15.15,0,0,0,1.89,3.13Z"/><path d="M1.71,4.93a.08.08,0,0,1-.09-.08l0-.2a3.39,3.39,0,0,1,0-1.23.1.1,0,0,1,.11-.08.1.1,0,0,1,.07.12,3.23,3.23,0,0,0,0,1.16l0,.21a.08.08,0,0,1-.08.1Z"/><path d="M2.07,4.93h0A.08.08,0,0,1,2,4.83l0-.21A3.23,3.23,0,0,0,2,3.46a.1.1,0,0,1,.08-.12.1.1,0,0,1,.11.08,3.63,3.63,0,0,1,0,1.23l0,.2A.1.1,0,0,1,2.07,4.93Z"/><path d="M1.71,3.21a.1.1,0,0,1-.1-.09V2.64a.1.1,0,0,1,.1-.1.09.09,0,0,1,.09.1v.48A.09.09,0,0,1,1.71,3.21Z"/><path d="M2.07,3.21A.09.09,0,0,1,2,3.12V2.64a.09.09,0,0,1,.09-.1.09.09,0,0,1,.1.1v.48A.09.09,0,0,1,2.07,3.21Z"/><path d="M2.89,3.61a.34.34,0,1,1,0-.67.34.34,0,1,1,0,.67Zm0-.48A.15.15,0,1,0,3,3.28.15.15,0,0,0,2.89,3.13Z"/><path d="M2.71,4.93a.1.1,0,0,1-.1-.08l0-.2a3.63,3.63,0,0,1,0-1.23.1.1,0,0,1,.11-.08.1.1,0,0,1,.08.12,3.23,3.23,0,0,0,0,1.16l0,.21a.08.08,0,0,1-.08.1Z"/><path d="M3.07,4.93h0A.08.08,0,0,1,3,4.83l0-.21A3.23,3.23,0,0,0,3,3.46a.1.1,0,0,1,.07-.12.1.1,0,0,1,.11.08,3.39,3.39,0,0,1,0,1.23l0,.2A.1.1,0,0,1,3.07,4.93Z"/><path d="M2.71,3.21a.09.09,0,0,1-.1-.09V2.64a.09.09,0,0,1,.1-.1.09.09,0,0,1,.09.1v.48A.09.09,0,0,1,2.71,3.21Z"/><path d="M3.07,3.21A.09.09,0,0,1,3,3.12V2.64a.09.09,0,0,1,.09-.1.1.1,0,0,1,.1.1v.48A.1.1,0,0,1,3.07,3.21Z"/><path d="M3.81,3.61a.34.34,0,0,1,0-.67.34.34,0,1,1,0,.67Zm0-.48a.15.15,0,0,0,0,.3.15.15,0,0,0,0-.3Z"/><path d="M3.63,4.93a.09.09,0,0,1-.09-.08l0-.2a3.63,3.63,0,0,1,0-1.23.1.1,0,0,1,.11-.08.1.1,0,0,1,.07.12,3.76,3.76,0,0,0,0,1.16l0,.21a.09.09,0,0,1-.08.1Z"/><path d="M4,4.93H4a.09.09,0,0,1-.08-.1l0-.21a3.47,3.47,0,0,0,0-1.16A.1.1,0,0,1,4,3.34a.1.1,0,0,1,.11.08,3.63,3.63,0,0,1,0,1.23l0,.2A.09.09,0,0,1,4,4.93Z"/><path d="M3.63,3.21a.09.09,0,0,1-.09-.09V2.64a.09.09,0,0,1,.09-.1.1.1,0,0,1,.1.1v.48A.1.1,0,0,1,3.63,3.21Z"/><path d="M4,3.21a.1.1,0,0,1-.1-.09V2.64a.1.1,0,0,1,.1-.1.09.09,0,0,1,.09.1v.48A.09.09,0,0,1,4,3.21Z"/><path d="M4.47,5.35H.31a.09.09,0,0,1-.09-.09V4.84a.09.09,0,0,1,.09-.09.09.09,0,0,1,.1.09v.32h4V4.84a.09.09,0,0,1,.1-.09.09.09,0,0,1,.09.09v.42A.09.09,0,0,1,4.47,5.35Z"/><path d="M4.1,2.29H.68A.09.09,0,0,1,.59,2.2V.09A.09.09,0,0,1,.68,0H4.1a.09.09,0,0,1,.09.09V2.2A.09.09,0,0,1,4.1,2.29ZM.78,2.1H4V.19H.78Z"/><path d="M3.73,2.29H1.05A.09.09,0,0,1,1,2.2V.46A.09.09,0,0,1,1.05.37H3.73a.09.09,0,0,1,.09.09V2.2A.09.09,0,0,1,3.73,2.29ZM1.15,2.1H3.63V.56H1.15Z"/><path d="M1.05.56A.09.09,0,0,1,1,.53L.62.16A.09.09,0,0,1,.62,0,.09.09,0,0,1,.75,0L1.12.4a.09.09,0,0,1,0,.13A.09.09,0,0,1,1.05.56Z"/><path d="M3.73.56a.09.09,0,0,1-.07,0,.09.09,0,0,1,0-.13L4,0a.09.09,0,0,1,.13,0,.09.09,0,0,1,0,.13L3.79.53A.07.07,0,0,1,3.73.56Z"/><path d="M2.56,2.29H2.22a.09.09,0,0,1-.09-.09V.46A.09.09,0,0,1,2.22.37h.34a.09.09,0,0,1,.09.09V2.2A.09.09,0,0,1,2.56,2.29ZM2.32,2.1h.14V.56H2.32Z"/></g></g></svg>