<svg xmlns="http://www.w3.org/2000/svg" viewBox="0 0 5.43 4.66"><g id="Layer_2" data-name="Layer 2"><g id="Layer_1-2" data-name="Layer 1"><path d="M5,4.2H.41A.41.41,0,0,1,0,3.79V1.6a.09.09,0,0,1,.09-.09A.89.89,0,0,1,1,2.39V3H4.53V2.64a.71.71,0,0,1,.71-.71h.1A.09.09,0,0,1,5.43,2V3.79A.41.41,0,0,1,5,4.2ZM.19,1.71V3.79A.22.22,0,0,0,.41,4H5a.22.22,0,0,0,.22-.22V2.12a.52.52,0,0,0-.52.52V3.1a.1.1,0,0,1-.1.09H.88A.09.09,0,0,1,.79,3.1V2.39A.68.68,0,0,0,.19,1.71Z"/><path d="M.88,3.69A.09.09,0,0,1,.79,3.6V3.1A.09.09,0,0,1,.88,3a.09.09,0,0,1,.1.1v.5A.09.09,0,0,1,.88,3.69Z"/><path d="M4.62,3.69a.09.09,0,0,1-.09-.09V3.1A.09.09,0,0,1,4.62,3a.1.1,0,0,1,.1.1v.5A.1.1,0,0,1,4.62,3.69Z"/><path d="M1.93,3.19h-1A.09.09,0,0,1,.79,3.1V2.47a.1.1,0,0,1,.09-.1h.45a.69.69,0,0,1,.69.7v0A.09.09,0,0,1,1.93,3.19ZM1,3h.85a.51.51,0,0,0-.5-.44H1Z"/><path d="M4.62,2.78H1.77a.09.09,0,0,1-.09-.1.09.09,0,0,1,.09-.09H4.62a.1.1,0,0,1,.1.09A.1.1,0,0,1,4.62,2.78Z"/><path d="M1.15,4.66H.41a.09.09,0,0,1-.09-.09V4.11A.09.09,0,0,1,.41,4h1.1a.1.1,0,0,1,.08.06.09.09,0,0,1,0,.11l-.07.06a1.07,1.07,0,0,0-.27.36A.08.08,0,0,1,1.15,4.66ZM.51,4.47h.58a1.27,1.27,0,0,1,.18-.27H.51Z"/><path d="M5,4.66H4.28A.08.08,0,0,1,4.2,4.6a1.07,1.07,0,0,0-.27-.36l-.07-.06a.09.09,0,0,1,0-.11A.1.1,0,0,1,3.92,4H5a.09.09,0,0,1,.09.1v.46A.09.09,0,0,1,5,4.66Zm-.68-.19h.58V4.2H4.16A1.27,1.27,0,0,1,4.34,4.47Z"/><path d="M1.6,1.4A.71.71,0,0,1,.9.7.7.7,0,0,1,1.6,0a1.09,1.09,0,0,1,.25,0,.11.11,0,0,1,.06.09.1.1,0,0,1-.06.09A.53.53,0,0,0,1.51.7a.51.51,0,0,0,.34.47.11.11,0,0,1,.06.09.1.1,0,0,1-.06.09A.74.74,0,0,1,1.6,1.4ZM1.54.19A.52.52,0,0,0,1.09.7a.51.51,0,0,0,.45.5.71.71,0,0,1,0-1Z"/><path d="M2.94,1.71H2.49a.09.09,0,0,1-.07-.16l.31-.35H2.49a.09.09,0,0,1-.09-.09A.1.1,0,0,1,2.49,1h.45A.11.11,0,0,1,3,1.07a.1.1,0,0,1,0,.1l-.31.35h.24a.1.1,0,0,1,.1.09A.1.1,0,0,1,2.94,1.71Z"/><path d="M4.11,1.17H3.66A.09.09,0,0,1,3.59,1L3.9.66H3.66a.1.1,0,0,1-.1-.09.11.11,0,0,1,.1-.1h.45A.11.11,0,0,1,4.2.53a.1.1,0,0,1,0,.1L3.87,1h.24a.09.09,0,0,1,.09.09A.09.09,0,0,1,4.11,1.17Z"/></g></g></svg>