<svg xmlns="http://www.w3.org/2000/svg" viewBox="0 0 5.52 4.44"><g id="Layer_2" data-name="Layer 2"><g id="Layer_1-2" data-name="Layer 1"><path d="M1,3.43H.38a.09.09,0,0,1-.1-.1V.4a.4.4,0,0,1,.8,0V3.33A.09.09,0,0,1,1,3.43ZM.47,3.24H.89V.4A.21.21,0,0,0,.68.19.21.21,0,0,0,.47.4Z"/><path d="M5.15,3.43H4.54a.1.1,0,0,1-.1-.1V.4a.4.4,0,0,1,.8,0V3.33A.09.09,0,0,1,5.15,3.43Zm-.52-.19h.42V.4A.21.21,0,0,0,4.84.19.21.21,0,0,0,4.63.4Z"/><path d="M5.21,3.86H.31a.31.31,0,0,1,0-.62h4.9a.31.31,0,0,1,0,.62ZM.31,3.43a.12.12,0,1,0,0,.24h4.9a.12.12,0,1,0,0-.24Z"/><path d="M1.94,3.43H1.49a.1.1,0,0,1-.1-.1V.88A.33.33,0,0,1,2,.88V3.33A.1.1,0,0,1,1.94,3.43Zm-.36-.19h.27V.88A.13.13,0,0,0,1.71.75a.13.13,0,0,0-.13.13Z"/><path d="M3,3.43H2.54a.09.09,0,0,1-.1-.1V.88A.33.33,0,0,1,2.76.56a.32.32,0,0,1,.32.32V3.33A.09.09,0,0,1,3,3.43Zm-.36-.19h.26V.88A.13.13,0,0,0,2.76.75a.13.13,0,0,0-.13.13Z"/><path d="M4,3.43H3.58a.09.09,0,0,1-.09-.1V.88a.32.32,0,0,1,.64,0V3.33A.09.09,0,0,1,4,3.43Zm-.36-.19h.26V.88a.13.13,0,1,0-.26,0Z"/><path d="M.92,4.44a.33.33,0,0,1-.33-.33V3.77a.09.09,0,0,1,.09-.1h.48a.09.09,0,0,1,.1.1v.34A.34.34,0,0,1,.92,4.44ZM.78,3.86v.25a.14.14,0,0,0,.14.14.15.15,0,0,0,.15-.14V3.86Z"/><path d="M4.6,4.44a.33.33,0,0,1-.33-.33V3.77a.09.09,0,0,1,.09-.1h.48a.09.09,0,0,1,.1.1v.34A.34.34,0,0,1,4.6,4.44Zm-.14-.58v.25a.14.14,0,0,0,.14.14.15.15,0,0,0,.15-.14V3.86Z"/><path d="M4.54,1.47H4a.1.1,0,0,1-.1-.1A.09.09,0,0,1,4,1.28h.5a.09.09,0,0,1,.09.09A.1.1,0,0,1,4.54,1.47Z"/><path d="M3.58,1.47H3a.11.11,0,0,1-.1-.1A.1.1,0,0,1,3,1.28h.59a.09.09,0,0,1,.1.09A.1.1,0,0,1,3.58,1.47Z"/><path d="M2.54,1.47h-.6a.1.1,0,0,1-.09-.1.09.09,0,0,1,.09-.09h.6a.09.09,0,0,1,.09.09A.1.1,0,0,1,2.54,1.47Z"/><path d="M1.49,1.47H1a.1.1,0,0,1-.1-.1A.09.09,0,0,1,1,1.28h.5a.09.09,0,0,1,.09.09A.1.1,0,0,1,1.49,1.47Z"/><path d="M4.54,1.91H4a.09.09,0,0,1-.1-.1A.09.09,0,0,1,4,1.72h.5a.09.09,0,0,1,.09.09A.09.09,0,0,1,4.54,1.91Z"/><path d="M3.58,1.91H3a.1.1,0,0,1-.1-.1A.1.1,0,0,1,3,1.72h.59a.09.09,0,0,1,.1.09A.09.09,0,0,1,3.58,1.91Z"/><path d="M2.54,1.91h-.6a.09.09,0,0,1-.09-.1.09.09,0,0,1,.09-.09h.6a.09.09,0,0,1,.09.09A.09.09,0,0,1,2.54,1.91Z"/><path d="M1.49,1.91H1a.09.09,0,0,1-.1-.1A.09.09,0,0,1,1,1.72h.5a.09.09,0,0,1,.09.09A.09.09,0,0,1,1.49,1.91Z"/><path d="M5.15,4.44H.38a.09.09,0,0,1-.1-.09.09.09,0,0,1,.1-.1H5.15a.09.09,0,0,1,.09.1A.09.09,0,0,1,5.15,4.44Z"/></g></g></svg>