<svg xmlns="http://www.w3.org/2000/svg" viewBox="0 0 3.8 5.09"><g id="Layer_2" data-name="Layer 2"><g id="Layer_1-2" data-name="Layer 1"><path d="M1.35,4.55a.78.78,0,1,1,.78-.77A.78.78,0,0,1,1.35,4.55Zm0-1.35a.58.58,0,1,0,.58.58A.58.58,0,0,0,1.35,3.2Z"/><path d="M1.35,5.09H1.2A1.32,1.32,0,0,1,.05,3.91,1.28,1.28,0,0,1,.58,2.72V.77a.78.78,0,0,1,1.55,0,.1.1,0,0,1-.1.1.09.09,0,0,1-.1-.1A.58.58,0,0,0,.78.77v2a.12.12,0,0,1,0,.08,1.11,1.11,0,0,0,.48,2,1.08,1.08,0,0,0,.87-.27,1.13,1.13,0,0,0,.38-.83A1.12,1.12,0,0,0,2,2.85a.09.09,0,0,1,0-.08V2.59a.1.1,0,0,1,.1-.1.11.11,0,0,1,.1.1v.13a1.3,1.3,0,0,1,.54,1.06,1.28,1.28,0,0,1-.44,1A1.31,1.31,0,0,1,1.35,5.09Z"/><path d="M1.59,1.4a.1.1,0,0,1-.1-.1V1a.1.1,0,0,1,.1-.1.09.09,0,0,1,.1.1V1.3A.09.09,0,0,1,1.59,1.4Z"/><path d="M1.59,2.18a.11.11,0,0,1-.1-.1V1.69a.1.1,0,0,1,.1-.1.09.09,0,0,1,.1.1v.39A.1.1,0,0,1,1.59,2.18Z"/><path d="M1.59,2.83a.11.11,0,0,1-.1-.1V2.46a.11.11,0,0,1,.1-.1.1.1,0,0,1,.1.1v.27A.1.1,0,0,1,1.59,2.83Z"/><path d="M1.12,2.83a.1.1,0,0,1-.1-.1V.8a.34.34,0,0,1,.67,0V1a.1.1,0,0,1-.1.1.11.11,0,0,1-.1-.1V.8A.13.13,0,0,0,1.35.67.13.13,0,0,0,1.22.8V2.73A.11.11,0,0,1,1.12,2.83Z"/><path d="M2.38,2.33H2a.11.11,0,0,1-.1-.1.1.1,0,0,1,.1-.1h.43a.09.09,0,0,1,.1.1A.1.1,0,0,1,2.38,2.33Z"/><path d="M2.38,1.78H2a.11.11,0,0,1-.1-.1.1.1,0,0,1,.1-.1h.43a.09.09,0,0,1,.1.1A.1.1,0,0,1,2.38,1.78Z"/><path d="M2.38,1.23H2a.1.1,0,0,1-.1-.1A.11.11,0,0,1,2,1h.43a.1.1,0,0,1,.1.1A.09.09,0,0,1,2.38,1.23Z"/><path d="M2.86,2.75a.1.1,0,0,1-.1-.1V.51a.1.1,0,0,1,.1-.1.09.09,0,0,1,.1.1V2.65A.09.09,0,0,1,2.86,2.75Z"/><path d="M3.7,5.09H.1A.1.1,0,0,1,0,5a.09.09,0,0,1,.1-.1H3.7a.09.09,0,0,1,.1.1A.1.1,0,0,1,3.7,5.09Z"/></g></g></svg>