<svg xmlns="http://www.w3.org/2000/svg" viewBox="0 0 4.38 5.5"><g id="Layer_2" data-name="Layer 2"><g id="Layer_1-2" data-name="Layer 1"><path d="M3.2,5.08h-2A.48.48,0,0,1,.7,4.59V3.64a.1.1,0,0,1,.1-.1.1.1,0,0,1,.09.1v.95a.29.29,0,0,0,.29.29h2a.29.29,0,0,0,.29-.29V1.67a.29.29,0,0,0-.29-.29h-2a.29.29,0,0,0-.29.29v.22A.09.09,0,0,1,.8,2a.09.09,0,0,1-.1-.1V1.67a.48.48,0,0,1,.48-.49h2a.49.49,0,0,1,.49.49V4.59A.49.49,0,0,1,3.2,5.08Z"/><path d="M.8,2.29a.09.09,0,0,1-.1-.1v-.3a.1.1,0,0,1,.1-.1.1.1,0,0,1,.09.1v.3A.09.09,0,0,1,.8,2.29Z"/><path d="M.8,3.06A.09.09,0,0,1,.7,3V2.58a.09.09,0,0,1,.1-.1.09.09,0,0,1,.09.1V3A.09.09,0,0,1,.8,3.06Z"/><path d="M.8,3.74a.09.09,0,0,1-.1-.1v-.3a.09.09,0,0,1,.1-.09.09.09,0,0,1,.09.09v.3A.09.09,0,0,1,.8,3.74Z"/><path d="M2.73,1.38H1.65a.09.09,0,0,1-.1-.1V.49A.29.29,0,0,1,1.84.2h0A.1.1,0,0,1,2,.27.06.06,0,0,0,2,.32h.35a.05.05,0,0,0,0,0A.1.1,0,0,1,2.52.2h0a.29.29,0,0,1,.29.29v.79A.09.09,0,0,1,2.73,1.38Zm-1-.2h.88V.49a.11.11,0,0,0,0-.09.27.27,0,0,1-.21.12H2A.27.27,0,0,1,1.8.4a.11.11,0,0,0-.05.09Z"/><path d="M2.37.52H2A.26.26,0,0,1,1.76.26.26.26,0,0,1,2,0h.35a.26.26,0,0,1,.25.26A.26.26,0,0,1,2.37.52ZM2,.2A.06.06,0,0,0,2,.26.06.06,0,0,0,2,.32h.35A.06.06,0,0,0,2.43.26.06.06,0,0,0,2.37.2Z"/><path d="M3.82,5.5H.56a.1.1,0,0,1-.1-.1.11.11,0,0,1,.1-.1H3.82a.11.11,0,0,1,.1.1A.1.1,0,0,1,3.82,5.5Z"/><path d="M2.6,4.51H1.79a.5.5,0,0,1-.5-.5V2.88a.1.1,0,0,1,.1-.1H3a.1.1,0,0,1,.09.1V4A.5.5,0,0,1,2.6,4.51ZM1.49,3V4a.3.3,0,0,0,.3.3H2.6A.31.31,0,0,0,2.9,4V3Z"/><path d="M2.54,3.47h-.7a.11.11,0,0,1-.1-.1.1.1,0,0,1,.1-.1h.7a.1.1,0,0,1,.1.1A.11.11,0,0,1,2.54,3.47Z"/><path d="M2.54,4h-.7a.11.11,0,0,1-.1-.1.1.1,0,0,1,.1-.1h.7a.1.1,0,0,1,.1.1A.11.11,0,0,1,2.54,4Z"/><path d="M1.84,5.5H1.31a.1.1,0,0,1-.1-.1V5a.11.11,0,0,1,.1-.1h.53a.1.1,0,0,1,.1.1V5.4A.09.09,0,0,1,1.84,5.5Zm-.43-.2h.33V5.08H1.41Z"/><path d="M3.07,5.5H2.54a.09.09,0,0,1-.1-.1V5a.1.1,0,0,1,.1-.1h.53a.11.11,0,0,1,.1.1V5.4A.1.1,0,0,1,3.07,5.5Zm-.43-.2H3V5.08H2.64Z"/><path d="M4.28,3.37a.1.1,0,0,1-.1-.1V1.69a.1.1,0,0,1,.1-.1.09.09,0,0,1,.1.1V3.27A.09.09,0,0,1,4.28,3.37Z"/><path d="M.1,4.27a.1.1,0,0,1-.1-.1V2.58a.1.1,0,0,1,.1-.1.11.11,0,0,1,.1.1V4.17A.11.11,0,0,1,.1,4.27Z"/><path d="M3.09,3H1.3a.17.17,0,0,1-.17-.16v-.3a.3.3,0,0,1,.3-.3H3a.29.29,0,0,1,.3.3v.3A.16.16,0,0,1,3.09,3Zm-1.76-.2H3.05V2.52a.09.09,0,0,0-.1-.1H1.43a.1.1,0,0,0-.1.1Z"/><path d="M2.77,1.9H1.61a.1.1,0,0,1-.1-.1.11.11,0,0,1,.1-.1H2.77a.11.11,0,0,1,.1.1A.1.1,0,0,1,2.77,1.9Z"/></g></g></svg>