<svg xmlns="http://www.w3.org/2000/svg" viewBox="0 0 5.38 4.86"><g id="Layer_2" data-name="Layer 2"><g id="Layer_1-2" data-name="Layer 1"><path d="M2.65,2.91H.36a.36.36,0,0,1,0-.72H2.65a.36.36,0,0,1,0,.72ZM.36,2.39a.16.16,0,0,0,0,.32H2.65a.16.16,0,0,0,0-.32Z"/><path d="M2.66,2.39H.35a.09.09,0,0,1-.1-.1,1.26,1.26,0,0,1,2.51,0A.1.1,0,0,1,2.66,2.39ZM.45,2.19h2.1a1.06,1.06,0,0,0-2.1,0Z"/><path d="M1.8,1.28h0a1,1,0,0,0-.54,0,.15.15,0,0,1-.09,0,.12.12,0,0,1,0-.08V1a.4.4,0,0,1,.8,0v.22a.09.09,0,0,1,0,.08ZM1.5.76a.2.2,0,0,0-.2.2v.1a.9.9,0,0,1,.4,0V1A.2.2,0,0,0,1.5.76Z"/><path d="M4.9,3.88a.54.54,0,0,1-.54-.54V.66A.46.46,0,0,0,3.9.2H2.06A.47.47,0,0,0,1.6.66a.1.1,0,0,1-.1.1.11.11,0,0,1-.1-.1A.67.67,0,0,1,2.06,0H3.9a.66.66,0,0,1,.66.66V3.34a.35.35,0,0,0,.34.35.09.09,0,0,1,.1.1A.09.09,0,0,1,4.9,3.88Z"/><path d="M5.28,4.26a.48.48,0,1,1,0-.95.09.09,0,0,1,.1.1.1.1,0,0,1-.1.1.28.28,0,1,0,0,.55.1.1,0,0,1,.1.1A.09.09,0,0,1,5.28,4.26Z"/><path d="M.41,4.56a.09.09,0,0,1-.1-.1V3.2a.1.1,0,0,1,.1-.1.11.11,0,0,1,.1.1V4.46A.1.1,0,0,1,.41,4.56Z"/><path d="M1,4.72a.1.1,0,0,1-.1-.1V3.2A.1.1,0,0,1,1,3.1a.11.11,0,0,1,.1.1V4.62A.11.11,0,0,1,1,4.72Z"/><path d="M1.5,4.56a.1.1,0,0,1-.1-.1V3.2a.11.11,0,0,1,.1-.1.1.1,0,0,1,.1.1V4.46A.09.09,0,0,1,1.5,4.56Z"/><path d="M2.05,4.36a.09.09,0,0,1-.1-.1V3.2a.1.1,0,0,1,.1-.1.11.11,0,0,1,.1.1V4.26A.1.1,0,0,1,2.05,4.36Z"/><path d="M2.59,4.86a.11.11,0,0,1-.1-.1V3.2a.11.11,0,0,1,.1-.1.1.1,0,0,1,.1.1V4.76A.1.1,0,0,1,2.59,4.86Z"/><path d="M5.28,4.67a.11.11,0,0,1-.1-.1V2.07a.1.1,0,0,1,.1-.1.09.09,0,0,1,.1.1v2.5A.1.1,0,0,1,5.28,4.67Z"/></g></g></svg>