<svg xmlns="http://www.w3.org/2000/svg" viewBox="0 0 5.03 5.18"><g id="Layer_2" data-name="Layer 2"><g id="Layer_1-2" data-name="Layer 1"><path d="M3,4.15H.43A.44.44,0,0,1,0,3.71V.43A.43.43,0,0,1,.43,0H3a.44.44,0,0,1,.44.43V3.71A.44.44,0,0,1,3,4.15ZM.43.2A.23.23,0,0,0,.2.43V3.71A.23.23,0,0,0,.43,4H3a.24.24,0,0,0,.24-.24V.43A.23.23,0,0,0,3,.2Z"/><path d="M4.73,3.86H4a.29.29,0,0,1-.29-.3v-.5a.26.26,0,0,1,.15-.24V1.33a.26.26,0,0,1-.15-.24V.58A.3.3,0,0,1,4,.28h.78a.3.3,0,0,1,.3.3v.51a.27.27,0,0,1-.16.24V2.82A.27.27,0,0,1,5,3.06v.5A.29.29,0,0,1,4.73,3.86ZM4,.48a.11.11,0,0,0-.1.1v.51a.06.06,0,0,0,.06.06.09.09,0,0,1,.1.1V2.9a.1.1,0,0,1-.1.1.06.06,0,0,0-.06.06v.5a.1.1,0,0,0,.1.1h.78a.09.09,0,0,0,.1-.1v-.5A.06.06,0,0,0,4.77,3a.11.11,0,0,1-.1-.1V1.25a.1.1,0,0,1,.1-.1.06.06,0,0,0,.06-.06V.58a.1.1,0,0,0-.1-.1Z"/><path d="M4.44,1.35H3.91a.11.11,0,0,1-.1-.1.1.1,0,0,1,.1-.1h.53a.1.1,0,0,1,.1.1A.11.11,0,0,1,4.44,1.35Z"/><path d="M4.77,3H4.3a.1.1,0,0,1-.1-.1.09.09,0,0,1,.1-.1h.47a.09.09,0,0,1,.1.1A.1.1,0,0,1,4.77,3Z"/><path d="M2.77,1.35H2.12a.23.23,0,0,1-.23-.23V.69A.23.23,0,0,1,2.12.46h.65A.23.23,0,0,1,3,.69v.43A.24.24,0,0,1,2.77,1.35ZM2.12.66s0,0,0,0v.43a0,0,0,0,0,0,0h.65a0,0,0,0,0,0,0V.69s0,0,0,0Z"/><path d="M2.77,3.69H2.12a.23.23,0,0,1-.23-.23V3a.23.23,0,0,1,.23-.23h.65A.23.23,0,0,1,3,3v.43A.24.24,0,0,1,2.77,3.69ZM2.12,3s0,0,0,0v.43a0,0,0,0,0,0,0h.65a0,0,0,0,0,0,0V3s0,0,0,0Z"/><path d="M.72,3.29H.58a.1.1,0,0,1-.1-.1.09.09,0,0,1,.1-.1H.72a.09.09,0,0,1,.1.1A.1.1,0,0,1,.72,3.29Z"/><path d="M1.14,3.29H1a.11.11,0,0,1-.1-.1.1.1,0,0,1,.1-.1h.15a.1.1,0,0,1,.1.1A.11.11,0,0,1,1.14,3.29Z"/><path d="M1.55,3.29H1.4a.1.1,0,0,1-.09-.1.09.09,0,0,1,.09-.1h.15a.09.09,0,0,1,.1.1A.1.1,0,0,1,1.55,3.29Z"/><path d="M.72,2.8H.58a.09.09,0,0,1-.1-.1.1.1,0,0,1,.1-.1H.72a.1.1,0,0,1,.1.1A.09.09,0,0,1,.72,2.8Z"/><path d="M1.14,2.8H1a.1.1,0,0,1-.1-.1A.11.11,0,0,1,1,2.6h.15a.11.11,0,0,1,.1.1A.1.1,0,0,1,1.14,2.8Z"/><path d="M1.55,2.8H1.4a.09.09,0,0,1-.09-.1.1.1,0,0,1,.09-.1h.15a.1.1,0,0,1,.1.1A.09.09,0,0,1,1.55,2.8Z"/><path d="M.72,2.31H.58a.09.09,0,0,1-.1-.1.1.1,0,0,1,.1-.1H.72a.1.1,0,0,1,.1.1A.09.09,0,0,1,.72,2.31Z"/><path d="M1.14,2.31H1a.1.1,0,0,1-.1-.1.11.11,0,0,1,.1-.1h.15a.11.11,0,0,1,.1.1A.1.1,0,0,1,1.14,2.31Z"/><path d="M1.55,2.31H1.4a.09.09,0,0,1-.09-.1.1.1,0,0,1,.09-.1h.15a.1.1,0,0,1,.1.1A.09.09,0,0,1,1.55,2.31Z"/><path d="M1.48,1.29H.59a.18.18,0,0,1-.17-.17V.86A.18.18,0,0,1,.59.69h.89a.17.17,0,0,1,.17.17v.26A.17.17,0,0,1,1.48,1.29Zm-.86-.2h.83V.89H.62Z"/><path d="M1.33,4.59A.49.49,0,0,1,.84,4.1v0A.09.09,0,0,1,.94,4h.78a.1.1,0,0,1,.1.1v0A.49.49,0,0,1,1.33,4.59ZM1,4.15a.28.28,0,0,0,.29.24.3.3,0,0,0,.29-.24Z"/><path d="M4.08,5.18H1.59a.36.36,0,0,1-.36-.37V4.49a.1.1,0,0,1,.1-.1.11.11,0,0,1,.1.1v.32A.16.16,0,0,0,1.59,5H4.08a.16.16,0,0,0,.16-.17v-1a.11.11,0,0,1,.1-.1.1.1,0,0,1,.1.1v1A.36.36,0,0,1,4.08,5.18Z"/><path d="M2.18,2.58a.1.1,0,0,1-.1-.1V1.67a.1.1,0,0,1,.1-.1.09.09,0,0,1,.1.1v.81A.09.09,0,0,1,2.18,2.58Z"/><path d="M2.71,2.58a.09.09,0,0,1-.1-.1V1.67a.09.09,0,0,1,.1-.1.1.1,0,0,1,.1.1v.81A.1.1,0,0,1,2.71,2.58Z"/></g></g></svg>