<svg xmlns="http://www.w3.org/2000/svg" viewBox="0 0 5.3 5.3"><g id="Layer_2" data-name="Layer 2"><g id="Layer_1-2" data-name="Layer 1"><path d="M4.35,1.86l-.07,0a.11.11,0,0,1,0-.15l.57-.56a.48.48,0,0,0,0-.68.48.48,0,0,0-.68,0L3.6,1A.1.1,0,0,1,3.46.87L4,.31a.68.68,0,0,1,1,0,.68.68,0,0,1,0,1l-.57.57Z"/><path d="M2.58,5.11h0s-.05,0-.07-.05L1.66,3.64.24,2.81a.1.1,0,0,1,0-.08.07.07,0,0,1,0-.08L.46,2.4A.47.47,0,0,1,1,2.31l.7.33.84-.85a.11.11,0,0,1,.15,0,.12.12,0,0,1,0,.14l-.9.9a.09.09,0,0,1-.11,0L.91,2.49a.26.26,0,0,0-.3,0L.45,2.7l1.33.78,0,0L2.6,4.85l.16-.16a.27.27,0,0,0,.05-.31l-.36-.76a.09.09,0,0,1,0-.11l.9-.9a.1.1,0,1,1,.14.14l-.85.85L3,4.3a.47.47,0,0,1-.09.53l-.25.25A.11.11,0,0,1,2.58,5.11Z"/><path d="M3,1.76l0,0L1.09.52a.1.1,0,0,1,0-.07.1.1,0,0,1,0-.09L1.25.19A.63.63,0,0,1,2,.07L3.72.93a.1.1,0,0,1,0,.13.1.1,0,0,1-.14,0L1.89.24a.45.45,0,0,0-.5.09L1.3.42,3.09,1.57a.1.1,0,0,1,0,.14A.11.11,0,0,1,3,1.76Z"/><path d="M4.86,4.25h0a.08.08,0,0,1-.07,0L3.55,2.32a.11.11,0,0,1,0-.14.1.1,0,0,1,.14,0L4.88,4,5,3.9a.44.44,0,0,0,.08-.5L4.19,1.66a.1.1,0,1,1,.18-.08l.86,1.74A.62.62,0,0,1,5.11,4l-.18.18A.09.09,0,0,1,4.86,4.25Z"/><path d="M4.86,1.36h0a1.21,1.21,0,0,1-.9-.9A.1.1,0,0,1,4,.34a.11.11,0,0,1,.12.07,1,1,0,0,0,.74.75A.1.1,0,0,1,5,1.28.11.11,0,0,1,4.86,1.36Z"/><path d="M3.75,1.64a.11.11,0,0,1-.07,0,.12.12,0,0,1,0-.14l.18-.18a.12.12,0,0,1,.14,0,.11.11,0,0,1,0,.15l-.17.17A.11.11,0,0,1,3.75,1.64Z"/><path d="M3.26,2.14a.11.11,0,0,1-.07,0,.1.1,0,0,1,0-.14l.18-.18a.1.1,0,1,1,.14.14l-.18.18A.09.09,0,0,1,3.26,2.14Z"/><path d="M2.77,2.63a.09.09,0,0,1-.07,0,.1.1,0,0,1,0-.14l.17-.18A.1.1,0,1,1,3,2.42l-.17.18A.11.11,0,0,1,2.77,2.63Z"/><path d="M2.27,3.12a.11.11,0,0,1-.07,0A.1.1,0,0,1,2.2,3l.18-.17a.1.1,0,1,1,.14.14l-.18.17A.09.09,0,0,1,2.27,3.12Z"/><path d="M1.33,1.9a.11.11,0,0,1-.07,0,.1.1,0,0,1,0-.14l.46-.46a.1.1,0,1,1,.14.14l-.46.46A.08.08,0,0,1,1.33,1.9Z"/><path d="M.1,2.17a.09.09,0,0,1-.07,0A.1.1,0,0,1,0,2L1.15.89A.1.1,0,1,1,1.29,1L.17,2.14A.09.09,0,0,1,.1,2.17Z"/><path d="M3.49,4.06a.11.11,0,0,1-.07,0,.1.1,0,0,1,0-.14l.46-.46A.1.1,0,0,1,4,3.57L3.56,4A.08.08,0,0,1,3.49,4.06Z"/><path d="M3.22,5.3a.11.11,0,0,1-.07,0,.1.1,0,0,1,0-.14L4.27,4a.1.1,0,0,1,.14.14L3.29,5.27A.09.09,0,0,1,3.22,5.3Z"/></g></g></svg>