<svg xmlns="http://www.w3.org/2000/svg" viewBox="0 0 3.61 5.1"><g id="Layer_2" data-name="Layer 2"><g id="Layer_1-2" data-name="Layer 1"><path d="M2.68,5.1a1,1,0,0,1-.79-.36A6.51,6.51,0,0,0,1.2,4a4.26,4.26,0,0,1-1-1.28,2.51,2.51,0,0,1,.13-2A1.52,1.52,0,0,1,1.5,0a1.21,1.21,0,0,1,1,.33A2.34,2.34,0,0,1,3.09,2v.23c0,.08,0,.15,0,.19a1.14,1.14,0,0,0,.15.67A6.32,6.32,0,0,1,3.57,4a.78.78,0,0,1-.41,1A1,1,0,0,1,2.68,5.1ZM1.64.19H1.52A1.34,1.34,0,0,0,.45.83,2.3,2.3,0,0,0,.33,2.68a4,4,0,0,0,1,1.21A6.92,6.92,0,0,1,2,4.62a.85.85,0,0,0,1,.2.59.59,0,0,0,.3-.75,5,5,0,0,0-.33-.91,1.33,1.33,0,0,1-.16-.77s0-.09,0-.17V2A2.13,2.13,0,0,0,2.36.48,1,1,0,0,0,1.64.19Z"/><path d="M1.37,3.36l-.05,0a1.63,1.63,0,0,1-.68-2A1,1,0,0,1,1.77.57a.65.65,0,0,1,.47.34,1.44,1.44,0,0,1-.06,1A.08.08,0,0,1,2.06,2,.09.09,0,0,1,2,1.88,1.33,1.33,0,0,0,2.07,1,.51.51,0,0,0,1.73.75a.87.87,0,0,0-.91.63,1.45,1.45,0,0,0,.6,1.8.09.09,0,0,1,0,.13A.1.1,0,0,1,1.37,3.36Z"/><path d="M1.44,2.87a.09.09,0,0,1-.07,0,1.2,1.2,0,0,1-.11-1.4.64.64,0,0,1,.57-.27.1.1,0,0,1,0,.19.44.44,0,0,0-.4.19A1,1,0,0,0,1.51,2.7a.12.12,0,0,1,0,.14A.11.11,0,0,1,1.44,2.87Z"/><path d="M2.65,3.88h0a.09.09,0,0,1-.06-.12.62.62,0,0,0,0-.46,1.11,1.11,0,0,1-.11-.59.37.37,0,0,0-.2-.39.09.09,0,0,1,0-.13.09.09,0,0,1,.12,0,.56.56,0,0,1,.31.58,1,1,0,0,0,.09.49.74.74,0,0,1,0,.6A.1.1,0,0,1,2.65,3.88Z"/><path d="M1.74,3.67a.39.39,0,0,1-.3-.13.62.62,0,0,1-.11-.77.39.39,0,0,1,.31-.22A.42.42,0,0,1,2,2.67.59.59,0,0,1,2.18,3a.63.63,0,0,1-.07.41.44.44,0,0,1-.31.22Zm-.05-.94h0a.24.24,0,0,0-.17.13.46.46,0,0,0-.05.29.38.38,0,0,0,.13.25.24.24,0,0,0,.2.08A.28.28,0,0,0,2,3.35a.44.44,0,0,0,0-.28.38.38,0,0,0-.12-.26A.27.27,0,0,0,1.69,2.73Z"/><path d="M2.52,2.74H1.67a.09.09,0,0,1-.09-.09.1.1,0,0,1,.09-.1h.85a.09.09,0,0,1,.09.09A.1.1,0,0,1,2.52,2.74Z"/><path d="M1.78,3.67a.11.11,0,0,1-.09-.08.09.09,0,0,1,.08-.11l.9-.12a.08.08,0,0,1,.1.08.1.1,0,0,1-.08.11l-.89.12Z"/><path d="M2.68,4.69a.7.7,0,0,1-.55-.35.1.1,0,0,1,0-.13.1.1,0,0,1,.13,0s.17.26.41.24A.29.29,0,0,0,3,4.36a.22.22,0,0,0,0-.21A.09.09,0,0,1,3,4a.1.1,0,0,1,.13,0,.4.4,0,0,1,0,.38.48.48,0,0,1-.4.22Z"/></g></g></svg>