<svg xmlns="http://www.w3.org/2000/svg" viewBox="0 0 5.44 4.67"><g id="Layer_2" data-name="Layer 2"><g id="Layer_1-2" data-name="Layer 1"><path d="M1.79,4.67H.29a.1.1,0,0,1-.09-.1V.62A.1.1,0,0,1,.29.52h2A.11.11,0,0,1,2.34.6a2,2,0,0,1-.66,1.82.82.82,0,0,1-.5.17H.76a.09.09,0,0,1-.09-.1A.09.09,0,0,1,.76,2.4h.42a.65.65,0,0,0,.38-.13A1.84,1.84,0,0,0,2.16.71H.39V2.86a1.51,1.51,0,0,1,1.47,1.4c0,.12,0,.22,0,.31a.19.19,0,0,1,0,.07A.11.11,0,0,1,1.79,4.67ZM.39,4.48h1.3c0-.06,0-.13,0-.21A1.31,1.31,0,0,0,.39,3.05Z"/><path d="M1.4,3.52a.09.09,0,0,1-.09-.1v-1a.1.1,0,0,1,.09-.1.11.11,0,0,1,.1.1v1A.1.1,0,0,1,1.4,3.52Z"/><path d="M5.19.71H.25A.25.25,0,0,1,0,.46V.25A.25.25,0,0,1,.25,0H5.19a.25.25,0,0,1,.25.25V.46A.25.25,0,0,1,5.19.71ZM.25.19A.06.06,0,0,0,.19.25V.46A.06.06,0,0,0,.25.52H5.19A.06.06,0,0,0,5.25.46V.25A.06.06,0,0,0,5.19.19Z"/><path d="M5.15,4.67H3.65a.11.11,0,0,1-.07,0,.19.19,0,0,1,0-.07c0-.09,0-.19,0-.31a1.51,1.51,0,0,1,1.47-1.4V.71H3.28a1.83,1.83,0,0,0,.6,1.56.65.65,0,0,0,.38.13h.42a.09.09,0,0,1,.09.09.09.09,0,0,1-.09.1H4.26a.82.82,0,0,1-.5-.17A2,2,0,0,1,3.1.6.11.11,0,0,1,3.19.52h2a.1.1,0,0,1,.09.1v4A.1.1,0,0,1,5.15,4.67Zm-1.4-.19h1.3V3.05A1.31,1.31,0,0,0,3.77,4.27C3.76,4.35,3.76,4.42,3.75,4.48Z"/><path d="M4,3.52a.1.1,0,0,1-.1-.1v-1a.11.11,0,0,1,.1-.1.1.1,0,0,1,.09.1v1A.09.09,0,0,1,4,3.52Z"/></g></g></svg>