<svg xmlns="http://www.w3.org/2000/svg" viewBox="0 0 4.7 5.17"><g id="Layer_2" data-name="Layer 2"><g id="Layer_1-2" data-name="Layer 1"><path d="M4.09,5.17H.61a.23.23,0,0,1-.23-.24V.23A.23.23,0,0,1,.61,0H4.09a.23.23,0,0,1,.23.23v4.7A.23.23,0,0,1,4.09,5.17ZM.61.2a0,0,0,0,0,0,0v4.7s0,0,0,0H4.09s0,0,0,0V.23a0,0,0,0,0,0,0Z"/><path d="M2.35,4.34A1.63,1.63,0,1,1,4,2.71,1.64,1.64,0,0,1,2.35,4.34Zm0-3.06A1.43,1.43,0,1,0,3.78,2.71,1.43,1.43,0,0,0,2.35,1.28Z"/><path d="M2.35,4A1.25,1.25,0,1,1,3.6,2.71,1.25,1.25,0,0,1,2.35,4Zm0-2.3a1.05,1.05,0,1,0,1,1.05A1,1,0,0,0,2.35,1.66Z"/><path d="M4.22.89H.48a.1.1,0,0,1-.1-.1.11.11,0,0,1,.1-.1H4.22a.1.1,0,0,1,.1.1A.09.09,0,0,1,4.22.89Z"/><path d="M4.22,4.69H.48a.11.11,0,0,1-.1-.1.1.1,0,0,1,.1-.1H4.22a.09.09,0,0,1,.1.1A.1.1,0,0,1,4.22,4.69Z"/><path d="M2,2.59a.36.36,0,0,1-.36-.36A.37.37,0,0,1,2,1.86a.38.38,0,0,1,.37.37A.37.37,0,0,1,2,2.59Zm0-.53a.17.17,0,0,0-.16.17A.16.16,0,0,0,2,2.39a.17.17,0,0,0,.17-.16A.18.18,0,0,0,2,2.06Z"/><path d="M2.85,2.87a.29.29,0,1,1,.29-.29A.29.29,0,0,1,2.85,2.87Zm0-.37a.09.09,0,0,0-.09.08.09.09,0,0,0,.18,0A.09.09,0,0,0,2.85,2.5Z"/><path d="M2,3.37a.25.25,0,0,1-.25-.25A.26.26,0,0,1,2,2.86a.26.26,0,0,1,.26.26A.26.26,0,0,1,2,3.37Zm0-.31A.06.06,0,0,0,2,3.12a0,0,0,0,0,.05,0,.06.06,0,0,0,.06,0A.06.06,0,0,0,2,3.06Z"/><path d="M2.56,3.94h0A.36.36,0,1,1,3,3.6a.41.41,0,0,1,0,.18l0,0a2.06,2.06,0,0,1-.35.12Zm.1-.5a.16.16,0,0,0-.16.16.16.16,0,0,0,.07.13.75.75,0,0,0,.24-.08.43.43,0,0,0,0,0A.16.16,0,0,0,2.66,3.44Z"/><path d="M3.2.89H1.5a.09.09,0,0,1-.1-.1V.1A.09.09,0,0,1,1.5,0H3.2a.09.09,0,0,1,.1.1V.79A.09.09,0,0,1,3.2.89ZM1.6.69H3.1V.2H1.6Z"/><path d="M1.11.45A.13.13,0,0,1,1,.58.13.13,0,0,1,.84.45.14.14,0,0,1,1,.31.13.13,0,0,1,1.11.45Z"/><path d="M3.59.45a.13.13,0,0,0,.14.13A.13.13,0,0,0,3.86.45.13.13,0,0,0,3.73.31.14.14,0,0,0,3.59.45Z"/><path d="M2.84.55h-1a.1.1,0,0,1-.1-.1.09.09,0,0,1,.1-.1h1a.09.09,0,0,1,.1.1A.1.1,0,0,1,2.84.55Z"/><path d="M4.6,5.17H.1a.1.1,0,0,1-.1-.1A.09.09,0,0,1,.1,5H4.6a.09.09,0,0,1,.1.1A.1.1,0,0,1,4.6,5.17Z"/></g></g></svg>