<svg xmlns="http://www.w3.org/2000/svg" viewBox="0 0 4.31 5.22"><g id="Layer_2" data-name="Layer 2"><g id="Layer_1-2" data-name="Layer 1"><path d="M3.86,5.22H.45A.45.45,0,0,1,0,4.77V.45A.45.45,0,0,1,.45,0H3.86a.45.45,0,0,1,.45.45V4.77A.45.45,0,0,1,3.86,5.22ZM.45.2A.25.25,0,0,0,.2.45V4.77A.25.25,0,0,0,.45,5H3.86a.25.25,0,0,0,.25-.25V.45A.25.25,0,0,0,3.86.2Z"/><path d="M3.66,4.7h-3a.09.09,0,0,1-.1-.1v-4a.09.09,0,0,1,.1-.1h3a.1.1,0,0,1,.1.1v4A.1.1,0,0,1,3.66,4.7ZM.76,4.5h2.8V.72H.76Z"/><path d="M2.16,3.1a.49.49,0,1,1,.48-.49A.49.49,0,0,1,2.16,3.1Zm0-.77a.29.29,0,1,0,.28.28A.29.29,0,0,0,2.16,2.33Z"/><path d="M1.39,2.26l0,0a.09.09,0,0,1,0-.13,1,1,0,0,1,.86-.49.11.11,0,0,1,.1.1.1.1,0,0,1-.1.1.82.82,0,0,0-.69.39A.1.1,0,0,1,1.39,2.26Z"/><path d="M1.07,1.87,1,1.85a.09.09,0,0,1,0-.14,1.48,1.48,0,0,1,1.17-.57.1.1,0,0,1,.1.1.11.11,0,0,1-.1.1,1.27,1.27,0,0,0-1,.49A.09.09,0,0,1,1.07,1.87Z"/><path d="M2.92,2.26a.1.1,0,0,1-.08,0,.8.8,0,0,0-.68-.39.09.09,0,0,1-.1-.1.1.1,0,0,1,.1-.1A1,1,0,0,1,3,2.11a.09.09,0,0,1,0,.13Z"/><path d="M3.24,1.87a.09.09,0,0,1-.07,0,1.3,1.3,0,0,0-1-.49.1.1,0,0,1-.1-.1.09.09,0,0,1,.1-.1,1.46,1.46,0,0,1,1.16.57.1.1,0,0,1,0,.14Z"/><path d="M3.08,3.61H1.23a.1.1,0,0,1-.1-.09.1.1,0,0,1,.1-.1H3.08a.09.09,0,0,1,.1.1A.09.09,0,0,1,3.08,3.61Z"/><path d="M3.08,4.13H1.23a.1.1,0,0,1-.1-.1.11.11,0,0,1,.1-.1H3.08a.1.1,0,0,1,.1.1A.09.09,0,0,1,3.08,4.13Z"/></g></g></svg>