<svg xmlns="http://www.w3.org/2000/svg" viewBox="0 0 5.37 5"><g id="Layer_2" data-name="Layer 2"><g id="Layer_1-2" data-name="Layer 1"><path d="M.86,3C.59,3,.28,2.73.11,2.3S0,1.31.28,1.19s.69.18.89.68a1.36,1.36,0,0,1,.1.67A.48.48,0,0,1,1,3,.35.35,0,0,1,.86,3ZM.42,1.36H.36c-.17.07-.23.43-.06.85s.46.64.62.58a.34.34,0,0,0,.16-.28A1.21,1.21,0,0,0,1,2C.84,1.58.59,1.36.42,1.36Z"/><path d="M2,2a.6.6,0,0,1-.42-.22,1.56,1.56,0,0,1-.33-.64,1.46,1.46,0,0,1,0-.72A.52.52,0,0,1,1.63,0a.52.52,0,0,1,.51.21,1.35,1.35,0,0,1,.33.64,1.46,1.46,0,0,1,0,.72A.54.54,0,0,1,2.11,2ZM1.72.2H1.67c-.09,0-.17.12-.22.27a1.19,1.19,0,0,0,0,.62,1.15,1.15,0,0,0,.28.55c.11.12.22.18.32.15s.18-.12.22-.28a1.19,1.19,0,0,0,0-.62A1.29,1.29,0,0,0,2,.35.41.41,0,0,0,1.72.2Z"/><path d="M1.66,5A.89.89,0,0,1,1,4.74a.91.91,0,0,1-.19-.8,1,1,0,0,1,.51-.62,1.52,1.52,0,0,0,.62-.62c.31-.6.71-.61.77-.61s.47,0,.78.61a1.52,1.52,0,0,0,.62.62,1,1,0,0,1,.51.62.91.91,0,0,1-.19.8A1,1,0,0,1,3.49,5,5.43,5.43,0,0,0,1.88,5Zm1-.28a6.35,6.35,0,0,1,.83.06.8.8,0,0,0,.75-.18A.71.71,0,0,0,4.39,4c0-.25-.2-.35-.42-.49a1.69,1.69,0,0,1-.68-.7c-.27-.51-.59-.5-.6-.5h0s-.33,0-.6.5a1.75,1.75,0,0,1-.68.7C1.18,3.63,1,3.73,1,4a.68.68,0,0,0,.13.62.8.8,0,0,0,.75.18A6.33,6.33,0,0,1,2.68,4.72Z"/><path d="M3.5,4.36h0a5.43,5.43,0,0,0-1.61,0,.12.12,0,0,1-.11-.09.1.1,0,0,1,.09-.11,5.7,5.7,0,0,1,1.65,0,.1.1,0,0,1,.09.11A.11.11,0,0,1,3.5,4.36Z"/><path d="M4.51,3a.32.32,0,0,1-.14,0,.5.5,0,0,1-.28-.44,1.5,1.5,0,0,1,.11-.67c.2-.5.59-.8.89-.68s.37.6.17,1.11S4.78,3,4.51,3ZM4.38,2a1.33,1.33,0,0,0-.09.57c0,.14.07.25.15.28s.46-.16.63-.58.1-.78-.06-.85-.46.16-.63.58Z"/><path d="M3.36,2h-.1a.54.54,0,0,1-.36-.42,1.46,1.46,0,0,1,0-.72C3,.3,3.4-.07,3.74,0s.5.58.36,1.14a1.43,1.43,0,0,1-.32.64A.6.6,0,0,1,3.36,2ZM3.09.9a1.29,1.29,0,0,0,0,.62c0,.16.12.26.22.28s.21,0,.32-.15a1.15,1.15,0,0,0,.28-.55C4,.62,3.89.25,3.7.21S3.21.43,3.09.9Z"/></g></g></svg>