<svg xmlns="http://www.w3.org/2000/svg" viewBox="0 0 5.25 5.41"><g id="Layer_2" data-name="Layer 2"><g id="Layer_1-2" data-name="Layer 1"><path d="M4.21,5.41H1.07a.1.1,0,0,1-.1-.1v-4a.09.09,0,0,1,.1-.1.1.1,0,0,1,.1.1V5.21H4.11V1.34a.1.1,0,0,1,.1-.1.09.09,0,0,1,.1.1v4A.1.1,0,0,1,4.21,5.41Z"/><path d="M3.63.2h-2a.1.1,0,0,1-.1-.1.09.09,0,0,1,.1-.1h2a.09.09,0,0,1,.1.1A.1.1,0,0,1,3.63.2Z"/><path d="M5.06,5.41H4.21a.11.11,0,0,1-.1-.1V1.49a.1.1,0,0,1,.1-.1h.85a.09.09,0,0,1,.09.1V5.31A.1.1,0,0,1,5.06,5.41Zm-.75-.2H5V1.59H4.31Z"/><path d="M1.07,5.41H.23a.1.1,0,0,1-.1-.1V1.49a.09.09,0,0,1,.1-.1h.84a.1.1,0,0,1,.1.1V5.31A.11.11,0,0,1,1.07,5.41Zm-.74-.2H1V1.59H.33Z"/><path d="M2.91,1.44a.13.13,0,0,1-.1,0l-.17-.12-.17.12a.15.15,0,0,1-.2,0,.17.17,0,0,1-.06-.18L2.28,1,2.11.89A.16.16,0,0,1,2.05.71.16.16,0,0,1,2.21.59h.21l.06-.2a.17.17,0,0,1,.32,0l.06.2h.21a.16.16,0,0,1,.16.12.14.14,0,0,1-.06.18L3,1l.07.2A.16.16,0,0,1,3,1.4.14.14,0,0,1,2.91,1.44Zm-.27-.37a.19.19,0,0,1,.1,0l.11.08L2.8,1.06A.18.18,0,0,1,2.87.87L3,.79H2.84A.16.16,0,0,1,2.68.68l0-.13,0,.13a.16.16,0,0,1-.16.11H2.31l.11.08a.19.19,0,0,1,.06.19l0,.12.1-.08A.19.19,0,0,1,2.64,1.07Z"/><path d="M4.4,1.16a.19.19,0,0,1-.1,0L4.13,1,4,1.13a.17.17,0,0,1-.19,0A.16.16,0,0,1,3.71.94l.06-.2L3.6.62A.18.18,0,0,1,3.54.43.16.16,0,0,1,3.7.32h.21L4,.11A.19.19,0,0,1,4.13,0a.17.17,0,0,1,.16.11l.07.21h.21a.17.17,0,0,1,.16.11.18.18,0,0,1-.07.19L4.49.74l.07.2a.18.18,0,0,1-.06.19A.17.17,0,0,1,4.4,1.16ZM3.8.52l.11.07A.18.18,0,0,1,4,.78l0,.13L4,.83a.15.15,0,0,1,.2,0l.11.08,0-.13A.16.16,0,0,1,4.36.59l.1-.07H4.33A.18.18,0,0,1,4.17.4l0-.13,0,.13a.16.16,0,0,1-.16.12Z"/><path d="M1.42,1.16a.17.17,0,0,1-.1,0L1.15,1,1,1.13a.18.18,0,0,1-.2,0A.18.18,0,0,1,.72.94L.79.74.62.62A.16.16,0,0,1,.56.43.15.15,0,0,1,.71.32H.93L1,.11A.18.18,0,0,1,1.15,0a.19.19,0,0,1,.16.11l.06.21h.21a.15.15,0,0,1,.16.11.18.18,0,0,1-.06.19L1.51.74l.07.2a.18.18,0,0,1-.07.19A.14.14,0,0,1,1.42,1.16ZM1.15.8a.19.19,0,0,1,.1,0l.1.08,0-.13A.18.18,0,0,1,1.37.59L1.48.52H1.35A.17.17,0,0,1,1.19.4l0-.13,0,.13A.17.17,0,0,1,1,.52H.82l.1.07A.16.16,0,0,1,1,.78l0,.13L1.05.83A.17.17,0,0,1,1.15.8Z"/><path d="M4.21,1.86H1.07a.09.09,0,0,1-.1-.1.1.1,0,0,1,.1-.1H4.21a.1.1,0,0,1,.1.1A.09.09,0,0,1,4.21,1.86Z"/><path d="M2.2,2.37H1.65a.09.09,0,0,1-.1-.1.1.1,0,0,1,.1-.1H2.2a.1.1,0,0,1,.1.1A.09.09,0,0,1,2.2,2.37Z"/><path d="M2.2,3H1.65a.09.09,0,0,1-.1-.1.1.1,0,0,1,.1-.1H2.2a.1.1,0,0,1,.1.1A.09.09,0,0,1,2.2,3Z"/><path d="M2.2,3.53H1.65a.1.1,0,0,1-.1-.1.09.09,0,0,1,.1-.1H2.2a.09.09,0,0,1,.1.1A.1.1,0,0,1,2.2,3.53Z"/><path d="M1.77,4.06H1.65a.1.1,0,0,1-.1-.1.09.09,0,0,1,.1-.1h.12a.09.09,0,0,1,.1.1A.1.1,0,0,1,1.77,4.06Z"/><path d="M1.77,4.59H1.65a.09.09,0,0,1-.1-.1.1.1,0,0,1,.1-.1h.12a.1.1,0,0,1,.1.1A.09.09,0,0,1,1.77,4.59Z"/><path d="M4.21,5.41H1.07a.1.1,0,0,1-.1-.1v-4a.09.09,0,0,1,.1-.1.1.1,0,0,1,.1.1V5.21H4.11V1.34a.1.1,0,0,1,.1-.1.09.09,0,0,1,.1.1v4A.1.1,0,0,1,4.21,5.41Z"/><path d="M3.63,4.06H3.51a.11.11,0,0,1-.1-.1.1.1,0,0,1,.1-.1h.12a.09.09,0,0,1,.1.1A.1.1,0,0,1,3.63,4.06Z"/><path d="M3.63,4.59H3.51a.1.1,0,0,1-.1-.1.11.11,0,0,1,.1-.1h.12a.1.1,0,0,1,.1.1A.09.09,0,0,1,3.63,4.59Z"/><path d="M3.63,2.37H3.08a.09.09,0,0,1-.1-.1.1.1,0,0,1,.1-.1h.55a.1.1,0,0,1,.1.1A.09.09,0,0,1,3.63,2.37Z"/><path d="M3.63,3H3.08a.09.09,0,0,1-.1-.1.1.1,0,0,1,.1-.1h.55a.1.1,0,0,1,.1.1A.09.09,0,0,1,3.63,3Z"/><path d="M3.63,3.53H3.08a.1.1,0,0,1-.1-.1.09.09,0,0,1,.1-.1h.55a.09.09,0,0,1,.1.1A.1.1,0,0,1,3.63,3.53Z"/><path d="M3.18,5.41H2.1a.11.11,0,0,1-.1-.1V4.36a.64.64,0,0,1,1.28,0v.95A.11.11,0,0,1,3.18,5.41Zm-1-.2h.88V4.36a.44.44,0,0,0-.88,0Z"/><path d="M2.64,4.66a.1.1,0,0,1-.1-.1V3.82a.11.11,0,0,1,.1-.1.1.1,0,0,1,.1.1v.74A.09.09,0,0,1,2.64,4.66Z"/><path d="M2.64,5.41a.11.11,0,0,1-.1-.1V5a.1.1,0,0,1,.1-.1.09.09,0,0,1,.1.1v.28A.1.1,0,0,1,2.64,5.41Z"/><path d="M.65,2.19H.23a.1.1,0,0,1-.1-.1A.09.09,0,0,1,.23,2H.65a.1.1,0,0,1,.1.1A.11.11,0,0,1,.65,2.19Z"/><path d="M.65,2.82H.23a.09.09,0,0,1-.1-.1.1.1,0,0,1,.1-.1H.65a.11.11,0,0,1,.1.1A.1.1,0,0,1,.65,2.82Z"/><path d="M.65,3.46H.23a.1.1,0,0,1-.1-.1.09.09,0,0,1,.1-.1H.65a.1.1,0,0,1,.1.1A.11.11,0,0,1,.65,3.46Z"/><path d="M.65,4.09H.23A.09.09,0,0,1,.13,4a.1.1,0,0,1,.1-.1H.65a.11.11,0,0,1,.1.1A.1.1,0,0,1,.65,4.09Z"/><path d="M.65,4.73H.23a.09.09,0,0,1-.1-.1.1.1,0,0,1,.1-.1H.65a.11.11,0,0,1,.1.1A.1.1,0,0,1,.65,4.73Z"/><path d="M5.06,2.19H4.63a.11.11,0,0,1-.1-.1.1.1,0,0,1,.1-.1h.43a.09.09,0,0,1,.09.1A.1.1,0,0,1,5.06,2.19Z"/><path d="M5.06,2.82H4.63a.1.1,0,0,1-.1-.1.11.11,0,0,1,.1-.1h.43a.1.1,0,0,1,.09.1A.09.09,0,0,1,5.06,2.82Z"/><path d="M5.06,3.46H4.63a.11.11,0,0,1-.1-.1.1.1,0,0,1,.1-.1h.43a.09.09,0,0,1,.09.1A.1.1,0,0,1,5.06,3.46Z"/><path d="M5.06,4.09H4.63a.1.1,0,0,1-.1-.1.11.11,0,0,1,.1-.1h.43a.1.1,0,0,1,.09.1A.09.09,0,0,1,5.06,4.09Z"/><path d="M5.06,4.73H4.63a.1.1,0,0,1-.1-.1.11.11,0,0,1,.1-.1h.43a.1.1,0,0,1,.09.1A.09.09,0,0,1,5.06,4.73Z"/><path d="M5.15,5.41H.1a.1.1,0,0,1-.1-.1.09.09,0,0,1,.1-.1H5.15a.1.1,0,0,1,.1.1A.11.11,0,0,1,5.15,5.41Z"/></g></g></svg>