<svg xmlns="http://www.w3.org/2000/svg" viewBox="0 0 5.44 4.91"><g id="Layer_2" data-name="Layer 2"><g id="Layer_1-2" data-name="Layer 1"><path d="M3.92,4.91H.56a.34.34,0,0,1-.34-.34.34.34,0,0,1,.34-.34H3.92a.34.34,0,0,1,.34.34A.34.34,0,0,1,3.92,4.91ZM.56,4.43a.14.14,0,0,0-.14.14.14.14,0,0,0,.14.14H3.92a.14.14,0,0,0,.14-.14.14.14,0,0,0-.14-.14Z"/><path d="M3.92,4.43H.57a.09.09,0,0,1-.1-.1A1.77,1.77,0,0,1,1.8,2.61a.15.15,0,0,0,.12-.15v0A.32.32,0,0,1,2,2.2a.33.33,0,0,1,.27-.07.32.32,0,0,1,.26.33.15.15,0,0,0,.12.15A1.78,1.78,0,0,1,4,4.33.1.1,0,0,1,3.92,4.43ZM.67,4.23H3.81A1.56,1.56,0,0,0,2.63,2.81a.38.38,0,0,1-.27-.35.13.13,0,0,0-.1-.14.19.19,0,0,0-.1,0,.11.11,0,0,0,0,.09v0a.36.36,0,0,1-.27.35A1.56,1.56,0,0,0,.67,4.23Z"/><path d="M2.37,1.52a.1.1,0,0,1-.1-.1.1.1,0,0,1,.09-.1l.62,0a.09.09,0,0,1,.1.09.1.1,0,0,1-.09.1l-.62,0Z"/><path d="M3.88,2.09H3.81L2.82,2a.58.58,0,0,1-.55-.62.1.1,0,0,1,.1-.09.1.1,0,0,1,.1.1.38.38,0,0,0,.36.41l1,.06a1.15,1.15,0,0,0,.79-.3l.28-.29a.11.11,0,0,1,.14,0,.1.1,0,0,1,0,.14l-.28.3A1.18,1.18,0,0,1,4.3,2,1.25,1.25,0,0,1,3.88,2.09Z"/><path d="M1.08,2.39a.33.33,0,0,1-.29-.15A.34.34,0,0,1,.72,2,.38.38,0,0,1,.9,1.72l.83-.65a1.73,1.73,0,0,1,1-.38h.1l.6,0A.5.5,0,0,0,3.75.66C3.86.58,4,.48,4.13.37a.11.11,0,0,1,.14,0,.11.11,0,0,1,0,.14,4.16,4.16,0,0,1-.4.3.6.6,0,0,1-.39.11l-.6,0H2.78a1.52,1.52,0,0,0-.93.34L1,1.88H1A.16.16,0,0,0,.92,2a.17.17,0,0,0,0,.14.15.15,0,0,0,.2,0l1.16-.83a.1.1,0,1,1,.12.16l-1.17.84h0A.53.53,0,0,1,1.08,2.39Z"/><path d="M4.88,1.87a.53.53,0,0,1-.28-.09.1.1,0,0,1,0-.14.11.11,0,0,1,.14,0c.12.08.19.08.2.06s0-.34-.34-.74S3.94.41,3.9.45s0,.07,0,.21a.11.11,0,0,1-.07.13A.09.09,0,0,1,3.73.73c-.09-.26,0-.38,0-.43.22-.18.64.13.95.49s.53.85.31,1A.21.21,0,0,1,4.88,1.87Z"/><path d="M5,1.84a.11.11,0,0,1-.08,0,.11.11,0,0,1,0-.14,1.47,1.47,0,0,0,.35-.44.1.1,0,0,1,.12-.06.1.1,0,0,1,.06.13,1.54,1.54,0,0,1-.4.52Z"/><path d="M3.79.54h0A.09.09,0,0,1,3.7.41.82.82,0,0,1,4,0a.11.11,0,0,1,.14,0,.11.11,0,0,1,0,.14.63.63,0,0,0-.23.29A.11.11,0,0,1,3.79.54Z"/><path d="M4.89,4.91H.1a.09.09,0,0,1-.1-.1.1.1,0,0,1,.1-.1H4.89a.1.1,0,0,1,.1.1A.09.09,0,0,1,4.89,4.91Z"/></g></g></svg>