<svg xmlns="http://www.w3.org/2000/svg" viewBox="0 0 5.5 4.76"><g id="Layer_2" data-name="Layer 2"><g id="Layer_1-2" data-name="Layer 1"><path d="M.81,4.76H.34a.11.11,0,0,1-.1-.1V.33a.34.34,0,0,1,.67,0V4.66A.11.11,0,0,1,.81,4.76Zm-.37-.2H.71V.33A.13.13,0,0,0,.57.2.13.13,0,0,0,.44.33Z"/><path d="M5.15,4.76H4.69a.11.11,0,0,1-.1-.1V.33A.33.33,0,0,1,4.92,0a.33.33,0,0,1,.33.33V.86a.1.1,0,0,1-.1.1.11.11,0,0,1-.1-.1V.33A.13.13,0,0,0,4.92.2a.13.13,0,0,0-.13.13V4.56h.26V3.17a.11.11,0,0,1,.1-.1.1.1,0,0,1,.1.1V4.66A.1.1,0,0,1,5.15,4.76Z"/><path d="M5.15,1.19a.1.1,0,0,1-.1-.1V.86a.1.1,0,0,1,.1-.1.09.09,0,0,1,.1.1v.23A.09.09,0,0,1,5.15,1.19Z"/><path d="M5.15,2.67a.1.1,0,0,1-.1-.1V2.2a.11.11,0,0,1,.1-.1.1.1,0,0,1,.1.1v.37A.09.09,0,0,1,5.15,2.67Zm0-.74a.1.1,0,0,1-.1-.1V1.46a.11.11,0,0,1,.1-.1.1.1,0,0,1,.1.1v.37A.09.09,0,0,1,5.15,1.93Z"/><path d="M5.15,3.27a.1.1,0,0,1-.1-.1V2.94a.11.11,0,0,1,.1-.1.1.1,0,0,1,.1.1v.23A.09.09,0,0,1,5.15,3.27Z"/><path d="M4.69,1.83H.81a.09.09,0,0,1-.1-.1V1.19a.09.09,0,0,1,.1-.1H4.69a.09.09,0,0,1,.1.1v.54A.09.09,0,0,1,4.69,1.83ZM.91,1.63H4.59V1.29H.91Z"/><path d="M4.69,4H.81a.09.09,0,0,1-.1-.1V3.37a.1.1,0,0,1,.1-.1H4.69a.1.1,0,0,1,.1.1v.55A.09.09,0,0,1,4.69,4ZM.91,3.82H4.59V3.47H.91Z"/><path d="M1.83,1.29H1A.31.31,0,0,1,.71,1,.38.38,0,0,1,1.08.6h.68A.38.38,0,0,1,2.14,1,.31.31,0,0,1,1.83,1.29ZM1.08.8A.18.18,0,0,0,.91,1,.11.11,0,0,0,1,1.09h.81A.11.11,0,0,0,1.94,1,.18.18,0,0,0,1.76.8Z"/><path d="M1.83,3.47H1a.31.31,0,0,1-.31-.31.38.38,0,0,1,.37-.38h.68a.38.38,0,0,1,.38.38A.31.31,0,0,1,1.83,3.47ZM1.08,3a.18.18,0,0,0-.17.18A.11.11,0,0,0,1,3.27h.81a.11.11,0,0,0,.11-.11A.18.18,0,0,0,1.76,3Z"/><path d="M5.4,4.76H.1a.1.1,0,0,1-.1-.1.09.09,0,0,1,.1-.1H5.4a.1.1,0,0,1,.1.1A.11.11,0,0,1,5.4,4.76Z"/><path d="M4.24,1H2.43a.11.11,0,0,1-.1-.1.1.1,0,0,1,.1-.1H4.24a.1.1,0,0,1,.1.1A.11.11,0,0,1,4.24,1Z"/><path d="M4.24,3.14H2.43a.1.1,0,0,1-.1-.1.11.11,0,0,1,.1-.1H4.24a.11.11,0,0,1,.1.1A.1.1,0,0,1,4.24,3.14Z"/></g></g></svg>