<svg xmlns="http://www.w3.org/2000/svg" viewBox="0 0 5.45 4.82"><g id="Layer_2" data-name="Layer 2"><g id="Layer_1-2" data-name="Layer 1"><path d="M1.82,4.73a1.18,1.18,0,0,1-.94-.46,4.33,4.33,0,0,1-.51-.82c0-.09-.07-.17-.1-.26a3,3,0,0,1-.16-.51A4.24,4.24,0,0,1,0,2,1.21,1.21,0,0,1,.77.78L.92.73a.54.54,0,0,1,.43,0,.55.55,0,0,1,.29.31.54.54,0,0,1,0,.43.55.55,0,0,1-.31.29l-.21.08a2.43,2.43,0,0,0,.17,1,2.72,2.72,0,0,0,.11.25,2.54,2.54,0,0,0,.4.57L2,3.55a.58.58,0,0,1,.43,0,.57.57,0,0,1,.3.31.58.58,0,0,1,0,.43.57.57,0,0,1-.31.3l-.15.05A1.06,1.06,0,0,1,1.82,4.73ZM1.12.89,1,.91.84,1A1,1,0,0,0,.2,2a5,5,0,0,0,.1.66,4,4,0,0,0,.15.49l.1.24A4,4,0,0,0,1,4.15a1,1,0,0,0,1.15.32l.15-.06a.34.34,0,0,0,.2-.19.39.39,0,0,0,0-.28.37.37,0,0,0-.19-.2.34.34,0,0,0-.28,0l-.27.1a.11.11,0,0,1-.11,0,3.16,3.16,0,0,1-.48-.67l-.12-.27a2.92,2.92,0,0,1-.18-1.1A.1.1,0,0,1,1,1.69l.27-.11a.35.35,0,0,0,.2-.18.39.39,0,0,0,0-.28.41.41,0,0,0-.19-.2A.4.4,0,0,0,1.12.89Z"/><path d="M3,4.82a2.47,2.47,0,0,1-.86-.15.1.1,0,0,1-.06-.13.1.1,0,0,1,.13-.06A2.09,2.09,0,0,0,3,4.62,2.21,2.21,0,1,0,1.89.52a.11.11,0,0,1-.14,0,.11.11,0,0,1,0-.14A2.41,2.41,0,1,1,3,4.82Z"/><path d="M2.25,1.15a.09.09,0,0,1-.08,0A.1.1,0,0,1,2.2,1L2.45.84A.1.1,0,0,1,2.58.9.1.1,0,0,1,2.53,1l-.23.11Z"/><path d="M3.8,3.93a.11.11,0,0,1-.09-.06.1.1,0,0,1,0-.13,1.54,1.54,0,0,0,.36-.27.1.1,0,0,1,.14.14,1.31,1.31,0,0,1-.41.3Zm.68-.67-.05,0a.11.11,0,0,1,0-.13,1.57,1.57,0,0,0,.15-.43.1.1,0,1,1,.2,0,1.62,1.62,0,0,1-.17.48A.1.1,0,0,1,4.48,3.26Zm.17-.94a.09.09,0,0,1-.09-.09,1.26,1.26,0,0,0-.13-.43.11.11,0,0,1,.05-.14.1.1,0,0,1,.13.05,1.5,1.5,0,0,1,.14.5.1.1,0,0,1-.08.11Zm-.39-.87a.09.09,0,0,1-.07,0,1.59,1.59,0,0,0-.35-.29A.1.1,0,0,1,3.8,1a.11.11,0,0,1,.14,0,1.76,1.76,0,0,1,.39.32.11.11,0,0,1,0,.15ZM3.44,1h0A1.71,1.71,0,0,0,3,.93a.1.1,0,0,1-.11-.1A.1.1,0,0,1,3,.73a1.73,1.73,0,0,1,.51,0,.1.1,0,0,1,.08.12A.1.1,0,0,1,3.44,1Z"/><path d="M3.08,4.1A.09.09,0,0,1,3,4a.1.1,0,0,1,.1-.1l.25,0A.1.1,0,0,1,3.44,4a.1.1,0,0,1-.08.12Z"/></g></g></svg>