<svg xmlns="http://www.w3.org/2000/svg" viewBox="0 0 5.53 4.12"><g id="Layer_2" data-name="Layer 2"><g id="Layer_1-2" data-name="Layer 1"><path d="M3.35,2.84H.45a.09.09,0,0,1-.09-.1.09.09,0,0,1,.09-.09h2.9a.09.09,0,0,1,.09.09A.09.09,0,0,1,3.35,2.84Z"/><path d="M5.06,3.55H.47A.47.47,0,0,1,0,3.14.44.44,0,0,1,.12,2.8.36.36,0,0,1,.3,2.68V.32A.32.32,0,0,1,.62,0H4.91a.32.32,0,0,1,.32.32V2.68a.36.36,0,0,1,.18.12.43.43,0,0,1,.11.34A.46.46,0,0,1,5.06,3.55ZM.45,2.84a.27.27,0,0,0-.19.08.27.27,0,0,0-.07.21.27.27,0,0,0,.28.23H5.06a.28.28,0,0,0,.28-.23.31.31,0,0,0-.07-.21.27.27,0,0,0-.19-.08.09.09,0,0,1-.1-.1A.09.09,0,0,1,5,2.66V.32A.13.13,0,0,0,4.91.19H.62A.13.13,0,0,0,.48.32V2.66a.08.08,0,0,1,.06.08A.09.09,0,0,1,.45,2.84Z"/><path d="M5.08,2.84H3.83a.09.09,0,0,1-.09-.1.09.09,0,0,1,.09-.09H5.08a.09.09,0,0,1,.09.09A.09.09,0,0,1,5.08,2.84Z"/><path d="M2.76,2.84a.09.09,0,0,1-.09-.1V.09A.09.09,0,0,1,2.76,0a.09.09,0,0,1,.1.09V2.74A.09.09,0,0,1,2.76,2.84Z"/><path d="M5.14,1.47H.39a.1.1,0,0,1-.09-.1v-1A.32.32,0,0,1,.62,0H4.91a.32.32,0,0,1,.32.32V1.37A.1.1,0,0,1,5.14,1.47ZM.48,1.28H5v-1A.13.13,0,0,0,4.91.19H.62A.13.13,0,0,0,.48.32Z"/><path d="M1.44,4.12H1A.1.1,0,0,1,.88,4V3.46A.09.09,0,0,1,1,3.36a.1.1,0,0,1,.1.1v.47h.31l.21-.51a.09.09,0,0,1,.17.07l-.23.57A.11.11,0,0,1,1.44,4.12Z"/><path d="M4.55,4.12H4.08A.1.1,0,0,1,4,4.06l-.24-.57a.1.1,0,0,1,.05-.12.1.1,0,0,1,.13,0l.21.51h.31V3.46a.09.09,0,0,1,.09-.1.09.09,0,0,1,.1.1V4A.1.1,0,0,1,4.55,4.12Z"/><path d="M4.55,4.12H1A.1.1,0,0,1,.88,4,.09.09,0,0,1,1,3.93H4.55a.09.09,0,0,1,.1.09A.1.1,0,0,1,4.55,4.12Z"/><path d="M2,.61h-.8A.18.18,0,0,1,1,.44V.09A.1.1,0,0,1,1.1,0h.95a.09.09,0,0,1,.1.09V.44A.18.18,0,0,1,2,.61ZM1.19.42H2V.19H1.19Z"/><path d="M4.23.61h-.8A.18.18,0,0,1,3.26.44V.09A.09.09,0,0,1,3.36,0h.95A.09.09,0,0,1,4.4.09V.44A.17.17,0,0,1,4.23.61ZM3.45.42h.76V.19H3.45Z"/><path d="M2,1.89H1.23a.18.18,0,0,1-.17-.18V1.37a.1.1,0,0,1,.1-.09h1a.1.1,0,0,1,.1.09v.34A.18.18,0,0,1,2,1.89ZM1.25,1.7H2V1.47H1.25Z"/><path d="M4.29,1.89h-.8a.18.18,0,0,1-.17-.18V1.37a.09.09,0,0,1,.09-.09h1a.09.09,0,0,1,.09.09v.34A.17.17,0,0,1,4.29,1.89ZM3.51,1.7h.76V1.47H3.51Z"/></g></g></svg>