<svg xmlns="http://www.w3.org/2000/svg" viewBox="0 0 5.17 4.95"><g id="Layer_2" data-name="Layer 2"><g id="Layer_1-2" data-name="Layer 1"><path d="M1.63,5A1.63,1.63,0,0,1,0,3.33a2,2,0,0,1,.67-1.5.09.09,0,0,1,.13,0A.1.1,0,0,1,.81,2a1.62,1.62,0,0,0-.23.84,1.06,1.06,0,0,0,.9,1,.1.1,0,1,1,0,.19A1.24,1.24,0,0,1,.38,2.81a2.14,2.14,0,0,1,0-.34,2,2,0,0,0-.21.86A1.43,1.43,0,0,0,1.63,4.75a.11.11,0,0,1,.1.1A.1.1,0,0,1,1.63,5Z"/><path d="M2.75,3.17h0a.11.11,0,0,1-.07-.12,1,1,0,0,0,0-.24A1.72,1.72,0,0,0,2.45,2a.1.1,0,0,1,.14-.14,1.71,1.71,0,0,1,.55.83.1.1,0,0,1-.06.13A.1.1,0,0,1,3,2.73a1.69,1.69,0,0,0-.11-.27,2.21,2.21,0,0,1,0,.35.9.9,0,0,1,0,.28A.09.09,0,0,1,2.75,3.17Z"/><path d="M2.53,2H2.06a.11.11,0,0,1-.1-.1.1.1,0,0,1,.1-.1h.4l.16-.44s0,0,0,0a0,0,0,0,0,0,0H.67s0,0,0,0a0,0,0,0,0,0,0l.16.44h.46a.1.1,0,0,1,.1.1.11.11,0,0,1-.1.1H.73a.11.11,0,0,1-.1-.07l-.18-.5a.26.26,0,0,1,0-.21.23.23,0,0,1,.19-.1H2.59a.26.26,0,0,1,.19.1.22.22,0,0,1,0,.21l-.18.5A.1.1,0,0,1,2.53,2Z"/><path d="M1.05,3.9A.1.1,0,0,1,1,3.8V3.12a.1.1,0,0,1,.1-.1H2.2a.09.09,0,0,1,.1.1v.21a.1.1,0,0,1-.1.1.11.11,0,0,1-.1-.1V3.22h-1V3.8A.09.09,0,0,1,1.05,3.9Z"/><path d="M1.65,2.86h0a.53.53,0,0,1-.31-.27.38.38,0,0,1,0-.34,3,3,0,0,0,.18-.38.08.08,0,0,1,.07-.07.07.07,0,0,1,.09,0A.88.88,0,0,1,2,2.43a.56.56,0,0,1-.29.41Zm0-.8a2.41,2.41,0,0,1-.14.27.24.24,0,0,0,0,.18.4.4,0,0,0,.15.14.34.34,0,0,0,.16-.23A.55.55,0,0,0,1.65,2.06Z"/><path d="M1,.88A.09.09,0,0,1,1,.84L.9.74a.29.29,0,0,1,0-.35.1.1,0,0,0,0-.13L.87.16A.11.11,0,0,1,.89,0,.11.11,0,0,1,1,0l.08.11a.3.3,0,0,1,0,.37.1.1,0,0,0,0,.12l.06.09a.1.1,0,0,1,0,.14Z"/><path d="M1.66.88a.09.09,0,0,1-.08,0L1.52.74a.32.32,0,0,1,0-.35.09.09,0,0,0,0-.13L1.49.16a.1.1,0,0,1,0-.14.11.11,0,0,1,.14,0l.07.11a.3.3,0,0,1,0,.37.09.09,0,0,0,0,.12l.06.09a.11.11,0,0,1,0,.14Z"/><path d="M2.29.88a.1.1,0,0,1-.09,0L2.15.74a.29.29,0,0,1,0-.35.12.12,0,0,0,0-.13L2.11.16a.1.1,0,0,1,0-.14.11.11,0,0,1,.14,0l.07.11a.3.3,0,0,1,0,.37.1.1,0,0,0,0,.12l.05.09a.1.1,0,0,1,0,.14Z"/><path d="M5,5H.33a.09.09,0,0,1-.1-.1.1.1,0,0,1,.1-.1H5a.11.11,0,0,1,.1.1A.1.1,0,0,1,5,5Z"/><path d="M3.38,5h0a1.09,1.09,0,0,1-.76-.8c-.1-.69.7-1.38.73-1.41a.11.11,0,0,1,.13,0s.84.72.74,1.41a1.11,1.11,0,0,1-.76.8Zm0-2c-.18.17-.68.69-.61,1.17a.9.9,0,0,0,.61.63A.9.9,0,0,0,4,4.11C4.05,3.63,3.56,3.11,3.38,2.94Z"/><path d="M4.74,3.69a.11.11,0,0,1-.1-.09.1.1,0,0,1,.09-.11,2.32,2.32,0,0,1,.34,0,.1.1,0,0,1,0,.2,2.09,2.09,0,0,0-.31,0Z"/><path d="M4.05,3.88a.12.12,0,0,1-.09,0A.1.1,0,0,1,4,3.7a2.52,2.52,0,0,1,.33-.13.11.11,0,0,1,.12.07.1.1,0,0,1-.07.12,1.6,1.6,0,0,0-.29.11Z"/><path d="M4,5a.1.1,0,0,1-.1-.09A.1.1,0,0,1,4,4.75c.88,0,1-1.19,1-1.2a.1.1,0,0,1,.11-.09.1.1,0,0,1,.09.1S5.08,4.92,4,5Z"/><path d="M2.7,5h0c-1-.07-1.11-1.37-1.11-1.39a.11.11,0,0,1,0-.07.09.09,0,0,1,.07,0,2.75,2.75,0,0,1,1.06.24.1.1,0,0,1,0,.13.09.09,0,0,1-.13,0,3,3,0,0,0-.87-.21c.05.29.22,1,.92,1.09a.1.1,0,0,1,.09.11A.1.1,0,0,1,2.7,5Z"/><path d="M3.38,4.3a.09.09,0,0,1-.1-.09V3.56a.09.09,0,0,1,.1-.1.1.1,0,0,1,.1.1v.65A.1.1,0,0,1,3.38,4.3Z"/></g></g></svg>