<svg xmlns="http://www.w3.org/2000/svg" viewBox="0 0 4.82 5.31"><g id="Layer_2" data-name="Layer 2"><g id="Layer_1-2" data-name="Layer 1"><path d="M4.53,2.3H.29a.07.07,0,0,1-.06,0,.09.09,0,0,1,0-.07,2.21,2.21,0,0,1,4.42,0,.14.14,0,0,1,0,.07A.11.11,0,0,1,4.53,2.3ZM1.94,2.1H4.43a2,2,0,0,0-4,0Z"/><path d="M1.68,2.3a.11.11,0,0,1-.1-.1A2.8,2.8,0,0,1,2.35,0a.09.09,0,0,1,.13,0,.09.09,0,0,1,0,.13,2.63,2.63,0,0,0-.69,2,.1.1,0,0,1-.1.1Z"/><path d="M3.14,2.3A.1.1,0,0,1,3,2.2a2.63,2.63,0,0,0-.69-2,.09.09,0,0,1,0-.13.09.09,0,0,1,.13,0A2.8,2.8,0,0,1,3.24,2.2.1.1,0,0,1,3.14,2.3Z"/><path d="M4.72,2.3H.1A.09.09,0,0,1,0,2.2a.09.09,0,0,1,.1-.09H4.72a.09.09,0,0,1,.1.09A.09.09,0,0,1,4.72,2.3Z"/><path d="M2.18,3.74a.1.1,0,0,1-.1-.09V2.2a.1.1,0,0,1,.1-.09h.46a.1.1,0,0,1,.1.09V3.57a.1.1,0,0,1-.1.1.09.09,0,0,1-.09-.1V2.3H2.27V3.65A.09.09,0,0,1,2.18,3.74Z"/><path d="M3.76,5.31H.1A.09.09,0,0,1,0,5.22a.09.09,0,0,1,.1-.1H3.76a.09.09,0,0,1,.09.1A.09.09,0,0,1,3.76,5.31Z"/><path d="M2.89,4.57H.52A.37.37,0,0,1,.16,4.2a.36.36,0,0,1,.36-.36H2.76l.91-.75a.39.39,0,0,1,.52.05.38.38,0,0,1-.06.52l-1,.83A.38.38,0,0,1,2.89,4.57ZM.52,4a.18.18,0,0,0-.17.17.18.18,0,0,0,.17.18H2.89a.21.21,0,0,0,.11,0l1-.83a.18.18,0,0,0,0-.25.17.17,0,0,0-.24,0L2.85,4,2.79,4Z"/><path d="M1.13,5.31H.47a.09.09,0,0,1-.08,0,.1.1,0,0,1,0-.09L.7,4.44a.08.08,0,0,1,.08-.06h.31a.11.11,0,0,1,.1.09l0,.74a.09.09,0,0,1,0,.07A.08.08,0,0,1,1.13,5.31ZM.62,5.12H1l0-.55H.85Z"/><path d="M3,5.31H2.38a.09.09,0,0,1-.07,0,.06.06,0,0,1,0-.07l0-.74a.09.09,0,0,1,.09-.09h.31a.1.1,0,0,1,.09.06l.31.74a.1.1,0,0,1,0,.09A.09.09,0,0,1,3,5.31Zm-.56-.19H2.9l-.23-.55H2.51Z"/></g></g></svg>