<svg xmlns="http://www.w3.org/2000/svg" viewBox="0 0 2.83 5.37"><g id="Layer_2" data-name="Layer 2"><g id="Layer_1-2" data-name="Layer 1"><path d="M2.62,2.65H.22a.21.21,0,0,1-.17-.08.22.22,0,0,1,0-.19L.46.52A.1.1,0,0,1,.55.45H2.28a.09.09,0,0,1,.09.07l.46,1.86a.26.26,0,0,1,0,.19A.23.23,0,0,1,2.62,2.65Zm-2-2L.19,2.43s0,0,0,0H2.64a0,0,0,0,0,0,0L2.21.64Z"/><path d="M2.28.64H.55A.1.1,0,0,1,.46.54V.3A.3.3,0,0,1,.76,0H2.07a.31.31,0,0,1,.31.3V.54A.11.11,0,0,1,2.28.64ZM.65.45H2.19V.3A.11.11,0,0,0,2.07.19H.76A.11.11,0,0,0,.65.3Z"/><path d="M1.42,2.65a.1.1,0,0,1-.1-.09v-2a.1.1,0,0,1,.1-.09.09.09,0,0,1,.09.09v2A.09.09,0,0,1,1.42,2.65Z"/><path d="M2.08,2.65A.11.11,0,0,1,2,2.57l-.25-2a.09.09,0,0,1,.08-.1.09.09,0,0,1,.11.08l.25,2a.1.1,0,0,1-.08.11Z"/><path d="M.75,2.65h0a.09.09,0,0,1-.08-.11L.9.53A.1.1,0,0,1,1,.45a.08.08,0,0,1,.08.1l-.25,2A.09.09,0,0,1,.75,2.65Z"/><path d="M1.65,5H1.18a.09.09,0,0,1-.09-.09V2.55a.09.09,0,0,1,.09-.09h.47a.09.09,0,0,1,.1.09V4.87A.09.09,0,0,1,1.65,5Zm-.37-.19h.28V2.65H1.28Z"/><path d="M2.47,5.37H.36a.1.1,0,0,1-.09-.1V5.11a.34.34,0,0,1,.34-.34H2.23a.34.34,0,0,1,.34.34v.16A.11.11,0,0,1,2.47,5.37Zm-2-.19H2.38V5.11A.15.15,0,0,0,2.23,5H.61a.15.15,0,0,0-.15.15Z"/><path d="M2.37,3.62a.32.32,0,0,1-.32-.32A.32.32,0,0,1,2.37,3a.32.32,0,0,1,.32.32A.33.33,0,0,1,2.37,3.62Zm0-.45a.12.12,0,0,0-.13.13.13.13,0,0,0,.13.13A.13.13,0,0,0,2.5,3.3.13.13,0,0,0,2.37,3.17Z"/><path d="M2.37,3.17a.1.1,0,0,1-.1-.1V2.55a.09.09,0,0,1,.1-.09.09.09,0,0,1,.09.09v.52A.1.1,0,0,1,2.37,3.17Z"/></g></g></svg>