<svg xmlns="http://www.w3.org/2000/svg" viewBox="0 0 5.16 4.77"><g id="Layer_2" data-name="Layer 2"><g id="Layer_1-2" data-name="Layer 1"><path d="M4.86,3.89H.3a.29.29,0,0,1-.3-.3V3.41a.63.63,0,0,1,.63-.63H4.52a.64.64,0,0,1,.64.63v.18A.3.3,0,0,1,4.86,3.89ZM.63,3a.43.43,0,0,0-.43.43v.18a.09.09,0,0,0,.1.1H4.86a.1.1,0,0,0,.1-.1V3.41A.44.44,0,0,0,4.52,3Z"/><path d="M.1,3.51a.1.1,0,0,1-.1-.1V1.53a.47.47,0,0,1,.47-.47.47.47,0,0,1,.46.47V2.88a.1.1,0,0,1-.1.1.11.11,0,0,1-.1-.1V1.53a.27.27,0,0,0-.26-.27.27.27,0,0,0-.27.27V3.41A.11.11,0,0,1,.1,3.51Z"/><path d="M.47,1.26a.09.09,0,0,1-.1-.1V.63A.63.63,0,0,1,1,0h1a.63.63,0,0,1,.63.63V.91a.1.1,0,0,1-.1.1.09.09,0,0,1-.1-.1V.63A.43.43,0,0,0,2.05.2H1A.43.43,0,0,0,.57.63v.53A.1.1,0,0,1,.47,1.26Z"/><path d="M5.06,3.51a.1.1,0,0,1-.1-.1V1.53a.27.27,0,1,0-.54,0V2.88a.1.1,0,0,1-.1.1.11.11,0,0,1-.1-.1V1.53a.47.47,0,1,1,.94,0V3.41A.11.11,0,0,1,5.06,3.51Z"/><path d="M4.69,1.26a.1.1,0,0,1-.1-.1V.63A.43.43,0,0,0,4.16.2H3.11a.43.43,0,0,0-.43.43V.91a.1.1,0,0,1-.1.1.09.09,0,0,1-.1-.1V.63A.63.63,0,0,1,3.11,0H4.16a.63.63,0,0,1,.63.63v.53A.09.09,0,0,1,4.69,1.26Z"/><path d="M3.7,2.39H1.46a.1.1,0,0,1-.1-.1.09.09,0,0,1,.1-.1H3.7a.09.09,0,0,1,.1.1A.1.1,0,0,1,3.7,2.39Z"/><path d="M3.7,1.9H1.46a.1.1,0,0,1-.1-.1.09.09,0,0,1,.1-.1H3.7a.09.09,0,0,1,.1.1A.1.1,0,0,1,3.7,1.9Z"/><path d="M3.7,1.41H1.46a.1.1,0,0,1-.1-.1.09.09,0,0,1,.1-.1H3.7a.09.09,0,0,1,.1.1A.1.1,0,0,1,3.7,1.41Z"/><path d="M1,4.77a.38.38,0,0,1-.38-.38v-.6a.1.1,0,0,1,.1-.1h.66a.12.12,0,0,1,.08,0,.11.11,0,0,1,0,.08l-.1.64A.38.38,0,0,1,1,4.77ZM.77,3.89v.5A.18.18,0,0,0,1,4.57a.19.19,0,0,0,.19-.15l.07-.53Z"/><path d="M4.2,4.77a.38.38,0,0,1-.38-.32l-.09-.64a.08.08,0,0,1,0-.08.12.12,0,0,1,.08,0h.66a.1.1,0,0,1,.1.1v.6A.38.38,0,0,1,4.2,4.77Zm-.26-.88L4,4.42a.17.17,0,0,0,.18.15.18.18,0,0,0,.19-.18v-.5Z"/><path d="M5,4.77H.2a.09.09,0,0,1-.1-.1.1.1,0,0,1,.1-.1H5a.1.1,0,0,1,.1.1A.09.09,0,0,1,5,4.77Z"/></g></g></svg>