<svg xmlns="http://www.w3.org/2000/svg" viewBox="0 0 4.71 5.32"><g id="Layer_2" data-name="Layer 2"><g id="Layer_1-2" data-name="Layer 1"><path d="M4.61,2.13A.09.09,0,0,1,4.52,2V.4A.21.21,0,0,0,4.31.19H.4A.21.21,0,0,0,.19.4V2a.09.09,0,0,1-.1.09A.09.09,0,0,1,0,2V.4A.4.4,0,0,1,.4,0H4.31a.4.4,0,0,1,.4.4V2A.1.1,0,0,1,4.61,2.13Z"/><path d="M4.16,5.32H.55A.55.55,0,0,1,0,4.77V2a.7.7,0,0,1,.7-.7H4a.7.7,0,0,1,.7.7V4.77A.55.55,0,0,1,4.16,5.32ZM.7,1.52A.51.51,0,0,0,.19,2V4.77a.36.36,0,0,0,.36.36H4.16a.36.36,0,0,0,.36-.36V2A.51.51,0,0,0,4,1.52Z"/><path d="M.6,1.53l-.06,0a.09.09,0,0,1,0-.07V1.08A.47.47,0,0,1,1,.61h.63a.47.47,0,0,1,.47.47v.35A.09.09,0,0,1,2,1.52H.6ZM1,.8a.29.29,0,0,0-.28.28v.26H1.89V1.08A.28.28,0,0,0,1.61.8Z"/><path d="M4.1,1.53H2.72a.1.1,0,0,1-.1-.09V1.08A.48.48,0,0,1,3.1.61h.62a.48.48,0,0,1,.48.47v.36a.1.1,0,0,1,0,.07ZM2.81,1.34H4V1.08A.29.29,0,0,0,3.72.8H3.1a.29.29,0,0,0-.29.28Z"/><path d="M2.75,2.54a.36.36,0,0,1-.26-.11v0a.15.15,0,0,0-.23,0h0A.33.33,0,0,1,2,2.53a.34.34,0,0,1-.25-.11h0a.15.15,0,0,0-.23,0h0a.33.33,0,0,1-.25.11A.36.36,0,0,1,1,2.42v0a.17.17,0,0,0-.23,0l-.06.08a.11.11,0,0,1-.14,0,.09.09,0,0,1,0-.13l.06-.07a.33.33,0,0,1,.25-.12.34.34,0,0,1,.26.12h0a.15.15,0,0,0,.23,0h0a.36.36,0,0,1,.26-.11.36.36,0,0,1,.25.11h0a.14.14,0,0,0,.22,0h0a.36.36,0,0,1,.25-.11.36.36,0,0,1,.26.11v0a.17.17,0,0,0,.23,0h0a.33.33,0,0,1,.25-.11.36.36,0,0,1,.25.11.15.15,0,0,0,.23,0h0a.33.33,0,0,1,.25-.12.34.34,0,0,1,.26.12l.06.06a.11.11,0,0,1,0,.14.09.09,0,0,1-.13,0L4,2.41a.17.17,0,0,0-.23,0h0a.33.33,0,0,1-.25.11.36.36,0,0,1-.25-.11.15.15,0,0,0-.23,0H3A.36.36,0,0,1,2.75,2.54Z"/><path d="M2.74,3.17a.36.36,0,0,1-.25-.11l0,0a.15.15,0,0,0-.22,0h0A.33.33,0,0,1,2,3.17a.34.34,0,0,1-.26-.12h0A.17.17,0,0,0,1.5,3h0a.33.33,0,0,1-.25.12A.33.33,0,0,1,1,3.06L1,3A.14.14,0,0,0,.75,3l-.07.07a.09.09,0,0,1-.13,0A.11.11,0,0,1,.54,3l.07-.07A.33.33,0,0,1,.86,2.8a.33.33,0,0,1,.25.11l0,0a.16.16,0,0,0,.22,0h0a.33.33,0,0,1,.25-.12.3.3,0,0,1,.25.12h0a.17.17,0,0,0,.23,0h0a.33.33,0,0,1,.25-.12.3.3,0,0,1,.25.12h0a.15.15,0,0,0,.23,0h0a.36.36,0,0,1,.25-.11.36.36,0,0,1,.26.11.16.16,0,0,0,.22,0h0a.33.33,0,0,1,.25-.11.34.34,0,0,1,.25.11L4.16,3A.09.09,0,1,1,4,3.12L4,3.05a.15.15,0,0,0-.22,0h0a.36.36,0,0,1-.25.11.33.33,0,0,1-.25-.11A.14.14,0,0,0,3.11,3,.14.14,0,0,0,3,3.06H3A.36.36,0,0,1,2.74,3.17Z"/><path d="M2.74,3.81a.33.33,0,0,1-.25-.11l0,0a.15.15,0,0,0-.23,0h0A.33.33,0,0,1,2,3.8a.36.36,0,0,1-.25-.11h0a.14.14,0,0,0-.22,0h0a.36.36,0,0,1-.26.11A.36.36,0,0,1,1,3.69H1a.15.15,0,0,0-.23,0l-.06.07a.1.1,0,0,1-.14,0,.09.09,0,0,1,0-.13L.6,3.55a.36.36,0,0,1,.26-.11.36.36,0,0,1,.25.11h0a.15.15,0,0,0,.23,0h0a.33.33,0,0,1,.25-.11.36.36,0,0,1,.25.11h0a.15.15,0,0,0,.23,0h0a.36.36,0,0,1,.26-.11.36.36,0,0,1,.25.11l0,0a.14.14,0,0,0,.22,0h0a.33.33,0,0,1,.25-.11.34.34,0,0,1,.25.11.15.15,0,0,0,.23,0h0a.36.36,0,0,1,.26-.11.36.36,0,0,1,.25.11l.06.07s0,.09,0,.13a.09.09,0,0,1-.13,0L4,3.69a.15.15,0,0,0-.23,0h0a.36.36,0,0,1-.26.11.36.36,0,0,1-.25-.11.16.16,0,0,0-.22,0H3A.36.36,0,0,1,2.74,3.81Z"/><path d="M2.73,4.45a.33.33,0,0,1-.25-.12h0a.15.15,0,0,0-.23,0h0A.36.36,0,0,1,2,4.44a.33.33,0,0,1-.25-.11h0a.15.15,0,0,0-.23,0h0a.33.33,0,0,1-.25.11A.33.33,0,0,1,1,4.33l0,0a.16.16,0,0,0-.22,0l-.07.07a.09.09,0,0,1-.13,0,.09.09,0,0,1,0-.13L.6,4.18a.36.36,0,0,1,.25-.11.33.33,0,0,1,.25.11l0,0a.14.14,0,0,0,.22,0h0a.36.36,0,0,1,.25-.11.36.36,0,0,1,.26.11h0a.16.16,0,0,0,.22,0h0a.32.32,0,0,1,.25-.11.3.3,0,0,1,.25.11l0,0a.16.16,0,0,0,.11,0,.17.17,0,0,0,.12,0h0a.36.36,0,0,1,.26-.11.36.36,0,0,1,.25.11.15.15,0,0,0,.22,0h0a.36.36,0,0,1,.25-.11.33.33,0,0,1,.25.11l.07.07a.11.11,0,0,1,0,.14.09.09,0,0,1-.13,0L4,4.32a.16.16,0,0,0-.22,0h0a.33.33,0,0,1-.25.11.34.34,0,0,1-.25-.11.15.15,0,0,0-.23,0H3A.34.34,0,0,1,2.73,4.45Z"/></g></g></svg>