<svg xmlns="http://www.w3.org/2000/svg" viewBox="0 0 5.24 4.77"><g id="Layer_2" data-name="Layer 2"><g id="Layer_1-2" data-name="Layer 1"><path d="M4.63,2.88a.1.1,0,0,1-.1-.1.11.11,0,0,1,.1-.1.21.21,0,0,0,.22-.21.22.22,0,0,0-.22-.22H3.43a.09.09,0,0,1-.1-.1.1.1,0,0,1,.1-.1h1.2a.42.42,0,0,1,.42.42A.41.41,0,0,1,4.63,2.88Z"/><path d="M4.63,3.51H4.36a.1.1,0,0,1-.1-.1.09.09,0,0,1,.1-.1h.27a.22.22,0,1,0,0-.43H3.82a.09.09,0,0,1-.1-.1.1.1,0,0,1,.1-.1h.81a.42.42,0,1,1,0,.83Z"/><path d="M4.5,4.14H4.06A.11.11,0,0,1,4,4a.1.1,0,0,1,.1-.1H4.5a.22.22,0,1,0,0-.43H3.92a.1.1,0,0,1-.1-.1.09.09,0,0,1,.1-.1H4.5a.42.42,0,1,1,0,.83Z"/><path d="M4.11,4.77H3a.1.1,0,0,1-.1-.1.09.09,0,0,1,.1-.1h1.1a.22.22,0,0,0,.21-.22.21.21,0,0,0-.21-.21H3.7A.1.1,0,0,1,3.6,4a.09.09,0,0,1,.1-.1h.41a.41.41,0,0,1,.41.41A.42.42,0,0,1,4.11,4.77Z"/><path d="M3,4.77a3.46,3.46,0,0,1-1.48-.35.09.09,0,0,1-.06-.09v-2a.09.09,0,0,1,.08-.09A2,2,0,0,0,3,1.27a.1.1,0,0,1,.13,0,.1.1,0,0,1,0,.14,2.26,2.26,0,0,1-1.44,1V4.27A3.36,3.36,0,0,0,3,4.57a.1.1,0,0,1,.1.1A.11.11,0,0,1,3,4.77Z"/><path d="M3.85,1.48a.1.1,0,0,1-.1-.1A1.15,1.15,0,0,0,3.61.79.09.09,0,0,0,3.5.73a.11.11,0,0,0-.11.08,2.32,2.32,0,0,1-.28.57.09.09,0,0,1-.13,0,.1.1,0,0,1,0-.14A2.35,2.35,0,0,0,3.2.74.31.31,0,0,1,3.48.53a.32.32,0,0,1,.31.16A1.46,1.46,0,0,1,4,1.38.1.1,0,0,1,3.85,1.48Z"/><path d="M3.65,2.25h0a.1.1,0,0,1,0-.14,1.72,1.72,0,0,0,.19-.72.09.09,0,0,1,.1-.1.11.11,0,0,1,.1.1,1.84,1.84,0,0,1-.22.82A.09.09,0,0,1,3.65,2.25Z"/><path d="M1.57,4.7H.1A.1.1,0,0,1,0,4.6a.09.09,0,0,1,.1-.1H1.47V2.13H.1A.09.09,0,0,1,0,2a.1.1,0,0,1,.1-.1H1.57a.11.11,0,0,1,.1.1V4.6A.11.11,0,0,1,1.57,4.7Z"/><path d="M1.19,3.66a.1.1,0,0,1-.1-.1V2.46H.48a.09.09,0,0,1-.1-.1.1.1,0,0,1,.1-.1h.71a.11.11,0,0,1,.1.1v1.2A.11.11,0,0,1,1.19,3.66Z"/><path d="M.67,4.33A.35.35,0,0,1,.32,4,.35.35,0,1,1,1,4,.35.35,0,0,1,.67,4.33Zm0-.5A.15.15,0,0,0,.52,4a.15.15,0,0,0,.15.15A.15.15,0,0,0,.82,4,.15.15,0,0,0,.67,3.83Z"/><path d="M2.55.82H1.82a.1.1,0,0,1-.1-.1.11.11,0,0,1,.1-.1h.73a.11.11,0,0,1,.1.1A.1.1,0,0,1,2.55.82Z"/><path d="M2.58.48a.07.07,0,0,1-.06,0L2.2.17A.1.1,0,0,1,2.2,0a.1.1,0,0,1,.14,0L2.65.3a.11.11,0,0,1,0,.14A.09.09,0,0,1,2.58.48Z"/><path d="M2.27,1.45a.08.08,0,0,1-.07,0,.1.1,0,0,1,0-.14L2.52,1a.1.1,0,0,1,.14,0,.11.11,0,0,1,0,.14l-.31.28A.11.11,0,0,1,2.27,1.45Z"/><path d="M5.14.82H4.41a.1.1,0,0,1-.1-.1.11.11,0,0,1,.1-.1h.73a.11.11,0,0,1,.1.1A.1.1,0,0,1,5.14.82Z"/><path d="M4.38.48a.09.09,0,0,1-.08,0,.11.11,0,0,1,0-.14L4.62,0a.1.1,0,0,1,.14,0,.1.1,0,0,1,0,.14L4.45.45A.11.11,0,0,1,4.38.48Z"/><path d="M4.69,1.45a.11.11,0,0,1-.07,0l-.31-.28A.11.11,0,0,1,4.3,1a.11.11,0,0,1,.15,0l.31.27a.1.1,0,0,1,0,.14A.08.08,0,0,1,4.69,1.45Z"/></g></g></svg>