<svg xmlns="http://www.w3.org/2000/svg" viewBox="0 0 5.38 3.28"><g id="Layer_2" data-name="Layer 2"><g id="Layer_1-2" data-name="Layer 1"><path d="M5.28,3.28H.09A.09.09,0,0,1,0,3.18V2.5a.1.1,0,0,1,.09-.1H5.28a.1.1,0,0,1,.1.1v.68A.09.09,0,0,1,5.28,3.28ZM.19,3.09h5v-.5h-5Z"/><path d="M4.62,2.59H.76A.09.09,0,0,1,.67,2.5a.1.1,0,0,1,.09-.1H4.62a.1.1,0,0,1,.09.1A.09.09,0,0,1,4.62,2.59Z"/><path d="M.76,2.59H.09A.09.09,0,0,1,0,2.5v-1a.43.43,0,0,1,.43-.43.43.43,0,0,1,.43.43v1A.1.1,0,0,1,.76,2.59ZM.19,2.4H.67V1.54A.24.24,0,0,0,.43,1.3a.24.24,0,0,0-.24.24Z"/><path d="M5.28,2.59H4.62a.09.09,0,0,1-.1-.09v-1a.43.43,0,0,1,.86,0v1A.09.09,0,0,1,5.28,2.59ZM4.71,2.4h.48V1.54a.24.24,0,1,0-.48,0Z"/><path d="M2.69,1.23A.34.34,0,0,1,2.35.89.34.34,0,1,1,3,.89.34.34,0,0,1,2.69,1.23Zm0-.5a.15.15,0,0,0-.15.16A.15.15,0,0,0,2.69,1,.15.15,0,0,0,2.84.89.16.16,0,0,0,2.69.73Z"/><path d="M4,1.23A.34.34,0,0,1,3.66.89a.34.34,0,1,1,.68,0A.34.34,0,0,1,4,1.23Zm0-.5a.15.15,0,0,0-.15.16A.15.15,0,0,0,4,1,.15.15,0,0,0,4.15.89.16.16,0,0,0,4,.73Z"/><path d="M1.38,1.23A.34.34,0,0,1,1,.89a.34.34,0,1,1,.68,0A.34.34,0,0,1,1.38,1.23Zm0-.5a.15.15,0,0,0-.15.16A.15.15,0,0,0,1.38,1,.15.15,0,0,0,1.53.89.16.16,0,0,0,1.38.73Z"/><path d="M.43,1.3a.1.1,0,0,1-.1-.09V.47A.47.47,0,0,1,.8,0H2.32a.46.46,0,0,1,.46.47V.64a.09.09,0,0,1-.09.09.1.1,0,0,1-.1-.09V.47A.27.27,0,0,0,2.32.19H.8A.28.28,0,0,0,.52.47v.74A.09.09,0,0,1,.43,1.3Z"/><path d="M5,1.3a.09.09,0,0,1-.09-.09V.47A.28.28,0,0,0,4.58.19H3.06a.28.28,0,0,0-.28.28.09.09,0,0,1-.09.09.1.1,0,0,1-.1-.09A.47.47,0,0,1,3.06,0H4.58A.46.46,0,0,1,5,.47v.74A.09.09,0,0,1,5,1.3Z"/><path d="M2.69,2.59a.1.1,0,0,1-.1-.09V2.05a.12.12,0,0,0-.12-.13H1a.12.12,0,0,0-.12.13V2.5a.1.1,0,0,1-.1.09A.09.09,0,0,1,.67,2.5V2.05A.31.31,0,0,1,1,1.73H2.47a.31.31,0,0,1,.31.32V2.5A.09.09,0,0,1,2.69,2.59Z"/><path d="M4.62,2.59a.09.09,0,0,1-.1-.09V2.05a.13.13,0,0,0-.13-.13H2.91a.13.13,0,0,0-.13.13V2.5a.09.09,0,0,1-.09.09.1.1,0,0,1-.1-.09V2.05a.32.32,0,0,1,.32-.32H4.39a.32.32,0,0,1,.32.32V2.5A.09.09,0,0,1,4.62,2.59Z"/><path d="M2.69,2.22a.1.1,0,0,1-.1-.1v-1A.1.1,0,0,1,2.69,1a.09.09,0,0,1,.09.09v1A.09.09,0,0,1,2.69,2.22Z"/></g></g></svg>