<svg xmlns="http://www.w3.org/2000/svg" viewBox="0 0 3.46 5.48"><g id="Layer_2" data-name="Layer 2"><g id="Layer_1-2" data-name="Layer 1"><path d="M1.27,2.92a.07.07,0,0,1-.06,0S.53,2.23.84,1.81a.92.92,0,0,0,.23-.53.1.1,0,0,1,.08-.11.11.11,0,0,1,.11.09A1.11,1.11,0,0,1,1,1.93c-.13.16,0,.43.16.62a.92.92,0,0,1,.25-.46.84.84,0,0,0,.12-.82.08.08,0,0,1,0-.12.1.1,0,0,1,.13,0,1,1,0,0,1-.15,1c-.31.35-.2.56-.2.57a.11.11,0,0,1,0,.12Z"/><path d="M.16,2.4h0a.08.08,0,0,1-.08-.07A1.57,1.57,0,0,1,.3,1.12,1,1,0,0,1,1.19.88a.08.08,0,0,1,.08.1.08.08,0,0,1-.1.08.84.84,0,0,0-.73.19,1.14,1.14,0,0,0-.21.83,1.47,1.47,0,0,1,.67-.3c.06,0,.11,0,.11.07A.09.09,0,0,1,.94,2a1.14,1.14,0,0,0-.7.39A.1.1,0,0,1,.16,2.4Z"/><path d="M.8,1.05A.11.11,0,0,1,.73,1,2.32,2.32,0,0,0,.05.45.09.09,0,0,1,0,.36.08.08,0,0,1,.07.28,2.32,2.32,0,0,1,1,.17a1.13,1.13,0,0,1,.82.62.09.09,0,0,1-.05.12.09.09,0,0,1-.12,0A1,1,0,0,0,.93.36,2.28,2.28,0,0,0,.34.4,3.15,3.15,0,0,1,.88.9.09.09,0,0,1,.86,1Z"/><path d="M2.1,1.25A.08.08,0,0,1,2,1.17a.08.08,0,0,1,.09-.1c.22,0,.32-.28.38-.47A1,1,0,0,1,2.8.23,1.2,1.2,0,0,0,1.54.58a.09.09,0,0,1-.13,0,.09.09,0,0,1,0-.13A1.14,1.14,0,0,1,1.8.14a1.6,1.6,0,0,1,1.25,0,.1.1,0,0,1,.07.08.11.11,0,0,1-.05.09c-.14.08-.37.25-.41.38s-.18.57-.55.59Z"/><path d="M3.08,2.12A1.86,1.86,0,0,1,1.6,1.57a.1.1,0,0,1,0-.14.09.09,0,0,1,.13,0,1.67,1.67,0,0,0,1.35.48,1.11,1.11,0,0,1-.22-.5C2.82,1,2.52,1,2.48,1a.11.11,0,0,1-.1-.09.1.1,0,0,1,.09-.1s.51,0,.61.62A1,1,0,0,0,3.37,2a.09.09,0,0,1,0,.1.09.09,0,0,1-.08.06Z"/><path d="M2.2,3.37H1.64a.11.11,0,0,1-.1-.09A5.82,5.82,0,0,1,1.46,2a.09.09,0,0,1,.12,0,.16.16,0,0,1,.06.08s.05.7.08,1.12h.39V1.89a.1.1,0,0,1,.1-.09.09.09,0,0,1,.09.09l0,1.38A.1.1,0,0,1,2.2,3.37Z"/><path d="M3.17,4H.63a.29.29,0,0,1-.29-.29V3.47a.29.29,0,0,1,.29-.29H3.17a.29.29,0,0,1,.29.29v.25A.29.29,0,0,1,3.17,4ZM.63,3.37a.09.09,0,0,0-.1.1v.25a.1.1,0,0,0,.1.1H3.17a.1.1,0,0,0,.1-.1V3.47a.09.09,0,0,0-.1-.1Z"/><path d="M2.69,5.48H1.11a.29.29,0,0,1-.29-.25L.65,3.93a.11.11,0,0,1,0-.08.11.11,0,0,1,.07,0H3.06a.09.09,0,0,1,.09.11L3,5.23A.29.29,0,0,1,2.69,5.48ZM.85,4,1,5.2a.1.1,0,0,0,.1.09H2.69a.11.11,0,0,0,.1-.09L3,4Z"/><path d="M2.21,2.36H1.56a.09.09,0,0,1-.09-.09.09.09,0,0,1,.09-.1h.65a.09.09,0,0,1,.1.1A.09.09,0,0,1,2.21,2.36Z"/><path d="M2.2,2.87H1.6a.09.09,0,0,1-.1-.09.1.1,0,0,1,.1-.1h.6a.1.1,0,0,1,.09.1A.09.09,0,0,1,2.2,2.87Z"/></g></g></svg>