<svg xmlns="http://www.w3.org/2000/svg" viewBox="0 0 5.22 5.13"><g id="Layer_2" data-name="Layer 2"><g id="Layer_1-2" data-name="Layer 1"><path d="M2.94,2.57a.1.1,0,0,1-.1-.1V1.69a.1.1,0,0,1,.1-.1.09.09,0,0,1,.1.1v.78A.09.09,0,0,1,2.94,2.57Z"/><path d="M2.67,5.13H.76a.37.37,0,0,1-.37-.37V.37A.38.38,0,0,1,.76,0H2.67A.37.37,0,0,1,3,.37V1a.09.09,0,0,1-.1.1.1.1,0,0,1-.1-.1V.37A.17.17,0,0,0,2.67.2H.76A.18.18,0,0,0,.59.37V4.76a.17.17,0,0,0,.17.17H2.67a.16.16,0,0,0,.17-.17.11.11,0,0,1,.1-.1.1.1,0,0,1,.1.1A.36.36,0,0,1,2.67,5.13Z"/><path d="M4.06,1.79H1.79a.45.45,0,1,1,0-.9H4.06a.45.45,0,1,1,0,.9Zm-2.27-.7a.25.25,0,0,0,0,.5H4.06a.25.25,0,0,0,0-.5Z"/><path d="M1.72,2.26a.92.92,0,1,1,0-1.84A.93.93,0,0,1,2.55,1a.12.12,0,0,1,0,.1.1.1,0,0,1-.09,0H1.79a.25.25,0,0,0,0,.5h.67a.1.1,0,0,1,.09,0,.12.12,0,0,1,0,.1A.93.93,0,0,1,1.72,2.26Zm0-1.64a.72.72,0,1,0,0,1.44.71.71,0,0,0,.56-.27H1.79a.45.45,0,1,1,0-.9h.49A.71.71,0,0,0,1.72.62Z"/><path d="M1.68,4.73a.32.32,0,0,1-.32-.32V2.85a.32.32,0,0,1,.32-.32A.32.32,0,0,1,2,2.85V4.41A.33.33,0,0,1,1.68,4.73Zm0-2a.12.12,0,0,0-.12.12V4.41a.12.12,0,0,0,.12.12.13.13,0,0,0,.12-.12V2.85A.12.12,0,0,0,1.68,2.73Z"/><path d="M4.29,4.47H2.44a.23.23,0,0,1-.24-.23V3a.24.24,0,0,1,.24-.24H4.29A.24.24,0,0,1,4.53,3V4.24A.23.23,0,0,1,4.29,4.47ZM2.44,3a0,0,0,0,0,0,0V4.24a0,0,0,0,0,0,0H4.29a0,0,0,0,0,0,0V3a0,0,0,0,0,0,0Z"/><path d="M3.91,3.47h-1a.1.1,0,0,1-.1-.1.11.11,0,0,1,.1-.1h1a.11.11,0,0,1,.1.1A.1.1,0,0,1,3.91,3.47Z"/><path d="M5.12,5.13H.1A.09.09,0,0,1,0,5a.1.1,0,0,1,.1-.1h5a.11.11,0,0,1,.1.1A.1.1,0,0,1,5.12,5.13Z"/></g></g></svg>