<svg xmlns="http://www.w3.org/2000/svg" viewBox="0 0 5.03 4.99"><g id="Layer_2" data-name="Layer 2"><g id="Layer_1-2" data-name="Layer 1"><path d="M1.42,2.33a.91.91,0,1,1,.91-.91A.91.91,0,0,1,1.42,2.33Zm0-1.62a.71.71,0,1,0,.71.71A.71.71,0,0,0,1.42.71Z"/><path d="M4.52,1.09a.1.1,0,0,1-.1-.1V.67a.09.09,0,0,1,.1-.1.1.1,0,0,1,.1.1V1A.11.11,0,0,1,4.52,1.09Z"/><path d="M4.52,2.27a.09.09,0,0,1-.1-.1V1.94a.09.09,0,0,1,.1-.1.1.1,0,0,1,.1.1v.23A.1.1,0,0,1,4.52,2.27Z"/><path d="M4.52,1.75a.09.09,0,0,1-.1-.1V1.42a.1.1,0,0,1,.1-.1.11.11,0,0,1,.1.1v.23A.1.1,0,0,1,4.52,1.75Z"/><path d="M1.42,2.84A1.42,1.42,0,1,1,2.56.57H4.43a.3.3,0,0,1,.3-.22.29.29,0,0,1,.3.3V2.19a.3.3,0,0,1-.3.31.31.31,0,0,1-.3-.23H2.56A1.42,1.42,0,0,1,1.42,2.84ZM1.42.2a1.22,1.22,0,0,0,0,2.44,1.21,1.21,0,0,0,1-.53.13.13,0,0,1,.09,0h2a.11.11,0,0,1,.1.1v0a.11.11,0,0,0,.11.11.1.1,0,0,0,.1-.11V.65a.1.1,0,0,0-.1-.11.11.11,0,0,0-.11.11v0a.11.11,0,0,1-.1.1h-2a.13.13,0,0,1-.09,0A1.21,1.21,0,0,0,1.42.2Z"/><path d="M1.4,5a.63.63,0,0,1-.63-.63V2.62a.1.1,0,0,1,0-.08.1.1,0,0,1,.09,0,1.25,1.25,0,0,0,1.14-.06.09.09,0,0,1,.1,0,.11.11,0,0,1,.05.09l-.05.62A.1.1,0,0,1,2,3.27.09.09,0,0,1,2,3.17l0-.45a1.41,1.41,0,0,1-1,0V4.36a.43.43,0,0,0,.43.43.43.43,0,0,0,.43-.39l.07-.66A.09.09,0,0,1,2,3.65a.1.1,0,0,1,.09.11L2,4.42A.63.63,0,0,1,1.4,5Z"/><path d="M2.07,3.85H1.78a.11.11,0,0,1-.1-.1.1.1,0,0,1,.1-.1h.29a.08.08,0,0,0,.08-.08l0-.2a.14.14,0,0,0,0-.07.09.09,0,0,0-.06,0H1.87a.09.09,0,0,1-.1-.1.1.1,0,0,1,.1-.1H2.1a.3.3,0,0,1,.21.1.29.29,0,0,1,.07.22l0,.21A.29.29,0,0,1,2.07,3.85Z"/><path d="M3.68,1.3h-1a.11.11,0,0,1-.1-.1.1.1,0,0,1,.1-.1h1a.09.09,0,0,1,.1.1A.1.1,0,0,1,3.68,1.3Z"/><path d="M3.68,1.74h-1a.1.1,0,0,1-.1-.1.11.11,0,0,1,.1-.1h1a.1.1,0,0,1,.1.1A.09.09,0,0,1,3.68,1.74Z"/><path d="M3.75,5H.48a.09.09,0,0,1-.1-.1.1.1,0,0,1,.1-.1H3.75a.11.11,0,0,1,.1.1A.1.1,0,0,1,3.75,5Z"/></g></g></svg>