<svg xmlns="http://www.w3.org/2000/svg" viewBox="0 0 5.28 4.69"><g id="Layer_2" data-name="Layer 2"><g id="Layer_1-2" data-name="Layer 1"><path d="M.91,3.77H.36A.37.37,0,0,1,0,3.4v-1a.52.52,0,0,1,.49-.52.51.51,0,0,1,.36.15A.48.48,0,0,1,1,2.42V3.67A.09.09,0,0,1,.91,3.77ZM.5,2.1h0a.34.34,0,0,0-.3.33v1a.18.18,0,0,0,.17.18H.81V2.42a.32.32,0,0,0-.09-.23A.36.36,0,0,0,.5,2.1Z"/><path d="M3.13,3.77H2.59a.09.09,0,0,1-.1-.1V2.43A.52.52,0,0,1,3,1.91a.51.51,0,0,1,.36.15.48.48,0,0,1,.15.36v1A.37.37,0,0,1,3.13,3.77Zm-.45-.19h.45A.17.17,0,0,0,3.3,3.4v-1A.31.31,0,0,0,3,2.1a.34.34,0,0,0-.3.33Z"/><path d="M2.59,3.77H.91a.1.1,0,0,1-.1-.1V2.42a.32.32,0,0,0-.14-.27.1.1,0,0,1-.05-.08V1.75a1.13,1.13,0,1,1,2.25,0v.32a.09.09,0,0,1,0,.08.33.33,0,0,0-.15.27V3.67A.09.09,0,0,1,2.59,3.77ZM1,3.58H2.49V2.42A.51.51,0,0,1,2.68,2V1.75a.94.94,0,1,0-1.87,0V2a.51.51,0,0,1,.19.4Z"/><path d="M2.59,3.77H.91a.1.1,0,0,1-.1-.1V3.35a.41.41,0,0,1,.42-.41h1a.41.41,0,0,1,.41.41v.32A.09.09,0,0,1,2.59,3.77ZM1,3.58H2.49V3.35a.22.22,0,0,0-.22-.22h-1A.22.22,0,0,0,1,3.35Z"/><path d="M2,1.38H1.49a.1.1,0,0,1-.09-.1.09.09,0,0,1,.09-.09H2a.1.1,0,0,1,.1.09A.11.11,0,0,1,2,1.38Z"/><path d="M2.27,1.81h-1a.09.09,0,0,1-.09-.1.09.09,0,0,1,.09-.09H2.27a.09.09,0,0,1,.1.09A.09.09,0,0,1,2.27,1.81Z"/><path d="M2.2,2.24H1.29a.09.09,0,0,1-.09-.09.09.09,0,0,1,.09-.1H2.2a.1.1,0,0,1,.1.1A.1.1,0,0,1,2.2,2.24Z"/><path d="M2.15,2.68h-.8a.1.1,0,1,1,0-.2h.8a.1.1,0,0,1,0,.2Z"/><path d="M1,4.69H.36a.12.12,0,0,1-.08,0,.11.11,0,0,1,0-.08l.21-.92a.1.1,0,0,1,.09-.07H.92A.09.09,0,0,1,1,3.66l.08.92a.08.08,0,0,1,0,.08A.09.09,0,0,1,1,4.69ZM.48,4.5H.89L.83,3.77H.64Z"/><path d="M3.14,4.69H2.5a.08.08,0,0,1-.07,0,.11.11,0,0,1,0-.08l.08-.92a.11.11,0,0,1,.1-.08h.35A.1.1,0,0,1,3,3.65l.21.92a.08.08,0,0,1,0,.08A.1.1,0,0,1,3.14,4.69ZM2.6,4.5H3l-.17-.73H2.66Z"/><path d="M.5,2.68H.1a.1.1,0,1,1,0-.2H.5a.1.1,0,1,1,0,.2Z"/><path d="M3.4,2.68H3a.1.1,0,0,1,0-.2H3.4a.1.1,0,0,1,0,.2Z"/><path d="M5.18,4.69H.1a.09.09,0,0,1-.1-.1A.09.09,0,0,1,.1,4.5H5.18a.1.1,0,0,1,.1.09A.1.1,0,0,1,5.18,4.69Z"/><path d="M4.94,4.69H3.85a.09.09,0,0,1-.07,0,.08.08,0,0,1,0-.08L4,2.31a.11.11,0,0,1,.1-.09h.6a.11.11,0,0,1,.09.09L5,4.58a.08.08,0,0,1,0,.08A.09.09,0,0,1,4.94,4.69ZM4,4.5h.87L4.61,2.41H4.18Z"/><path d="M4.8,2.41H4a.29.29,0,1,1,0-.57H4.8a.29.29,0,1,1,0,.57ZM4,2a.09.09,0,0,0-.1.1.09.09,0,0,0,.1.09H4.8a.09.09,0,0,0,.1-.09A.09.09,0,0,0,4.8,2Z"/><path d="M4.4,4.69a.09.09,0,0,1-.1-.1V3.07A.09.09,0,0,1,4.4,3a.09.09,0,0,1,.09.1V4.59A.09.09,0,0,1,4.4,4.69Z"/><path d="M4.8,2H4A.1.1,0,0,1,3.89,2L3.7,1a.11.11,0,0,1,0-.08.12.12,0,0,1,.08,0H5a.12.12,0,0,1,.08,0,.11.11,0,0,1,0,.08L4.9,2A.1.1,0,0,1,4.8,2Zm-.73-.19h.65l.16-.74h-1Z"/><path d="M4.6,1.1H4.19A.1.1,0,0,1,4.1,1a1.07,1.07,0,0,1,0-.75A.52.52,0,0,1,4.36,0h.07a.49.49,0,0,1,.3.28,1.07,1.07,0,0,1,0,.75A.1.1,0,0,1,4.6,1.1ZM4.26.91h.27a.81.81,0,0,0,0-.54A.38.38,0,0,0,4.4.2a.35.35,0,0,0-.17.17A.81.81,0,0,0,4.26.91Z"/><path d="M4.85,1.1a.08.08,0,0,1-.07,0,.09.09,0,0,1,0-.13C4.94.79,5.17.51,5,.26a.37.37,0,0,0-.29.13.09.09,0,0,1-.13,0,.09.09,0,0,1,0-.13A.51.51,0,0,1,5.06.08a.06.06,0,0,1,.06,0c.23.27.15.64-.21,1Z"/><path d="M3.94,1.1l-.06,0c-.36-.33-.44-.7-.21-1a.05.05,0,0,1,.05,0,.52.52,0,0,1,.5.18.09.09,0,0,1,0,.13.1.1,0,0,1-.14,0A.34.34,0,0,0,3.79.26c-.17.25.06.53.22.68a.09.09,0,0,1,0,.13A.09.09,0,0,1,3.94,1.1Z"/></g></g></svg>