<svg xmlns="http://www.w3.org/2000/svg" viewBox="0 0 4.81 5.13"><g id="Layer_2" data-name="Layer 2"><g id="Layer_1-2" data-name="Layer 1"><path d="M2.73,3.51c-.06,0-.11,0-.1-.11A.54.54,0,0,1,3,2.91V2.19a.09.09,0,0,1,.1-.1.1.1,0,0,1,.1.1V3a.11.11,0,0,1-.09.1.35.35,0,0,0-.32.32A.11.11,0,0,1,2.73,3.51Z"/><path d="M3.14,4.52H1.67a.09.09,0,0,1-.1-.1V4.13a1.9,1.9,0,0,0-.09-.58l-.06-.18a.78.78,0,0,1,0-.22V3a.09.09,0,0,1,.1-.1.1.1,0,0,1,.1.1v.11a.78.78,0,0,0,0,.16l.06.18a2.31,2.31,0,0,1,.1.64v.19H3V4a.61.61,0,0,1,.17-.43l.22-.24A.52.52,0,0,0,3.57,3V2.2A.18.18,0,0,0,3.42,2a.17.17,0,0,0-.18.17.11.11,0,0,1-.1.1.1.1,0,0,1-.1-.1.36.36,0,0,1,.12-.27.4.4,0,0,1,.28-.1.39.39,0,0,1,.33.38V3a.72.72,0,0,1-.2.5l-.21.23a.42.42,0,0,0-.12.3v.39A.1.1,0,0,1,3.14,4.52Z"/><path d="M3.53,5.13H1.27a.1.1,0,0,1-.1-.1V4.69a.38.38,0,0,1,.37-.37H3.27a.37.37,0,0,1,.36.37V5A.09.09,0,0,1,3.53,5.13Zm-2.16-.2H3.43V4.69a.17.17,0,0,0-.16-.17H1.54a.18.18,0,0,0-.17.17Z"/><path d="M3.46,2a.1.1,0,0,1-.1-.1V1.08a.1.1,0,0,1,.1-.1.09.09,0,0,1,.1.1v.84A.09.09,0,0,1,3.46,2Z"/><path d="M3,3.14H1.28a.3.3,0,0,1-.3-.3V.3a.29.29,0,0,1,.3-.3h2a.29.29,0,0,1,.3.3V.63a.09.09,0,0,1-.1.1.1.1,0,0,1-.1-.1V.3a.09.09,0,0,0-.1-.1h-2a.09.09,0,0,0-.1.1V2.84a.1.1,0,0,0,.1.1H3a.09.09,0,0,1,.1.1A.1.1,0,0,1,3,3.14Z"/><path d="M4.71,5.13H.1A.09.09,0,0,1,0,5a.1.1,0,0,1,.1-.1H4.71a.11.11,0,0,1,.1.1A.1.1,0,0,1,4.71,5.13Z"/><path d="M1.68,3.14a.1.1,0,0,1-.1-.1V.1a.09.09,0,0,1,.1-.1.1.1,0,0,1,.1.1V3A.11.11,0,0,1,1.68,3.14Z"/><path d="M2.21,1.32a.1.1,0,0,1-.1-.1V.56a.1.1,0,0,1,.1-.1.09.09,0,0,1,.1.1v.66A.09.09,0,0,1,2.21,1.32Z"/><path d="M2.78,1.32a.09.09,0,0,1-.09-.1V.56a.09.09,0,0,1,.09-.1.09.09,0,0,1,.1.1v.66A.09.09,0,0,1,2.78,1.32Z"/></g></g></svg>