<svg xmlns="http://www.w3.org/2000/svg" viewBox="0 0 5.16 5.33"><g id="Layer_2" data-name="Layer 2"><g id="Layer_1-2" data-name="Layer 1"><path d="M3.19,5.33A.35.35,0,0,1,2.84,5V4.81a.1.1,0,0,1,.1-.1h.49a.09.09,0,0,1,.1.1V5A.35.35,0,0,1,3.19,5.33ZM3,4.91V5a.15.15,0,0,0,.15.15A.15.15,0,0,0,3.33,5V4.91Z"/><path d="M4.2,5.33A.35.35,0,0,1,3.85,5V4.81a.1.1,0,0,1,.1-.1h.49a.09.09,0,0,1,.1.1V5A.35.35,0,0,1,4.2,5.33Zm-.15-.42V5a.15.15,0,0,0,.15.15A.15.15,0,0,0,4.34,5V4.91Z"/><path d="M4.49,4.91H2.89a.5.5,0,0,1-.49-.5V3.31A1.3,1.3,0,1,1,5,3.31v1.1A.5.5,0,0,1,4.49,4.91Zm-.8-2.7a1.1,1.1,0,0,0-1.1,1.1v1.1a.31.31,0,0,0,.3.3h1.6a.3.3,0,0,0,.3-.3V3.31A1.1,1.1,0,0,0,3.69,2.21Z"/><path d="M3.36,2.26l-.06,0a.09.09,0,0,1,0-.08V1.87a.23.23,0,0,1,.23-.23h.4a.23.23,0,0,1,.23.23v.29a.11.11,0,0,1,0,.08.15.15,0,0,1-.09,0,1.06,1.06,0,0,0-.61,0Zm.13-.42a0,0,0,0,0,0,0V2a1.85,1.85,0,0,1,.47,0V1.87s0,0,0,0Z"/><path d="M2.07,5.33H.41a.17.17,0,0,1-.16-.17V5a.39.39,0,0,1,.28-.38l.38-.12v-3A1.54,1.54,0,0,1,4,1.54v.2a.1.1,0,0,1-.1.1h-.4a.11.11,0,0,1-.1-.1V1.53a.91.91,0,0,0-1.82,0v3L2,4.65A.4.4,0,0,1,2.24,5v.13A.17.17,0,0,1,2.07,5.33ZM.44,5.13H2V5a.2.2,0,0,0-.14-.19L1.44,4.7a.1.1,0,0,1-.07-.09V1.53a1.11,1.11,0,0,1,2.22,0v.11h.2v-.1a1.34,1.34,0,0,0-2.68,0V4.61A.09.09,0,0,1,1,4.7l-.45.14A.19.19,0,0,0,.44,5Z"/><path d="M1.18,4.71H1a.11.11,0,0,1-.1-.1.1.1,0,0,1,.1-.1h.17a.1.1,0,0,1,.1.1A.11.11,0,0,1,1.18,4.71Z"/><path d="M1.47,4.29H1a.1.1,0,0,1-.1-.1.11.11,0,0,1,.1-.1h.46a.1.1,0,0,1,.1.1A.09.09,0,0,1,1.47,4.29Z"/><path d="M3.69,3.81a.56.56,0,0,1-.57-.57.57.57,0,0,1,.57-.58.58.58,0,0,1,.58.58A.57.57,0,0,1,3.69,3.81Zm0-1a.37.37,0,0,0-.37.38.36.36,0,0,0,.37.37.37.37,0,0,0,.38-.37A.38.38,0,0,0,3.69,2.86Z"/><path d="M3.24,4.53H3a.22.22,0,0,1-.23-.22V4.18A.22.22,0,0,1,3,4h.26a.22.22,0,0,1,.22.22v.13A.22.22,0,0,1,3.24,4.53ZM3,4.16s0,0,0,0v.13s0,0,0,0h.26a0,0,0,0,0,0,0V4.18l0,0Z"/><path d="M4.41,4.53H4.15a.22.22,0,0,1-.22-.22V4.18A.22.22,0,0,1,4.15,4h.26a.22.22,0,0,1,.22.22v.13A.22.22,0,0,1,4.41,4.53Zm-.26-.37,0,0v.13s0,0,0,0h.26a0,0,0,0,0,0,0V4.18l0,0Z"/><path d="M2.85,3.71a.11.11,0,0,1-.1-.1V3.15a.11.11,0,0,1,.1-.1.1.1,0,0,1,.1.1v.46A.1.1,0,0,1,2.85,3.71Z"/><path d="M4.53,3.71a.11.11,0,0,1-.1-.1V3.15a.11.11,0,0,1,.1-.1.1.1,0,0,1,.1.1v.46A.1.1,0,0,1,4.53,3.71Z"/><path d="M5.06,5.33H.1a.1.1,0,0,1-.1-.1.09.09,0,0,1,.1-.1h5a.1.1,0,0,1,.1.1A.11.11,0,0,1,5.06,5.33Z"/></g></g></svg>