<svg xmlns="http://www.w3.org/2000/svg" viewBox="0 0 5.41 4.82"><g id="Layer_2" data-name="Layer 2"><g id="Layer_1-2" data-name="Layer 1"><path d="M5.07,4.08H1.93a.34.34,0,0,1-.34-.34V1.3a.11.11,0,0,1,.1-.1H5.31a.1.1,0,0,1,.1.1V3.74A.34.34,0,0,1,5.07,4.08ZM1.79,1.4V3.74a.15.15,0,0,0,.14.14H5.07a.14.14,0,0,0,.14-.14V1.4Z"/><path d="M5.31,3.37H1.69a.11.11,0,0,1-.1-.1.1.1,0,0,1,.1-.1H5.31a.09.09,0,0,1,.1.1A.1.1,0,0,1,5.31,3.37Z"/><path d="M2.56,3.37a.11.11,0,0,1-.1-.1V2.48a.1.1,0,0,1,.1-.1.09.09,0,0,1,.1.1v.79A.1.1,0,0,1,2.56,3.37Z"/><path d="M4.52,3.37a.1.1,0,0,1-.1-.1V2.64a.09.09,0,0,1,.1-.1.1.1,0,0,1,.1.1v.63A.11.11,0,0,1,4.52,3.37Z"/><path d="M3.54,3.37a.1.1,0,0,1-.1-.1V2.11a.1.1,0,1,1,.2,0V3.27A.1.1,0,0,1,3.54,3.37Z"/><path d="M2.61,4.82a.31.31,0,1,1,.31-.31A.31.31,0,0,1,2.61,4.82Zm0-.43a.12.12,0,0,0-.11.12.11.11,0,0,0,.22,0A.12.12,0,0,0,2.61,4.39Z"/><path d="M4.39,4.82a.31.31,0,1,1,.32-.31A.31.31,0,0,1,4.39,4.82Zm0-.43a.12.12,0,0,0-.11.12.11.11,0,0,0,.11.11.11.11,0,0,0,.12-.11A.12.12,0,0,0,4.39,4.39Z"/><path d="M4.22,4.49H2.79a.1.1,0,0,1-.1-.1.09.09,0,0,1,.1-.1H4.22a.1.1,0,0,1,.1.1A.11.11,0,0,1,4.22,4.49Z"/><path d="M1.69,1.4a.1.1,0,0,1-.1-.1V.8a.07.07,0,0,0,0-.06L1.29.39a.06.06,0,0,0-.06,0,.06.06,0,0,0,0,0s0,0,0,0L1.4.69a.1.1,0,0,1-.15.13L1.05.58A.28.28,0,0,1,1,.42.23.23,0,0,1,1.17.19a.23.23,0,0,1,.27.07l.29.36A.28.28,0,0,1,1.79.8v.5A.09.09,0,0,1,1.69,1.4Z"/><path d="M4.36,1.4H2.84a.26.26,0,1,1,0-.51H4.36a.26.26,0,1,1,0,.51ZM2.84,1.09a.06.06,0,0,0-.06,0,.06.06,0,0,0,.06.06H4.36a.06.06,0,0,0,.06-.06.06.06,0,0,0-.06,0Z"/><path d="M4.35,1.09a.11.11,0,0,1-.1-.1A.65.65,0,1,0,3,1a.11.11,0,0,1-.1.1.1.1,0,0,1-.1-.1.85.85,0,0,1,1.7,0A.1.1,0,0,1,4.35,1.09Z"/><path d="M3.6.33a.09.09,0,0,1-.1-.1V.1a.1.1,0,0,1,.2,0V.23A.09.09,0,0,1,3.6.33Z"/><path d="M5.18,4.82H.25a.09.09,0,0,1-.1-.1.1.1,0,0,1,.1-.1H5.18a.11.11,0,0,1,.1.1A.1.1,0,0,1,5.18,4.82Z"/><path d="M.9,4H.36a.1.1,0,0,1-.1-.1.11.11,0,0,1,.1-.1H.9a.1.1,0,0,1,.1.1A.09.09,0,0,1,.9,4Z"/><path d="M.71,3.1H.1A.1.1,0,0,1,0,3a.09.09,0,0,1,.1-.1H.71a.09.09,0,0,1,.1.1A.1.1,0,0,1,.71,3.1Z"/><path d="M2.48,4.44a.11.11,0,0,1-.09-.05L2.19,4a.1.1,0,0,1,.17-.09l.2.36a.11.11,0,0,1,0,.14Z"/><path d="M4.53,4.44h0a.1.1,0,0,1,0-.14l.2-.36A.1.1,0,0,1,4.82,4l-.21.37A.09.09,0,0,1,4.53,4.44Z"/></g></g></svg>