<svg xmlns="http://www.w3.org/2000/svg" viewBox="0 0 98.31 5.57"><defs><style>.cls-1{fill:#fff;opacity:0.2;}</style></defs><g id="Layer_2" data-name="Layer 2"><g id="Layer_1-2" data-name="Layer 1"><path class="cls-1" d="M95.7,3.73l-2,1.78-6.93,0c1.07-1.33,3.81-4.12,3.81-4.25s-3.9,2.78-6,4.25l-7.62,0c1.49-1.38,4.42-3.79,4.48-3.84l-6.4,3.84-19.22,0,2.74-2.06L53.55,5.57H35.3l5.43-4.49c-.1.06-4.82,2.83-7.74,4.49H21l3.75-3.31c-.08,0-3.34,2-5.67,3.31l-9,0,3.68-2.34L8.08,5.53c-5,0-8.06,0-8.08-.07S3.7,3.14,3.76,2.84c0-.11-.46-.47-1.07-.89L6.46.11h6.91l-2,1.7L14.84.11h6.87L19,2.88,22.81.12H31.3c-1.56,1.45-3.73,3.33-3.78,3.38L33.39.13H43.3L41.86,3,44.62.14h8.66L48.47,3.51,54.58.15H65.9L66,.91l.83-.76h7.21L69.74,4l6-3.91,9.63,0L83.6,2.56l3-2.47C90,.07,92.7,0,94.33,0s3.81.07,4,.13S94.62,2.3,94.46,2.69C94.39,2.83,95,3.26,95.7,3.73Z"/></g></g></svg>