<svg xmlns="http://www.w3.org/2000/svg" viewBox="0 0 5.06 5.36"><g id="Layer_2" data-name="Layer 2"><g id="Layer_1-2" data-name="Layer 1"><path d="M4.62,4.34H.44a.1.1,0,0,1-.1-.1V2.41A2.21,2.21,0,0,1,1.26.63a.11.11,0,0,1,.14,0,.11.11,0,0,1,0,.14A2,2,0,0,0,.54,2.41V4.14h4V2.41A2,2,0,0,0,3.68.79a.09.09,0,0,1,0-.14.09.09,0,0,1,.13,0,2.2,2.2,0,0,1,.93,1.78V4.24A.1.1,0,0,1,4.62,4.34Z"/><path d="M3.55.92a.42.42,0,0,1-.16,0,1.72,1.72,0,0,0-1.72,0A.33.33,0,0,1,1.23.75.32.32,0,0,1,1.35.31a2.4,2.4,0,0,1,2.36,0,.32.32,0,0,1,.12.44A.34.34,0,0,1,3.55.92Zm-1-.47a2,2,0,0,1,1,.25.13.13,0,0,0,.18,0A.13.13,0,0,0,3.61.48a2.22,2.22,0,0,0-2.16,0A.13.13,0,0,0,1.4.65a.13.13,0,0,0,.18,0A2,2,0,0,1,2.53.45Z"/><path d="M1.2,5.36a.42.42,0,1,1,.41-.42A.41.41,0,0,1,1.2,5.36Zm0-.63A.21.21,0,0,0,1,4.94a.21.21,0,1,0,.42,0A.21.21,0,0,0,1.2,4.73Z"/><path d="M3.86,5.36a.42.42,0,1,1,.41-.42A.41.41,0,0,1,3.86,5.36Zm0-.63a.21.21,0,0,0-.21.21.21.21,0,1,0,.42,0A.21.21,0,0,0,3.86,4.73Z"/><path d="M4.74,5H4.17a.1.1,0,0,1-.1-.08.21.21,0,0,0-.42,0,.1.1,0,0,1-.1.08h-2a.1.1,0,0,1-.1-.08A.21.21,0,0,0,1,4.9.1.1,0,0,1,.89,5H.32a.23.23,0,0,1-.23-.23V4.37a.23.23,0,0,1,.23-.23H4.74A.22.22,0,0,1,5,4.37v.38A.22.22,0,0,1,4.74,5Zm-.5-.2h.5a0,0,0,0,0,0,0V4.37a0,0,0,0,0,0,0H.32a0,0,0,0,0,0,0v.38a0,0,0,0,0,0,0h.5a.41.41,0,0,1,.76,0h1.9a.41.41,0,0,1,.76,0Z"/><path d="M2.49,4.34H1.16a.23.23,0,0,1-.23-.23V3.85a.23.23,0,0,1,.23-.23H2.49a.23.23,0,0,1,.23.23v.26A.23.23,0,0,1,2.49,4.34ZM1.16,3.82a0,0,0,0,0,0,0v.26a0,0,0,0,0,0,0H2.49a0,0,0,0,0,0,0V3.85a0,0,0,0,0,0,0Z"/><path d="M2.84,4.08H2.63a.1.1,0,0,1-.1-.1.11.11,0,0,1,.1-.1h.21a.1.1,0,0,1,.1.1A.09.09,0,0,1,2.84,4.08Z"/><path d="M2.24,3.82H.91a.23.23,0,0,1-.23-.23V3.33A.23.23,0,0,1,.91,3.1H2.24a.23.23,0,0,1,.23.23v.26A.23.23,0,0,1,2.24,3.82ZM.91,3.3a0,0,0,0,0,0,0v.26a0,0,0,0,0,0,0H2.24a0,0,0,0,0,0,0V3.33a0,0,0,0,0,0,0Z"/><path d="M2.58,3.56H2.37a.1.1,0,0,1-.1-.1.11.11,0,0,1,.1-.1h.21a.1.1,0,0,1,.1.1A.09.09,0,0,1,2.58,3.56Z"/><path d="M2.77,3.3H1.44a.23.23,0,0,1-.23-.23V2.81a.23.23,0,0,1,.23-.23H2.77A.23.23,0,0,1,3,2.81v.26A.23.23,0,0,1,2.77,3.3ZM1.44,2.78a0,0,0,0,0,0,0v.26a0,0,0,0,0,0,0H2.77a0,0,0,0,0,0,0V2.81a0,0,0,0,0,0,0Z"/><path d="M3.15,3H2.94a.11.11,0,0,1-.1-.1.1.1,0,0,1,.1-.1h.21a.09.09,0,0,1,.1.1A.1.1,0,0,1,3.15,3Z"/><path d="M2.55,2.78h-1a.11.11,0,0,1-.1-.1V2.41a.61.61,0,0,1,1.21,0v.27A.11.11,0,0,1,2.55,2.78Zm-.91-.2h.81V2.41a.41.41,0,0,0-.81,0Z"/><path d="M2.27,2.06h0a.38.38,0,0,0-.36,0,.12.12,0,0,1-.1,0A.09.09,0,0,1,1.72,2V1.73A.23.23,0,0,1,2,1.5h.19a.23.23,0,0,1,.23.23V2A.09.09,0,0,1,2.32,2Zm-.22-.25h.12V1.73a0,0,0,0,0,0,0H2a0,0,0,0,0,0,0v.09Z"/><path d="M2.2,2.51H1.54a.11.11,0,0,1-.1-.1.1.1,0,0,1,.1-.1H2.2a.1.1,0,0,1,.1.1A.11.11,0,0,1,2.2,2.51Z"/><path d="M4,4.34H3.63a.23.23,0,0,1-.23-.23V2.59a.23.23,0,0,1,.23-.23H4a.23.23,0,0,1,.23.23V4.11A.23.23,0,0,1,4,4.34ZM3.63,2.56a0,0,0,0,0,0,0V4.11a0,0,0,0,0,0,0H4a0,0,0,0,0,0,0V2.59a0,0,0,0,0,0,0Z"/><path d="M3.82,2.56a.1.1,0,0,1-.1-.1V2.15a.1.1,0,0,1,.1-.1.11.11,0,0,1,.1.1v.31A.11.11,0,0,1,3.82,2.56Z"/><path d="M4.14,3H3.5a.09.09,0,0,1-.1-.1.1.1,0,0,1,.1-.1h.64a.11.11,0,0,1,.1.1A.1.1,0,0,1,4.14,3Z"/><path d="M5,5.36H.1a.1.1,0,0,1-.1-.1.09.09,0,0,1,.1-.1H5a.1.1,0,0,1,.1.1A.11.11,0,0,1,5,5.36Z"/></g></g></svg>