<svg xmlns="http://www.w3.org/2000/svg" viewBox="0 0 5.43 5.21"><g id="Layer_2" data-name="Layer 2"><g id="Layer_1-2" data-name="Layer 1"><path d="M4.39,5.21A.35.35,0,0,1,4,4.86V4.65H1.4v.21a.35.35,0,0,1-.7,0V2.47A.43.43,0,0,1,1.08,2a.41.41,0,0,1,.4.2.2.2,0,0,0,.17.11H3.78A.21.21,0,0,0,4,2.24a.41.41,0,0,1,.4-.2.42.42,0,0,1,.37.43V4.86A.35.35,0,0,1,4.39,5.21ZM1.3,4.45H4.14a.11.11,0,0,1,.1.1v.31A.15.15,0,0,0,4.39,5a.15.15,0,0,0,.14-.15V2.47a.22.22,0,0,0-.19-.23.21.21,0,0,0-.21.1.42.42,0,0,1-.35.21H1.65a.39.39,0,0,1-.34-.21.22.22,0,0,0-.41.13V4.86a.15.15,0,0,0,.3,0V4.55A.1.1,0,0,1,1.3,4.45Z"/><path d="M4.63,2a.1.1,0,0,1-.1-.1V.42A.21.21,0,0,0,4.32.2.22.22,0,0,0,4.1.42a.1.1,0,0,1-.1.1H1.43a.11.11,0,0,1-.1-.1A.21.21,0,0,0,1.12.2.22.22,0,0,0,.9.42V1.85A.09.09,0,0,1,.8,2a.1.1,0,0,1-.1-.1V.42A.42.42,0,0,1,1.12,0a.42.42,0,0,1,.4.32H3.91A.43.43,0,0,1,4.32,0a.41.41,0,0,1,.41.42V1.85A.09.09,0,0,1,4.63,2Z"/><path d="M3.35,2.18H2.09a.56.56,0,1,1,0-1.12H3.35a.56.56,0,0,1,0,1.12ZM2.09,1.26a.36.36,0,1,0,0,.72H3.35a.36.36,0,1,0,0-.72Z"/><path d="M3.81,3.27H1.62a.1.1,0,0,1-.1-.1.11.11,0,0,1,.1-.1H3.81a.1.1,0,0,1,.1.1A.09.09,0,0,1,3.81,3.27Z"/><path d="M3.81,3.86H1.62a.11.11,0,0,1-.1-.1.1.1,0,0,1,.1-.1H3.81a.09.09,0,0,1,.1.1A.1.1,0,0,1,3.81,3.86Z"/><path d="M1.76.92H1.41a.1.1,0,0,1-.1-.1.11.11,0,0,1,.1-.1h.35a.11.11,0,0,1,.1.1A.1.1,0,0,1,1.76.92Z"/><path d="M4,.92H3.68a.09.09,0,0,1-.1-.1.1.1,0,0,1,.1-.1H4a.1.1,0,0,1,.1.1A.09.09,0,0,1,4,.92Z"/><path d="M3.17,1.72h-.9a.1.1,0,0,1-.1-.1.09.09,0,0,1,.1-.1h.9a.09.09,0,0,1,.09.1A.1.1,0,0,1,3.17,1.72Z"/><path d="M5.33,5.21H.1a.1.1,0,0,1-.1-.1A.09.09,0,0,1,.1,5H5.33a.09.09,0,0,1,.1.1A.1.1,0,0,1,5.33,5.21Z"/></g></g></svg>