<svg xmlns="http://www.w3.org/2000/svg" viewBox="0 0 3.07 5.24"><g id="Layer_2" data-name="Layer 2"><g id="Layer_1-2" data-name="Layer 1"><path d="M2.59,5.24H.49A.49.49,0,0,1,0,4.75V1.56A1.59,1.59,0,0,1,1.45,0,1.52,1.52,0,0,1,2.78.64a.32.32,0,0,1,0,.35.34.34,0,0,1-.31.2.33.33,0,0,1-.29-.13A.83.83,0,0,0,1.54.71.87.87,0,0,0,.93,1a.84.84,0,0,0-.23.62.85.85,0,0,0,.86.79H2a.1.1,0,0,1,.09.1A.09.09,0,0,1,2,2.57H1.56a1,1,0,0,1-1-1A1.06,1.06,0,0,1,.79.84,1.05,1.05,0,0,1,1.54.52a1,1,0,0,1,.82.42A.14.14,0,0,0,2.5,1,.15.15,0,0,0,2.64.91a.15.15,0,0,0,0-.16A1.37,1.37,0,0,0,1.46.19,1.4,1.4,0,0,0,.19,1.56V4.75a.3.3,0,0,0,.3.3h2.1a.3.3,0,0,0,.29-.3V2.8a.23.23,0,0,0-.23-.23H2.41a.09.09,0,0,1-.09-.09.1.1,0,0,1,.09-.1h.24a.42.42,0,0,1,.42.42v2A.49.49,0,0,1,2.59,5.24Z"/><path d="M1.54,4.85a1,1,0,1,1,.72-.3A1,1,0,0,1,1.54,4.85ZM1.54,3a.83.83,0,1,0,.83.83.87.87,0,0,0-.24-.59A.86.86,0,0,0,1.54,3Z"/><path d="M.88,4.58a.09.09,0,0,1-.07,0,.1.1,0,0,1,0-.14L2.13,3.1a.09.09,0,0,1,.13.13L1,4.55A.11.11,0,0,1,.88,4.58Z"/></g></g></svg>