<svg xmlns="http://www.w3.org/2000/svg" viewBox="0 0 4.65 5.12"><g id="Layer_2" data-name="Layer 2"><g id="Layer_1-2" data-name="Layer 1"><path d="M3.66,5.12H1a.52.52,0,0,1-.52-.48l-.18-2a.11.11,0,0,1,0-.08.09.09,0,0,1,.07,0H4.26a.09.09,0,0,1,.07,0,.11.11,0,0,1,0,.08l-.18,2A.53.53,0,0,1,3.66,5.12ZM.5,2.75.67,4.62a.32.32,0,0,0,.32.3H3.66A.32.32,0,0,0,4,4.62l.17-1.87Z"/><path d="M4.29,2.75H.36A.36.36,0,0,1,.36,2H4.29a.36.36,0,1,1,0,.72ZM.36,2.23a.16.16,0,0,0,0,.32H4.29a.16.16,0,1,0,0-.32Z"/><path d="M2.14,2.23H.93a.09.09,0,0,1-.1-.1V1.5a.31.31,0,0,1,.31-.31h.79a.31.31,0,0,1,.31.31v.63A.09.09,0,0,1,2.14,2.23ZM1,2H2V1.5a.11.11,0,0,0-.11-.11H1.14A.12.12,0,0,0,1,1.5Z"/><path d="M2,1.39H1.11A.09.09,0,0,1,1,1.29V1.08a.52.52,0,1,1,1,0v.21A.09.09,0,0,1,2,1.39Zm-.74-.2h.64V1.08A.32.32,0,0,0,1.53.76a.32.32,0,0,0-.32.32Z"/><path d="M4,2.23H2.74a.1.1,0,0,1-.1-.1V1.54a.48.48,0,0,1,.19-.39L3.05,1l.06,0h.76a.2.2,0,0,1,.2.2v1A.09.09,0,0,1,4,2.23ZM2.84,2h1V1.15H3.15L3,1.3a.3.3,0,0,0-.12.24Z"/><path d="M3.88,1.15H3.11a.1.1,0,0,1-.1-.1V.75L2.43.69a.09.09,0,0,1-.09-.1V.27a.11.11,0,0,1,.08-.1L3.17,0h.44A.37.37,0,0,1,4,.37v.68A.09.09,0,0,1,3.88,1.15ZM3.21,1h.57V.37A.17.17,0,0,0,3.61.2H3.2L2.54.35V.5l.58.06a.11.11,0,0,1,.09.1Z"/><path d="M3.47.76H3.11A.1.1,0,0,1,3,.66a.11.11,0,0,1,.1-.1h.36a.1.1,0,0,1,.1.1A.09.09,0,0,1,3.47.76Z"/><path d="M3.4,3.5H1.25a.09.09,0,0,1-.1-.1.1.1,0,0,1,.1-.1H3.4a.1.1,0,0,1,.1.1A.09.09,0,0,1,3.4,3.5Z"/><path d="M4.42,5.12H.23A.1.1,0,0,1,.13,5a.09.09,0,0,1,.1-.1H4.42a.09.09,0,0,1,.1.1A.1.1,0,0,1,4.42,5.12Z"/><path d="M3.29,4.2H1.35a.11.11,0,0,1-.1-.1.1.1,0,0,1,.1-.1H3.29a.09.09,0,0,1,.1.1A.1.1,0,0,1,3.29,4.2Z"/></g></g></svg>