<svg xmlns="http://www.w3.org/2000/svg" viewBox="0 0 4.61 5.38"><g id="Layer_2" data-name="Layer 2"><g id="Layer_1-2" data-name="Layer 1"><path d="M2.31,5.38a2.31,2.31,0,1,1,2.3-2.3A2.3,2.3,0,0,1,2.31,5.38ZM2.31,1A2.12,2.12,0,1,0,4.42,3.08,2.12,2.12,0,0,0,2.31,1Z"/><path d="M2.46,5a.09.09,0,0,1-.07,0,.07.07,0,0,1,0-.06V4.55a0,0,0,0,0,0,0s-.06,0-.06,0v.36a.07.07,0,0,1,0,.06.11.11,0,0,1-.08,0A1.93,1.93,0,0,1,.38,3.24a.09.09,0,0,1,0-.07.09.09,0,0,1,.07,0H.83a.07.07,0,0,0,0,0,.08.08,0,0,0,0-.05A.08.08,0,0,0,.82,3H.48A.09.09,0,0,1,.41,3a.11.11,0,0,1,0-.07A1.93,1.93,0,0,1,2.14,1.16a.06.06,0,0,1,.07,0,.13.13,0,0,1,0,.07V1.6a.08.08,0,0,0,0,0h0s0,0,0-.07V1.25a.13.13,0,0,1,0-.07.06.06,0,0,1,.07,0A1.93,1.93,0,0,1,4.23,2.92.11.11,0,0,1,4.2,3a.09.09,0,0,1-.07,0H3.79a.08.08,0,0,0-.07,0,.08.08,0,0,0,0,.05.07.07,0,0,0,0,0h.35a.1.1,0,0,1,.1.1A1.93,1.93,0,0,1,2.47,5Zm-.15-.69a.24.24,0,0,1,.24.24V4.8A1.74,1.74,0,0,0,4,3.33H3.78a.21.21,0,0,1-.18-.09.26.26,0,0,1-.07-.19.27.27,0,0,1,.26-.22H4A1.73,1.73,0,0,0,2.55,1.36v.23a.25.25,0,0,1-.22.26.26.26,0,0,1-.19-.06.27.27,0,0,1-.08-.19V1.36A1.73,1.73,0,0,0,.58,2.83H.82a.27.27,0,0,1,.26.22A.26.26,0,0,1,1,3.24a.21.21,0,0,1-.18.09H.58A1.74,1.74,0,0,0,2.06,4.8V4.55A.25.25,0,0,1,2.31,4.31Z"/><path d="M1.7,2.12a.11.11,0,0,1-.09-.05l-.19-.33a.1.1,0,0,1,0-.13.1.1,0,0,1,.13,0L1.78,2a.1.1,0,0,1,0,.13Z"/><path d="M1.25,2.56H1.2L.87,2.36a.1.1,0,0,1,0-.13A.09.09,0,0,1,1,2.2l.33.19a.09.09,0,0,1,0,.13A.09.09,0,0,1,1.25,2.56Z"/><path d="M.92,4s-.07,0-.08,0a.09.09,0,0,1,0-.13l.33-.19a.09.09,0,0,1,.13,0,.1.1,0,0,1,0,.13L1,4Z"/><path d="M1.5,4.56h0a.1.1,0,0,1,0-.13l.19-.33a.09.09,0,0,1,.13,0,.1.1,0,0,1,0,.13l-.19.33A.11.11,0,0,1,1.5,4.56Z"/><path d="M3.11,4.56a.11.11,0,0,1-.09,0l-.19-.33a.1.1,0,0,1,0-.13.09.09,0,0,1,.13,0l.19.33a.1.1,0,0,1,0,.13Z"/><path d="M3.69,4h0l-.33-.19a.1.1,0,0,1,0-.13.09.09,0,0,1,.13,0l.33.19a.09.09,0,0,1,0,.13S3.72,4,3.69,4Z"/><path d="M3.36,2.56a.09.09,0,0,1-.08,0,.09.09,0,0,1,0-.13l.33-.19a.09.09,0,0,1,.13,0,.1.1,0,0,1,0,.13l-.33.19Z"/><path d="M2.91,2.12h0a.1.1,0,0,1,0-.13L3,1.64a.1.1,0,0,1,.13,0,.1.1,0,0,1,0,.13L3,2.07A.11.11,0,0,1,2.91,2.12Z"/><path d="M2.31,3.42A.34.34,0,0,1,2,3.08a.35.35,0,1,1,.69,0A.34.34,0,0,1,2.31,3.42Zm0-.5a.16.16,0,0,0-.16.16.16.16,0,0,0,.16.15.15.15,0,0,0,.15-.15A.16.16,0,0,0,2.31,2.92Z"/><path d="M2.31,2.92a.09.09,0,0,1-.1-.09V2.32a.09.09,0,0,1,.1-.09.09.09,0,0,1,.09.09v.51A.09.09,0,0,1,2.31,2.92Z"/><path d="M2.84,3.74a.11.11,0,0,1-.07,0L2.4,3.34a.1.1,0,0,1,0-.14.1.1,0,0,1,.13,0l.38.38a.1.1,0,0,1,0,.13A.09.09,0,0,1,2.84,3.74Z"/><path d="M2.86,1h0A.1.1,0,0,1,2.78.9.52.52,0,0,0,2.51.23h0a.58.58,0,0,0-.41,0h0A.52.52,0,0,0,1.83.9.1.1,0,0,1,1.78,1,.1.1,0,0,1,1.66,1a.68.68,0,0,1,0-.54A.69.69,0,0,1,2,.06H2a.66.66,0,0,1,.55,0h0A.69.69,0,0,1,3,.44.68.68,0,0,1,3,1,.09.09,0,0,1,2.86,1Z"/><path d="M2.58,1h0a.1.1,0,0,1,0-.13.22.22,0,0,0-.1-.29.22.22,0,0,0-.16,0,.23.23,0,0,0-.11.29A.1.1,0,0,1,2.07,1,.09.09,0,0,1,2,.9a.4.4,0,0,1,.2-.53.34.34,0,0,1,.31,0,.4.4,0,0,1,.2.53A.08.08,0,0,1,2.58,1Z"/></g></g></svg>