<svg xmlns="http://www.w3.org/2000/svg" viewBox="0 0 5.26 4.57"><g id="Layer_2" data-name="Layer 2"><g id="Layer_1-2" data-name="Layer 1"><path d="M5.17,4.57a.89.89,0,0,1-.86-.64H1a.89.89,0,0,1-.86.64A.09.09,0,0,1,0,4.48V2.12a.23.23,0,0,1,.23-.23H5a.23.23,0,0,1,.23.23V4.48A.09.09,0,0,1,5.17,4.57ZM.88,3.74h3.5a.09.09,0,0,1,.09.08.72.72,0,0,0,.6.56V2.12a0,0,0,0,0,0,0H.23a0,0,0,0,0,0,0V4.38a.72.72,0,0,0,.6-.56A.09.09,0,0,1,.88,3.74Z"/><path d="M5.17,2.22a.09.09,0,0,1-.1-.1,0,0,0,0,0,0,0H.23a0,0,0,0,0,0,0,.09.09,0,0,1-.1.1A.09.09,0,0,1,0,2.12V.59A.14.14,0,0,1,.14.45,2.64,2.64,0,0,0,1,.28,4.92,4.92,0,0,1,2.63,0a4.92,4.92,0,0,1,1.6.28,2.64,2.64,0,0,0,.89.17.14.14,0,0,1,.14.14V2.12A.09.09,0,0,1,5.17,2.22ZM.23,1.89H5.07V.64a2.94,2.94,0,0,1-.9-.18A4.65,4.65,0,0,0,2.63.19,4.65,4.65,0,0,0,1.09.46a2.94,2.94,0,0,1-.9.18V1.89Z"/><path d="M1.06.92A.09.09,0,0,1,1,.86.09.09,0,0,1,1,.74a4.56,4.56,0,0,1,3.2,0,.09.09,0,0,1,.06.12.09.09,0,0,1-.12.05A4.65,4.65,0,0,0,2.63.64,4.65,4.65,0,0,0,1.09.91Z"/><path d="M4.61,2.72H.67a.1.1,0,0,1-.09-.1.09.09,0,0,1,.09-.09H4.61a.09.09,0,0,1,.09.09A.1.1,0,0,1,4.61,2.72Z"/><path d="M4.61,3.24H.67a.09.09,0,1,1,0-.18H4.61a.09.09,0,0,1,0,.18Z"/><path d="M2.16,2.08H.71A.09.09,0,0,1,.62,2V1.78A.4.4,0,0,1,1,1.38h.85a.4.4,0,0,1,.4.4V2A.1.1,0,0,1,2.16,2.08ZM.81,1.89H2.07V1.78a.21.21,0,0,0-.21-.21H1a.21.21,0,0,0-.2.21Z"/><path d="M4.55,2.08H3.1A.09.09,0,0,1,3,2V1.78a.4.4,0,0,1,.4-.4h.85a.4.4,0,0,1,.39.4V2A.09.09,0,0,1,4.55,2.08ZM3.19,1.89H4.45V1.78a.21.21,0,0,0-.2-.21H3.4a.21.21,0,0,0-.21.21Z"/></g></g></svg>