<svg xmlns="http://www.w3.org/2000/svg" viewBox="0 0 5.54 5.08"><g id="Layer_2" data-name="Layer 2"><g id="Layer_1-2" data-name="Layer 1"><path d="M5.44,5.08h-4a.5.5,0,0,1-.5-.45L.68,2.45a.11.11,0,0,1,0-.08.09.09,0,0,1,.07,0h.51a.1.1,0,0,1,.1.1.11.11,0,0,1-.1.1H.89L1.1,4.61a.3.3,0,0,0,.3.27h4a.1.1,0,0,1,.1.1A.09.09,0,0,1,5.44,5.08Z"/><path d="M1.29,2.54H.58a.33.33,0,0,1,0-.66H3.32a.1.1,0,0,1,.1.1.09.09,0,0,1-.1.1H.58a.13.13,0,1,0,0,.26h.71a.1.1,0,0,1,.1.1A.11.11,0,0,1,1.29,2.54Z"/><path d="M3.32,2.54H3a.11.11,0,0,1-.1-.1.1.1,0,0,1,.1-.1h.36a.09.09,0,0,1,.1.1A.1.1,0,0,1,3.32,2.54Z"/><path d="M.86,3.28h0A1.33,1.33,0,0,1,0,2.38a.22.22,0,0,1,0-.19.25.25,0,0,1,.17-.08H.35a.1.1,0,1,1,0,.2H.2a1.14,1.14,0,0,0,.69.76A.1.1,0,0,1,1,3.22.1.1,0,0,1,.86,3.28Z"/><path d="M2.3,4.6H1a.1.1,0,0,1-.1-.1A.11.11,0,0,1,1,4.4H2.3a.1.1,0,0,1,.1.1A.09.09,0,0,1,2.3,4.6Z"/><path d="M3.88,5.08a.09.09,0,0,1-.1-.1V4.72a.09.09,0,0,1,.1-.1.1.1,0,0,1,.1.1V5A.1.1,0,0,1,3.88,5.08Z"/><path d="M5.15,5.08H2.6a.11.11,0,0,1-.07,0,.08.08,0,0,1,0-.08l.12-.85A.1.1,0,0,1,2.73,4H5a.11.11,0,0,1,.1.09L5.25,5a.08.08,0,0,1,0,.08A.11.11,0,0,1,5.15,5.08Zm-2.43-.2H5L5,4.23H2.81Z"/><path d="M3,5.08H3A.12.12,0,0,1,2.88,5l0-.27A.09.09,0,0,1,3,4.62a.1.1,0,0,1,.09.11l0,.26A.1.1,0,0,1,3,5.08Z"/><path d="M3.4,5.08A.1.1,0,0,1,3.3,5V4.71a.1.1,0,0,1,.11-.09.09.09,0,0,1,.09.1V5A.1.1,0,0,1,3.4,5.08Z"/><path d="M4.77,5.08A.09.09,0,0,1,4.68,5l0-.26a.09.09,0,0,1,.09-.11.1.1,0,0,1,.11.08l0,.27a.1.1,0,0,1-.08.11Z"/><path d="M4.36,5.08A.09.09,0,0,1,4.26,5l0-.27a.1.1,0,0,1,.1-.1.09.09,0,0,1,.1.09l0,.27a.1.1,0,0,1-.1.1Z"/><path d="M5,4.23H2.73A.23.23,0,0,1,2.5,4V3.89a.23.23,0,0,1,.23-.22H5a.22.22,0,0,1,.22.22V4A.22.22,0,0,1,5,4.23Zm-2.3-.36s0,0,0,0V4a0,0,0,0,0,0,0H5s0,0,0,0V3.89a0,0,0,0,0,0,0Z"/><path d="M4.07,3.53H3.69a.09.09,0,0,1-.1-.1V.25A.25.25,0,0,1,3.84,0h.08a.25.25,0,0,1,.25.25V3.43A.09.09,0,0,1,4.07,3.53Zm-.28-.2H4V.25a0,0,0,0,0-.05,0H3.84a0,0,0,0,0,0,0Z"/><path d="M1.57,3.53a.38.38,0,0,1-.37-.37V2a.11.11,0,0,1,.1-.1.1.1,0,0,1,.1.1V3.16a.17.17,0,1,0,.34,0V3.07a.09.09,0,0,1,.1-.1.1.1,0,0,1,.1.1v.09A.38.38,0,0,1,1.57,3.53Z"/><path d="M2.11,3.85a.38.38,0,0,1-.37-.37V2.75a.09.09,0,0,1,.1-.1.1.1,0,0,1,.1.1v.73a.17.17,0,0,0,.34,0V2.3a.1.1,0,0,1,.1-.1.11.11,0,0,1,.1.1V3.48A.38.38,0,0,1,2.11,3.85Z"/><path d="M2.63,3.22a.36.36,0,0,1-.35-.36.09.09,0,0,1,.1-.09.1.1,0,0,1,.1.09.15.15,0,1,0,.3,0V2a.11.11,0,0,1,.1-.1A.1.1,0,0,1,3,2v.88A.36.36,0,0,1,2.63,3.22Z"/><path d="M4.31,3.87H3.45a.11.11,0,0,1-.1-.1V3.55a.22.22,0,0,1,.22-.22h.62a.22.22,0,0,1,.22.22v.22A.11.11,0,0,1,4.31,3.87Zm-.76-.2h.66V3.55a0,0,0,0,0,0,0H3.57l0,0Z"/><path d="M2.92,5.08H.78A.1.1,0,0,1,.68,5a.11.11,0,0,1,.1-.1H2.92A.1.1,0,0,1,3,5,.09.09,0,0,1,2.92,5.08Z"/></g></g></svg>