<svg xmlns="http://www.w3.org/2000/svg" viewBox="0 0 5.32 3.93"><g id="Layer_2" data-name="Layer 2"><g id="Layer_1-2" data-name="Layer 1"><path d="M1.55,1.58A.66.66,0,0,1,1,1.18,1.37,1.37,0,0,1,.85.57v0A.46.46,0,0,1,1.09.13,1,1,0,0,1,1.57,0a.94.94,0,0,1,.51.17.47.47,0,0,1,.22.4,1.37,1.37,0,0,1-.15.61.65.65,0,0,1-.58.4ZM1.57.2a.91.91,0,0,0-.38.1.27.27,0,0,0-.14.24v0a1.1,1.1,0,0,0,.12.51c.11.21.24.31.4.3s.29-.09.4-.29A1.11,1.11,0,0,0,2.1.57.28.28,0,0,0,2,.33.76.76,0,0,0,1.57.2Z"/><path d="M1,3.11A.09.09,0,0,1,.93,3V2.48a.09.09,0,0,1,.1-.1.1.1,0,0,1,.1.1V3A.1.1,0,0,1,1,3.11Z"/><path d="M2.12,3.11A.09.09,0,0,1,2,3V2.48a.09.09,0,0,1,.1-.1.1.1,0,0,1,.1.1V3A.1.1,0,0,1,2.12,3.11Z"/><path d="M2.77,3.11H.37A.1.1,0,0,1,.27,3V2.7A.87.87,0,0,1,1,1.77h1.1a.86.86,0,0,1,.75.93V3A.09.09,0,0,1,2.77,3.11ZM.47,2.92h2.2V2.7c0-.4-.25-.73-.55-.73H1c-.29,0-.54.33-.55.74Z"/><path d="M3.39,2.39a.08.08,0,0,1-.06,0,.09.09,0,0,1,0-.08l0-.59L3.21.52a.09.09,0,0,1,0-.07.09.09,0,0,1,.07,0H5.22a.11.11,0,0,1,.08,0,.08.08,0,0,1,0,.08L5.18,2.1a.11.11,0,0,1-.1.09H4l-.6.19Zm0-1.77L3.47,1.7v.45L4,2H5L5.12.62Z"/><path d="M4.71,1.11h-.9a.1.1,0,0,1-.1-.1.09.09,0,0,1,.1-.1h.9a.1.1,0,0,1,.1.1A.11.11,0,0,1,4.71,1.11Z"/><path d="M4.59,1.62H3.92a.1.1,0,0,1-.1-.1.11.11,0,0,1,.1-.1h.67a.1.1,0,0,1,.1.1A.09.09,0,0,1,4.59,1.62Z"/><path d="M1.57,2.37a.11.11,0,0,1-.1-.1v0a.11.11,0,0,1,.1-.1.1.1,0,0,1,.1.1v0A.1.1,0,0,1,1.57,2.37Z"/><path d="M1.59,2.79a.1.1,0,0,1-.1-.1v0a.1.1,0,0,1,.1-.1.11.11,0,0,1,.1.1v0A.11.11,0,0,1,1.59,2.79Z"/><path d="M3.31,3.11H.1A.09.09,0,0,1,0,3a.09.09,0,0,1,.1-.1H3.31a.09.09,0,0,1,.1.1A.09.09,0,0,1,3.31,3.11Z"/><path d="M4.25,3.93H1a.1.1,0,0,1-.1-.1.11.11,0,0,1,.1-.1H4.25a.11.11,0,0,1,.1.1A.1.1,0,0,1,4.25,3.93Z"/></g></g></svg>