<svg xmlns="http://www.w3.org/2000/svg" viewBox="0 0 4.54 5.32"><g id="Layer_2" data-name="Layer 2"><g id="Layer_1-2" data-name="Layer 1"><path d="M3.76,4.8h-3a.56.56,0,0,1-.56-.56V3A.53.53,0,0,1,0,2.53a.52.52,0,0,1,.17-.38A.53.53,0,0,1,.57,2,.52.52,0,0,1,1,2.55v.78a.3.3,0,0,0,.3.29H3.22c.17,0,.29-.15.29-.37v-.7A.53.53,0,0,1,4,2a.54.54,0,0,1,.4.13.55.55,0,0,1,.16.38A.53.53,0,0,1,4.32,3V4.24A.56.56,0,0,1,3.76,4.8ZM.52,2.21a.33.33,0,0,0-.22.08.32.32,0,0,0-.11.24.32.32,0,0,0,.17.29.11.11,0,0,1,0,.09V4.24a.37.37,0,0,0,.37.37h3a.36.36,0,0,0,.37-.37V2.91a.11.11,0,0,1,0-.09.33.33,0,0,0,.18-.29.32.32,0,0,0-.11-.24.33.33,0,0,0-.55.26v.7a.5.5,0,0,1-.48.56H1.33a.49.49,0,0,1-.49-.48V2.55a.34.34,0,0,0-.29-.34Z"/><path d="M3.22,3.81H1.33a.49.49,0,0,1-.49-.48v-.8a.32.32,0,0,0-.18-.29A.1.1,0,0,1,.6,2.15V1.67A1.67,1.67,0,0,1,2.33,0,1.7,1.7,0,0,1,3.94,1.71v.44a.11.11,0,0,1,0,.09.31.31,0,0,0-.19.29v.8A.49.49,0,0,1,3.22,3.81ZM.79,2.1A.51.51,0,0,1,1,2.53v.8a.3.3,0,0,0,.3.29H3.22a.29.29,0,0,0,.29-.29v-.8a.51.51,0,0,1,.24-.43V1.71A1.51,1.51,0,0,0,2.33.19,1.5,1.5,0,0,0,1.24.6,1.51,1.51,0,0,0,.79,1.67Z"/><path d="M1.32,5.32a.47.47,0,0,1-.46-.46V4.71a.11.11,0,0,1,.1-.1h.73a.1.1,0,0,1,.09.1v.15A.46.46,0,0,1,1.32,5.32ZM1.05,4.8v.06a.27.27,0,0,0,.54,0V4.8Z"/><path d="M3.22,5.32a.47.47,0,0,1-.46-.46V4.71a.1.1,0,0,1,.1-.1h.73a.1.1,0,0,1,.09.1v.15A.47.47,0,0,1,3.22,5.32ZM3,4.8v.06a.27.27,0,0,0,.54,0V4.8Z"/><path d="M4,5.32H.56a.11.11,0,0,1-.1-.1.1.1,0,0,1,.1-.09H4a.09.09,0,0,1,.09.09A.1.1,0,0,1,4,5.32Z"/><path d="M.94,3.42a.1.1,0,0,1-.1-.09V3.25a.49.49,0,0,1,.49-.49H3.21a.49.49,0,0,1,.49.49.09.09,0,0,1-.09.09.09.09,0,0,1-.1-.09.3.3,0,0,0-.3-.3H1.33a.31.31,0,0,0-.3.3v.08A.09.09,0,0,1,.94,3.42Z"/><path d="M2.27,2.36a.1.1,0,0,1-.09-.1V.71a.1.1,0,0,1,.09-.1.11.11,0,0,1,.1.1V2.26A.11.11,0,0,1,2.27,2.36Z"/><path d="M3,2a.09.09,0,0,1-.09-.1V1.11A.09.09,0,0,1,3,1a.1.1,0,0,1,.1.09v.74A.1.1,0,0,1,3,2Z"/><path d="M1.57,2a.09.09,0,0,1-.09-.1V1.11A.09.09,0,0,1,1.57,1a.09.09,0,0,1,.1.09v.74A.09.09,0,0,1,1.57,2Z"/></g></g></svg>