<svg xmlns="http://www.w3.org/2000/svg" viewBox="0 0 5.19 5.03"><g id="Layer_2" data-name="Layer 2"><g id="Layer_1-2" data-name="Layer 1"><path d="M.77,5h0a.45.45,0,0,1-.39-.45L.41,2.15a.31.31,0,0,0-.15-.28A.52.52,0,0,1,0,1.42V.23A.1.1,0,0,1,.1.13a.11.11,0,0,1,.1.1V1.42a.33.33,0,0,0,.16.28.5.5,0,0,1,.25.46L.54,4.59a.24.24,0,0,0,.2.24.28.28,0,0,0,.18-.06A.28.28,0,0,0,1,4.6L.92,2.16a.52.52,0,0,1,.25-.46.33.33,0,0,0,.16-.28V.23a.11.11,0,0,1,.1-.1.1.1,0,0,1,.1.1V1.42a.52.52,0,0,1-.26.45.33.33,0,0,0-.15.28l.07,2.44a.43.43,0,0,1-.14.32A.38.38,0,0,1,.77,5Z"/><path d="M4.41,5h0A.43.43,0,0,1,4,4.57L4.05,2A.27.27,0,0,0,4,1.76,1.05,1.05,0,0,1,3.63,1a.89.89,0,0,1,.78-1,.89.89,0,0,1,.78,1,1.05,1.05,0,0,1-.34.79A.27.27,0,0,0,4.77,2l.07,2.64a.43.43,0,0,1-.14.32A.4.4,0,0,1,4.41,5ZM4.41.2c-.32,0-.58.34-.58.77a.83.83,0,0,0,.27.64A.45.45,0,0,1,4.25,2L4.18,4.58a.25.25,0,0,0,.21.25.3.3,0,0,0,.18-.06.24.24,0,0,0,.07-.18L4.57,2a.42.42,0,0,1,.15-.35A.83.83,0,0,0,5,1C5,.54,4.73.2,4.41.2Z"/><path d="M.77,1.35a.1.1,0,0,1-.1-.1v-1a.1.1,0,0,1,.1-.1.11.11,0,0,1,.1.1v1A.11.11,0,0,1,.77,1.35Z"/><path d="M2.59,4.53a1.81,1.81,0,0,1-1.14-.39.09.09,0,0,1,0-.14.11.11,0,0,1,.14,0,1.64,1.64,0,0,0,1,.35,1.68,1.68,0,0,0,1.08-.39.1.1,0,0,1,.14,0,.1.1,0,0,1,0,.14A1.9,1.9,0,0,1,2.59,4.53Z"/><path d="M3.41,1.17H3.36A1.72,1.72,0,0,0,2.59,1a1.68,1.68,0,0,0-.76.19.11.11,0,0,1-.14,0A.1.1,0,0,1,1.74,1,1.78,1.78,0,0,1,2.59.77,2,2,0,0,1,3.45,1a.11.11,0,0,1,0,.14A.11.11,0,0,1,3.41,1.17Z"/><path d="M2.59,3.77A1.12,1.12,0,1,1,3.71,2.65,1.12,1.12,0,0,1,2.59,3.77Zm0-2a.92.92,0,1,0,.92.91A.91.91,0,0,0,2.59,1.74Z"/></g></g></svg>