<svg xmlns="http://www.w3.org/2000/svg" viewBox="0 0 4.93 5.31"><g id="Layer_2" data-name="Layer 2"><g id="Layer_1-2" data-name="Layer 1"><path d="M3.76,2.32H2a.1.1,0,0,1-.1-.09,1,1,0,0,1,2,0A.09.09,0,0,1,3.76,2.32ZM2.08,2.13H3.66a.8.8,0,0,0-1.58,0Z"/><path d="M2.87,2.68a.45.45,0,0,1-.45-.45.1.1,0,0,1,.09-.1.11.11,0,0,1,.1.1.26.26,0,0,0,.26.26.27.27,0,0,0,.27-.26.1.1,0,0,1,.09-.1.11.11,0,0,1,.1.1A.46.46,0,0,1,2.87,2.68Z"/><path d="M.54,4.94a.09.09,0,0,1-.1-.09V1.26A1.27,1.27,0,0,1,3,1.26v.07a.1.1,0,0,1-.1.1.09.09,0,0,1-.09-.1V1.26a1.08,1.08,0,0,0-2.15,0V4.85A.09.09,0,0,1,.54,4.94Z"/><path d="M1.47,5.31H.09A.09.09,0,0,1,0,5.21V5.08a.33.33,0,0,1,.32-.33h.92a.33.33,0,0,1,.33.33v.13A.09.09,0,0,1,1.47,5.31ZM.19,5.12H1.38v0a.14.14,0,0,0-.14-.14H.32a.13.13,0,0,0-.13.14Z"/><path d="M4.61,3.66H2A.32.32,0,0,1,2,3H4.61a.32.32,0,1,1,0,.63ZM2,3.22a.12.12,0,0,0-.12.13A.12.12,0,0,0,2,3.47H4.61a.12.12,0,0,0,.13-.12.13.13,0,0,0-.13-.13Z"/><path d="M4.59,5.31H2a.09.09,0,0,1-.09-.1V3.57A.1.1,0,0,1,2,3.47H4.59a.11.11,0,0,1,.1.1V5.21A.1.1,0,0,1,4.59,5.31ZM2.11,5.12H4.5V3.66H2.11Z"/><path d="M4.59,5.31H.09A.09.09,0,0,1,0,5.21a.09.09,0,0,1,.09-.09h4.5a.1.1,0,0,1,.1.09A.1.1,0,0,1,4.59,5.31Z"/><path d="M3.89,4.38H2.71a.24.24,0,0,1-.24-.24V3.57a.1.1,0,0,1,.09-.1H4a.1.1,0,0,1,.1.1v.57A.25.25,0,0,1,3.89,4.38ZM2.66,3.66v.48a0,0,0,0,0,0,.05H3.89A.06.06,0,0,0,4,4.14V3.66Z"/><path d="M3.43,4H3.21a.1.1,0,0,1-.1-.1.09.09,0,0,1,.1-.09h.22a.09.09,0,0,1,.09.09A.1.1,0,0,1,3.43,4Z"/></g></g></svg>