<svg xmlns="http://www.w3.org/2000/svg" viewBox="0 0 5.28 3.2"><g id="Layer_2" data-name="Layer 2"><g id="Layer_1-2" data-name="Layer 1"><path d="M3,3.2a.56.56,0,0,1-.53-.37H.62a.56.56,0,0,1-.53.37A.09.09,0,0,1,0,3.11V1.47A.18.18,0,0,1,.17,1.3H2.94a.18.18,0,0,1,.17.17V3.11A.09.09,0,0,1,3,3.2ZM.55,2.64h2a.11.11,0,0,1,.09.08A.36.36,0,0,0,2.92,3V1.49H.19V3a.34.34,0,0,0,.26-.28A.11.11,0,0,1,.55,2.64Z"/><path d="M3,1.57a.09.09,0,0,1-.09-.08H.19a.11.11,0,0,1-.1.08A.09.09,0,0,1,0,1.47V.38A.12.12,0,0,1,.12.26,1.51,1.51,0,0,0,.62.17,2.72,2.72,0,0,1,1.56,0,2.84,2.84,0,0,1,2.5.17,1.41,1.41,0,0,0,3,.26a.12.12,0,0,1,.12.12V1.47A.09.09,0,0,1,3,1.57ZM.19,1.3H2.92V.45A1.81,1.81,0,0,1,2.43.34,2.85,2.85,0,0,0,1.56.19,2.87,2.87,0,0,0,.68.34,1.73,1.73,0,0,1,.19.45Z"/><path d="M2.46.68h0A2.85,2.85,0,0,0,1.56.52,2.87,2.87,0,0,0,.68.67.09.09,0,0,1,.56.62.09.09,0,0,1,.62.5,2.72,2.72,0,0,1,1.56.33,2.84,2.84,0,0,1,2.5.5a.09.09,0,0,1,0,.12A.09.09,0,0,1,2.46.68Z"/><path d="M2.7,1.92H.43a.1.1,0,0,1-.1-.09.1.1,0,0,1,.1-.1H2.7a.09.09,0,0,1,.09.1A.09.09,0,0,1,2.7,1.92Z"/><path d="M2.7,2.37H.43a.09.09,0,1,1,0-.18H2.7a.09.09,0,0,1,0,.18Z"/><path d="M1.22,1.49H.52a.09.09,0,0,1-.1-.1V1.25A.31.31,0,0,1,.73.94H1a.3.3,0,0,1,.3.31v.14A.09.09,0,0,1,1.22,1.49ZM.61,1.3h.51V1.25A.12.12,0,0,0,1,1.13H.73a.12.12,0,0,0-.12.12Z"/><path d="M2.6,1.49H1.89a.09.09,0,0,1-.09-.1V1.25A.31.31,0,0,1,2.11.94h.27a.31.31,0,0,1,.31.31v.14A.09.09,0,0,1,2.6,1.49ZM2,1.3H2.5V1.25a.12.12,0,0,0-.12-.12H2.11A.12.12,0,0,0,2,1.25Z"/><path d="M5,3.2H3.56a.09.09,0,0,1-.09-.09V1.76a.1.1,0,0,1,.09-.1H5a.1.1,0,0,1,.09.1V3.11A.09.09,0,0,1,5,3.2ZM3.65,3H4.88V1.85H3.65Z"/><path d="M5,1.85H3.54a.29.29,0,0,1,0-.58H5a.29.29,0,0,1,0,.58ZM3.54,1.46a.11.11,0,0,0-.1.1.1.1,0,0,0,.1.1H5a.09.09,0,0,0,.1-.1.1.1,0,0,0-.1-.1Z"/><path d="M5,2.53H3.56a.09.09,0,0,1-.09-.1.09.09,0,0,1,.09-.09H5a.09.09,0,0,1,.09.09A.09.09,0,0,1,5,2.53Z"/><path d="M4.39,2.19H4.14a.09.09,0,0,1-.09-.1A.09.09,0,0,1,4.14,2h.25a.1.1,0,0,1,.1.09A.1.1,0,0,1,4.39,2.19Z"/><path d="M4.38,2.89H4.13A.09.09,0,0,1,4,2.8a.1.1,0,0,1,.09-.1h.25a.11.11,0,0,1,.1.1A.1.1,0,0,1,4.38,2.89Z"/><path d="M5,3.2H.09A.09.09,0,0,1,0,3.11.1.1,0,0,1,.09,3H5a.1.1,0,0,1,.09.1A.09.09,0,0,1,5,3.2Z"/></g></g></svg>