<svg xmlns="http://www.w3.org/2000/svg" viewBox="0 0 39.97 4.12"><defs><style>.cls-1{fill:#fff;}</style></defs><g id="Layer_2" data-name="Layer 2"><g id="Layer_1-2" data-name="Layer 1"><path class="cls-1" d="M.88,0h.67V3.41h.66v.65H0V3.41H.67V1.05a2.72,2.72,0,0,1-.67.5V.76A2.52,2.52,0,0,0,.88,0Z"/><path class="cls-1" d="M5.25,2a3.24,3.24,0,0,1-.31,1.6,1.11,1.11,0,0,1-1,.51,1.07,1.07,0,0,1-1-.53,3,3,0,0,1-.3-1.48A3.16,3.16,0,0,1,2.89.51a1.11,1.11,0,0,1,1-.51A1.1,1.1,0,0,1,5,.53,3.05,3.05,0,0,1,5.25,2Zm-.93.05A5.26,5.26,0,0,0,4.24.9a.33.33,0,0,0-.64,0,3.87,3.87,0,0,0-.1,1.2,4.52,4.52,0,0,0,.09,1.2.33.33,0,0,0,.32.22.33.33,0,0,0,.32-.21A4.45,4.45,0,0,0,4.32,2.06Z"/><path class="cls-1" d="M8.31,2A3.13,3.13,0,0,1,8,3.61a1.11,1.11,0,0,1-1,.51,1.09,1.09,0,0,1-1-.53,3,3,0,0,1-.3-1.48A3.27,3.27,0,0,1,6,.51,1.11,1.11,0,0,1,7,0,1.09,1.09,0,0,1,8,.53,3.05,3.05,0,0,1,8.31,2Zm-.92.05A5.26,5.26,0,0,0,7.31.9a.34.34,0,0,0-.65,0,4.41,4.41,0,0,0-.09,1.2,4.52,4.52,0,0,0,.09,1.2.34.34,0,0,0,.63,0A3.91,3.91,0,0,0,7.39,2.06Z"/><path class="cls-1" d="M10,.06h.88V1.68h1V.06h.88v4h-.88V2.43h-1V4.06H10Z"/><path class="cls-1" d="M16.25,2.06c0,1.37-.49,2.06-1.46,2.06a1.22,1.22,0,0,1-1.08-.52,2.65,2.65,0,0,1-.37-1.54C13.34.69,13.83,0,14.79,0a1.24,1.24,0,0,1,1.08.52A2.59,2.59,0,0,1,16.25,2.06Zm-.93,0A2.84,2.84,0,0,0,15.19,1a.41.41,0,0,0-.4-.27.43.43,0,0,0-.4.27,3.13,3.13,0,0,0-.12,1.08,3.14,3.14,0,0,0,.12,1.07.44.44,0,0,0,.4.28.42.42,0,0,0,.4-.27A2.84,2.84,0,0,0,15.32,2.06Z"/><path class="cls-1" d="M16.46.06H19V.81h-.82V4.06h-.88V.81h-.8Z"/><path class="cls-1" d="M19.26.06h2.43V.75H20.14v.93h1.21v.68H20.14v1h1.55v.71H19.26Z"/><path class="cls-1" d="M22.12.06H23V3.31h1.29v.75H22.12Z"/><path class="cls-1" d="M25.8.06h.87v4H25.8Z"/><path class="cls-1" d="M29.38,2.6l.81,0a1.67,1.67,0,0,1-.42,1.06,1.21,1.21,0,0,1-1,.41,1.3,1.3,0,0,1-1.13-.55,2.6,2.6,0,0,1-.38-1.5A2.65,2.65,0,0,1,27.67.55,1.3,1.3,0,0,1,28.81,0c.83,0,1.29.52,1.36,1.55l-.8.06c0-.6-.21-.9-.56-.9a.48.48,0,0,0-.43.29,2.5,2.5,0,0,0-.17,1.12,2.32,2.32,0,0,0,.15,1,.49.49,0,0,0,.45.28Q29.29,3.41,29.38,2.6Z"/><path class="cls-1" d="M33.46,2.06c0,1.37-.48,2.06-1.45,2.06a1.22,1.22,0,0,1-1.08-.52,2.65,2.65,0,0,1-.37-1.54C30.56.69,31,0,32,0a1.24,1.24,0,0,1,1.08.52A2.59,2.59,0,0,1,33.46,2.06Zm-.92,0A2.84,2.84,0,0,0,32.41,1,.42.42,0,0,0,32,.71a.43.43,0,0,0-.4.27,3.13,3.13,0,0,0-.12,1.08,3.14,3.14,0,0,0,.12,1.07.43.43,0,0,0,.8,0A3.06,3.06,0,0,0,32.54,2.06Z"/><path class="cls-1" d="M34,.06h1l1,2.49V.06h.68v4h-.79L34.72,1.17V4.06H34Z"/><path class="cls-1" d="M39.89.93l-.72.28c-.11-.33-.3-.5-.57-.5a.45.45,0,0,0-.31.11.38.38,0,0,0-.11.26.31.31,0,0,0,.13.27,2.64,2.64,0,0,0,.56.27,3.24,3.24,0,0,1,.61.28,1.09,1.09,0,0,1,.36.38,1.16,1.16,0,0,1,.13.56,1.21,1.21,0,0,1-.38.92,1.46,1.46,0,0,1-1,.36A1.32,1.32,0,0,1,37.17,3l.76-.22c.1.41.31.61.65.61A.57.57,0,0,0,39,3.29.4.4,0,0,0,39.09,3a.45.45,0,0,0-.1-.27,1.41,1.41,0,0,0-.46-.24,3.89,3.89,0,0,1-.68-.3,1.06,1.06,0,0,1-.38-.38,1.13,1.13,0,0,1-.14-.56,1.21,1.21,0,0,1,.34-.89A1.3,1.3,0,0,1,38.59,0,1.2,1.2,0,0,1,39.89.93Z"/></g></g></svg>