<svg xmlns="http://www.w3.org/2000/svg" viewBox="0 0 5.34 5.34"><g id="Layer_2" data-name="Layer 2"><g id="Layer_1-2" data-name="Layer 1"><path d="M2.67,5.34A2.67,2.67,0,1,1,5.34,2.67,2.68,2.68,0,0,1,2.67,5.34ZM2.67.2A2.47,2.47,0,1,0,5.14,2.67,2.48,2.48,0,0,0,2.67.2Z"/><path d="M2.67,4.8A2.13,2.13,0,0,1,.58,3.11.1.1,0,0,1,.66,3a.09.09,0,0,1,.11.08,1.94,1.94,0,0,0,3.8,0A.1.1,0,0,1,4.68,3a.1.1,0,0,1,.08.12A2.13,2.13,0,0,1,2.67,4.8Z"/><path d="M4.51,2.5a.3.3,0,0,1-.25-.13,1.91,1.91,0,0,0-3.18,0,.29.29,0,0,1-.41.08A.31.31,0,0,1,.58,2,2.53,2.53,0,0,1,2.67.92,2.5,2.5,0,0,1,4.75,2a.29.29,0,0,1-.08.42A.33.33,0,0,1,4.51,2.5ZM2.67,1.32a2.1,2.1,0,0,1,1.75.94.11.11,0,0,0,.14,0,.09.09,0,0,0,0-.13,2.3,2.3,0,0,0-3.84,0,.09.09,0,0,0,0,.13.1.1,0,0,0,.14,0A2.09,2.09,0,0,1,2.67,1.32Z"/><path d="M4,3.07a.29.29,0,0,1-.25-.14,1.25,1.25,0,0,0-1.06-.6,1.24,1.24,0,0,0-1.06.6A.3.3,0,0,1,1.2,3a.26.26,0,0,1-.13-.19.28.28,0,0,1,0-.22,1.81,1.81,0,0,1,1.32-.87.1.1,0,0,1,.12.09A.11.11,0,0,1,2.45,2a1.6,1.6,0,0,0-1.18.77.11.11,0,0,0,0,.08l0,.06a.1.1,0,0,0,.14,0,1.43,1.43,0,0,1,1.23-.69,1.45,1.45,0,0,1,1.23.69.1.1,0,0,0,.13,0,.13.13,0,0,0,0-.06.19.19,0,0,0,0-.08,1.33,1.33,0,0,0-.14-.19.11.11,0,0,1,0-.14.1.1,0,0,1,.14,0,1.77,1.77,0,0,1,.16.22.28.28,0,0,1,0,.22A.29.29,0,0,1,4.14,3,.29.29,0,0,1,4,3.07Z"/><path d="M2.44,2a.11.11,0,0,1-.1-.09.1.1,0,0,1,.08-.11,1.74,1.74,0,0,1,.32,0,.09.09,0,0,1,.1.1.1.1,0,0,1-.11.09L2.45,2Z"/><path d="M3.48,2.13h0A1.26,1.26,0,0,0,3.09,2,.11.11,0,0,1,3,1.87a.09.09,0,0,1,.12-.07,1.82,1.82,0,0,1,.39.14.12.12,0,0,1,0,.14A.12.12,0,0,1,3.48,2.13Z"/><path d="M4,2.56a.11.11,0,0,1-.08,0l-.2-.2a.11.11,0,0,1,0-.14.1.1,0,0,1,.14,0,1.58,1.58,0,0,1,.22.23.1.1,0,0,1,0,.14A.07.07,0,0,1,4,2.56Z"/><path d="M3.46,3.64a.3.3,0,0,1-.27-.17.57.57,0,0,0-1,0,.31.31,0,0,1-.4.15.31.31,0,0,1-.15-.17.3.3,0,0,1,0-.23,1.18,1.18,0,0,1,1.07-.69,1.16,1.16,0,0,1,1.06.69.26.26,0,0,1,0,.23.33.33,0,0,1-.16.17Zm-.79-.71a.77.77,0,0,1,.7.45.09.09,0,0,0,.13.05s0,0,0-.05a.11.11,0,0,0,0-.08,1,1,0,0,0-1.76,0,.09.09,0,0,0,.05.13s.1,0,.13-.05A.77.77,0,0,1,2.67,2.93Z"/><path d="M2.67,4.29a.46.46,0,1,1,.46-.45A.46.46,0,0,1,2.67,4.29Zm0-.71a.26.26,0,1,0,.26.26A.26.26,0,0,0,2.67,3.58Z"/></g></g></svg>