<svg xmlns="http://www.w3.org/2000/svg" viewBox="0 0 4.62 4.96"><g id="Layer_2" data-name="Layer 2"><g id="Layer_1-2" data-name="Layer 1"><path d="M3.9,2.28H.3a.3.3,0,1,1,0-.59H3.9a.3.3,0,1,1,0,.59ZM.3,1.88A.11.11,0,0,0,.19,2a.1.1,0,0,0,.11.1H3.9A.1.1,0,0,0,4,2a.11.11,0,0,0-.11-.11Z"/><path d="M3.75,3.47a1.07,1.07,0,0,1-.25,0l-.09,0a.11.11,0,0,1-.07-.12.09.09,0,0,1,.12-.06l.09,0a.7.7,0,0,0,.61-.11.69.69,0,0,0,.27-.45H3.8a.1.1,0,0,1-.09-.1A.09.09,0,0,1,3.8,2.5h.73a.09.09,0,0,1,.09.09.89.89,0,0,1-.87.88Z"/><path d="M2.9,4.56H1.3a.7.7,0,0,1-.7-.7.09.09,0,0,1,.09-.09H3.5a.09.09,0,0,1,.1.09A.7.7,0,0,1,2.9,4.56ZM.8,4a.51.51,0,0,0,.5.41H2.9A.51.51,0,0,0,3.4,4Z"/><path d="M2.61,4h-1A1.82,1.82,0,0,1,.26,2.19a.1.1,0,0,1,.09-.1h3.5a.1.1,0,0,1,.09.1A1.82,1.82,0,0,1,2.64,4Zm-1-.19h1A1.65,1.65,0,0,0,3.75,2.28H.45A1.65,1.65,0,0,0,1.6,3.77Z"/><path d="M2.71,5H1.48a.22.22,0,0,1-.22-.19L1.2,4.48a.12.12,0,0,1,0-.08.11.11,0,0,1,.08,0H2.9A.08.08,0,0,1,3,4.4a.08.08,0,0,1,0,.08l-.05.29A.24.24,0,0,1,2.71,5Zm-1.3-.4,0,.18s0,0,0,0H2.71s0,0,0,0l0-.18Z"/><path d="M1.21,1.42l-.05,0a.09.09,0,0,1,0-.13l.11-.16a.44.44,0,0,0,0-.48.64.64,0,0,1,0-.57.1.1,0,0,1,.13,0,.09.09,0,0,1,0,.12.43.43,0,0,0,0,.4.64.64,0,0,1,0,.69l-.12.16A.09.09,0,0,1,1.21,1.42Z"/><path d="M1.87,1.42l-.05,0a.09.09,0,0,1,0-.13l.11-.16a.44.44,0,0,0,0-.48.64.64,0,0,1,0-.57A.1.1,0,0,1,2,0a.09.09,0,0,1,0,.12.43.43,0,0,0,0,.4.64.64,0,0,1,0,.69L2,1.38A.09.09,0,0,1,1.87,1.42Z"/><path d="M2.53,1.42l0,0a.09.09,0,0,1,0-.13l.12-.16a.44.44,0,0,0,0-.48.64.64,0,0,1,0-.57.1.1,0,0,1,.13,0,.09.09,0,0,1,0,.12.43.43,0,0,0,0,.4.64.64,0,0,1,0,.69l-.12.16A.09.09,0,0,1,2.53,1.42Z"/></g></g></svg>