<svg xmlns="http://www.w3.org/2000/svg" viewBox="0 0 4.11 5.22"><g id="Layer_2" data-name="Layer 2"><g id="Layer_1-2" data-name="Layer 1"><path d="M3.77,4.35H.34a.11.11,0,0,1-.1-.1V.32A.32.32,0,0,1,.57,0h3a.32.32,0,0,1,.32.32V4.25A.1.1,0,0,1,3.77,4.35ZM.43,4.16H3.68V.32A.13.13,0,0,0,3.54.19h-3A.13.13,0,0,0,.43.32Z"/><path d="M3.81,4.76H.3a.31.31,0,0,1-.3-.3.3.3,0,0,1,.3-.3H3.81a.3.3,0,0,1,.3.3A.31.31,0,0,1,3.81,4.76ZM.3,4.35a.11.11,0,0,0,0,.22H3.81a.11.11,0,0,0,0-.22Z"/><path d="M2.1,4.35A.1.1,0,0,1,2,4.25V.09A.09.09,0,0,1,2.1,0a.09.09,0,0,1,.1.09V4.25A.1.1,0,0,1,2.1,4.35Z"/><path d="M3.77,3.19H2.1A.09.09,0,0,1,2,3.1V2.24a.09.09,0,0,1,.09-.09H3.77a.09.09,0,0,1,.09.09V3.1A.09.09,0,0,1,3.77,3.19ZM2.2,3H3.68V2.34H2.2Z"/><path d="M3.77,2.34H2.1A.1.1,0,0,1,2,2.24V1.38a.09.09,0,0,1,.09-.09H3.77a.09.09,0,0,1,.09.09v.86A.1.1,0,0,1,3.77,2.34ZM2.2,2.15H3.68V1.48H2.2Z"/><path d="M1.66,2.43a.1.1,0,0,1-.09-.1V2a.09.09,0,0,1,.09-.1.09.09,0,0,1,.1.1v.31A.1.1,0,0,1,1.66,2.43Z"/><path d="M.89,5.22H.54a.09.09,0,0,1-.09-.1V4.67a.09.09,0,0,1,.09-.1H1a.1.1,0,0,1,.07,0,.08.08,0,0,1,0,.08L1,5.15A.1.1,0,0,1,.89,5.22ZM.64,5H.82L.9,4.76H.64Z"/><path d="M3.57,5.22H3.22a.1.1,0,0,1-.09-.07L3,4.69a.08.08,0,0,1,0-.08.08.08,0,0,1,.07,0h.49a.09.09,0,0,1,.09.1v.45A.09.09,0,0,1,3.57,5.22ZM3.29,5h.18V4.76H3.21Z"/><path d="M3.57,5.22h-3a.09.09,0,0,1-.09-.1A.09.09,0,0,1,.54,5h3a.09.09,0,0,1,.09.09A.09.09,0,0,1,3.57,5.22Z"/><path d="M3.14,1.91H2.73a.1.1,0,0,1-.09-.1.09.09,0,0,1,.09-.09h.41a.1.1,0,0,1,.1.09A.11.11,0,0,1,3.14,1.91Z"/><path d="M3.14,2.76H2.73a.09.09,0,0,1-.09-.09.1.1,0,0,1,.09-.1h.41a.11.11,0,0,1,.1.1A.1.1,0,0,1,3.14,2.76Z"/></g></g></svg>