<svg xmlns="http://www.w3.org/2000/svg" viewBox="0 0 5.17 4.76"><g id="Layer_2" data-name="Layer 2"><g id="Layer_1-2" data-name="Layer 1"><path d="M4.59,4.76a.09.09,0,0,1-.1-.09V1.75H.68V4.67a.09.09,0,0,1-.09.09.1.1,0,0,1-.1-.09v-3a.1.1,0,0,1,.1-.09h4a.09.09,0,0,1,.09.09v3A.09.09,0,0,1,4.59,4.76Z"/><path d="M5.08,4.76h-5A.09.09,0,0,1,0,4.67V1.37a.32.32,0,0,1,.32-.32H4.85a.32.32,0,0,1,.32.32v3.3A.09.09,0,0,1,5.08,4.76ZM.19,4.57H5V1.37a.13.13,0,0,0-.14-.13H.32a.13.13,0,0,0-.13.13Z"/><path d="M2.5,4.2H.74A.25.25,0,0,1,.49,4V3.09A.1.1,0,0,1,.59,3a.09.09,0,0,1,.09.09V4A.06.06,0,0,0,.74,4H2.5a.06.06,0,0,0,.06,0V1.75h-2a.1.1,0,0,1-.1-.09.1.1,0,0,1,.1-.09H2.65a.1.1,0,0,1,.1.09V4A.25.25,0,0,1,2.5,4.2Z"/><path d="M2.65,3H.59a.1.1,0,0,1-.1-.1.1.1,0,0,1,.1-.09H2.65a.1.1,0,0,1,.1.09A.1.1,0,0,1,2.65,3Z"/><path d="M1.62,2.56a.29.29,0,1,1,.29-.29A.29.29,0,0,1,1.62,2.56Zm0-.39a.1.1,0,1,0,.1.1A.09.09,0,0,0,1.62,2.17Z"/><path d="M1.62,3.79a.29.29,0,1,1,.29-.29A.29.29,0,0,1,1.62,3.79Zm0-.39a.1.1,0,1,0,.1.1A.09.09,0,0,0,1.62,3.4Z"/><path d="M4.27,1.24H2.83a.18.18,0,0,1-.17-.17V.7A.17.17,0,0,1,2.83.53H4.27A.17.17,0,0,1,4.44.7v.37A.18.18,0,0,1,4.27,1.24ZM2.85,1.05h1.4V.71H2.85Z"/><path d="M4.1.71H2.66A.17.17,0,0,1,2.49.54V.17A.18.18,0,0,1,2.66,0H4.1a.18.18,0,0,1,.17.17V.54A.17.17,0,0,1,4.1.71ZM2.68.53h1.4V.19H2.68Z"/></g></g></svg>