<svg xmlns="http://www.w3.org/2000/svg" viewBox="0 0 5.47 4.27"><g id="Layer_2" data-name="Layer 2"><g id="Layer_1-2" data-name="Layer 1"><path d="M.62,4.27H.31A.31.31,0,0,1,0,4V.31A.31.31,0,0,1,.31,0H.62a.3.3,0,0,1,.3.31V4A.3.3,0,0,1,.62,4.27ZM.31.19A.12.12,0,0,0,.19.31V4a.12.12,0,0,0,.12.12H.62A.13.13,0,0,0,.74,4V.31A.12.12,0,0,0,.62.19Z"/><path d="M1.94,4.27H1.63A.31.31,0,0,1,1.32,4V.31A.31.31,0,0,1,1.63,0h.31a.3.3,0,0,1,.3.31V4A.3.3,0,0,1,1.94,4.27ZM1.63.19a.12.12,0,0,0-.12.12V4a.12.12,0,0,0,.12.12h.31A.13.13,0,0,0,2.06,4V.31A.12.12,0,0,0,1.94.19Z"/><path d="M3.26,4.27H3A.31.31,0,0,1,2.64,4V.31A.31.31,0,0,1,3,0h.31a.3.3,0,0,1,.3.31V4A.3.3,0,0,1,3.26,4.27ZM3,.19a.12.12,0,0,0-.12.12V4A.12.12,0,0,0,3,4.08h.31A.13.13,0,0,0,3.38,4V.31A.12.12,0,0,0,3.26.19Z"/><path d="M4.58,4.27H4.27A.31.31,0,0,1,4,4V.31A.31.31,0,0,1,4.27,0h.31a.3.3,0,0,1,.3.31V4A.3.3,0,0,1,4.58,4.27ZM4.27.19a.12.12,0,0,0-.12.12V4a.12.12,0,0,0,.12.12h.31A.13.13,0,0,0,4.7,4V.31A.12.12,0,0,0,4.58.19Z"/><path d="M1.41,1.55H.83a.09.09,0,0,1-.09-.1V.81A.1.1,0,0,1,.83.71h.58a.1.1,0,0,1,.1.1v.64A.09.09,0,0,1,1.41,1.55ZM.92,1.36h.4V.9H.92Z"/><path d="M2.73,1.55H2.15a.09.09,0,0,1-.09-.1V.81a.1.1,0,0,1,.09-.1h.58a.1.1,0,0,1,.1.1v.64A.09.09,0,0,1,2.73,1.55Zm-.49-.19h.4V.9h-.4Z"/><path d="M4.05,1.55H3.47a.09.09,0,0,1-.09-.1V.81a.1.1,0,0,1,.09-.1h.58a.1.1,0,0,1,.1.1v.64A.09.09,0,0,1,4.05,1.55Zm-.49-.19H4V.9h-.4Z"/><path d="M1.41,1.55H.83a.09.09,0,0,1-.09-.1V.81A.1.1,0,0,1,.83.71h.58a.1.1,0,0,1,.1.1v.64A.09.09,0,0,1,1.41,1.55ZM.92,1.36h.4V.9H.92Z"/><path d="M2.73,1.55H2.15a.09.09,0,0,1-.09-.1V.81a.1.1,0,0,1,.09-.1h.58a.1.1,0,0,1,.1.1v.64A.09.09,0,0,1,2.73,1.55Zm-.49-.19h.4V.9h-.4Z"/><path d="M4.05,1.55H3.47a.09.09,0,0,1-.09-.1V.81a.1.1,0,0,1,.09-.1h.58a.1.1,0,0,1,.1.1v.64A.09.09,0,0,1,4.05,1.55Zm-.49-.19H4V.9h-.4Z"/><path d="M5.05,1.55H4.79a.09.09,0,0,1-.09-.1V.81a.1.1,0,0,1,.09-.1h.26a.42.42,0,0,1,0,.84Zm-.17-.19h.17a.23.23,0,0,0,.23-.23A.23.23,0,0,0,5.05.9H4.88Z"/><path d="M1.41,3.55H.83a.09.09,0,0,1-.09-.09V2.81a.09.09,0,0,1,.09-.09h.58a.09.09,0,0,1,.1.09v.65A.09.09,0,0,1,1.41,3.55ZM.92,3.36h.4V2.91H.92Z"/><path d="M2.73,3.55H2.15a.09.09,0,0,1-.09-.09V2.81a.09.09,0,0,1,.09-.09h.58a.09.09,0,0,1,.1.09v.65A.09.09,0,0,1,2.73,3.55Zm-.49-.19h.4V2.91h-.4Z"/><path d="M4.05,3.55H3.47a.09.09,0,0,1-.09-.09V2.81a.09.09,0,0,1,.09-.09h.58a.09.09,0,0,1,.1.09v.65A.09.09,0,0,1,4.05,3.55Zm-.49-.19H4V2.91h-.4Z"/><path d="M.41,3.51a.09.09,0,0,1-.09-.1V1.84a.1.1,0,0,1,.09-.1.1.1,0,0,1,.1.1V3.41A.09.09,0,0,1,.41,3.51Z"/><path d="M1.82,2.14a.09.09,0,0,1-.1-.09V.47a.1.1,0,0,1,.1-.1.1.1,0,0,1,.09.1V2.05A.09.09,0,0,1,1.82,2.14Z"/><path d="M3.08,3.51a.1.1,0,0,1-.1-.1V1.84a.11.11,0,0,1,.1-.1.1.1,0,0,1,.09.1V3.41A.09.09,0,0,1,3.08,3.51Z"/><path d="M4.39,2.14a.09.09,0,0,1-.1-.09V.47a.1.1,0,0,1,.1-.1.1.1,0,0,1,.09.1V2.05A.09.09,0,0,1,4.39,2.14Z"/></g></g></svg>