<svg xmlns="http://www.w3.org/2000/svg" viewBox="0 0 5.33 5.3"><g id="Layer_2" data-name="Layer 2"><g id="Layer_1-2" data-name="Layer 1"><path d="M5.24,5.3H.09A.09.09,0,0,1,0,5.2a.09.09,0,0,1,.09-.09H5.24a.09.09,0,0,1,.09.09A.09.09,0,0,1,5.24,5.3Z"/><path d="M4.87,1.62H4.12a.09.09,0,0,1-.1-.1.09.09,0,0,1,.1-.09h.75A.09.09,0,0,1,5,1.52.09.09,0,0,1,4.87,1.62Z"/><path d="M4.74,2.19H4.12A.09.09,0,0,1,4,2.1a.09.09,0,0,1,.1-.1h.62a.1.1,0,0,1,.1.1A.1.1,0,0,1,4.74,2.19Z"/><path d="M2.78,2.19H.59a.1.1,0,0,1-.1-.09A.1.1,0,0,1,.59,2H2.78a.09.09,0,0,1,.09.1A.09.09,0,0,1,2.78,2.19Z"/><path d="M2.78,1.62H.46a.09.09,0,0,1-.09-.1.09.09,0,0,1,.09-.09H2.78a.09.09,0,0,1,.09.09A.09.09,0,0,1,2.78,1.62Z"/><path d="M2.78,4.14H.46a.09.09,0,0,1-.09-.09A.1.1,0,0,1,.46,4H2.68V3.57H.46a.09.09,0,0,1-.09-.1.09.09,0,0,1,.09-.09H2.78a.09.09,0,0,1,.09.09v.58A.09.09,0,0,1,2.78,4.14Z"/><path d="M4.87,4.14H4.12A.09.09,0,0,1,4,4.05V3.47a.09.09,0,0,1,.1-.09h.75A.09.09,0,0,1,5,3.47a.09.09,0,0,1-.09.1H4.21V4h.66a.1.1,0,0,1,.09.1A.09.09,0,0,1,4.87,4.14Z"/><path d="M4.12,2.19A.09.09,0,0,1,4,2.1V.93a.09.09,0,0,1,.1-.09.09.09,0,0,1,.09.09V2.1A.09.09,0,0,1,4.12,2.19Z"/><path d="M2.78,5.3a.1.1,0,0,1-.1-.1V.93a.1.1,0,0,1,.1-.09.09.09,0,0,1,.09.09V5.2A.09.09,0,0,1,2.78,5.3Z"/><path d="M4.12,5.3A.09.09,0,0,1,4,5.2V1.93a.09.09,0,0,1,.1-.1.09.09,0,0,1,.09.1V5.2A.09.09,0,0,1,4.12,5.3Z"/><path d="M4.12,2.88H2.78a.11.11,0,0,1-.1-.1.1.1,0,0,1,.1-.09H4.12a.09.09,0,0,1,.09.09A.1.1,0,0,1,4.12,2.88Z"/><path d="M4.12,2.07H2.78A.1.1,0,0,1,2.68,2a.1.1,0,0,1,.1-.1H4.12a.09.09,0,0,1,.09.1A.09.09,0,0,1,4.12,2.07Z"/><path d="M4.12,1.26H2.78a.1.1,0,0,1-.1-.09.11.11,0,0,1,.1-.1H4.12a.1.1,0,0,1,.09.1A.09.09,0,0,1,4.12,1.26Z"/><path d="M4.12,3.68H2.78a.09.09,0,1,1,0-.18H4.12a.09.09,0,0,1,0,.18Z"/><path d="M4.12,4.49H2.78a.1.1,0,0,1-.1-.09.1.1,0,0,1,.1-.1H4.12a.09.09,0,0,1,.09.1A.09.09,0,0,1,4.12,4.49Z"/><path d="M5.24,5.3h-.5a.09.09,0,0,1-.09-.1V4.05A.1.1,0,0,1,4.74,4a.11.11,0,0,1,.1.1V5.11h.3V.34a.15.15,0,1,0-.3,0V1.52a.1.1,0,0,1-.1.1.09.09,0,0,1-.09-.1V.34a.34.34,0,0,1,.68,0V5.2A.09.09,0,0,1,5.24,5.3Z"/><path d="M2.78,2.19H.46A.09.09,0,0,1,.37,2.1.09.09,0,0,1,.46,2H2.78a.09.09,0,0,1,.09.1A.09.09,0,0,1,2.78,2.19Z"/><path d="M.59,3.57a.1.1,0,0,1-.1-.1V2.1A.1.1,0,0,1,.59,2a.09.09,0,0,1,.09.1V3.47A.09.09,0,0,1,.59,3.57Z"/><path d="M1.55,3.57a.09.09,0,0,1-.09-.1A.41.41,0,0,0,1,3.06H.59A.11.11,0,0,1,.49,3V2.5a.1.1,0,0,1,.1-.09.09.09,0,0,1,.09.09v.37H1a.61.61,0,0,1,.61.6A.1.1,0,0,1,1.55,3.57Z"/><path d="M.59,5.3H.09A.09.09,0,0,1,0,5.2V.34A.34.34,0,0,1,.34,0,.34.34,0,0,1,.68.34V.92H1a.61.61,0,0,1,.61.6.1.1,0,0,1-.1.1.09.09,0,0,1-.09-.1A.42.42,0,0,0,1,1.1H.59A.1.1,0,0,1,.49,1V.34A.15.15,0,0,0,.34.19.15.15,0,0,0,.19.34V5.11h.3V4.05A.11.11,0,0,1,.59,4a.1.1,0,0,1,.09.1V5.2A.09.09,0,0,1,.59,5.3Z"/><path d="M4.74,3.57a.09.09,0,0,1-.09-.1V2.1A.09.09,0,0,1,4.74,2a.1.1,0,0,1,.1.1V3.47A.1.1,0,0,1,4.74,3.57Z"/><path d="M4.87,2.19H4.12A.09.09,0,0,1,4,2.1a.09.09,0,0,1,.1-.1h.75A.09.09,0,0,1,5,2.1.09.09,0,0,1,4.87,2.19Z"/><path d="M.59,1.62a.1.1,0,0,1-.1-.1V1A.1.1,0,0,1,.59.92.09.09,0,0,1,.68,1v.51A.09.09,0,0,1,.59,1.62Z"/></g></g></svg>