<svg xmlns="http://www.w3.org/2000/svg" viewBox="0 0 4.77 5.41"><g id="Layer_2" data-name="Layer 2"><g id="Layer_1-2" data-name="Layer 1"><path d="M4.34,5H.43A.43.43,0,0,1,0,4.53V2.15a.43.43,0,0,1,.43-.43H4.34a.43.43,0,0,1,.43.43V4.53A.43.43,0,0,1,4.34,5Zm-3.91-3a.23.23,0,0,0-.23.23V4.53a.23.23,0,0,0,.23.23H4.34a.23.23,0,0,0,.23-.23V2.15a.23.23,0,0,0-.23-.23Z"/><path d="M4.13,4.52H1.34a.17.17,0,0,1-.16-.17v-2a.16.16,0,0,1,.16-.16H4.13a.17.17,0,0,1,.17.16v2A.18.18,0,0,1,4.13,4.52Zm-2.76-.2H4.1V2.37H1.37Z"/><path d="M.67,2.94a.33.33,0,1,1,0-.65.33.33,0,0,1,0,.65Zm0-.45a.13.13,0,0,0-.13.12.13.13,0,0,0,.13.13.13.13,0,0,0,.12-.13A.13.13,0,0,0,.67,2.49Z"/><path d="M.89,3.33H.44a.1.1,0,0,1-.1-.09.1.1,0,0,1,.1-.1H.89a.1.1,0,0,1,.1.1A.1.1,0,0,1,.89,3.33Z"/><path d="M.89,3.73H.44a.1.1,0,0,1-.1-.1.11.11,0,0,1,.1-.1H.89a.11.11,0,0,1,.1.1A.1.1,0,0,1,.89,3.73Z"/><path d="M.89,4.13H.44A.1.1,0,0,1,.34,4a.11.11,0,0,1,.1-.1H.89A.11.11,0,0,1,1,4,.1.1,0,0,1,.89,4.13Z"/><path d="M3.46,1.92H2.52a.1.1,0,0,1-.1-.1A.56.56,0,0,1,3,1.26H3a.56.56,0,0,1,.56.56A.11.11,0,0,1,3.46,1.92Zm-.83-.2h.72A.37.37,0,0,0,3,1.46H3A.37.37,0,0,0,2.63,1.72Z"/><path d="M1.94.72A.36.36,0,0,1,1.58.36a.36.36,0,0,1,.72,0A.36.36,0,0,1,1.94.72Zm0-.52a.16.16,0,0,0-.16.16.16.16,0,0,0,.32,0A.16.16,0,0,0,1.94.2Z"/><path d="M4,.72A.36.36,0,0,1,3.68.36a.36.36,0,0,1,.72,0A.36.36,0,0,1,4,.72ZM4,.2a.16.16,0,0,0-.16.16.16.16,0,0,0,.32,0A.16.16,0,0,0,4,.2Z"/><path d="M2.69,1.56a.09.09,0,0,1-.08,0L2,.65A.11.11,0,0,1,2,.51a.11.11,0,0,1,.14,0l.65.88a.09.09,0,0,1,0,.13A.07.07,0,0,1,2.69,1.56Z"/><path d="M3.28,1.56a.07.07,0,0,1-.06,0,.09.09,0,0,1,0-.13L3.85.53A.11.11,0,0,1,4,.51.11.11,0,0,1,4,.65l-.65.87A.09.09,0,0,1,3.28,1.56Z"/><path d="M1.28,5.41H.67a.09.09,0,0,1-.1-.1V4.86a.1.1,0,0,1,.1-.1h.61a.1.1,0,0,1,.09.1v.45A.09.09,0,0,1,1.28,5.41Zm-.51-.2h.41V5H.77Z"/><path d="M4.11,5.41H3.5a.09.09,0,0,1-.1-.1V4.86a.1.1,0,0,1,.1-.1h.61a.11.11,0,0,1,.1.1v.45A.1.1,0,0,1,4.11,5.41Zm-.51-.2H4V5H3.6Z"/><path d="M4.42,5.41H.35a.09.09,0,0,1-.1-.1.1.1,0,0,1,.1-.1H4.42a.1.1,0,0,1,.1.1A.09.09,0,0,1,4.42,5.41Z"/></g></g></svg>