<svg xmlns="http://www.w3.org/2000/svg" viewBox="0 0 4.99 5.29"><g id="Layer_2" data-name="Layer 2"><g id="Layer_1-2" data-name="Layer 1"><path d="M.82,4.14a.45.45,0,0,1,0-.9.43.43,0,0,1,.41.45A.43.43,0,0,1,.82,4.14Zm0-.7a.25.25,0,0,0,0,.5A.23.23,0,0,0,1,3.69.23.23,0,0,0,.82,3.44Z"/><path d="M4.1,4.63H.65a.58.58,0,0,1-.57-.57V3.51a1,1,0,0,1,.26-.66l.21-.23.26-.71a.59.59,0,0,1,.56-.4h2a.61.61,0,0,1,.57.4l.25.71.21.23a1,1,0,0,1,.26.66v.55A.58.58,0,0,1,4.1,4.63ZM1.37,1.71A.41.41,0,0,0,1,2l-.26.73s0,0,0,0L.49,3a.78.78,0,0,0-.21.52v.55a.38.38,0,0,0,.37.37H4.1a.38.38,0,0,0,.37-.37V3.51A.77.77,0,0,0,4.27,3L4,2.74l0,0L3.76,2a.41.41,0,0,0-.38-.27Z"/><path d="M3.93,4.14a.45.45,0,0,1,0-.9.43.43,0,0,1,.41.45A.43.43,0,0,1,3.93,4.14Zm0-.7a.25.25,0,0,0,0,.5.23.23,0,0,0,.21-.25A.23.23,0,0,0,3.93,3.44Z"/><path d="M3.35,4.16a.09.09,0,0,1-.09-.06.36.36,0,0,0-.33-.23H1.82a.35.35,0,0,0-.32.22.1.1,0,0,1-.13.06A.1.1,0,0,1,1.31,4a.55.55,0,0,1,.51-.35H2.93A.53.53,0,0,1,3.44,4a.1.1,0,0,1-.06.13Z"/><path d="M1.39,5.29H.68a.1.1,0,0,1-.1-.1V4.53a.09.09,0,0,1,.1-.1h.71a.1.1,0,0,1,.1.1v.66A.11.11,0,0,1,1.39,5.29Zm-.61-.2h.51V4.63H.78Z"/><path d="M4.07,5.29h-.7a.1.1,0,0,1-.1-.1V4.53a.09.09,0,0,1,.1-.1h.7a.09.09,0,0,1,.1.1v.66A.1.1,0,0,1,4.07,5.29Zm-.6-.2H4V4.63h-.5Z"/><path d="M.51,2.91a.43.43,0,0,1-.43-.43v0a.1.1,0,0,1,.1-.1.09.09,0,0,1,.1.1v0a.23.23,0,0,0,.23.23.09.09,0,0,1,.1.1A.1.1,0,0,1,.51,2.91Z"/><path d="M4.24,2.91a.1.1,0,0,1-.1-.1.09.09,0,0,1,.1-.1.23.23,0,0,0,.23-.23v0a.09.09,0,0,1,.1-.1.1.1,0,0,1,.1.1v0A.43.43,0,0,1,4.24,2.91Z"/><path d="M3.68,3H3a.1.1,0,0,1-.1-.1.11.11,0,0,1,.1-.1h.7l-.24-.63a.12.12,0,0,0-.11-.08H1.44a.12.12,0,0,0-.11.07l-.24.64H2.52a.1.1,0,0,1,.1.1.09.09,0,0,1-.1.1H1.07a.18.18,0,0,1-.15-.08.15.15,0,0,1,0-.17l.24-.66a.33.33,0,0,1,.3-.2H3.31a.31.31,0,0,1,.3.21l.25.65a.21.21,0,0,1,0,.17A.21.21,0,0,1,3.68,3Z"/><path d="M1.61,2.6a.09.09,0,0,1-.09-.06.09.09,0,0,1,.05-.13L2,2.24a.1.1,0,1,1,.08.18l-.4.17Z"/><path d="M2.61,2.6a.1.1,0,0,1-.09-.06.1.1,0,0,1,0-.13L3,2.24a.1.1,0,1,1,.08.18l-.4.17Z"/><path d="M4.89,5.29H.1a.1.1,0,0,1-.1-.1.09.09,0,0,1,.1-.1H4.89a.09.09,0,0,1,.1.1A.1.1,0,0,1,4.89,5.29Z"/><path d="M2.57,1.33H2.18a.1.1,0,0,1-.1-.1V.84a.11.11,0,0,1,.1-.1h.39a.1.1,0,0,1,.1.1v.39A.09.09,0,0,1,2.57,1.33Zm-.29-.2h.19V.94H2.28Z"/><path d="M3.31,1.33H2.93a.09.09,0,0,1-.1-.1V.84a.1.1,0,0,1,.1-.1h.38a.1.1,0,0,1,.1.1v.39A.09.09,0,0,1,3.31,1.33ZM3,1.13h.18V.94H3Z"/><path d="M1.83,1.33H1.44a.09.09,0,0,1-.1-.1V.84a.1.1,0,0,1,.1-.1h.39a.11.11,0,0,1,.1.1v.39A.1.1,0,0,1,1.83,1.33Zm-.29-.2h.19V.94H1.54Z"/><path d="M2.94.59H2.55a.11.11,0,0,1-.1-.1V.1a.1.1,0,0,1,.1-.1h.39A.09.09,0,0,1,3,.1V.49A.1.1,0,0,1,2.94.59ZM2.65.39h.19V.2H2.65Z"/><path d="M2.2.59H1.81a.11.11,0,0,1-.1-.1V.1a.1.1,0,0,1,.1-.1H2.2a.1.1,0,0,1,.1.1V.49A.11.11,0,0,1,2.2.59ZM1.91.39H2.1V.2H1.91Z"/></g></g></svg>