<svg xmlns="http://www.w3.org/2000/svg" viewBox="0 0 5.18 4.67"><g id="Layer_2" data-name="Layer 2"><g id="Layer_1-2" data-name="Layer 1"><path d="M.1,4.67a.1.1,0,0,1-.1-.1v-4A.13.13,0,0,1,.06.49L1.31,0a.1.1,0,0,1,.13,0,.1.1,0,0,1-.06.13L.2.65V4.57A.11.11,0,0,1,.1,4.67Z"/><path d="M1.34,4.18a.1.1,0,0,1-.1-.1V2.51a.1.1,0,0,1,.1-.1.09.09,0,0,1,.1.1V4.08A.09.09,0,0,1,1.34,4.18Z"/><path d="M1.34,2.61a.11.11,0,0,1-.1-.1V.1A.1.1,0,0,1,1.29,0a.08.08,0,0,1,.09,0L2.62.49a.1.1,0,0,1,.06.13.1.1,0,0,1-.13.06L1.44.25V2.51A.1.1,0,0,1,1.34,2.61Z"/><path d="M5.08,4.67a.1.1,0,0,1-.1-.1V.65L3.8.19A.1.1,0,0,1,3.74.06a.1.1,0,0,1,.13,0L5.11.49a.12.12,0,0,1,.07.1v4A.11.11,0,0,1,5.08,4.67Z"/><path d="M2.59,4.55a.1.1,0,0,1-.1-.1V3.06a.09.09,0,0,1,.1-.1.1.1,0,0,1,.1.1V4.45A.11.11,0,0,1,2.59,4.55Z"/><path d="M2.59,2a.1.1,0,0,1-.1-.1V.59a.11.11,0,0,1,.06-.1L3.8,0a.1.1,0,0,1,.09,0,.09.09,0,0,1,0,.08V1.25a.09.09,0,0,1-.1.1.1.1,0,0,1-.1-.1v-1l-1,.4V1.87A.11.11,0,0,1,2.59,2Z"/><path d="M.1,4.67A.1.1,0,0,1,0,4.6a.1.1,0,0,1,0-.13L1.31,4a.1.1,0,1,1,.07.18L.14,4.66Z"/><path d="M2.59,4.67h0L1.31,4.17A.1.1,0,1,1,1.38,4l1.24.48a.1.1,0,0,1,0,.2Z"/><path d="M5.08,4.67H5L3.8,4.17A.1.1,0,1,1,3.87,4l1.24.48a.1.1,0,0,1,0,.2Z"/><path d="M2.59,4.67A.1.1,0,0,1,2.5,4.6a.1.1,0,0,1,0-.13L3.8,4a.1.1,0,1,1,.07.18l-1.25.49Z"/><path d="M3.83,4.18a.1.1,0,0,1-.1-.1V3.26a.1.1,0,0,1,.1-.1.09.09,0,0,1,.1.1v.82A.09.09,0,0,1,3.83,4.18Z"/><path d="M3.49,3a.11.11,0,0,1-.08,0L3,2.6a.67.67,0,0,1-.14-.69.63.63,0,0,1,.53-.42.43.43,0,0,1,.16,0,.61.61,0,0,1,.52.42A.65.65,0,0,1,4,2.6L3.56,3A.11.11,0,0,1,3.49,3Zm0-1.35H3.43A.42.42,0,0,0,3.07,2a.46.46,0,0,0,.1.5l.32.33.32-.33a.5.5,0,0,0,.1-.5.44.44,0,0,0-.36-.28Z"/><path d="M2.62,2.61a.09.09,0,0,1-.09-.06,1.1,1.1,0,0,1,.07-1,1,1,0,0,1,.76-.48,1.13,1.13,0,0,1,.26,0,1,1,0,0,1,.75.48,1.1,1.1,0,0,1,.07,1,.1.1,0,0,1-.13.05.1.1,0,0,1,0-.13.92.92,0,0,0-.06-.79.76.76,0,0,0-.6-.38.81.81,0,0,0-.22,0,.75.75,0,0,0-.6.38.89.89,0,0,0-.07.79.1.1,0,0,1,0,.13Z"/><path d="M3.78,3H3.19a.09.09,0,0,1-.1-.1.1.1,0,0,1,.1-.1h.59a.1.1,0,0,1,.1.1A.09.09,0,0,1,3.78,3Z"/><path d="M.9,2.61a.1.1,0,0,1-.1-.1V1A.1.1,0,0,1,.9.88.11.11,0,0,1,1,1V2.51A.11.11,0,0,1,.9,2.61Z"/><path d="M2.13,3.77a.1.1,0,0,1-.1-.1V3.26a.09.09,0,0,1,.1-.1.1.1,0,0,1,.1.1v.41A.11.11,0,0,1,2.13,3.77Z"/><path d="M4.6,1.55a.1.1,0,0,1-.1-.1V1a.11.11,0,0,1,.1-.1.1.1,0,0,1,.1.1v.47A.09.09,0,0,1,4.6,1.55Z"/></g></g></svg>