<svg xmlns="http://www.w3.org/2000/svg" viewBox="0 0 5.48 5.13"><g id="Layer_2" data-name="Layer 2"><g id="Layer_1-2" data-name="Layer 1"><path d="M4,2.8H1.5a.1.1,0,1,1,0-.2H4a.1.1,0,1,1,0,.2Z"/><path d="M4.31,3.27H1.17a.1.1,0,0,1-.1-.1.11.11,0,0,1,.1-.1H4.31a.1.1,0,0,1,.1.1A.09.09,0,0,1,4.31,3.27Z"/><path d="M4,3.75H1.5a.11.11,0,0,1-.1-.1.1.1,0,0,1,.1-.1H4a.09.09,0,0,1,.1.1A.1.1,0,0,1,4,3.75Z"/><path d="M5.2,5.13h-1a.12.12,0,0,1-.08,0L3.7,4.47H1.78l-.46.62a.12.12,0,0,1-.08,0h-1A.11.11,0,0,1,.18,5V2.33a.5.5,0,0,1,.5-.5H4.8a.5.5,0,0,1,.5.5V5A.11.11,0,0,1,5.2,5.13Zm-.91-.2H5.1V2.33A.3.3,0,0,0,4.8,2H.68a.3.3,0,0,0-.3.3v2.6h.81l.46-.62a.12.12,0,0,1,.08,0h2a.12.12,0,0,1,.08,0Z"/><path d="M5.2,1.75a.1.1,0,0,1-.1-.1V.5A.3.3,0,0,0,4.8.2H.68a.3.3,0,0,0-.3.3V1.65a.1.1,0,0,1-.1.1.11.11,0,0,1-.1-.1V.5A.5.5,0,0,1,.68,0H4.8a.5.5,0,0,1,.5.5V1.65A.11.11,0,0,1,5.2,1.75Z"/><path d="M1.73,4.47H.82a.09.09,0,0,1-.1-.1.1.1,0,0,1,.1-.1h.91a.1.1,0,0,1,.1.1A.09.09,0,0,1,1.73,4.47Z"/><path d="M4.66,4.47H3.75a.09.09,0,0,1-.1-.1.1.1,0,0,1,.1-.1h.91a.1.1,0,0,1,.1.1A.09.09,0,0,1,4.66,4.47Z"/><path d="M1,.93A.09.09,0,0,1,.88.84V.57A.09.09,0,0,1,1,.47a.1.1,0,0,1,.1.1V.84A.1.1,0,0,1,1,.93Z"/><path d="M1.68.93a.1.1,0,0,1-.1-.09V.57a.1.1,0,0,1,.1-.1.09.09,0,0,1,.1.1V.84A.09.09,0,0,1,1.68.93Z"/><path d="M2.39.93a.09.09,0,0,1-.1-.09V.57a.09.09,0,0,1,.1-.1.1.1,0,0,1,.1.1V.84A.1.1,0,0,1,2.39.93Z"/><path d="M3.09.93A.1.1,0,0,1,3,.84V.57a.1.1,0,0,1,.1-.1.09.09,0,0,1,.1.1V.84A.09.09,0,0,1,3.09.93Z"/><path d="M3.8.93A.09.09,0,0,1,3.7.84V.57a.09.09,0,0,1,.1-.1.1.1,0,0,1,.1.1V.84A.1.1,0,0,1,3.8.93Z"/><path d="M4.5.93A.1.1,0,0,1,4.4.84V.57a.1.1,0,0,1,.1-.1.09.09,0,0,1,.1.1V.84A.09.09,0,0,1,4.5.93Z"/><path d="M5.38,5.13H.1A.1.1,0,0,1,0,5a.09.09,0,0,1,.1-.1H5.38a.1.1,0,0,1,.1.1A.11.11,0,0,1,5.38,5.13Z"/><path d="M2,2H1.21a.36.36,0,0,1,0-.71H2A.36.36,0,0,1,2,2Zm-.82-.51a.16.16,0,0,0-.15.16.15.15,0,0,0,.15.15H2a.15.15,0,0,0,.15-.15A.16.16,0,0,0,2,1.52Z"/><path d="M4.27,2H3.45a.36.36,0,0,1,0-.71h.82a.36.36,0,0,1,0,.71Zm-.82-.51a.16.16,0,0,0-.15.16.15.15,0,0,0,.15.15h.82a.15.15,0,0,0,.15-.15.16.16,0,0,0-.15-.16Z"/></g></g></svg>