<svg xmlns="http://www.w3.org/2000/svg" viewBox="0 0 5.11 5.41"><g id="Layer_2" data-name="Layer 2"><g id="Layer_1-2" data-name="Layer 1"><path d="M2.89,5.41h-.3a.33.33,0,0,1-.28-.16l-.19-.39v.23a.32.32,0,0,1-.32.32H.56a.25.25,0,0,1-.19-.09.26.26,0,0,1,0-.21L1,3.17a.1.1,0,0,1,.09-.07h.8a.09.09,0,0,1,.08,0L3.09,5.06a.25.25,0,0,1,0,.24A.23.23,0,0,1,2.89,5.41Zm-.8-.85a.18.18,0,0,1,.16.1c.08.18.17.35.24.49a.11.11,0,0,0,.1.06h.33s0,0,0,0L1.81,3.3H1.14L.53,5.17v0H1.8a.12.12,0,0,0,.12-.12V4.73a.17.17,0,0,1,.13-.17Z"/><path d="M.86,5.41h0a.1.1,0,0,1-.06-.13l.35-1a.09.09,0,0,1,.12-.06.1.1,0,0,1,.06.13L1,5.35A.11.11,0,0,1,.86,5.41Z"/><path d="M1.48,5.41h0a.09.09,0,0,1-.09-.1l.14-1.56a.09.09,0,0,1,.1-.09.09.09,0,0,1,.09.11L1.58,5.32A.1.1,0,0,1,1.48,5.41Z"/><path d="M1.87,3.3h-.8A.11.11,0,0,1,1,3.2V2.8a.31.31,0,0,1,.31-.31h.38A.31.31,0,0,1,2,2.8v.4A.11.11,0,0,1,1.87,3.3Zm-.7-.2h.6V2.8a.11.11,0,0,0-.11-.11H1.28a.11.11,0,0,0-.11.11Z"/><path d="M1.78,2.73l-.06,0a.08.08,0,0,0-.06,0H1.28a.08.08,0,0,0-.06,0,.11.11,0,0,1-.11,0,.11.11,0,0,1-.05-.09V.41a.41.41,0,0,1,.82,0V2.63a.11.11,0,0,1,0,.09Zm-.5-.24h.4V.41a.21.21,0,1,0-.42,0V2.49Z"/><path d="M5,4.77H3.32a.09.09,0,0,1-.1-.1.1.1,0,0,1,.1-.1H5a.11.11,0,0,1,.1.1A.1.1,0,0,1,5,4.77Z"/><path d="M4.64,4.18H2.94a.1.1,0,1,1,0-.2h1.7a.1.1,0,0,1,0,.2Z"/><path d="M4.26,3.59H2.57a.11.11,0,0,1-.1-.1.1.1,0,0,1,.1-.1H4.26a.09.09,0,0,1,.1.1A.1.1,0,0,1,4.26,3.59Z"/><path d="M4.64,5.41H.1a.09.09,0,0,1-.1-.1.1.1,0,0,1,.1-.1H4.64a.1.1,0,0,1,.09.1A.09.09,0,0,1,4.64,5.41Z"/></g></g></svg>