<svg xmlns="http://www.w3.org/2000/svg" viewBox="0 0 5.38 4.49"><g id="Layer_2" data-name="Layer 2"><g id="Layer_1-2" data-name="Layer 1"><path d="M4,1H1.38a.09.09,0,0,1-.1-.1.1.1,0,0,1,.1-.1H4a.11.11,0,0,1,.1.1A.1.1,0,0,1,4,1Z"/><path d="M4.78,4.49H.6a.35.35,0,0,1-.34-.35V1.19A.35.35,0,0,1,.6.84H.84a.11.11,0,0,1,.1.1.1.1,0,0,1-.1.1H.6a.15.15,0,0,0-.14.15V4.14a.15.15,0,0,0,.14.15H4.78a.15.15,0,0,0,.15-.15V1.19A.15.15,0,0,0,4.78,1H4.55a.09.09,0,0,1-.1-.1.1.1,0,0,1,.1-.1h.23a.35.35,0,0,1,.35.35V4.14A.35.35,0,0,1,4.78,4.49Z"/><path d="M3.22,1H2.17a.09.09,0,0,1-.1-.1V.5A.16.16,0,0,1,2.23.34h.93A.16.16,0,0,1,3.32.5V.94A.1.1,0,0,1,3.22,1Zm-1-.2h.85V.53H2.27Z"/><path d="M3.56,1H1.83a.09.09,0,0,1-.1-.1V.4a.4.4,0,0,1,.4-.4H3.25a.4.4,0,0,1,.41.4V.94A.1.1,0,0,1,3.56,1ZM1.93.84H3.46V.4A.2.2,0,0,0,3.25.2H2.13a.2.2,0,0,0-.2.2Z"/><path d="M4,2.64a.09.09,0,0,1-.1-.1V1H1.48v.84a.1.1,0,0,1-.1.1.09.09,0,0,1-.1-.1V.94a.1.1,0,0,1,.1-.1H4a.11.11,0,0,1,.1.1v1.6A.1.1,0,0,1,4,2.64Z"/><path d="M4,4.49H1.38a.1.1,0,0,1-.1-.1V3.2a.09.09,0,0,1,.1-.1.1.1,0,0,1,.1.1V4.29H3.91V4.05A.1.1,0,0,1,4,4a.11.11,0,0,1,.1.1v.34A.11.11,0,0,1,4,4.49Z"/><path d="M.84,4.49a.1.1,0,0,1-.1-.1V.85A.23.23,0,0,1,1,.62h.27a.23.23,0,0,1,.24.23V.94a.1.1,0,0,1-.1.1.09.09,0,0,1-.1-.1V.85s0,0,0,0H1a0,0,0,0,0,0,0V4.39A.11.11,0,0,1,.84,4.49Z"/><path d="M5.28,4.49H.1a.1.1,0,0,1-.1-.1.09.09,0,0,1,.1-.1H5.28a.09.09,0,0,1,.1.1A.1.1,0,0,1,5.28,4.49Z"/><path d="M1.38,1.62H.84a.09.09,0,0,1-.1-.1.1.1,0,0,1,.1-.1h.54a.11.11,0,0,1,.1.1A.1.1,0,0,1,1.38,1.62Z"/><path d="M4.55,1.62H4a.09.09,0,0,1-.1-.1.1.1,0,0,1,.1-.1h.54a.11.11,0,0,1,.1.1A.1.1,0,0,1,4.55,1.62Z"/><path d="M1.68,3.1a.56.56,0,1,1,.56-.56A.56.56,0,0,1,1.68,3.1Zm0-.92A.36.36,0,1,0,2,2.54.36.36,0,0,0,1.68,2.18Z"/><path d="M4.12,3.89h-1a.09.09,0,0,1-.1-.1v-1a.1.1,0,0,1,.1-.1h1a.11.11,0,0,1,.1.1v1A.1.1,0,0,1,4.12,3.89Zm-.86-.2H4V2.93H3.26Z"/><path d="M2.7,2.5h0l-.06,0-.4-.7a.1.1,0,0,1,0-.14l.69-.4A.08.08,0,0,1,3,1.2a.07.07,0,0,1,.06,0l.4.7a.1.1,0,0,1,0,.14l-.7.4Zm-.27-.77.31.53L3.26,2,3,1.43Z"/><path d="M2.26,4.17h0a.12.12,0,0,1-.08-.06l-.28-.85a.1.1,0,0,1,0-.1.08.08,0,0,1,.1,0l.84.28a.08.08,0,0,1,.07.07.08.08,0,0,1,0,.09l-.56.57Zm-.13-.78.17.5.34-.33Z"/><path d="M4.55,4.47a.09.09,0,0,1-.1-.1V.85a0,0,0,0,0,0,0H4.14a0,0,0,0,0,0,0V.94A.1.1,0,0,1,4,1a.09.09,0,0,1-.1-.1V.85A.23.23,0,0,1,4.14.62h.28a.23.23,0,0,1,.23.23V4.37A.1.1,0,0,1,4.55,4.47Z"/></g></g></svg>