<svg xmlns="http://www.w3.org/2000/svg" viewBox="0 0 4.58 5.34"><g id="Layer_2" data-name="Layer 2"><g id="Layer_1-2" data-name="Layer 1"><path d="M4.17,4.05H.41A.1.1,0,0,1,.31,4a2,2,0,0,1,4,0A.09.09,0,0,1,4.17,4.05ZM.5,3.86H4.08a1.79,1.79,0,0,0-3.58,0Z"/><path d="M4.23,4.58H.36a.36.36,0,0,1,0-.72H4.23a.36.36,0,0,1,0,.72ZM.36,4.05a.17.17,0,0,0,0,.34H4.23a.17.17,0,0,0,0-.34Z"/><path d="M2.29,5.34a.85.85,0,0,1-.86-.86.09.09,0,0,1,.09-.09.1.1,0,0,1,.1.09A.67.67,0,0,0,3,4.48a.1.1,0,0,1,.1-.09.09.09,0,0,1,.09.09A.85.85,0,0,1,2.29,5.34Z"/><path d="M1.67,2.28a.08.08,0,0,1-.08-.06.61.61,0,0,1,0-.6.64.64,0,0,1,.53-.29h.28A.63.63,0,0,1,3,1.62a.64.64,0,0,1,0,.6.1.1,0,0,1-.18-.08.42.42,0,0,0,0-.42.45.45,0,0,0-.37-.2H2.15a.45.45,0,0,0-.37.2.42.42,0,0,0,0,.42.1.1,0,0,1-.05.13Z"/><path d="M3.2.73H1.38A.49.49,0,0,1,.89.24V.09A.1.1,0,0,1,1,0h2.6a.1.1,0,0,1,.1.09V.24A.49.49,0,0,1,3.2.73ZM1.08.19v0a.31.31,0,0,0,.3.3H3.2a.31.31,0,0,0,.3-.3v0Z"/><path d="M2.48,1.52H2.1A.1.1,0,0,1,2,1.43V.63A.1.1,0,0,1,2.1.54h.38a.1.1,0,0,1,.1.09v.8A.1.1,0,0,1,2.48,1.52Zm-.29-.19h.2V.73h-.2Z"/></g></g></svg>