<svg xmlns="http://www.w3.org/2000/svg" viewBox="0 0 4.89 4.95"><g id="Layer_2" data-name="Layer 2"><g id="Layer_1-2" data-name="Layer 1"><path d="M4.52,3.19H.37A.37.37,0,0,1,0,2.82V1A.36.36,0,0,1,.37.63H4.52A.37.37,0,0,1,4.89,1V2.82A.38.38,0,0,1,4.52,3.19ZM.37.83A.16.16,0,0,0,.2,1V2.82A.17.17,0,0,0,.37,3H4.52a.18.18,0,0,0,.17-.17V1A.17.17,0,0,0,4.52.83Z"/><path d="M4.32,3.19H.56a.11.11,0,0,1-.1-.1V2.48a.31.31,0,0,1,.3-.3H4.12a.3.3,0,0,1,.3.3v.61A.1.1,0,0,1,4.32,3.19ZM.66,3H4.22V2.48a.1.1,0,0,0-.1-.1H.76a.11.11,0,0,0-.1.1Z"/><path d="M4.32,2.78H3.93a.1.1,0,0,1-.1-.1.11.11,0,0,1,.1-.1h.39a.1.1,0,0,1,.1.1A.09.09,0,0,1,4.32,2.78Z"/><path d="M1.41,2.78H1.15a.09.09,0,0,1-.1-.1.1.1,0,0,1,.1-.1h.26a.1.1,0,0,1,.1.1A.09.09,0,0,1,1.41,2.78Z"/><path d="M3.21,2.78H2.76a.1.1,0,0,1-.1-.1.11.11,0,0,1,.1-.1h.45a.1.1,0,0,1,.1.1A.09.09,0,0,1,3.21,2.78Zm-.9,0H1.86a.1.1,0,0,1-.1-.1.11.11,0,0,1,.1-.1h.45a.1.1,0,0,1,.1.1A.09.09,0,0,1,2.31,2.78Z"/><path d="M3.93,2.78H3.67a.09.09,0,0,1-.1-.1.1.1,0,0,1,.1-.1h.26a.1.1,0,0,1,.1.1A.09.09,0,0,1,3.93,2.78Z"/><path d="M1.15,2.78H.56a.1.1,0,0,1-.1-.1.11.11,0,0,1,.1-.1h.59a.11.11,0,0,1,.1.1A.1.1,0,0,1,1.15,2.78Z"/><path d="M1.72,1.81H.84a.33.33,0,0,1,0-.65h.88a.33.33,0,1,1,0,.65ZM.84,1.36a.12.12,0,0,0-.12.13.12.12,0,0,0,.12.12h.88a.13.13,0,0,0,.13-.12.13.13,0,0,0-.13-.13Z"/><path d="M3.62,1.36H2.44a.1.1,0,0,1-.1-.1.11.11,0,0,1,.1-.1H3.62a.1.1,0,0,1,.1.1A.09.09,0,0,1,3.62,1.36Z"/><path d="M4,1.81H2.44a.11.11,0,0,1-.1-.1.1.1,0,0,1,.1-.1H4a.1.1,0,0,1,.1.1A.11.11,0,0,1,4,1.81Z"/><path d="M4.36.83H.52a.11.11,0,0,1-.1-.1V.43A.44.44,0,0,1,.86,0H4a.43.43,0,0,1,.43.43v.3A.1.1,0,0,1,4.36.83ZM.62.63H4.26V.43A.23.23,0,0,0,4,.2H.86A.23.23,0,0,0,.62.43Z"/><path d="M1.25,5a.11.11,0,0,1-.08,0,.45.45,0,0,1-.12-.29.47.47,0,0,1,.12-.3.2.2,0,0,0,0-.3h0a.42.42,0,0,1-.12-.3.4.4,0,0,1,.12-.29.1.1,0,1,1,.14.14.23.23,0,0,0,0,.31h0a.42.42,0,0,1,0,.59.2.2,0,0,0,0,.3.12.12,0,0,1,0,.14A.11.11,0,0,1,1.25,5Z"/><path d="M2.05,5a.09.09,0,0,1-.07,0,.41.41,0,0,1-.13-.29A.43.43,0,0,1,2,4.33.2.2,0,0,0,2,4.18.22.22,0,0,0,2,4H2a.42.42,0,0,1-.12-.3A.4.4,0,0,1,2,3.44a.1.1,0,1,1,.14.14.23.23,0,0,0,0,.31h0a.4.4,0,0,1,.12.29.42.42,0,0,1-.12.3.2.2,0,0,0,0,.3.1.1,0,0,1,0,.14A.11.11,0,0,1,2.05,5Z"/><path d="M2.85,5a.09.09,0,0,1-.07,0,.42.42,0,0,1,0-.59.22.22,0,0,0,0-.3h0a.42.42,0,0,1-.12-.3.4.4,0,0,1,.12-.29.1.1,0,0,1,.14.14.23.23,0,0,0,0,.31h0a.42.42,0,0,1,0,.59.2.2,0,0,0,0,.3.1.1,0,0,1,0,.14A.11.11,0,0,1,2.85,5Z"/><path d="M3.65,5a.09.09,0,0,1-.07,0,.4.4,0,0,1-.12-.29.42.42,0,0,1,.12-.3.2.2,0,0,0,.06-.15A.22.22,0,0,0,3.58,4h0a.42.42,0,0,1-.12-.3.4.4,0,0,1,.12-.29.1.1,0,0,1,.14.14.23.23,0,0,0,0,.31h0a.4.4,0,0,1,.12.29.42.42,0,0,1-.12.3.22.22,0,0,0,0,.3.1.1,0,0,1,0,.14A.11.11,0,0,1,3.65,5Z"/></g></g></svg>