<svg xmlns="http://www.w3.org/2000/svg" viewBox="0 0 5.27 5.48"><g id="Layer_2" data-name="Layer 2"><g id="Layer_1-2" data-name="Layer 1"><path d="M5,5.48H.27a.09.09,0,0,1-.1-.1v-2a.09.09,0,0,1,.1-.09H5a.09.09,0,0,1,.09.09v2A.09.09,0,0,1,5,5.48ZM.36,5.29H4.91V3.49H.36Z"/><path d="M5,5.48H2.64a.09.09,0,0,1-.1-.1v-1a.09.09,0,0,1,.1-.09H5a.09.09,0,0,1,.09.09v1A.09.09,0,0,1,5,5.48ZM2.73,5.29H4.91v-.8H2.73Z"/><path d="M2.64,4.49H.27a.1.1,0,0,1-.1-.1v-1a.09.09,0,0,1,.1-.09H2.64a.09.09,0,0,1,.09.09v1A.1.1,0,0,1,2.64,4.49ZM.36,4.3H2.54V3.49H.36Z"/><path d="M2.64,5.48H.27a.09.09,0,0,1-.1-.1v-1a.09.09,0,0,1,.1-.09H2.64a.09.09,0,0,1,.09.09v1A.09.09,0,0,1,2.64,5.48ZM.36,5.29H2.54v-.8H.36Z"/><path d="M1.77,4H1.13A.09.09,0,0,1,1,3.9a.09.09,0,0,1,.09-.1h.64a.09.09,0,0,1,.09.1A.09.09,0,0,1,1.77,4Z"/><path d="M1.77,5H1.13A.09.09,0,0,1,1,4.89a.1.1,0,0,1,.09-.1h.64a.1.1,0,0,1,.09.1A.09.09,0,0,1,1.77,5Z"/><path d="M5,4.49H2.64a.1.1,0,0,1-.1-.1v-1a.09.09,0,0,1,.1-.09H5a.09.09,0,0,1,.09.09v1A.1.1,0,0,1,5,4.49ZM2.73,4.3H4.91V3.49H2.73Z"/><path d="M4.14,4H3.51a.09.09,0,0,1-.1-.09.09.09,0,0,1,.1-.1h.63a.09.09,0,0,1,.09.1A.09.09,0,0,1,4.14,4Z"/><path d="M4.14,5H3.51a.09.09,0,0,1-.1-.09.1.1,0,0,1,.1-.1h.63a.1.1,0,0,1,.09.1A.09.09,0,0,1,4.14,5Z"/><path d="M5.18,3.49H.09a.09.09,0,0,1,0-.18H5.18a.09.09,0,0,1,0,.18Z"/><path d="M5.18,3.17H.09A.09.09,0,0,1,0,3.08.1.1,0,0,1,.09,3H5.18a.1.1,0,0,1,.09.1A.09.09,0,0,1,5.18,3.17Z"/><path d="M3.23,3.17H2a.29.29,0,0,1,0-.58H3.23a.29.29,0,0,1,0,.58ZM2,2.78A.1.1,0,0,0,2,3H3.23a.1.1,0,1,0,0-.2Z"/><path d="M3.16,2.78h-1a.11.11,0,0,1-.1-.1V2.35a.11.11,0,0,1,.1-.1h1a.1.1,0,0,1,.09.1v.33A.1.1,0,0,1,3.16,2.78Zm-1-.19h.85V2.44H2.21Z"/><path d="M4.53,2.44H.74a.23.23,0,0,1-.23-.23v-2A.23.23,0,0,1,.74,0H4.53a.24.24,0,0,1,.24.24v2A.23.23,0,0,1,4.53,2.44ZM.74.19a0,0,0,0,0,0,0v2a0,0,0,0,0,0,0H4.53a0,0,0,0,0,0,0v-2a0,0,0,0,0,0,0Z"/><path d="M4.67,2.09H.6A.09.09,0,0,1,.51,2V.45A.09.09,0,0,1,.6.35H4.67a.1.1,0,0,1,.1.1V2A.1.1,0,0,1,4.67,2.09ZM.7,1.9H4.58V.54H.7Z"/></g></g></svg>