<svg xmlns="http://www.w3.org/2000/svg" viewBox="0 0 4.02 5.39"><g id="Layer_2" data-name="Layer 2"><g id="Layer_1-2" data-name="Layer 1"><path d="M3.68,4.35H.34a.09.09,0,0,1-.1-.09V.68A.67.67,0,0,1,.92,0H3.1a.67.67,0,0,1,.68.68V4.26A.09.09,0,0,1,3.68,4.35ZM.43,4.16H3.59V.68A.49.49,0,0,0,3.1.19H.92A.49.49,0,0,0,.43.68Z"/><path d="M2,4.35H.34a.09.09,0,0,1-.1-.09V3.43a.09.09,0,0,1,.1-.09H2a.09.09,0,0,1,.09.09v.83A.09.09,0,0,1,2,4.35ZM.43,4.16H1.92V3.53H.43Z"/><path d="M3.68,4.35H2a.09.09,0,0,1-.09-.09V3.43A.09.09,0,0,1,2,3.34H3.68a.09.09,0,0,1,.1.09v.83A.09.09,0,0,1,3.68,4.35ZM2.1,4.16H3.59V3.53H2.1Z"/><path d="M2,3.53a.1.1,0,0,1-.09-.1V.09a.09.09,0,1,1,.18,0V3.43A.1.1,0,0,1,2,3.53Z"/><path d="M1.28,3.94H1.07a.09.09,0,0,1-.1-.1.09.09,0,0,1,.1-.09h.21a.09.09,0,0,1,.09.09A.09.09,0,0,1,1.28,3.94Z"/><path d="M3,3.94H2.74a.09.09,0,0,1-.09-.1.09.09,0,0,1,.09-.09H3a.09.09,0,0,1,.1.09A.09.09,0,0,1,3,3.94Z"/><path d="M2,3.53H.34a.1.1,0,0,1-.1-.1V2.6a.09.09,0,0,1,.1-.09H2a.09.09,0,0,1,.09.09v.83A.1.1,0,0,1,2,3.53ZM.43,3.34H1.92V2.7H.43Z"/><path d="M3.68,3.53H2a.1.1,0,0,1-.09-.1V2.6A.09.09,0,0,1,2,2.51H3.68a.09.09,0,0,1,.1.09v.83A.1.1,0,0,1,3.68,3.53ZM2.1,3.34H3.59V2.7H2.1Z"/><path d="M1.28,3.11H1.07A.09.09,0,0,1,1,3a.1.1,0,0,1,.1-.1h.21a.1.1,0,0,1,.09.1A.09.09,0,0,1,1.28,3.11Z"/><path d="M3,3.11H2.74A.09.09,0,0,1,2.65,3a.1.1,0,0,1,.09-.1H3a.1.1,0,0,1,.1.1A.09.09,0,0,1,3,3.11Z"/><path d="M3.77,4.83H.25A.25.25,0,0,1,0,4.59V4.41a.25.25,0,0,1,.25-.25H3.77A.25.25,0,0,1,4,4.41v.18A.25.25,0,0,1,3.77,4.83ZM.25,4.35a.06.06,0,0,0-.06.06v.18s0,0,.06,0H3.77s.06,0,.06,0V4.41a.06.06,0,0,0-.06-.06Z"/><path d="M3.77,4.83H.25A.25.25,0,0,1,0,4.59V4.41a.25.25,0,0,1,.25-.25H3.77A.25.25,0,0,1,4,4.41v.18A.25.25,0,0,1,3.77,4.83ZM.25,4.35a.06.06,0,0,0-.06.06v.18s0,0,.06,0H3.77s.06,0,.06,0V4.41a.06.06,0,0,0-.06-.06Z"/><path d="M1.12,5.39H.42A.09.09,0,0,1,.33,5.3V4.74a.1.1,0,0,1,.09-.1.1.1,0,0,1,.1.1V5.2h.54l.22-.5a.1.1,0,0,1,.18.08l-.25.56A.11.11,0,0,1,1.12,5.39Z"/><path d="M3.6,5.39H2.9a.11.11,0,0,1-.09,0l-.25-.56a.1.1,0,0,1,.18-.08L3,5.2H3.5V4.74a.1.1,0,0,1,.1-.1.1.1,0,0,1,.09.1V5.3A.09.09,0,0,1,3.6,5.39Z"/><path d="M1.45,1.86a.1.1,0,0,1-.1-.1V1.27a.1.1,0,0,1,.1-.1.1.1,0,0,1,.09.1v.49A.1.1,0,0,1,1.45,1.86Z"/><path d="M2.57,1.86a.1.1,0,0,1-.09-.1V1.27a.1.1,0,0,1,.09-.1.1.1,0,0,1,.1.1v.49A.1.1,0,0,1,2.57,1.86Z"/></g></g></svg>