<svg xmlns="http://www.w3.org/2000/svg" viewBox="0 0 4.18 5.46"><g id="Layer_2" data-name="Layer 2"><g id="Layer_1-2" data-name="Layer 1"><path d="M2.76,4.42H.68a.1.1,0,0,1-.09-.1.09.09,0,0,1,.09-.09H2.76a.09.09,0,0,1,.09.09A.1.1,0,0,1,2.76,4.42Z"/><path d="M3.5,4.42H3.21a.1.1,0,0,1-.1-.1.09.09,0,0,1,.1-.09H3.5a.09.09,0,0,1,.09.09A.1.1,0,0,1,3.5,4.42Z"/><path d="M3.53,2.9H.65a.11.11,0,0,1-.1-.1.1.1,0,0,1,.1-.09H3.53a.1.1,0,0,1,.1.09A.11.11,0,0,1,3.53,2.9Z"/><path d="M3.53,3.66H.65a.1.1,0,0,1-.1-.09.1.1,0,0,1,.1-.1H3.53a.1.1,0,0,1,.1.1A.1.1,0,0,1,3.53,3.66Z"/><path d="M2.26,3.22H1.92a.1.1,0,0,1-.1-.1A.1.1,0,0,1,1.92,3h.34a.1.1,0,0,1,.1.09A.1.1,0,0,1,2.26,3.22Z"/><path d="M2.26,4H1.92a.1.1,0,0,1-.1-.1.1.1,0,0,1,.1-.09h.34a.1.1,0,0,1,.1.09A.1.1,0,0,1,2.26,4Z"/><path d="M3.5,5H.68a.36.36,0,0,1-.36-.36.37.37,0,0,1,.23-.34V2.8a.1.1,0,0,1,.1-.09H3.53a.1.1,0,0,1,.1.09V4.25a.37.37,0,0,1,.23.34A.36.36,0,0,1,3.5,5ZM.68,4.42a.17.17,0,0,0-.17.17.18.18,0,0,0,.17.17H3.5a.18.18,0,0,0,.17-.17.17.17,0,0,0-.17-.17.11.11,0,0,1-.1-.1.1.1,0,0,1,0-.07V2.9H.74V4.25a.1.1,0,0,1,0,.07A.11.11,0,0,1,.68,4.42Z"/><path d="M1.21,5.46H.83a.1.1,0,0,1-.1-.1v-.5a.1.1,0,0,1,.1-.1.09.09,0,0,1,.09.1v.41h.22a1.3,1.3,0,0,1,.35-.5.1.1,0,0,1,.13,0,.1.1,0,0,1,0,.13,1.36,1.36,0,0,0-.3.46A.1.1,0,0,1,1.21,5.46Z"/><path d="M3.35,5.46H3a.1.1,0,0,1-.08-.06,1.36,1.36,0,0,0-.3-.46.1.1,0,0,1,0-.13.1.1,0,0,1,.13,0,1.3,1.3,0,0,1,.35.5h.22V4.86a.09.09,0,0,1,.09-.1.1.1,0,0,1,.1.1v.5A.1.1,0,0,1,3.35,5.46Z"/><path d="M3.67,2.9H.51a.11.11,0,0,1-.1-.1.1.1,0,0,1,.1-.09H3.67a.1.1,0,0,1,.1.09A.11.11,0,0,1,3.67,2.9Z"/><path d="M3.93,2.43H.25A.25.25,0,0,1,0,2.19V.25A.25.25,0,0,1,.25,0H3.93a.25.25,0,0,1,.25.25V2.19A.25.25,0,0,1,3.93,2.43ZM.25.19A.05.05,0,0,0,.19.25V2.19s0,.05.06.05H3.93S4,2.22,4,2.19V.25A.05.05,0,0,0,3.93.19Z"/><path d="M1.13,1.85l0,0a.09.09,0,0,1,0-.13L1.76.57a.1.1,0,0,1,.13,0,.09.09,0,0,1,0,.13L1.21,1.8A.1.1,0,0,1,1.13,1.85Z"/><path d="M2.34,1.87l0,0a.09.09,0,0,1,0-.13L3,.59a.09.09,0,0,1,.13,0,.09.09,0,0,1,0,.13L2.42,1.82A.1.1,0,0,1,2.34,1.87Z"/></g></g></svg>