<svg xmlns="http://www.w3.org/2000/svg" viewBox="0 0 5.37 5.01"><g id="Layer_2" data-name="Layer 2"><g id="Layer_1-2" data-name="Layer 1"><path d="M4.34,5H1a.1.1,0,0,1-.1-.09V.85A.1.1,0,0,1,1,.75H4.34a.09.09,0,0,1,.1.1V4.92A.09.09,0,0,1,4.34,5ZM1.12,4.82H4.24V1H1.12Z"/><path d="M5.09,5H.28a.09.09,0,0,1-.1-.09V.1A.09.09,0,0,1,.28,0H5.09a.09.09,0,0,1,.1.1V4.92A.09.09,0,0,1,5.09,5ZM.38,4.82H5V.2H.38Z"/><path d="M4.34,1H1A.11.11,0,0,1,1,.92L.2.17A.12.12,0,0,1,.2,0,.11.11,0,0,1,.35,0l.71.72H4.3L5,0a.1.1,0,0,1,.14,0,.1.1,0,0,1,0,.14L4.42.92A.11.11,0,0,1,4.34,1Z"/><path d="M2.68,5a.1.1,0,0,1-.1-.09V.85a.1.1,0,0,1,.1-.1.09.09,0,0,1,.1.1V4.92A.09.09,0,0,1,2.68,5Z"/><path d="M4.76,2.16H4.7a.1.1,0,0,1-.1-.1A.09.09,0,0,1,4.7,2h.06a.1.1,0,0,1,.1.1A.11.11,0,0,1,4.76,2.16Z"/><path d="M4.76,2.59H4.7a.1.1,0,0,1,0-.2h.06a.1.1,0,1,1,0,.2Z"/><path d="M4.76,3H4.7a.09.09,0,0,1-.1-.1.1.1,0,0,1,.1-.1h.06a.11.11,0,0,1,.1.1A.1.1,0,0,1,4.76,3Z"/><path d="M4.76,3.45H4.7a.09.09,0,0,1-.1-.09.09.09,0,0,1,.1-.1h.06a.1.1,0,0,1,.1.1A.1.1,0,0,1,4.76,3.45Z"/><path d="M.67,2.16H.61a.1.1,0,0,1-.1-.1A.09.09,0,0,1,.61,2H.67a.1.1,0,0,1,.1.1A.11.11,0,0,1,.67,2.16Z"/><path d="M.67,2.59H.61a.1.1,0,1,1,0-.2H.67a.1.1,0,1,1,0,.2Z"/><path d="M.67,3H.61a.09.09,0,0,1-.1-.1.1.1,0,0,1,.1-.1H.67a.11.11,0,0,1,.1.1A.1.1,0,0,1,.67,3Z"/><path d="M.67,3.45H.61a.09.09,0,0,1-.1-.09.09.09,0,0,1,.1-.1H.67a.1.1,0,0,1,.1.1A.1.1,0,0,1,.67,3.45Z"/><path d="M2.25.57H1.38a.09.09,0,0,1-.1-.1.1.1,0,0,1,.1-.1h.87a.11.11,0,0,1,.1.1A.1.1,0,0,1,2.25.57Z"/><path d="M3.73,1.87l-.06,0-.15-.11-.14.11a.11.11,0,0,1-.14,0,.11.11,0,0,1,0-.14l.2-.16a.11.11,0,0,1,.13,0l.2.16a.11.11,0,0,1,0,.14A.09.09,0,0,1,3.73,1.87Z"/><path d="M3.52,2.48a.11.11,0,0,1-.1-.1V1.61a.1.1,0,0,1,.1-.1.09.09,0,0,1,.1.1v.77A.1.1,0,0,1,3.52,2.48Z"/><path d="M3.52,4.25l-.06,0-.2-.16a.11.11,0,0,1,0-.14.11.11,0,0,1,.14,0L3.52,4l.15-.12a.11.11,0,0,1,.14,0,.11.11,0,0,1,0,.14l-.2.16Z"/><path d="M3.52,4.25a.1.1,0,0,1-.1-.1V3.38a.11.11,0,0,1,.1-.1.1.1,0,0,1,.1.1v.77A.09.09,0,0,1,3.52,4.25Z"/><path d="M5.27,5H.1A.09.09,0,0,1,0,4.92a.09.09,0,0,1,.1-.1H5.27a.1.1,0,0,1,.1.1A.1.1,0,0,1,5.27,5Z"/></g></g></svg>