<svg xmlns="http://www.w3.org/2000/svg" viewBox="0 0 5.41 5.5"><g id="Layer_2" data-name="Layer 2"><g id="Layer_1-2" data-name="Layer 1"><path d="M5,5H.38a.38.38,0,0,1,0-.76H5A.38.38,0,0,1,5,5ZM.38,4.45a.18.18,0,0,0-.19.19.19.19,0,0,0,.19.19H5a.2.2,0,0,0,.19-.19A.19.19,0,0,0,5,4.45Z"/><path d="M5,4.45H.45a.1.1,0,0,1-.1-.1V.47A.47.47,0,0,1,.82,0H4.59a.47.47,0,0,1,.47.47V4.35A.1.1,0,0,1,5,4.45ZM.54,4.26H4.87V.47A.29.29,0,0,0,4.59.19H.82A.29.29,0,0,0,.54.47Z"/><path d="M2.82,4.45a.1.1,0,0,1-.1-.1V.09A.09.09,0,0,1,2.82,0a.09.09,0,0,1,.09.09V4.35A.1.1,0,0,1,2.82,4.45Z"/><path d="M2.82,4.45H.45a.1.1,0,0,1-.1-.1V3.54a.09.09,0,0,1,.1-.1H2.82a.09.09,0,0,1,.09.1v.81A.1.1,0,0,1,2.82,4.45ZM.54,4.26H2.72V3.63H.54Z"/><path d="M2.82,3.63H.45a.09.09,0,0,1-.1-.09V2.72a.09.09,0,0,1,.1-.09H2.82a.09.09,0,0,1,.09.09v.82A.09.09,0,0,1,2.82,3.63ZM.54,3.44H2.72V2.82H.54Z"/><path d="M1.78,3.28H1.49A.25.25,0,0,1,1.24,3a.1.1,0,0,1,.1-.09A.09.09,0,0,1,1.43,3a.06.06,0,0,0,.06.06h.29A.06.06,0,0,0,1.83,3a.09.09,0,0,1,.09-.09A.09.09,0,0,1,2,3,.25.25,0,0,1,1.78,3.28Z"/><path d="M1.78,4.11H1.49a.25.25,0,0,1-.25-.24.11.11,0,0,1,.1-.1.1.1,0,0,1,.09.1.06.06,0,0,0,.06,0h.29a0,0,0,0,0,.05,0,.1.1,0,0,1,.09-.1.1.1,0,0,1,.1.1A.24.24,0,0,1,1.78,4.11Z"/><path d="M5,1.05H2.82a.09.09,0,1,1,0-.18H5a.09.09,0,1,1,0,.18Z"/><path d="M3.52,1.44a.1.1,0,0,1-.09-.1V.81a.1.1,0,0,1,.09-.1.11.11,0,0,1,.1.1v.53A.11.11,0,0,1,3.52,1.44Z"/><path d="M4.32,1.44a.1.1,0,0,1-.09-.1V.81a.1.1,0,0,1,.09-.1.1.1,0,0,1,.1.1v.53A.1.1,0,0,1,4.32,1.44Z"/><path d="M3.7,3.64H3.35a.1.1,0,0,1-.1-.09v-2a.27.27,0,0,1,.54,0v2A.09.09,0,0,1,3.7,3.64Zm-.26-.18H3.6V1.52a.07.07,0,0,0-.08-.08.08.08,0,0,0-.08.08Z"/><path d="M4.5,3.64H4.15a.09.09,0,0,1-.09-.09v-2a.27.27,0,1,1,.53,0v2A.09.09,0,0,1,4.5,3.64Zm-.25-.18H4.4V1.52a.07.07,0,0,0-.08-.08.07.07,0,0,0-.07.08Z"/><path d="M1.14,1.52a.09.09,0,0,1-.07,0,.09.09,0,0,1,0-.13L1.65.74a.09.09,0,0,1,.13,0,.09.09,0,0,1,0,.13l-.59.62A.07.07,0,0,1,1.14,1.52Z"/><path d="M1.6,2.16a.07.07,0,0,1-.06,0,.09.09,0,0,1,0-.13l.58-.62a.09.09,0,0,1,.13,0,.09.09,0,0,1,0,.13l-.58.62A.08.08,0,0,1,1.6,2.16Z"/><path d="M4.47,4H3.35a.1.1,0,0,1-.1-.1.1.1,0,0,1,.1-.09H4.47a.1.1,0,0,1,.1.09A.1.1,0,0,1,4.47,4Z"/><path d="M1.3,5.5H.8a.09.09,0,0,1-.09-.09V4.92A.09.09,0,0,1,.8,4.83h1a.1.1,0,0,1,.1.08.1.1,0,0,1-.07.1.62.62,0,0,0-.46.42A.1.1,0,0,1,1.3,5.5ZM.9,5.31h.33A.76.76,0,0,1,1.44,5H.9Z"/><path d="M4.61,5.5h-.5A.1.1,0,0,1,4,5.43.62.62,0,0,0,3.56,5a.1.1,0,0,1-.07-.1.1.1,0,0,1,.1-.08h1a.09.09,0,0,1,.09.09v.49A.09.09,0,0,1,4.61,5.5Zm-.43-.19h.33V5H4A.76.76,0,0,1,4.18,5.31Z"/></g></g></svg>