<svg xmlns="http://www.w3.org/2000/svg" viewBox="0 0 4.21 5.37"><g id="Layer_2" data-name="Layer 2"><g id="Layer_1-2" data-name="Layer 1"><path d="M1.44,1.21A.59.59,0,0,1,.86.6.59.59,0,0,1,1.44,0,.59.59,0,0,1,2,.6.59.59,0,0,1,1.44,1.21Zm0-1a.39.39,0,0,0-.38.4A.39.39,0,0,0,1.44,1,.39.39,0,0,0,1.81.6.39.39,0,0,0,1.44.2Z"/><path d="M1.44,5.37a.09.09,0,0,1-.1-.1V3.58a.09.09,0,0,1,.1-.1.1.1,0,0,1,.1.1V5.27A.1.1,0,0,1,1.44,5.37Z"/><path d="M4.11,5.37H.1a.09.09,0,0,1-.1-.1.1.1,0,0,1,.1-.1h4a.11.11,0,0,1,.1.1A.1.1,0,0,1,4.11,5.37Z"/><path d="M2,5.37H.91a.09.09,0,0,1-.1-.1V3.53a.41.41,0,0,1-.19,0,.37.37,0,0,1-.34-.38V2A.63.63,0,0,1,.91,1.4h1a.59.59,0,0,1,.23,0h0l.55.37H3.74a.33.33,0,0,1,.33.33.32.32,0,0,1-.32.33.1.1,0,0,1-.1-.1.11.11,0,0,1,.1-.1.12.12,0,0,0,.12-.13A.13.13,0,0,0,3.74,2H2.68a.28.28,0,0,1-.13,0L2,1.62l-.14,0h-1A.43.43,0,0,0,.48,2V3.19a.17.17,0,0,0,.15.18.2.2,0,0,0,.13,0,.21.21,0,0,0,.05-.12.09.09,0,0,1,.1-.1.1.1,0,0,1,.1.1v2h.86V2.08a.11.11,0,0,1,0-.09A.12.12,0,0,1,2,2l.46.27a.19.19,0,0,0,.1,0H3a.1.1,0,0,1,.1.1.09.09,0,0,1-.1.1h-.4a.46.46,0,0,1-.2-.05l-.31-.19v3A.1.1,0,0,1,2,5.37Z"/><path d="M.91,3.31a.1.1,0,0,1-.1-.1V2.32a.09.09,0,0,1,.1-.1.1.1,0,0,1,.1.1v.89A.11.11,0,0,1,.91,3.31Z"/><path d="M3.81,2H3a.25.25,0,0,1,0-.5h.8a.25.25,0,0,1,0,.5ZM3,1.73a.05.05,0,0,0,0,.1h.8a.05.05,0,0,0,0-.1Z"/><path d="M3.84,1.73a.1.1,0,0,1-.1-.1.34.34,0,0,0-.67,0,.09.09,0,0,1-.1.1.1.1,0,0,1-.1-.1.54.54,0,0,1,1.07,0A.09.09,0,0,1,3.84,1.73Z"/><path d="M3.41,1.3a.1.1,0,0,1-.1-.1V1.07a.1.1,0,0,1,.1-.1.11.11,0,0,1,.1.1V1.2A.11.11,0,0,1,3.41,1.3Z"/><path d="M3.6,2.84H3.06a.18.18,0,0,1-.18-.18V1.93a.1.1,0,0,1,.1-.1h.7a.1.1,0,0,1,.1.1v.73A.18.18,0,0,1,3.6,2.84Zm-.52-.2h.5V2h-.5Z"/><path d="M3.7,3.58H2.46a.09.09,0,0,1-.1-.1.1.1,0,0,1,.1-.1H3.7a.1.1,0,0,1,.1.1A.09.09,0,0,1,3.7,3.58Z"/><path d="M3.7,4.11H2.46a.1.1,0,0,1-.1-.1.09.09,0,0,1,.1-.1H3.7a.09.09,0,0,1,.1.1A.1.1,0,0,1,3.7,4.11Z"/><path d="M3.7,4.63H2.46a.09.09,0,0,1-.1-.1.1.1,0,0,1,.1-.1H3.7a.1.1,0,0,1,.1.1A.09.09,0,0,1,3.7,4.63Z"/></g></g></svg>