<svg xmlns="http://www.w3.org/2000/svg" viewBox="0 0 4.94 5.4"><g id="Layer_2" data-name="Layer 2"><g id="Layer_1-2" data-name="Layer 1"><path d="M2.47,2.12a.09.09,0,0,1-.1-.1v-.4a.09.09,0,0,1,.1-.1.1.1,0,0,1,.1.1V2A.1.1,0,0,1,2.47,2.12Z"/><path d="M3.91,3.16h-.4a.09.09,0,0,1-.1-.1.1.1,0,0,1,.1-.1h.4a.1.1,0,0,1,.1.1A.09.09,0,0,1,3.91,3.16Z"/><path d="M3.49,4.18a.09.09,0,0,1-.07,0L3.23,4a.11.11,0,0,1,0-.15.12.12,0,0,1,.14,0L3.56,4a.1.1,0,0,1,0,.14A.11.11,0,0,1,3.49,4.18Z"/><path d="M2.47,4.61a.1.1,0,0,1-.1-.1V4.1a.1.1,0,0,1,.1-.1.11.11,0,0,1,.1.1v.41A.11.11,0,0,1,2.47,4.61Z"/><path d="M1.44,4.18a.11.11,0,0,1-.07,0,.1.1,0,0,1,0-.14l.19-.19a.12.12,0,0,1,.14,0A.11.11,0,0,1,1.7,4l-.19.18A.09.09,0,0,1,1.44,4.18Z"/><path d="M1.42,3.16H1a.1.1,0,0,1-.1-.1A.11.11,0,0,1,1,3h.4a.1.1,0,0,1,.1.1A.09.09,0,0,1,1.42,3.16Z"/><path d="M1.63,2.33a.11.11,0,0,1-.07,0l-.19-.19A.1.1,0,0,1,1.51,2l.19.19a.1.1,0,0,1,0,.14A.09.09,0,0,1,1.63,2.33Z"/><path d="M2.47,5A1.9,1.9,0,0,1,1.12,1.73,1.92,1.92,0,0,1,3.3,1.36a1.91,1.91,0,0,1,1.06,1.7,2.64,2.64,0,0,1,0,.28A1.9,1.9,0,0,1,2.76,4.93,1.43,1.43,0,0,1,2.47,5Zm0-3.59a1.72,1.72,0,0,0-1.22.5A1.73,1.73,0,0,0,1,3.9a1.73,1.73,0,0,0,1.74.84A1.71,1.71,0,0,0,4.14,3.31a2.11,2.11,0,0,0,0-.25A1.69,1.69,0,0,0,2.48,1.37Z"/><path d="M3.3,2.33a.11.11,0,0,1-.07,0,.1.1,0,0,1,0-.14L3.42,2a.1.1,0,1,1,.14.14l-.19.19A.09.09,0,0,1,3.3,2.33Z"/><path d="M2.47,3.41a.39.39,0,0,1-.25-.1.35.35,0,1,1,.49-.49.36.36,0,0,1,0,.49A.39.39,0,0,1,2.47,3.41Zm0-.49a.15.15,0,0,0-.11,0,.15.15,0,0,0,0,.2.15.15,0,0,0,.21,0,.15.15,0,0,0,0-.2A.14.14,0,0,0,2.47,2.92Z"/><path d="M2.47,2.92a.1.1,0,0,1-.1-.1V2.47a.1.1,0,0,1,.1-.1.11.11,0,0,1,.1.1v.35A.11.11,0,0,1,2.47,2.92Z"/><path d="M3.2,3.16H2.71a.09.09,0,0,1-.1-.1.1.1,0,0,1,.1-.1H3.2a.11.11,0,0,1,.1.1A.1.1,0,0,1,3.2,3.16Z"/><path d="M4.31,1.9a.12.12,0,0,1-.08,0,2.09,2.09,0,0,0-.78-.7.11.11,0,0,1-.06-.1.78.78,0,0,1,1.55.08.77.77,0,0,1-.61.76ZM3.6,1a2.19,2.19,0,0,1,.75.67A.58.58,0,0,0,4.16.57.58.58,0,0,0,3.6,1Z"/><path d="M4.38,1.48a.11.11,0,0,1-.08,0,.11.11,0,0,1,0-.14.23.23,0,0,0,.08-.17A.23.23,0,0,0,4.16.91.26.26,0,0,0,4,1,.1.1,0,1,1,3.83.88.4.4,0,0,1,4.16.71a.43.43,0,0,1,.29.75A.1.1,0,0,1,4.38,1.48Z"/><path d="M.56,1.48l-.07,0a.43.43,0,0,1-.14-.32A.42.42,0,0,1,.77.71a.41.41,0,0,1,.34.17.1.1,0,0,1,0,.14A.11.11,0,0,1,1,1,.24.24,0,0,0,.77.91a.22.22,0,0,0-.22.23.22.22,0,0,0,.07.17.1.1,0,0,1,0,.14A.11.11,0,0,1,.56,1.48Z"/><path d="M.62,1.9h0A.78.78,0,0,1,.77.37a.77.77,0,0,1,.77.69.09.09,0,0,1-.05.1A1.91,1.91,0,0,0,1,1.55a1.89,1.89,0,0,0-.25.31A.12.12,0,0,1,.62,1.9ZM.77.57a.58.58,0,0,0-.57.57.57.57,0,0,0,.37.54,3.08,3.08,0,0,1,.24-.27A2.21,2.21,0,0,1,1.33,1,.58.58,0,0,0,.77.57Z"/><path d="M2.91.57H2a.09.09,0,0,1-.1-.1V.1A.09.09,0,0,1,2,0h.88A.1.1,0,0,1,3,.1V.47A.1.1,0,0,1,2.91.57ZM2.13.37h.68V.2H2.13Z"/><path d="M2.47,5.4a2.35,2.35,0,0,1-2-1.18A2.38,2.38,0,0,1,.81,1.41,2.35,2.35,0,0,1,2.18.74V.47a.11.11,0,0,1,.1-.1h.37a.1.1,0,0,1,.1.1V.74A2.35,2.35,0,0,1,4.81,3.06a1.87,1.87,0,0,1,0,.34,2.34,2.34,0,0,1-1.95,2ZM2.38.57V.83a.09.09,0,0,1-.09.1A2.2,2.2,0,0,0,1,1.55,2.15,2.15,0,0,0,2.8,5.18,2.17,2.17,0,0,0,4.58,3.37a1.55,1.55,0,0,0,0-.31,2.15,2.15,0,0,0-1.2-1.92A2.05,2.05,0,0,0,2.64.93a.1.1,0,0,1-.09-.1V.57Z"/><path d="M4.57,5.4H.36a.09.09,0,0,1-.1-.1.1.1,0,0,1,.1-.1H4.57a.1.1,0,0,1,.1.1A.09.09,0,0,1,4.57,5.4Z"/></g></g></svg>