<svg xmlns="http://www.w3.org/2000/svg" viewBox="0 0 5.06 5.06"><g id="Layer_2" data-name="Layer 2"><g id="Layer_1-2" data-name="Layer 1"><path d="M4.62,5.06H.43A.44.44,0,0,1,0,4.62V.43A.43.43,0,0,1,.43,0H4.62a.44.44,0,0,1,.44.43V4.62A.44.44,0,0,1,4.62,5.06ZM.43.2A.23.23,0,0,0,.2.43V4.62a.23.23,0,0,0,.23.24H4.62a.24.24,0,0,0,.24-.24V.43A.23.23,0,0,0,4.62.2Z"/><path d="M.76,2H.55a.11.11,0,0,1-.1-.1V1.15a.1.1,0,0,1,.1-.1H.76a.3.3,0,0,1,.3.3v.38A.31.31,0,0,1,.76,2Zm-.11-.2H.76a.11.11,0,0,0,.1-.11V1.35a.1.1,0,0,0-.1-.1H.65Z"/><path d="M.76,4H.55a.11.11,0,0,1-.1-.1V3.12A.1.1,0,0,1,.55,3H.76a.31.31,0,0,1,.3.3v.39A.31.31,0,0,1,.76,4Zm-.11-.2H.76a.11.11,0,0,0,.1-.1V3.32a.11.11,0,0,0-.1-.1H.65Z"/><path d="M4.39,4.61H.82a.17.17,0,0,1-.16-.17V3.91a.09.09,0,0,1,.1-.1.11.11,0,0,0,.1-.1V3.32a.11.11,0,0,0-.1-.1.1.1,0,0,1-.1-.1V1.94a.09.09,0,0,1,.1-.1.11.11,0,0,0,.1-.11V1.35a.1.1,0,0,0-.1-.1.1.1,0,0,1-.1-.1V.62A.16.16,0,0,1,.82.45H4.39a.16.16,0,0,1,.16.17V4.44A.17.17,0,0,1,4.39,4.61ZM.86,4.41H4.35V.65H.86v.42a.29.29,0,0,1,.2.28v.38A.29.29,0,0,1,.86,2V3a.29.29,0,0,1,.2.28v.39A.29.29,0,0,1,.86,4Z"/><path d="M2.75,3.36a.83.83,0,0,1-.83-.83.84.84,0,0,1,.83-.84.85.85,0,0,1,.84.84A.84.84,0,0,1,2.75,3.36Zm0-1.47a.64.64,0,0,0-.63.64.63.63,0,0,0,.63.63.64.64,0,0,0,.64-.63A.64.64,0,0,0,2.75,1.89Z"/><path d="M2.75,2.94a.42.42,0,0,1-.41-.41.41.41,0,0,1,.41-.41.41.41,0,0,1,.41.41A.41.41,0,0,1,2.75,2.94Zm0-.62a.21.21,0,0,0-.21.21.22.22,0,0,0,.21.21A.21.21,0,0,0,3,2.53.21.21,0,0,0,2.75,2.32Z"/><path d="M2.75,1.89a.1.1,0,0,1-.1-.1V1.55a.11.11,0,0,1,.1-.1.1.1,0,0,1,.1.1v.24A.09.09,0,0,1,2.75,1.89Z"/><path d="M3.12,2H3.07a.11.11,0,0,1,0-.14l.13-.21a.09.09,0,0,1,.13,0,.09.09,0,0,1,0,.13l-.12.21A.11.11,0,0,1,3.12,2Z"/><path d="M3.39,2.26a.12.12,0,0,1-.09,0,.11.11,0,0,1,0-.14L3.55,2a.1.1,0,0,1,.1.18l-.21.12Z"/><path d="M3.73,2.63H3.49a.1.1,0,0,1-.1-.1.09.09,0,0,1,.1-.1h.24a.09.09,0,0,1,.1.1A.1.1,0,0,1,3.73,2.63Z"/><path d="M3.6,3.12l-.05,0L3.34,3a.1.1,0,0,1,0-.13.1.1,0,0,1,.14,0l.21.12a.11.11,0,0,1,0,.14A.12.12,0,0,1,3.6,3.12Z"/><path d="M3.24,3.48a.09.09,0,0,1-.08,0L3,3.22a.11.11,0,0,1,0-.14.1.1,0,0,1,.14,0l.12.21a.09.09,0,0,1,0,.13Z"/><path d="M2.75,3.61a.11.11,0,0,1-.1-.1V3.26a.11.11,0,0,1,.1-.1.1.1,0,0,1,.1.1v.25A.1.1,0,0,1,2.75,3.61Z"/><path d="M2.26,3.48l0,0a.1.1,0,0,1,0-.13l.12-.21a.1.1,0,0,1,.14,0,.11.11,0,0,1,0,.14l-.12.21A.11.11,0,0,1,2.26,3.48Z"/><path d="M1.91,3.12a.11.11,0,0,1-.09-.05.1.1,0,0,1,0-.14l.21-.12a.09.09,0,0,1,.13,0,.1.1,0,0,1,0,.13L2,3.1Z"/><path d="M2,2.63H1.78a.1.1,0,0,1-.1-.1.09.09,0,0,1,.1-.1H2a.1.1,0,0,1,.1.1A.11.11,0,0,1,2,2.63Z"/><path d="M2.12,2.26H2.07l-.21-.12a.1.1,0,0,1,0-.14A.11.11,0,0,1,2,2l.21.12a.11.11,0,0,1,0,.14A.1.1,0,0,1,2.12,2.26Z"/><path d="M2.39,2a.11.11,0,0,1-.09-.05l-.12-.21a.09.09,0,0,1,0-.13.1.1,0,0,1,.14,0l.12.21a.11.11,0,0,1,0,.14Z"/><path d="M3.92,4.1h-2A.09.09,0,0,1,1.8,4a.1.1,0,0,1,.1-.1h2A.1.1,0,0,1,4,4,.09.09,0,0,1,3.92,4.1Z"/><path d="M3.92,1.15h-2a.09.09,0,0,1-.1-.1A.1.1,0,0,1,1.9,1h2a.1.1,0,0,1,.1.1A.09.09,0,0,1,3.92,1.15Z"/></g></g></svg>