<svg xmlns="http://www.w3.org/2000/svg" viewBox="0 0 5.34 5.13"><g id="Layer_2" data-name="Layer 2"><g id="Layer_1-2" data-name="Layer 1"><path d="M4.91,4.25H1A.43.43,0,1,1,1,3.4h4a.43.43,0,1,1,0,.85ZM1,3.6a.23.23,0,0,0-.23.23A.23.23,0,0,0,1,4.06h4a.23.23,0,0,0,.23-.23.23.23,0,0,0-.23-.23Z"/><path d="M1.6,5.13A.39.39,0,1,1,2,4.75.38.38,0,0,1,1.6,5.13Zm0-.57a.18.18,0,0,0-.18.19.18.18,0,0,0,.36,0A.18.18,0,0,0,1.6,4.56Z"/><path d="M4.27,5.13a.39.39,0,1,1,.38-.38A.38.38,0,0,1,4.27,5.13Zm0-.57a.18.18,0,0,0-.18.19.18.18,0,0,0,.36,0A.18.18,0,0,0,4.27,4.56Z"/><path d="M1.6,4.56a.1.1,0,0,1-.1-.1v-.3a.1.1,0,0,1,.1-.1.09.09,0,0,1,.1.1v.3A.09.09,0,0,1,1.6,4.56Z"/><path d="M4.27,4.56a.1.1,0,0,1-.1-.1v-.3a.1.1,0,0,1,.1-.1.09.09,0,0,1,.1.1v.3A.09.09,0,0,1,4.27,4.56Z"/><path d="M.89,3.61a.1.1,0,0,1-.1-.1v-3a.13.13,0,0,0,0-.1L.59.25a.14.14,0,0,0-.18,0A.15.15,0,0,0,.32.35L.56.56a.11.11,0,0,1,0,.15.1.1,0,0,1-.14,0L.16.47a.09.09,0,0,1,0-.06A.34.34,0,0,1,.33,0,.36.36,0,0,1,.74.12L.9.31A.33.33,0,0,1,1,.54v3A.09.09,0,0,1,.89,3.61Z"/><path d="M4.13,3.6H1.82a.38.38,0,0,1-.38-.38V1.89a.38.38,0,0,1,.38-.38H4.13a.38.38,0,0,1,.38.38V3.22A.38.38,0,0,1,4.13,3.6ZM1.82,1.71a.18.18,0,0,0-.18.18V3.22a.18.18,0,0,0,.18.18H4.13a.18.18,0,0,0,.18-.18V1.89a.18.18,0,0,0-.18-.18Z"/><path d="M3.52,1.71H2.42a.1.1,0,0,1-.1-.1V1.35A.31.31,0,0,1,2.63,1h.68a.31.31,0,0,1,.31.31v.26A.1.1,0,0,1,3.52,1.71Zm-1-.2h.9V1.35a.11.11,0,0,0-.11-.11H2.63a.11.11,0,0,0-.11.11Z"/><path d="M2.21,3.6H1.88a.1.1,0,0,1-.1-.1V1.61a.1.1,0,0,1,.1-.1h.33a.09.09,0,0,1,.1.1V3.5A.09.09,0,0,1,2.21,3.6ZM2,3.4h.13V1.71H2Z"/><path d="M4.06,3.6H3.73a.09.09,0,0,1-.1-.1V1.61a.09.09,0,0,1,.1-.1h.33a.09.09,0,0,1,.1.1V3.5A.09.09,0,0,1,4.06,3.6Zm-.23-.2H4V1.71H3.83Z"/><path d="M5,5.13H.1A.1.1,0,0,1,0,5a.09.09,0,0,1,.1-.1H5a.1.1,0,0,1,.1.1A.11.11,0,0,1,5,5.13Z"/></g></g></svg>