<svg xmlns="http://www.w3.org/2000/svg" viewBox="0 0 5.03 5"><g id="Layer_2" data-name="Layer 2"><g id="Layer_1-2" data-name="Layer 1"><path d="M.81,2.82c-.25,0-.54-.26-.7-.67s-.12-.93.16-1a.49.49,0,0,1,.48.12,1.42,1.42,0,0,1,.36.53,1.27,1.27,0,0,1,.09.62.46.46,0,0,1-.26.42A.27.27,0,0,1,.81,2.82ZM.4,1.29H.34c-.15.06-.2.39-.05.78s.43.59.58.53S1,2.49,1,2.36a1.31,1.31,0,0,0-.09-.53,1,1,0,0,0-.3-.44A.35.35,0,0,0,.4,1.29Z"/><path d="M1.89,1.89c-.29,0-.59-.33-.71-.81a1.27,1.27,0,0,1,0-.67A.51.51,0,0,1,1.52,0,.51.51,0,0,1,2,.2a1.41,1.41,0,0,1,.31.61,1.27,1.27,0,0,1,0,.67.51.51,0,0,1-.34.4ZM1.61.2h0a.35.35,0,0,0-.2.26,1.15,1.15,0,0,0,0,.58c.1.43.37.69.55.64s.16-.11.2-.25a1.14,1.14,0,0,0,0-.58A1.23,1.23,0,0,0,1.87.34.4.4,0,0,0,1.61.2Z"/><path d="M.89,3.63H.84a.1.1,0,0,1,0-.13,1.07,1.07,0,0,1,.41-.38,1.44,1.44,0,0,0,.57-.58c.32-.6.73-.57.74-.57a.09.09,0,0,1,.09.11.1.1,0,0,1-.1.09s-.3,0-.55.46a1.65,1.65,0,0,1-.64.65A.94.94,0,0,0,1,3.58.1.1,0,0,1,.89,3.63Z"/><path d="M3.48,4.68H3.26a4.86,4.86,0,0,0-1.13,0A.12.12,0,0,1,2,4.54a.1.1,0,0,1,.1-.11,5.22,5.22,0,0,1,1.17,0A.78.78,0,0,0,4,4.3a.65.65,0,0,0,.13-.57c-.05-.23-.2-.32-.4-.46l-.24-.16A.1.1,0,0,1,3.6,3l.22.16a.88.88,0,0,1,.48.58.84.84,0,0,1-.17.75A.84.84,0,0,1,3.48,4.68Z"/><path d="M3.43,4.08h0a7.24,7.24,0,0,0-.75,0,.11.11,0,0,1-.1-.1.1.1,0,0,1,.1-.1,5.77,5.77,0,0,1,.78.06A.09.09,0,0,1,3.53,4,.09.09,0,0,1,3.43,4.08Z"/><path d="M4.22,2.82a.27.27,0,0,1-.13,0,.33.33,0,0,1-.2-.2.09.09,0,0,1,0-.13.11.11,0,0,1,.14,0,.13.13,0,0,0,.09.09c.15.06.43-.14.58-.53a1,1,0,0,0,.08-.55.1.1,0,0,1,.09-.12A.1.1,0,0,1,5,1.49a1.31,1.31,0,0,1-.09.66C4.76,2.56,4.47,2.82,4.22,2.82Z"/><path d="M2.91,1.77a.09.09,0,0,1-.08,0A1.1,1.1,0,0,1,2.71.81,1.41,1.41,0,0,1,3,.2.51.51,0,0,1,3.51,0c.23.06.38.34.38.71a.09.09,0,0,1-.1.1.1.1,0,0,1-.1-.1C3.69.45,3.6.24,3.46.2a.34.34,0,0,0-.3.14A1.23,1.23,0,0,0,2.9.85.92.92,0,0,0,3,1.61a.11.11,0,0,1,0,.14Z"/><path d="M3.45,1.77a.09.09,0,0,1-.07,0,.1.1,0,0,1,0-.14l.16-.16a.1.1,0,1,1,.14.14l-.16.16A.11.11,0,0,1,3.45,1.77Z"/><path d="M1.92,3.3a.11.11,0,0,1-.07,0,.12.12,0,0,1,0-.14l.38-.39a.14.14,0,0,1,.15,0,.14.14,0,0,1,0,.15L2,3.27A.11.11,0,0,1,1.92,3.3Zm.77-.77-.08,0a.14.14,0,0,1,0-.15L3,2a.1.1,0,1,1,.14.14l-.38.39Z"/><path d="M1.38,3.84a.09.09,0,0,1-.07,0,.1.1,0,0,1,0-.14l.16-.16a.1.1,0,0,1,.14.14l-.16.16A.09.09,0,0,1,1.38,3.84Z"/><path d="M.88,5a.34.34,0,0,1-.26-.11.37.37,0,0,1,0-.53l.69-.69a.1.1,0,0,1,.14.14L.76,4.5A.18.18,0,0,0,1,4.75L4.65,1.11A.18.18,0,0,0,4.4.86l-.72.72a.1.1,0,0,1-.14-.14L4.26.72a.37.37,0,1,1,.53.53L1.15,4.89A.35.35,0,0,1,.88,5Z"/></g></g></svg>