<svg xmlns="http://www.w3.org/2000/svg" viewBox="0 0 5.44 4.58"><g id="Layer_2" data-name="Layer 2"><g id="Layer_1-2" data-name="Layer 1"><path d="M2.2,1.56a.1.1,0,0,1-.1-.07,1,1,0,0,1,0-.3,1.2,1.2,0,0,1,2.39,0,.78.78,0,0,1,0,.22.1.1,0,0,1-.19,0,1.15,1.15,0,0,0,0-.19,1,1,0,0,0-2,0,1,1,0,0,0,0,.25.09.09,0,0,1-.07.12Z"/><path d="M2.52,1.29a.1.1,0,0,1-.1-.1A.84.84,0,0,1,3.26.36a.1.1,0,0,1,.1.1.11.11,0,0,1-.1.1.64.64,0,0,0-.64.63A.09.09,0,0,1,2.52,1.29Z"/><path d="M4.46,2.62a.94.94,0,0,1-.77-.4.09.09,0,0,1,0-.14.11.11,0,0,1,.14,0,.75.75,0,0,0,.61.32.78.78,0,1,0,0-1.55L4.3.89A.1.1,0,0,1,4.18.81.09.09,0,0,1,4.25.69l.21,0a1,1,0,1,1,0,2Z"/><path d="M2.05,2.62a1,1,0,0,1,0-1.95l.21,0a.1.1,0,1,1,0,.2l-.17,0A.78.78,0,1,0,2.67,2.1a.11.11,0,0,1,.14,0,.11.11,0,0,1,0,.14A1,1,0,0,1,2.05,2.62Z"/><path d="M4.65,4.58H1.87a.35.35,0,0,1-.34-.35V2.41a.09.09,0,0,1,.1-.1.1.1,0,0,1,.1.1V4.23a.15.15,0,0,0,.14.15H4.65a.15.15,0,0,0,.15-.15V2.41a.09.09,0,0,1,.1-.1.1.1,0,0,1,.1.1V4.23A.35.35,0,0,1,4.65,4.58Z"/><path d="M4.9,4H4.39a.1.1,0,0,1-.1-.1.09.09,0,0,1,.1-.1H4.9a.1.1,0,0,1,.1.1A.11.11,0,0,1,4.9,4Z"/><path d="M2.54,4H2.28a.1.1,0,0,1-.1-.1.09.09,0,0,1,.1-.1h.26a.09.09,0,0,1,.1.1A.1.1,0,0,1,2.54,4Z"/><path d="M3.59,4H3.07a.1.1,0,0,1-.1-.1.09.09,0,0,1,.1-.1h.52a.09.09,0,0,1,.1.1A.1.1,0,0,1,3.59,4Z"/><path d="M4.39,4H4.12a.1.1,0,0,1-.1-.1.09.09,0,0,1,.1-.1h.27a.09.09,0,0,1,.09.1A.1.1,0,0,1,4.39,4Z"/><path d="M2.28,4H1.63a.1.1,0,0,1-.1-.1.09.09,0,0,1,.1-.1h.65a.1.1,0,0,1,.1.1A.11.11,0,0,1,2.28,4Z"/><path d="M5.25,4.58H.9a.1.1,0,0,1-.1-.1.09.09,0,0,1,.1-.1H5.25a.1.1,0,0,1,.1.1A.11.11,0,0,1,5.25,4.58Z"/><path d="M1.2,4H.45a.11.11,0,0,1-.1-.1.1.1,0,0,1,.1-.1H1.2a.1.1,0,0,1,.1.1A.11.11,0,0,1,1.2,4Z"/><path d="M1.2,3.39H.27a.1.1,0,0,1-.1-.1.09.09,0,0,1,.1-.1H1.2a.1.1,0,0,1,.1.1A.11.11,0,0,1,1.2,3.39Z"/><path d="M1.2,2.78H.1a.1.1,0,0,1-.1-.1.09.09,0,0,1,.1-.1H1.2a.1.1,0,0,1,.1.1A.11.11,0,0,1,1.2,2.78Z"/></g></g></svg>