<svg xmlns="http://www.w3.org/2000/svg" viewBox="0 0 5.29 4.28"><g id="Layer_2" data-name="Layer 2"><g id="Layer_1-2" data-name="Layer 1"><path d="M4.62,4.28h-4A.67.67,0,0,1,0,3.62V1.41A.67.67,0,0,1,.66.75h4a.31.31,0,0,1,.31.31V2a.09.09,0,0,1-.1.1.1.1,0,0,1-.1-.1V1.06A.11.11,0,0,0,4.62,1h-4a.47.47,0,0,0-.46.46V3.62a.47.47,0,0,0,.46.46h4A.11.11,0,0,0,4.73,4V3a.1.1,0,0,1,.1-.1.09.09,0,0,1,.1.1V4A.31.31,0,0,1,4.62,4.28Z"/><path d="M5,3.14H4.45a.65.65,0,0,1-.65-.61A.63.63,0,0,1,4,2.08a.64.64,0,0,1,.45-.19H5a.31.31,0,0,1,.31.31v.62A.31.31,0,0,1,5,3.14ZM4.43,2.09a.44.44,0,0,0-.31.13A.43.43,0,0,0,4,2.53a.45.45,0,0,0,.45.41H5a.11.11,0,0,0,.11-.12V2.2A.11.11,0,0,0,5,2.09Z"/><path d="M5.19,2.3a.1.1,0,0,1-.1-.1V1.82a.18.18,0,0,0-.18-.18H4.83a.11.11,0,0,1-.1-.1.1.1,0,0,1,.1-.1h.08a.38.38,0,0,1,.38.38V2.2A.09.09,0,0,1,5.19,2.3Z"/><path d="M.1,1.41a.09.09,0,0,1-.1-.1V.59A.58.58,0,0,1,.59,0H4a.31.31,0,0,1,.31.31V.85a.11.11,0,0,1-.1.1.1.1,0,0,1-.1-.1V.31A.11.11,0,0,0,4,.2H.59A.39.39,0,0,0,.2.59v.72A.1.1,0,0,1,.1,1.41Z"/><path d="M.77,3.71a.11.11,0,0,1-.1-.1V1.42a.11.11,0,0,1,.1-.1.1.1,0,0,1,.1.1V3.61A.1.1,0,0,1,.77,3.71Z"/><path d="M1.35,3.4a.1.1,0,0,1-.1-.1V1.73a.1.1,0,0,1,.1-.1.09.09,0,0,1,.1.1V3.3A.09.09,0,0,1,1.35,3.4Z"/><path d="M4.46,2.83a.32.32,0,0,1-.32-.32.33.33,0,0,1,.65,0A.32.32,0,0,1,4.46,2.83Zm0-.44a.13.13,0,0,0-.12.12.13.13,0,0,0,.12.13.13.13,0,0,0,.13-.13A.13.13,0,0,0,4.46,2.39Z"/></g></g></svg>