<svg xmlns="http://www.w3.org/2000/svg" viewBox="0 0 4.78 5.21"><g id="Layer_2" data-name="Layer 2"><g id="Layer_1-2" data-name="Layer 1"><path d="M4.35,3.44H.42a.43.43,0,0,1,0-.85H4.35a.43.43,0,1,1,0,.85ZM.42,2.78a.24.24,0,0,0,0,.47H4.35a.24.24,0,1,0,0-.47Z"/><path d="M2.2,2.78H.66a.09.09,0,0,1-.1-.09V1.23A1.23,1.23,0,0,1,2.93.75a.1.1,0,0,1-.05.13A.09.09,0,0,1,2.76.83a1,1,0,0,0-2,.4V2.59H2.2a.1.1,0,0,1,.1.1A.09.09,0,0,1,2.2,2.78Z"/><path d="M4.3,2.78H2.72a.09.09,0,0,1-.09-.09v-1a.88.88,0,1,1,1.76,0v1A.09.09,0,0,1,4.3,2.78ZM2.82,2.59H4.2V1.68a.69.69,0,0,0-1.38,0Z"/><path d="M.83,2.2H.45a.1.1,0,0,1-.1-.1A.1.1,0,0,1,.45,2H.83a.09.09,0,0,1,.09.09A.09.09,0,0,1,.83,2.2Z"/><path d="M.83,1.49H.45a.11.11,0,0,1-.1-.1.1.1,0,0,1,.1-.09H.83a.09.09,0,0,1,.09.09A.1.1,0,0,1,.83,1.49Z"/><path d="M1,.87H.58a.11.11,0,0,1-.1-.1A.1.1,0,0,1,.58.68H1a.09.09,0,0,1,.09.09A.1.1,0,0,1,1,.87Z"/><path d="M1.46.31H1A.1.1,0,0,1,.94.22.11.11,0,0,1,1,.12h.42a.1.1,0,0,1,.09.1A.09.09,0,0,1,1.46.31Z"/><path d="M2.72.42H2.27A.09.09,0,0,1,2.18.33a.09.09,0,0,1,.09-.1h.45a.09.09,0,0,1,.1.1A.09.09,0,0,1,2.72.42Z"/><path d="M2.88,1.75H2.61a.09.09,0,0,1-.09-.09.1.1,0,0,1,.09-.1h.27a.1.1,0,0,1,.09.1A.09.09,0,0,1,2.88,1.75Z"/><path d="M4.43,1.64H4.16a.1.1,0,0,1-.09-.1.09.09,0,0,1,.09-.09h.27a.1.1,0,0,1,.1.09A.11.11,0,0,1,4.43,1.64Z"/><path d="M4.38,2.31H4a.09.09,0,0,1-.09-.09A.1.1,0,0,1,4,2.12h.35a.11.11,0,0,1,.1.1A.1.1,0,0,1,4.38,2.31Z"/><path d="M2.79,2.38H2.52a.09.09,0,0,1-.09-.1.09.09,0,0,1,.09-.09h.27a.1.1,0,0,1,.09.1A.09.09,0,0,1,2.79,2.38Z"/><path d="M4.13,1.14H3.86A.1.1,0,0,1,3.77,1,.09.09,0,0,1,3.86,1h.27a.1.1,0,0,1,.1.09A.11.11,0,0,1,4.13,1.14Z"/><path d="M3.19,1.27H2.92a.09.09,0,0,1,0-.18h.27a.1.1,0,0,1,.1.09A.1.1,0,0,1,3.19,1.27Z"/><path d="M1.41,1.22H1.33a.1.1,0,0,1-.09-.1A.09.09,0,0,1,1.33,1h.08a.09.09,0,0,1,.1.09A.1.1,0,0,1,1.41,1.22Z"/><path d="M1.46,1.93H1.37a.1.1,0,0,1-.09-.1.09.09,0,0,1,.09-.09h.09a.09.09,0,0,1,.09.09A.1.1,0,0,1,1.46,1.93Z"/><path d="M2.17,1.44H2.08A.1.1,0,0,1,2,1.34a.09.09,0,0,1,.09-.09h.09a.09.09,0,0,1,.09.09A.1.1,0,0,1,2.17,1.44Z"/><path d="M1.9,2.2H1.81a.09.09,0,0,1-.09-.1A.09.09,0,0,1,1.81,2H1.9A.09.09,0,0,1,2,2.1.09.09,0,0,1,1.9,2.2Z"/><path d="M3.72,1.6H3.64a.1.1,0,0,1-.1-.1.1.1,0,0,1,.1-.09h.08a.09.09,0,0,1,.1.09A.09.09,0,0,1,3.72,1.6Z"/><path d="M1.9.8H1.81A.09.09,0,0,1,1.72.7.09.09,0,0,1,1.81.61H1.9A.09.09,0,0,1,2,.7.09.09,0,0,1,1.9.8Z"/><path d="M3.28,2H3.19a.09.09,0,0,1-.09-.09.1.1,0,0,1,.09-.1h.09a.1.1,0,0,1,.09.1A.09.09,0,0,1,3.28,2Z"/><path d="M3.6,2.31H3.51a.09.09,0,0,1-.09-.09.1.1,0,0,1,.09-.1H3.6a.1.1,0,0,1,.09.1A.09.09,0,0,1,3.6,2.31Z"/><path d="M3.25,5.21H1.49A2.07,2.07,0,0,1,.32,3.34a.1.1,0,0,1,.1-.09H4.36a.09.09,0,0,1,.09.09A2.06,2.06,0,0,1,3.29,5.2ZM1.55,5H3.22a1.86,1.86,0,0,0,1-1.58H.52A1.87,1.87,0,0,0,1.55,5Z"/></g></g></svg>