<svg xmlns="http://www.w3.org/2000/svg" viewBox="0 0 5.26 5.43"><g id="Layer_2" data-name="Layer 2"><g id="Layer_1-2" data-name="Layer 1"><path d="M2.63,5.43a2.63,2.63,0,0,1-1.21-5,.11.11,0,0,1,.13,0,.09.09,0,0,1,0,.13A2.43,2.43,0,1,0,4.18.92a.11.11,0,0,1,0-.14.1.1,0,0,1,.14,0A2.63,2.63,0,0,1,2.63,5.43Z"/><path d="M3.85,1.88a.1.1,0,0,1-.1-.08l0-.16a.09.09,0,0,1,.07-.12.1.1,0,0,1,.12.07l0,.17a.1.1,0,0,1-.07.12Z"/><path d="M2.63,5.43A2.54,2.54,0,0,1,2,5.36L2,5.33A3.89,3.89,0,0,1,1.22,2.8a5.44,5.44,0,0,1,.24-1.61.1.1,0,0,1,.13-.06.1.1,0,0,1,.06.13A4.93,4.93,0,0,0,1.42,2.8,3.78,3.78,0,0,0,2.1,5.17a2.42,2.42,0,0,0,1.07,0A3.78,3.78,0,0,0,3.84,2.8a5.39,5.39,0,0,0-.09-1,.1.1,0,0,1,.08-.12.1.1,0,0,1,.11.08,5,5,0,0,1,.1,1,3.89,3.89,0,0,1-.75,2.53l0,0A2.48,2.48,0,0,1,2.63,5.43Z"/><path d="M2.63,5.43a.11.11,0,0,1-.1-.1V2.18a.11.11,0,0,1,.1-.1.1.1,0,0,1,.1.1V5.33A.1.1,0,0,1,2.63,5.43Z"/><path d="M2.63,4.21A3.89,3.89,0,0,1,.1,3.46l0,0A2.54,2.54,0,0,1,0,2.8a2.48,2.48,0,0,1,.07-.61l0,0a3.08,3.08,0,0,1,1.64-.68.1.1,0,0,1,.11.08.1.1,0,0,1-.08.12,3,3,0,0,0-1.51.6A2.48,2.48,0,0,0,.2,2.8a2.33,2.33,0,0,0,.06.53A3.78,3.78,0,0,0,2.63,4,3.78,3.78,0,0,0,5,3.33a2.33,2.33,0,0,0,.06-.53A2.48,2.48,0,0,0,5,2.26a2.84,2.84,0,0,0-1.21-.55.09.09,0,0,1-.07-.12.09.09,0,0,1,.11-.07,3,3,0,0,1,1.33.62.05.05,0,0,1,0,0,2.48,2.48,0,0,1,.07.61,2.54,2.54,0,0,1-.07.61s0,0,0,0A3.89,3.89,0,0,1,2.63,4.21Z"/><path d="M5.16,2.9H.1A.1.1,0,0,1,0,2.8a.09.09,0,0,1,.1-.1H5.16a.09.09,0,0,1,.1.1A.1.1,0,0,1,5.16,2.9Z"/><path d="M3.22,2H2.43a.11.11,0,0,1-.1-.1.1.1,0,0,1,.1-.1h.79a.1.1,0,0,1,.1.1A.11.11,0,0,1,3.22,2Z"/><path d="M2.82,2a.12.12,0,0,1-.08,0l-.53-.75A.8.8,0,0,1,2.14.43.74.74,0,0,1,2.77,0h.11a.74.74,0,0,1,.63.43.8.8,0,0,1-.07.79L2.91,2A.13.13,0,0,1,2.82,2ZM2.82.2h0a.54.54,0,0,0-.46.32.59.59,0,0,0,.05.59l.45.63.46-.63A.59.59,0,0,0,3.33.52.54.54,0,0,0,2.87.2Z"/><path d="M3.46,1.78l-.06,0a.11.11,0,0,1,0-.14l.17-.24a.93.93,0,0,0,0-1.11.1.1,0,0,1,0-.14.11.11,0,0,1,.14,0,1.11,1.11,0,0,1,0,1.35l-.17.24A.09.09,0,0,1,3.46,1.78Z"/><path d="M2.2,1.8a.1.1,0,0,1-.08-.05L1.94,1.5A1.13,1.13,0,0,1,2,.07a.11.11,0,0,1,.14,0,.1.1,0,0,1,0,.14A.94.94,0,0,0,2.1,1.38l.18.26a.11.11,0,0,1,0,.14Z"/><path d="M2.82,1.2A.41.41,0,1,1,3.23.79.4.4,0,0,1,2.82,1.2Zm0-.61a.2.2,0,0,0-.2.2.2.2,0,0,0,.2.21A.21.21,0,0,0,3,.79.2.2,0,0,0,2.82.59Z"/></g></g></svg>