<svg xmlns="http://www.w3.org/2000/svg" viewBox="0 0 5.19 5.09"><g id="Layer_2" data-name="Layer 2"><g id="Layer_1-2" data-name="Layer 1"><path d="M5.09,5.09h-5A.09.09,0,0,1,0,5V1.27a.1.1,0,0,1,.09-.1h5a.1.1,0,0,1,.1.1V5A.09.09,0,0,1,5.09,5.09ZM.19,4.9H5V1.36H.19Z"/><path d="M4.58,4.57h-4a.1.1,0,0,1-.1-.1V1.79a.11.11,0,0,1,.1-.1h4a.1.1,0,0,1,.09.1V4.47A.09.09,0,0,1,4.58,4.57ZM.7,4.38H4.48V1.88H.7Z"/><path d="M.61,1.88a.09.09,0,0,1-.07,0L0,1.33A.09.09,0,0,1,0,1.2a.09.09,0,0,1,.13,0l.52.52a.11.11,0,0,1,0,.14Z"/><path d="M4.58,1.88l-.07,0a.12.12,0,0,1,0-.14L5,1.2a.09.09,0,1,1,.13.13l-.51.52A.11.11,0,0,1,4.58,1.88Z"/><path d="M5.09,5.09a.07.07,0,0,1-.06,0l-.52-.52a.1.1,0,0,1,0-.13.1.1,0,0,1,.14,0l.51.52a.09.09,0,0,1,0,.13A.09.09,0,0,1,5.09,5.09Z"/><path d="M.09,5.09a.09.09,0,0,1-.06,0,.09.09,0,0,1,0-.13l.51-.52a.09.09,0,0,1,.13,0,.09.09,0,0,1,0,.13l-.52.52A.09.09,0,0,1,.09,5.09Z"/><path d="M1,4.19l-.06,0A.09.09,0,0,1,.89,4l.78-.83a.11.11,0,0,1,.07,0,.09.09,0,0,1,.07,0L2.54,4a.09.09,0,0,1,0,.13.1.1,0,0,1-.14,0l-.66-.69L1,4.16A.09.09,0,0,1,1,4.19Z"/><path d="M4,3.78l-.05,0s0,0-.76-.78l-1,.78a.09.09,0,0,1-.13,0,.09.09,0,0,1,0-.13l1-.83a.09.09,0,0,1,.13,0L4,3.61a.08.08,0,0,1,0,.12A.1.1,0,0,1,4,3.78Z"/><path d="M1.56,3A.46.46,0,1,1,2,2.5.46.46,0,0,1,1.56,3Zm0-.73a.28.28,0,0,0-.27.27.27.27,0,0,0,.27.27.28.28,0,0,0,.27-.27A.28.28,0,0,0,1.56,2.23Z"/><path d="M2.59.72A.36.36,0,0,1,2.24.36.36.36,0,1,1,3,.36.36.36,0,0,1,2.59.72Zm0-.53a.17.17,0,0,0-.17.17.18.18,0,0,0,.17.17A.17.17,0,0,0,2.76.36.16.16,0,0,0,2.59.19Z"/><path d="M1.56,1.36a.09.09,0,0,1-.07,0,.09.09,0,0,1,0-.13L2.3.42a.09.09,0,0,1,.13,0,.1.1,0,0,1,0,.14l-.81.78Z"/><path d="M3.63,1.36l-.06,0L2.76.56a.1.1,0,0,1,0-.14.09.09,0,0,1,.13,0l.81.78a.09.09,0,0,1,0,.13A.09.09,0,0,1,3.63,1.36Z"/></g></g></svg>