<svg xmlns="http://www.w3.org/2000/svg" viewBox="0 0 5.41 4.44"><g id="Layer_2" data-name="Layer 2"><g id="Layer_1-2" data-name="Layer 1"><path d="M4.34,4.44H.44a.33.33,0,0,1,0-.66h3.9a.33.33,0,0,1,0,.66ZM.44,4a.13.13,0,0,0,0,.26h3.9a.13.13,0,0,0,0-.26Z"/><path d="M4,4H.48a.12.12,0,0,1-.08,0,.1.1,0,0,1,0-.09A3.23,3.23,0,0,1,2.48,2a3.57,3.57,0,0,1,1.1-.16H4.74a.35.35,0,0,1,.11.68l-.08,0v.6a.3.3,0,0,1-.22.28l-.14,0a.44.44,0,0,0-.33.42A.09.09,0,0,1,4,4ZM.63,3.78H3.89a.66.66,0,0,1,.47-.52l.14,0a.08.08,0,0,0,.07-.08V2.46a.09.09,0,0,1,.06-.09l.15-.05a.16.16,0,0,0,.11-.14A.15.15,0,0,0,4.74,2H3.58a3.49,3.49,0,0,0-1,.15A3.18,3.18,0,0,0,.63,3.78Z"/><path d="M4,3.15H1.77a.09.09,0,0,1-.09-.06.09.09,0,0,1,0-.11,2.66,2.66,0,0,1,.93-.52,2.92,2.92,0,0,1,.9-.13h.59a.09.09,0,0,1,.1.1v.45A.27.27,0,0,1,4,3.15ZM2.07,3H4A.07.07,0,0,0,4,2.88V2.53H3.54a2.84,2.84,0,0,0-.84.12A3.05,3.05,0,0,0,2.07,3Z"/><path d="M3.47,3.59H1.73a.09.09,0,0,1-.1-.1.1.1,0,0,1,.1-.1H3.47a.11.11,0,0,1,.1.1A.1.1,0,0,1,3.47,3.59Z"/><path d="M1.73,3.59h-1a.09.09,0,0,1-.1-.1.1.1,0,0,1,.1-.1h1a.1.1,0,0,1,.09.1A.09.09,0,0,1,1.73,3.59Z"/><path d="M5,2.28a.1.1,0,0,1-.1-.1.09.09,0,0,1,.1-.1.22.22,0,0,0,.22-.22V1.65A.22.22,0,0,0,5,1.43H1.44a.54.54,0,0,1,0-1.07H4a.09.09,0,0,1,.1.1.1.1,0,0,1-.1.1H1.44a.34.34,0,0,0,0,.67H5a.42.42,0,0,1,.42.42v.21A.42.42,0,0,1,5,2.28Z"/><path d="M4.69.92H4.34A.44.44,0,0,1,3.91.48v0A.43.43,0,0,1,4.34,0h.35a.09.09,0,0,1,.1.1V.82A.1.1,0,0,1,4.69.92ZM4.34.2a.23.23,0,0,0-.23.23v0a.23.23,0,0,0,.23.24h.25V.2Z"/><path d="M5,.37h-.3a.1.1,0,0,1-.1-.1.11.11,0,0,1,.1-.1H5a.1.1,0,0,1,.1.1A.09.09,0,0,1,5,.37Z"/><path d="M5,.75h-.3a.11.11,0,0,1-.1-.1.1.1,0,0,1,.1-.1H5a.09.09,0,0,1,.1.1A.1.1,0,0,1,5,.75Z"/><path d="M5,4.44H.1a.1.1,0,0,1,0-.2H5a.1.1,0,0,1,0,.2Z"/></g></g></svg>