<svg xmlns="http://www.w3.org/2000/svg" viewBox="0 0 5.22 4.75"><g id="Layer_2" data-name="Layer 2"><g id="Layer_1-2" data-name="Layer 1"><path d="M1.39,1.2H1.1A.23.23,0,0,1,.87,1V.23A.23.23,0,0,1,1.1,0h.29a.23.23,0,0,1,.23.23V1A.23.23,0,0,1,1.39,1.2ZM1.1.2a0,0,0,0,0,0,0V1a0,0,0,0,0,0,0h.29a0,0,0,0,0,0,0V.23a0,0,0,0,0,0,0Z"/><path d="M2.72,1.2H2.43A.23.23,0,0,1,2.2,1V.23A.23.23,0,0,1,2.43,0h.29A.23.23,0,0,1,3,.23V1A.23.23,0,0,1,2.72,1.2ZM2.43.2a0,0,0,0,0,0,0V1a0,0,0,0,0,0,0h.29a0,0,0,0,0,0,0V.23a0,0,0,0,0,0,0Z"/><path d="M4.06,1.2H3.77A.23.23,0,0,1,3.54,1V.23A.23.23,0,0,1,3.77,0h.29a.23.23,0,0,1,.23.23V1A.23.23,0,0,1,4.06,1.2ZM3.77.2a0,0,0,0,0,0,0V1a0,0,0,0,0,0,0h.29a0,0,0,0,0,0,0V.23a0,0,0,0,0,0,0Z"/><path d="M4.79,4.75H.42A.42.42,0,0,1,0,4.32V1A.42.42,0,0,1,.42.61H1a.11.11,0,0,1,.1.1V1a0,0,0,0,0,0,0h.29a0,0,0,0,0,0,0V.71a.1.1,0,0,1,.1-.1H2.3a.1.1,0,0,1,.1.1V1a0,0,0,0,0,0,0h.29a0,0,0,0,0,0,0V.71a.11.11,0,0,1,.1-.1h.79a.11.11,0,0,1,.1.1V1a0,0,0,0,0,0,0h.29a0,0,0,0,0,0,0V.71a.1.1,0,0,1,.1-.1h.6A.43.43,0,0,1,5.22,1V4.32A.43.43,0,0,1,4.79,4.75ZM.42.81A.22.22,0,0,0,.2,1V4.32a.22.22,0,0,0,.22.23H4.79A.23.23,0,0,0,5,4.32V1A.23.23,0,0,0,4.79.81h-.5V1a.23.23,0,0,1-.23.23H3.77A.23.23,0,0,1,3.54,1V.81H3V1a.23.23,0,0,1-.23.23H2.43A.23.23,0,0,1,2.2,1V.81H1.62V1a.23.23,0,0,1-.23.23H1.1A.23.23,0,0,1,.87,1V.81Z"/><path d="M3.29,1.72H.1a.1.1,0,0,1-.1-.1.09.09,0,0,1,.1-.1H3.29a.1.1,0,0,1,.1.1A.11.11,0,0,1,3.29,1.72Z"/><path d="M5.12,1.72H3.91a.11.11,0,0,1-.1-.1.1.1,0,0,1,.1-.1H5.12a.1.1,0,0,1,.1.1A.11.11,0,0,1,5.12,1.72Z"/><path d="M1.22,2.89H.51a.1.1,0,0,1-.1-.1V2.08A.1.1,0,0,1,.51,2h.71a.11.11,0,0,1,.1.1v.71A.11.11,0,0,1,1.22,2.89Zm-.61-.2h.51V2.18H.61Z"/><path d="M2,2.89a.45.45,0,0,1-.45-.45A.46.46,0,0,1,2,2a.47.47,0,0,1,.46.46A.46.46,0,0,1,2,2.89Zm0-.71a.26.26,0,0,0-.25.26A.25.25,0,0,0,2,2.69a.26.26,0,0,0,.26-.25A.26.26,0,0,0,2,2.18Z"/><path d="M3.15,2.89a.46.46,0,0,1-.46-.45A.47.47,0,0,1,3.15,2a.46.46,0,0,1,.45.46A.45.45,0,0,1,3.15,2.89Zm0-.71a.26.26,0,0,0-.26.26.26.26,0,0,0,.26.25.25.25,0,0,0,.25-.25A.26.26,0,0,0,3.15,2.18Z"/><path d="M4.29,2.89a.45.45,0,0,1-.45-.45.45.45,0,1,1,.9,0A.45.45,0,0,1,4.29,2.89Zm0-.71A.26.26,0,0,0,4,2.44a.25.25,0,1,0,.5,0A.26.26,0,0,0,4.29,2.18Z"/><path d="M1.22,4.15H.51a.1.1,0,0,1-.1-.1V3.34a.1.1,0,0,1,.1-.1h.71a.11.11,0,0,1,.1.1v.71A.11.11,0,0,1,1.22,4.15ZM.61,4h.51V3.44H.61Z"/><path d="M2.36,4.15H1.65a.11.11,0,0,1-.1-.1V3.34a.11.11,0,0,1,.1-.1h.71a.11.11,0,0,1,.1.1v.71A.11.11,0,0,1,2.36,4.15ZM1.75,4h.51V3.44H1.75Z"/><path d="M3.5,4.15H2.79a.11.11,0,0,1-.1-.1V3.34a.11.11,0,0,1,.1-.1H3.5a.1.1,0,0,1,.1.1v.71A.1.1,0,0,1,3.5,4.15ZM2.89,4H3.4V3.44H2.89Z"/><path d="M4.64,4.15h-.7a.1.1,0,0,1-.1-.1V3.34a.1.1,0,0,1,.1-.1h.7a.1.1,0,0,1,.1.1v.71A.1.1,0,0,1,4.64,4.15ZM4,4h.5V3.44H4Z"/></g></g></svg>