<svg xmlns="http://www.w3.org/2000/svg" viewBox="0 0 4.86 5.34"><g id="Layer_2" data-name="Layer 2"><g id="Layer_1-2" data-name="Layer 1"><path d="M4,5.34A.32.32,0,0,1,3.69,5V3a.77.77,0,0,0-.25-.57l-.15-.14a.47.47,0,0,1-.14-.33V.74a.39.39,0,0,1,.1-.25A.35.35,0,0,1,3.51.4a.35.35,0,0,1,.32.36V1.81a.05.05,0,0,0,0,.05,1.36,1.36,0,0,1,.48,1V5A.33.33,0,0,1,4,5.34ZM3.49.6a.14.14,0,0,0-.14.14v1.2a.23.23,0,0,0,.08.18l.15.14A1,1,0,0,1,3.89,3V5A.12.12,0,0,0,4,5.14.13.13,0,0,0,4.14,5V2.89A1.12,1.12,0,0,0,3.73,2a.3.3,0,0,1-.1-.21v-1A.15.15,0,0,0,3.5.6Z"/><path d="M4.37,1.79H3.73a.1.1,0,0,1-.1-.1V.76a.1.1,0,0,1,.1-.1h.64a.09.09,0,0,1,.1.1v.93A.09.09,0,0,1,4.37,1.79Zm-.54-.2h.44V.86H3.83Z"/><path d="M3.91,3.31H3.79a.09.09,0,0,1-.1-.1.1.1,0,0,1,.1-.1h.12a.1.1,0,0,1,.1.1A.09.09,0,0,1,3.91,3.31Z"/><path d="M3.91,3.68H3.79a.1.1,0,0,1-.1-.1.09.09,0,0,1,.1-.1h.12a.09.09,0,0,1,.1.1A.1.1,0,0,1,3.91,3.68Z"/><path d="M3.91,4H3.79a.09.09,0,0,1-.1-.1.1.1,0,0,1,.1-.1h.12a.1.1,0,0,1,.1.1A.09.09,0,0,1,3.91,4Z"/><path d="M3.91,4.41H3.79a.1.1,0,0,1-.1-.1.09.09,0,0,1,.1-.1h.12a.09.09,0,0,1,.1.1A.1.1,0,0,1,3.91,4.41Z"/><path d="M3.25,2a.09.09,0,0,1-.1-.1.1.1,0,0,1,.1-.1H3.8a.11.11,0,0,1,.1.1.1.1,0,0,1-.1.1Z"/><path d="M4.14,2.54H3.6a.1.1,0,0,1-.1-.1.11.11,0,0,1,.1-.1h.54a.1.1,0,0,1,.1.1A.09.09,0,0,1,4.14,2.54Z"/><path d="M4.37,1.13H4.08A.09.09,0,0,1,4,1a.1.1,0,0,1,.1-.1h.29a.1.1,0,0,1,.1.1A.09.09,0,0,1,4.37,1.13Z"/><path d="M4.37,1.5H4.18a.1.1,0,0,1-.1-.1.09.09,0,0,1,.1-.1h.19a.09.09,0,0,1,.1.1A.1.1,0,0,1,4.37,1.5Z"/><path d="M2.58.67H.15a.11.11,0,0,1-.1-.1.1.1,0,0,1,.1-.1H2.58a.1.1,0,0,1,.1.1A.11.11,0,0,1,2.58.67Z"/><path d="M1.92,4.75H.81a.1.1,0,0,1-.1-.1V4.29a.09.09,0,0,1,.1-.1H1.92a.09.09,0,0,1,.1.1v.36A.1.1,0,0,1,1.92,4.75Zm-1-.2h.91V4.39H.91Z"/><path d="M1.87,2.21h-1a.1.1,0,0,1-.1-.1A.11.11,0,0,1,.86,2h1a.11.11,0,0,1,.1.1A.1.1,0,0,1,1.87,2.21Z"/><path d="M1.81,2.81H.92a.09.09,0,0,1-.1-.1.1.1,0,0,1,.1-.1h.89a.1.1,0,0,1,.1.1A.09.09,0,0,1,1.81,2.81Z"/><path d="M1.85,5.34h-1A.3.3,0,0,1,.58,5V4.71a.16.16,0,0,1,.17-.16H2a.16.16,0,0,1,.16.16V5A.3.3,0,0,1,1.85,5.34ZM.78,4.75V5a.1.1,0,0,0,.1.1h1A.1.1,0,0,0,2,5V4.75Z"/><path d="M2.63.67H.1A.1.1,0,0,1,0,.57V.1A.09.09,0,0,1,.1,0H2.63a.09.09,0,0,1,.1.1V.57A.1.1,0,0,1,2.63.67ZM.2.47H2.53V.2H.2Z"/><path d="M1.92,4.39H.81a.37.37,0,0,1-.37-.33L0,.58A.19.19,0,0,1,0,.5.11.11,0,0,1,.1.47H2.63a.11.11,0,0,1,.08,0,.19.19,0,0,1,0,.08L2.29,4.06A.37.37,0,0,1,1.92,4.39ZM.21.67.64,4a.17.17,0,0,0,.17.16H1.92A.17.17,0,0,0,2.09,4L2.52.67Z"/><path d="M2.5,1.66H.23a.09.09,0,0,1-.1-.1.1.1,0,0,1,.1-.1H2.5a.1.1,0,0,1,.1.1A.09.09,0,0,1,2.5,1.66Z"/><path d="M2.3,3.31H.44a.09.09,0,0,1-.1-.1.1.1,0,0,1,.1-.1H2.3a.11.11,0,0,1,.1.1A.1.1,0,0,1,2.3,3.31Z"/><path d="M4.76,5.34H.23a.1.1,0,0,1-.1-.1.09.09,0,0,1,.1-.1H4.76a.1.1,0,0,1,.1.1A.11.11,0,0,1,4.76,5.34Z"/></g></g></svg>