<svg xmlns="http://www.w3.org/2000/svg" viewBox="0 0 5.01 5.49"><g id="Layer_2" data-name="Layer 2"><g id="Layer_1-2" data-name="Layer 1"><path d="M2.5,5a2,2,0,1,1,2-2A2,2,0,0,1,2.5,5Zm0-3.83A1.82,1.82,0,1,0,4.32,3,1.82,1.82,0,0,0,2.5,1.13Z"/><path d="M2.5,2a.09.09,0,0,1-.09-.09v-.2A.09.09,0,0,1,2.5,1.6a.09.09,0,0,1,.1.09v.2A.09.09,0,0,1,2.5,2Z"/><path d="M3.26,2.29l-.07,0a.1.1,0,0,1,0-.14L3.33,2a.09.09,0,0,1,.13.13l-.14.14Z"/><path d="M3.76,3.05H3.57a.1.1,0,0,1-.1-.1.09.09,0,0,1,.1-.09h.19a.1.1,0,0,1,.1.09A.11.11,0,0,1,3.76,3.05Z"/><path d="M3.39,3.93s-.05,0-.06,0l-.14-.14a.09.09,0,0,1,.13-.13l.14.13a.1.1,0,0,1,0,.14A.08.08,0,0,1,3.39,3.93Z"/><path d="M2.5,4.3a.09.09,0,0,1-.09-.09V4a.09.09,0,0,1,.09-.09A.09.09,0,0,1,2.6,4v.2A.09.09,0,0,1,2.5,4.3Z"/><path d="M1.62,3.93a.08.08,0,0,1-.07,0,.1.1,0,0,1,0-.14l.14-.13a.09.09,0,0,1,.13.13l-.14.14A.07.07,0,0,1,1.62,3.93Z"/><path d="M1.44,3.05H1.25a.1.1,0,0,1-.1-.1.09.09,0,0,1,.1-.09h.19a.1.1,0,0,1,.1.09A.11.11,0,0,1,1.44,3.05Z"/><path d="M1.75,2.29l-.06,0-.14-.14A.09.09,0,0,1,1.68,2l.14.13a.1.1,0,0,1,0,.14Z"/><path d="M2.51,4.62h0a1.59,1.59,0,0,1-1.16-.5A1.64,1.64,0,0,1,.84,2.92a1.68,1.68,0,0,1,.51-1.17,1.63,1.63,0,0,1,1.18-.46,1.67,1.67,0,0,1,0,3.33Zm0-3.14a1.45,1.45,0,0,0-1,.41,1.48,1.48,0,0,0-.45,1A1.45,1.45,0,0,0,1.44,4a1.47,1.47,0,0,0,1,.46,1.48,1.48,0,0,0,1.09-2.5,1.44,1.44,0,0,0-1-.45Z"/><path d="M2.5,3.34A.36.36,0,0,1,2.14,3a.37.37,0,0,1,.36-.37A.38.38,0,0,1,2.87,3,.37.37,0,0,1,2.5,3.34Zm0-.54A.18.18,0,0,0,2.33,3a.18.18,0,0,0,.17.17A.18.18,0,0,0,2.68,3,.18.18,0,0,0,2.5,2.8Z"/><path d="M2.5,2.8a.09.09,0,0,1-.09-.09V2.2a.1.1,0,0,1,.09-.1.1.1,0,0,1,.1.1v.51A.09.09,0,0,1,2.5,2.8Z"/><path d="M2.89,3.5a.09.09,0,0,1-.06,0l-.22-.22a.1.1,0,0,1,0-.14.1.1,0,0,1,.13,0L3,3.33a.1.1,0,0,1,0,.14A.09.09,0,0,1,2.89,3.5Z"/><path d="M4.65,1.9a.24.24,0,0,1-.14,0L3.57.91a.21.21,0,0,1,0-.28A.75.75,0,0,1,4.1.41a.77.77,0,0,1,.54.22l.15.15a.77.77,0,0,1,0,1.07A.24.24,0,0,1,4.65,1.9ZM4.1.6a.55.55,0,0,0-.39.16h0l.93.94h0a.56.56,0,0,0,0-.8L4.5.76A.56.56,0,0,0,4.1.6Z"/><path d="M3.66,1.5H3.61a.11.11,0,0,1,0-.13L3.76,1a.09.09,0,0,1,.16.08l-.18.37A.1.1,0,0,1,3.66,1.5Z"/><path d="M4,1.86a.1.1,0,0,1-.09-.07A.09.09,0,0,1,4,1.67l.41-.14a.09.09,0,0,1,.07.17L4,1.85Z"/><path d="M.36,1.9a.2.2,0,0,1-.14-.06A.75.75,0,0,1,.22.78L.37.63A.75.75,0,0,1,.9.41a.77.77,0,0,1,.54.22.21.21,0,0,1,0,.28L.5,1.84A.2.2,0,0,1,.36,1.9ZM.9.6A.59.59,0,0,0,.5.76L.35.91a.57.57,0,0,0,0,.8h0L1.3.77h0A.58.58,0,0,0,.9.6Z"/><path d="M1.35,1.5a.1.1,0,0,1-.08-.05l-.19-.37a.09.09,0,0,1,0-.12.08.08,0,0,1,.12,0l.19.36a.11.11,0,0,1,0,.13Z"/><path d="M1,1.86H1L.56,1.7A.1.1,0,0,1,.5,1.58a.09.09,0,0,1,.12-.05L1,1.67a.1.1,0,0,1,.06.12A.11.11,0,0,1,1,1.86Z"/><path d="M2.5.68A.34.34,0,0,1,2.16.34.34.34,0,0,1,2.5,0a.34.34,0,0,1,.34.34A.34.34,0,0,1,2.5.68Zm0-.49a.15.15,0,0,0-.15.15A.15.15,0,0,0,2.5.49.15.15,0,0,0,2.65.34.15.15,0,0,0,2.5.19Z"/><path d="M2.3,1.14a.09.09,0,0,1-.09-.09V.48A.09.09,0,0,1,2.3.38a.1.1,0,0,1,.1.1v.57A.1.1,0,0,1,2.3,1.14Z"/><path d="M2.71,1.14a.1.1,0,0,1-.1-.09V.48a.1.1,0,0,1,.1-.1.09.09,0,0,1,.09.1v.57A.09.09,0,0,1,2.71,1.14Z"/><path d="M1.79,5.49H1.23a.1.1,0,0,1-.08,0,.08.08,0,0,1,0-.08l.3-.8a.1.1,0,0,1,.12-.06.1.1,0,0,1,.05.13l-.24.67h.34l.09-.55a.08.08,0,0,1,.1-.08.09.09,0,0,1,.08.1l-.09.63A.11.11,0,0,1,1.79,5.49Z"/><path d="M3.78,5.49H3.21a.11.11,0,0,1-.09-.09L3,4.77s0-.09.08-.1a.08.08,0,0,1,.1.08l.09.55h.34l-.25-.67a.11.11,0,0,1,.06-.13.1.1,0,0,1,.12.06l.3.8a.11.11,0,0,1,0,.08A.1.1,0,0,1,3.78,5.49Z"/><path d="M3.78,5.49H1.23a.1.1,0,0,1-.09-.1.09.09,0,0,1,.09-.09H3.78a.09.09,0,0,1,.09.09A.1.1,0,0,1,3.78,5.49Z"/></g></g></svg>