<svg xmlns="http://www.w3.org/2000/svg" viewBox="0 0 4.96 5.18"><g id="Layer_2" data-name="Layer 2"><g id="Layer_1-2" data-name="Layer 1"><path d="M4.1,2.52H.35A.35.35,0,0,1,0,2.17a.35.35,0,0,1,.35-.35H4.1a.35.35,0,0,1,.35.35A.35.35,0,0,1,4.1,2.52ZM.35,2a.15.15,0,0,0-.15.15.15.15,0,0,0,.15.15H4.1a.15.15,0,0,0,.15-.15A.15.15,0,0,0,4.1,2Z"/><path d="M3.61,5.18A.35.35,0,0,1,3.29,5l-.23-.52a1.84,1.84,0,0,1-.83.19,1.88,1.88,0,0,1-.84-.19L1.16,5a.35.35,0,0,1-.32.21A.36.36,0,0,1,.54,5a.37.37,0,0,1-.07-.32l.21-.84a.86.86,0,0,1-.1-.16,1.84,1.84,0,0,1-.28-1V2.42a.09.09,0,0,1,.1-.1H4.06a.1.1,0,0,1,.1.1v.29a1.93,1.93,0,0,1-.28,1l-.11.16L4,4.71A.37.37,0,0,1,3.91,5,.36.36,0,0,1,3.61,5.18Zm-.4-.9.26.61A.17.17,0,0,0,3.61,5a.17.17,0,0,0,.14-.07.17.17,0,0,0,0-.15l-.22-.89a.1.1,0,0,1,0-.09h0v0l.1-.14A1.77,1.77,0,0,0,4,2.71V2.52H.5v.19a1.67,1.67,0,0,0,.25.9l.09.14,0,0h0a.1.1,0,0,1,0,.09l-.22.89a.17.17,0,0,0,0,.15A.17.17,0,0,0,.84,5,.17.17,0,0,0,1,4.89l.27-.61a.05.05,0,0,1,0,0,.1.1,0,0,1,.12,0,1.72,1.72,0,0,0,.84.21,1.71,1.71,0,0,0,.83-.21.1.1,0,0,1,.12,0Z"/><path d="M3.84,2a.11.11,0,0,1-.1-.1V.49A.29.29,0,0,0,3.46.2H3a.29.29,0,0,0-.29.29.09.09,0,0,1-.1.09.1.1,0,0,1-.1-.09A.49.49,0,0,1,3,0h.51a.49.49,0,0,1,.48.49V1.92A.1.1,0,0,1,3.84,2Z"/><path d="M2.92.94H2.21a.09.09,0,0,1-.1-.1A.45.45,0,0,1,2.56.39.46.46,0,0,1,3,.84.1.1,0,0,1,2.92.94ZM2.33.74H2.8A.27.27,0,0,0,2.56.58.26.26,0,0,0,2.33.74Z"/><path d="M2.56,1.56a.1.1,0,0,1-.1-.1V1.18a.11.11,0,0,1,.1-.1.1.1,0,0,1,.1.1v.28A.09.09,0,0,1,2.56,1.56Z"/><path d="M2.86,1.56a.09.09,0,0,1-.1-.1V1.18a.1.1,0,0,1,.1-.1.11.11,0,0,1,.1.1v.28A.1.1,0,0,1,2.86,1.56Z"/><path d="M2.27,1.56a.09.09,0,0,1-.1-.1V1.18a.1.1,0,0,1,.1-.1.11.11,0,0,1,.1.1v.28A.1.1,0,0,1,2.27,1.56Z"/><path d="M4.86,5.18H.1a.1.1,0,0,1-.1-.1A.09.09,0,0,1,.1,5H4.86a.1.1,0,0,1,.1.1A.11.11,0,0,1,4.86,5.18Z"/><path d="M3.06,3.1H.42A.1.1,0,0,1,.32,3a.09.09,0,0,1,.1-.1H3.06a.09.09,0,0,1,.1.1A.1.1,0,0,1,3.06,3.1Z"/></g></g></svg>