<svg xmlns="http://www.w3.org/2000/svg" viewBox="0 0 5.34 3.5"><g id="Layer_2" data-name="Layer 2"><g id="Layer_1-2" data-name="Layer 1"><path d="M.29,3.5a.1.1,0,0,1-.1-.1V2a.5.5,0,0,1,.49-.49H1a.1.1,0,0,1,.1.1.09.09,0,0,1-.1.1H.68A.29.29,0,0,0,.39,2V3.41A.09.09,0,0,1,.29,3.5Z"/><path d="M.87,3.5a.1.1,0,0,1-.1-.09V2.57a.11.11,0,0,1,.1-.1.1.1,0,0,1,.1.1v.84A.09.09,0,0,1,.87,3.5Z"/><path d="M1.53,1.31A.66.66,0,0,1,.87.66.66.66,0,0,1,1.53,0a.65.65,0,0,1,.65.66A.65.65,0,0,1,1.53,1.31ZM1.53.2a.46.46,0,1,0,0,.91A.45.45,0,0,0,2,.66.45.45,0,0,0,1.53.2Z"/><path d="M3.82,1.31A.66.66,0,0,1,3.16.66.66.66,0,0,1,3.82,0a.65.65,0,0,1,.65.66A.65.65,0,0,1,3.82,1.31ZM3.82.2a.46.46,0,1,0,0,.91A.45.45,0,0,0,4.27.66.45.45,0,0,0,3.82.2Z"/><path d="M2.24,3.5a.1.1,0,0,1-.1-.09V2.57a.1.1,0,0,1,.1-.1.09.09,0,0,1,.1.1v.84A.09.09,0,0,1,2.24,3.5Z"/><path d="M3.1,3.5A.1.1,0,0,1,3,3.41V2.57a.1.1,0,0,1,.1-.1.09.09,0,0,1,.1.1v.72a.31.31,0,0,0,.09-.07A.26.26,0,0,0,3.36,3l0-.68A.28.28,0,0,0,3,2.09H2.31A.28.28,0,0,0,2,2.35L2,3a.32.32,0,0,0,.07.19.25.25,0,0,0,.19.09.09.09,0,0,1,.1.1.09.09,0,0,1-.1.09.47.47,0,0,1-.33-.14A.42.42,0,0,1,1.79,3l0-.68a.49.49,0,0,1,.49-.45H3a.47.47,0,0,1,.48.45l0,.68a.46.46,0,0,1-.12.34A.48.48,0,0,1,3.1,3.5Z"/><path d="M3.1,3.5H2.24a.1.1,0,0,1-.1-.09.1.1,0,0,1,.1-.1H3.1a.09.09,0,0,1,.1.1A.09.09,0,0,1,3.1,3.5Z"/><path d="M2.67,1.72a.44.44,0,0,1,0-.88.44.44,0,0,1,0,.88Zm0-.68a.24.24,0,1,0,0,.48.24.24,0,1,0,0-.48Z"/><path d="M5.05,3.5A.1.1,0,0,1,5,3.41V2a.29.29,0,0,0-.28-.29H4.22a.1.1,0,0,1-.1-.1.11.11,0,0,1,.1-.1h.45A.49.49,0,0,1,5.15,2V3.4a.09.09,0,0,1-.1.1Z"/><path d="M4.47,3.5a.1.1,0,0,1-.1-.09V2.57a.11.11,0,0,1,.1-.1.1.1,0,0,1,.1.1v.84A.09.09,0,0,1,4.47,3.5Z"/><path d="M2.21,2.09A.12.12,0,0,1,2.11,2l0-.17a.18.18,0,0,0-.16-.12.09.09,0,0,1-.1-.1.1.1,0,0,1,.1-.1.39.39,0,0,1,.35.25L2.3,2a.1.1,0,0,1-.06.13Z"/><path d="M3.14,2.09h0A.1.1,0,0,1,3,2l.06-.17a.37.37,0,0,1,.35-.25.11.11,0,0,1,.1.1.1.1,0,0,1-.1.1.17.17,0,0,0-.16.12L3.23,2A.1.1,0,0,1,3.14,2.09Z"/><path d="M5.25,3.5H.1A.09.09,0,0,1,0,3.41a.09.09,0,0,1,.1-.1H5.25a.09.09,0,0,1,.09.1A.09.09,0,0,1,5.25,3.5Z"/></g></g></svg>