<svg xmlns="http://www.w3.org/2000/svg" viewBox="0 0 4.78 5.16"><g id="Layer_2" data-name="Layer 2"><g id="Layer_1-2" data-name="Layer 1"><path d="M1.27,1.62a.51.51,0,1,1,.51-.51A.51.51,0,0,1,1.27,1.62Zm0-.82a.31.31,0,1,0,.31.31A.31.31,0,0,0,1.27.8Z"/><path d="M1.27,5.16a.51.51,0,0,1-.51-.51V4.46a.09.09,0,0,1,0,0l.08-.14L.77,4.12a.09.09,0,0,1,0,0V3.58a.06.06,0,0,1,0,0l.1-.22-.1-.26a0,0,0,0,1,0,0v-.6A1.26,1.26,0,0,1,0,1.25,1.27,1.27,0,0,1,1.21,0a1.29,1.29,0,0,1,1.2.7.11.11,0,0,1-.05.14.1.1,0,0,1-.13,0,1.07,1.07,0,0,0-1-.59,1.09,1.09,0,0,0-1,1.05,1.07,1.07,0,0,0,.7,1A.11.11,0,0,1,1,2.36V3l.11.28a.09.09,0,0,1,0,.07L1,3.6v.45l.09.17a.07.07,0,0,1,0,.09L1,4.49v.16a.31.31,0,0,0,.62,0V2.36a.1.1,0,0,1,.06-.09,1.07,1.07,0,0,0,.68-.79.1.1,0,0,1,.12-.08.1.1,0,0,1,.08.11,1.26,1.26,0,0,1-.74.92V4.65A.51.51,0,0,1,1.27,5.16Z"/><path d="M1.27,4.57a.09.09,0,0,1-.1-.1V2.4a.1.1,0,0,1,.1-.1.11.11,0,0,1,.1.1V4.47A.1.1,0,0,1,1.27,4.57Z"/><path d="M4.38,3.14H3.57a.41.41,0,0,1-.41-.41V1.42a.1.1,0,0,1,.1-.1.09.09,0,0,1,.1.1V2.73a.21.21,0,0,0,.21.21h.81a.2.2,0,0,0,.2-.21V.79a.2.2,0,0,0-.2-.21H3.57a.21.21,0,0,0-.21.21.1.1,0,0,1-.1.1.11.11,0,0,1-.1-.1A.41.41,0,0,1,3.57.38h.81a.4.4,0,0,1,.4.41V2.73A.4.4,0,0,1,4.38,3.14Z"/><path d="M4,1.48a.36.36,0,0,1-.35-.36.36.36,0,0,1,.71,0A.36.36,0,0,1,4,1.48ZM4,1a.16.16,0,0,0,0,.32A.16.16,0,0,0,4,1Z"/><path d="M3.72,1.21H1.37a.11.11,0,0,1-.1-.1.1.1,0,0,1,.1-.1H3.72a.1.1,0,0,1,.1.1A.11.11,0,0,1,3.72,1.21Z"/><path d="M4.11,2.68H3.65a.1.1,0,1,1,0-.2h.46a.11.11,0,0,0,.11-.1.11.11,0,0,0-.11-.11H3.86a.09.09,0,0,1-.09-.1.1.1,0,0,1,.09-.1h.25a.31.31,0,1,1,0,.61Z"/><path d="M3.85,5.16H.52a.09.09,0,0,1-.1-.1A.1.1,0,0,1,.52,5H3.85a.1.1,0,0,1,.1.1A.09.09,0,0,1,3.85,5.16Z"/></g></g></svg>