<svg xmlns="http://www.w3.org/2000/svg" viewBox="0 0 5.16 5.21"><g id="Layer_2" data-name="Layer 2"><g id="Layer_1-2" data-name="Layer 1"><path d="M.74,5.21H.23A.23.23,0,0,1,0,5V1.71a.23.23,0,0,1,.23-.24H.74A.24.24,0,0,1,1,1.71V5A.23.23,0,0,1,.74,5.21ZM.23,1.67s0,0,0,0V5a0,0,0,0,0,0,0H.74s0,0,0,0V1.71a0,0,0,0,0,0,0Z"/><path d="M2.14,5.21H1.63A.23.23,0,0,1,1.39,5V1.71a.24.24,0,0,1,.24-.24h.51a.23.23,0,0,1,.23.24V5A.23.23,0,0,1,2.14,5.21ZM1.63,1.67a0,0,0,0,0,0,0V5s0,0,0,0h.51a0,0,0,0,0,0,0V1.71s0,0,0,0Z"/><path d="M3.53,5.21H3A.23.23,0,0,1,2.79,5V1.71A.23.23,0,0,1,3,1.47h.51a.23.23,0,0,1,.23.24V5A.23.23,0,0,1,3.53,5.21ZM3,1.67s0,0,0,0V5A0,0,0,0,0,3,5h.51a0,0,0,0,0,0,0V1.71s0,0,0,0Z"/><path d="M4.92,5.21H4.41A.23.23,0,0,1,4.18,5V1.71a.24.24,0,0,1,.23-.24h.51a.24.24,0,0,1,.24.24V5A.23.23,0,0,1,4.92,5.21ZM4.41,1.67a0,0,0,0,0,0,0V5a0,0,0,0,0,0,0h.51S5,5,5,5V1.71a0,0,0,0,0,0,0Z"/><path d="M1.49,2.87H.88a.1.1,0,0,1-.1-.1V2a.1.1,0,0,1,.1-.1h.61a.1.1,0,0,1,.1.1v.73A.1.1,0,0,1,1.49,2.87ZM1,2.67h.41V2.14H1Z"/><path d="M2.89,2.87H2.27a.1.1,0,0,1-.1-.1V2a.1.1,0,0,1,.1-.1h.62A.11.11,0,0,1,3,2v.73A.11.11,0,0,1,2.89,2.87Zm-.52-.2h.42V2.14H2.37Z"/><path d="M4.28,2.87H3.66a.11.11,0,0,1-.1-.1V2a.11.11,0,0,1,.1-.1h.62a.1.1,0,0,1,.1.1v.73A.1.1,0,0,1,4.28,2.87Zm-.52-.2h.42V2.14H3.76Z"/><path d="M4.28,4.75H3.66a.11.11,0,0,1-.1-.1V3.92a.1.1,0,0,1,.1-.1h.62a.09.09,0,0,1,.1.1v.73A.1.1,0,0,1,4.28,4.75Zm-.52-.2h.42V4H3.76Z"/><path d="M2.89,4.75H2.27a.1.1,0,0,1-.1-.1V3.92a.09.09,0,0,1,.1-.1h.62a.1.1,0,0,1,.1.1v.73A.11.11,0,0,1,2.89,4.75Zm-.52-.2h.42V4H2.37Z"/><path d="M1.49,4.75H.88a.1.1,0,0,1-.1-.1V3.92a.09.09,0,0,1,.1-.1h.61a.09.09,0,0,1,.1.1v.73A.1.1,0,0,1,1.49,4.75ZM1,4.55h.41V4H1Z"/><path d="M1,1.21a.09.09,0,0,1-.07,0A.1.1,0,0,1,.93,1L1,1A.13.13,0,0,0,1,.81.29.29,0,0,1,.88.58.29.29,0,0,1,1,.35.13.13,0,0,0,1,.17.1.1,0,0,1,1,0a.1.1,0,0,1,.14,0,.32.32,0,0,1,0,.46.12.12,0,0,0,0,.09.1.1,0,0,0,0,.09.33.33,0,0,1,0,.47l-.05,0A.11.11,0,0,1,1,1.21Z"/><path d="M1.76,1.21a.11.11,0,0,1-.07,0,.1.1,0,0,1,0-.14L1.74,1a.13.13,0,0,0,0-.18A.32.32,0,0,1,1.65.58.32.32,0,0,1,1.74.35a.13.13,0,0,0,0-.18.1.1,0,0,1,0-.14.1.1,0,0,1,.14,0,.32.32,0,0,1,0,.46.16.16,0,0,0,0,.09.12.12,0,0,0,0,.09.33.33,0,0,1,0,.47l0,0A.09.09,0,0,1,1.76,1.21Z"/><path d="M2.53,1.21a.09.09,0,0,1-.07,0,.1.1,0,0,1,0-.14l0-.05a.13.13,0,0,0,0-.18.32.32,0,0,1,0-.46.13.13,0,0,0,0-.18.1.1,0,0,1,0-.14.1.1,0,0,1,.14,0,.32.32,0,0,1,0,.46.13.13,0,0,0,0,.18.33.33,0,0,1,0,.47l0,0A.11.11,0,0,1,2.53,1.21Z"/><path d="M3.29,1.21a.11.11,0,0,1-.07,0,.12.12,0,0,1,0-.14l0-.05a.1.1,0,0,0,0-.09.12.12,0,0,0,0-.09.34.34,0,0,1,0-.46.11.11,0,0,0,0-.09.11.11,0,0,0,0-.09.1.1,0,0,1,0-.14.11.11,0,0,1,.15,0,.32.32,0,0,1,.09.23.32.32,0,0,1-.09.23.13.13,0,0,0,0,.18A.33.33,0,0,1,3.51.9a.36.36,0,0,1-.09.24l0,0A.11.11,0,0,1,3.29,1.21Z"/><path d="M4.06,1.21a.09.09,0,0,1-.07,0A.1.1,0,0,1,4,1L4,1a.13.13,0,0,0,0-.09A.18.18,0,0,0,4,.81.32.32,0,0,1,4,.35a.15.15,0,0,0,0-.09A.15.15,0,0,0,4,.17.1.1,0,0,1,4,0a.1.1,0,0,1,.14,0,.33.33,0,0,1,.1.23.33.33,0,0,1-.1.23.13.13,0,0,0,0,.18.34.34,0,0,1,.1.23.37.37,0,0,1-.1.24l0,0A.09.09,0,0,1,4.06,1.21Z"/><path d="M.49,4.75a.1.1,0,0,1-.1-.1V3.27a.09.09,0,0,1,.1-.1.1.1,0,0,1,.1.1V4.65A.11.11,0,0,1,.49,4.75Z"/><path d="M1.88,3.56a.1.1,0,0,1-.1-.1V2.08a.09.09,0,0,1,.1-.1.1.1,0,0,1,.1.1V3.46A.11.11,0,0,1,1.88,3.56Z"/><path d="M3.28,4.48a.1.1,0,0,1-.1-.1V3a.09.09,0,0,1,.1-.1.1.1,0,0,1,.1.1V4.38A.11.11,0,0,1,3.28,4.48Z"/><path d="M4.67,3.72a.09.09,0,0,1-.1-.1V2.24a.1.1,0,0,1,.1-.1.11.11,0,0,1,.1.1V3.62A.1.1,0,0,1,4.67,3.72Z"/></g></g></svg>