<svg xmlns="http://www.w3.org/2000/svg" viewBox="0 0 4.39 5.48"><g id="Layer_2" data-name="Layer 2"><g id="Layer_1-2" data-name="Layer 1"><path d="M3.49,5.07H.89A.09.09,0,0,1,.8,5V.46A.1.1,0,0,1,.89.36h2.6a.1.1,0,0,1,.1.1V5A.09.09,0,0,1,3.49,5.07ZM1,4.88H3.4V.55H1Z"/><path d="M3.85,5.07H.54A.09.09,0,0,1,.44,5V.23A.23.23,0,0,1,.68,0h3A.23.23,0,0,1,4,.23V5A.1.1,0,0,1,3.85,5.07ZM.63,4.88H3.76V.23a0,0,0,0,0,0,0h-3a0,0,0,0,0-.05,0Z"/><path d="M3.49,4.67H1.65a.09.09,0,0,1-.09-.1.09.09,0,0,1,.09-.09H3.49a.09.09,0,0,1,.1.09A.09.09,0,0,1,3.49,4.67Z"/><path d="M1.31,2.81a.1.1,0,0,1-.1-.09V2.53a.32.32,0,0,1,.32-.31h.32a.1.1,0,0,1,.1.09.11.11,0,0,1-.1.1H1.53a.12.12,0,0,0-.13.12v.19A.09.09,0,0,1,1.31,2.81Z"/><path d="M4.29,5.48H.09A.09.09,0,0,1,0,5.39V5.31a.43.43,0,0,1,.43-.43H4a.43.43,0,0,1,.43.43v.08A.09.09,0,0,1,4.29,5.48ZM.19,5.29h4A.24.24,0,0,0,4,5.07H.43A.24.24,0,0,0,.19,5.29Z"/><path d="M.89.55a.09.09,0,0,1-.06,0L.51.2a.1.1,0,0,1,0-.13.1.1,0,0,1,.14,0L1,.39A.1.1,0,0,1,1,.53Z"/><path d="M3.49.55l-.06,0a.1.1,0,0,1,0-.14L3.74.07a.09.09,0,0,1,.13,0,.09.09,0,0,1,0,.13L3.56.52A.09.09,0,0,1,3.49.55Z"/></g></g></svg>