<svg xmlns="http://www.w3.org/2000/svg" viewBox="0 0 5.49 3.49"><g id="Layer_2" data-name="Layer 2"><g id="Layer_1-2" data-name="Layer 1"><path d="M5.4,3.49H.09A.09.09,0,0,1,0,3.39V2.47a.09.09,0,0,1,.09-.1H5.4a.09.09,0,0,1,.09.1v.92A.09.09,0,0,1,5.4,3.49ZM.19,3.3H5.3V2.56H.19Z"/><path d="M4.71,2.56H.78a.09.09,0,0,1-.1-.09.09.09,0,0,1,.1-.1H4.71a.09.09,0,0,1,.1.1A.09.09,0,0,1,4.71,2.56Z"/><path d="M.78,2.56H.09A.09.09,0,0,1,0,2.47V1.71a.44.44,0,0,1,.44-.43.43.43,0,0,1,.43.43v.76A.09.09,0,0,1,.78,2.56ZM.19,2.37H.68V1.71a.25.25,0,0,0-.49,0Z"/><path d="M5.4,2.56H4.71a.09.09,0,0,1-.09-.09V1.71a.43.43,0,0,1,.43-.43.44.44,0,0,1,.44.43v.76A.09.09,0,0,1,5.4,2.56Zm-.59-.19H5.3V1.71a.25.25,0,0,0-.49,0Z"/><path d="M5.06,1.47A.09.09,0,0,1,5,1.37V1A.29.29,0,0,0,4.68.69h0A2,2,0,0,1,3.68.43a1.94,1.94,0,0,0-1.87,0A2,2,0,0,1,.86.69h0A.29.29,0,0,0,.52,1v.36a.08.08,0,0,1,0,0,.11.11,0,0,1-.09.1h0a.09.09,0,0,1-.07,0,.09.09,0,0,1,0-.07V1A.47.47,0,0,1,.81.5h0A1.75,1.75,0,0,0,1.71.27a2.12,2.12,0,0,1,2.07,0A1.75,1.75,0,0,0,4.63.5h0A.48.48,0,0,1,5.16,1v.4A.1.1,0,0,1,5.06,1.47Z"/><path d="M4.72,1.19a.11.11,0,0,1-.1-.1A.08.08,0,0,0,4.55,1h-.2A1.62,1.62,0,0,1,3.54.79a1.64,1.64,0,0,0-1.62,0,1.49,1.49,0,0,1-.74.2H1c-.06,0-.12,0-.12.08a.1.1,0,0,1-.09.1.1.1,0,0,1-.09-.1A.28.28,0,0,1,1,.82h.2A1.28,1.28,0,0,0,1.82.65a1.8,1.8,0,0,1,1.81,0,1.49,1.49,0,0,0,.72.19h.2a.27.27,0,0,1,.26.27A.1.1,0,0,1,4.72,1.19Z"/><path d="M2.74,3.49a.09.09,0,0,1-.09-.1V2.47a.09.09,0,0,1,.09-.1.09.09,0,0,1,.1.1v.92A.09.09,0,0,1,2.74,3.49Z"/></g></g></svg>