<svg xmlns="http://www.w3.org/2000/svg" viewBox="0 0 5.39 4.04"><g id="Layer_2" data-name="Layer 2"><g id="Layer_1-2" data-name="Layer 1"><path d="M4.15,4H1a.44.44,0,0,1-.32-.73A.72.72,0,0,1,.9,1.92H4.15A1.06,1.06,0,1,1,4.15,4ZM1,3.36a.27.27,0,0,0-.27.24A.23.23,0,0,0,1,3.84H4.15a.86.86,0,0,0,0-1.72H.9a.52.52,0,0,0,0,1H4.09a.21.21,0,1,0,0-.41h-3a.1.1,0,0,1-.1-.1.09.09,0,0,1,.1-.1h3a.41.41,0,1,1,0,.81Z"/><path d="M1,.88A.44.44,0,0,1,.54.44.44.44,0,0,1,1,0h.4a.09.09,0,0,1,.1.1.1.1,0,0,1-.1.1H1A.23.23,0,0,0,.74.44.24.24,0,0,0,1,.68a.09.09,0,0,1,.1.1A.1.1,0,0,1,1,.88Z"/><path d="M4.15.2h-.4a.1.1,0,0,1-.1-.1.09.09,0,0,1,.1-.1h.4a.1.1,0,0,1,.1.1A.11.11,0,0,1,4.15.2Z"/><path d="M3.09.2H2.43a.1.1,0,0,1-.1-.1.09.09,0,0,1,.1-.1h.66a.1.1,0,0,1,.1.1A.11.11,0,0,1,3.09.2Z"/><path d="M1.77.2h-.4a.11.11,0,0,1-.1-.1.1.1,0,0,1,.1-.1h.4a.09.09,0,0,1,.1.1A.1.1,0,0,1,1.77.2Z"/><path d="M4.15,2.12H.9A.72.72,0,0,1,.9.68H4.09a.41.41,0,0,1,.41.41.41.41,0,0,1-.41.4h-3a.09.09,0,0,1-.1-.1.1.1,0,0,1,.1-.1h3a.21.21,0,1,0,0-.41H.9a.52.52,0,0,0,0,1H4.15A.87.87,0,0,0,5,1.06.87.87,0,0,0,4.15.2a.1.1,0,0,1-.1-.1.09.09,0,0,1,.1-.1A1.07,1.07,0,0,1,5.21,1.06,1.07,1.07,0,0,1,4.15,2.12Z"/><path d="M5.29,4H.1a.1.1,0,0,1-.1-.1.09.09,0,0,1,.1-.1H5.29a.1.1,0,0,1,.1.1A.11.11,0,0,1,5.29,4Z"/></g></g></svg>