<svg xmlns="http://www.w3.org/2000/svg" viewBox="0 0 4.95 5.36"><g id="Layer_2" data-name="Layer 2"><g id="Layer_1-2" data-name="Layer 1"><path d="M3.65,5.36H1.3a.44.44,0,0,1-.43-.44V1.61a1.61,1.61,0,1,1,3.22,0V4.92A.44.44,0,0,1,3.65,5.36ZM2.48.2A1.41,1.41,0,0,0,1.07,1.61V4.92a.23.23,0,0,0,.23.24H3.65a.24.24,0,0,0,.24-.24V1.61A1.41,1.41,0,0,0,2.48.2Z"/><path d="M2.48,2.69a1,1,0,1,1,1-1A1,1,0,0,1,2.48,2.69ZM2.48.8a.85.85,0,1,0,.84.84A.85.85,0,0,0,2.48.8Z"/><path d="M2.2,2.2H2.15a.62.62,0,0,1-.31-.55A.64.64,0,0,1,2.48,1a.11.11,0,0,1,.1.1.1.1,0,0,1-.1.1A.44.44,0,0,0,2.25,2a.09.09,0,0,1,0,.13A.07.07,0,0,1,2.2,2.2Z"/><path d="M3.07,3.32H1.49a.1.1,0,0,1-.1-.1.09.09,0,0,1,.1-.1H3.07a.09.09,0,0,1,.09.1A.1.1,0,0,1,3.07,3.32Z"/><path d="M2.37,3.81H1.49a.09.09,0,0,1-.1-.1.09.09,0,0,1,.1-.09h.88a.1.1,0,0,1,.1.09A.1.1,0,0,1,2.37,3.81Z"/><path d="M3.07,4.31H1.49a.09.09,0,0,1-.1-.1.1.1,0,0,1,.1-.1H3.07a.1.1,0,0,1,.09.1A.09.09,0,0,1,3.07,4.31Z"/><path d="M2.37,4.81H1.49a.09.09,0,0,1-.1-.1.1.1,0,0,1,.1-.1h.88a.11.11,0,0,1,.1.1A.1.1,0,0,1,2.37,4.81Z"/><path d="M4.78,4.37a.09.09,0,0,1-.1-.1V1.64a.1.1,0,0,1,.1-.1.11.11,0,0,1,.1.1V4.27A.1.1,0,0,1,4.78,4.37Z"/><path d="M.18,4.36a.09.09,0,0,1-.1-.1V1.63a.1.1,0,0,1,.1-.1.11.11,0,0,1,.1.1V4.26A.1.1,0,0,1,.18,4.36Z"/><path d="M4.85,5.36H.1a.1.1,0,0,1-.1-.1.09.09,0,0,1,.1-.1H4.85a.09.09,0,0,1,.1.1A.1.1,0,0,1,4.85,5.36Z"/></g></g></svg>