<svg xmlns="http://www.w3.org/2000/svg" viewBox="0 0 4.96 4.14"><g id="Layer_2" data-name="Layer 2"><g id="Layer_1-2" data-name="Layer 1"><path d="M3.24,1.6H1.71a.3.3,0,0,1-.3-.3V.89a.3.3,0,0,1,.3-.3H2a.09.09,0,0,1,.1.1.1.1,0,0,1-.1.1h-.3a.1.1,0,0,0-.1.1V1.3a.1.1,0,0,0,.1.1H3.24a.09.09,0,0,0,.1-.1V.89a.09.09,0,0,0-.1-.1h-.3a.11.11,0,0,1-.1-.1.1.1,0,0,1,.1-.1h.3a.29.29,0,0,1,.3.3V1.3A.29.29,0,0,1,3.24,1.6Z"/><path d="M4.59,4.14H.37A.36.36,0,0,1,0,3.78V1.27A.37.37,0,0,1,.37.9H1.51a.1.1,0,0,1,.1.1v.3a.1.1,0,0,0,.1.1H3.24a.09.09,0,0,0,.1-.1V1a.11.11,0,0,1,.1-.1H4.59A.38.38,0,0,1,5,1.27V3.78A.37.37,0,0,1,4.59,4.14ZM.37,1.1a.17.17,0,0,0-.17.17V3.78a.16.16,0,0,0,.17.16H4.59a.17.17,0,0,0,.17-.16V1.27a.18.18,0,0,0-.17-.17h-1v.2a.29.29,0,0,1-.3.3H1.71a.3.3,0,0,1-.3-.3V1.1Z"/><path d="M2.94,1.06a.1.1,0,0,1-.1-.1V.57A.36.36,0,0,0,2.48.2a.37.37,0,0,0-.37.37V1a.09.09,0,0,1-.1.1.1.1,0,0,1-.1-.1V.57A.57.57,0,0,1,2.48,0,.56.56,0,0,1,3,.57V1A.09.09,0,0,1,2.94,1.06Z"/><path d="M1.38,2.8a.47.47,0,1,1,.47-.47A.47.47,0,0,1,1.38,2.8Zm0-.74a.27.27,0,1,0,.27.27A.27.27,0,0,0,1.38,2.06Z"/><path d="M2.22,3.65H.55a.1.1,0,0,1-.1-.1V3.46a.93.93,0,0,1,.72-.91.11.11,0,0,1,.08,0,.26.26,0,0,0,.27,0,.09.09,0,0,1,.07,0,.93.93,0,0,1,.73.91v.09A.11.11,0,0,1,2.22,3.65ZM.65,3.45H2.12a.74.74,0,0,0-.54-.7.47.47,0,0,1-.4,0A.73.73,0,0,0,.65,3.45Z"/><path d="M1,3.65a.1.1,0,0,1-.1-.1V3.22a.09.09,0,0,1,.1-.1.1.1,0,0,1,.1.1v.33A.11.11,0,0,1,1,3.65Z"/><path d="M1.78,3.65a.11.11,0,0,1-.1-.1V3.22a.1.1,0,0,1,.1-.1.09.09,0,0,1,.1.1v.33A.1.1,0,0,1,1.78,3.65Z"/><path d="M4.32,2.19H3.09a.09.09,0,0,1-.1-.1.1.1,0,0,1,.1-.1H4.32a.11.11,0,0,1,.1.1A.1.1,0,0,1,4.32,2.19Z"/><path d="M4.32,2.64H2.87a.1.1,0,0,1-.1-.1.09.09,0,0,1,.1-.1H4.32a.1.1,0,0,1,.1.1A.11.11,0,0,1,4.32,2.64Z"/><path d="M4.32,3.09H2.87a.1.1,0,0,1-.1-.1.09.09,0,0,1,.1-.1H4.32a.1.1,0,0,1,.1.1A.11.11,0,0,1,4.32,3.09Z"/><path d="M4.32,3.54H2.87a.1.1,0,0,1-.1-.1.09.09,0,0,1,.1-.1H4.32a.1.1,0,0,1,.1.1A.11.11,0,0,1,4.32,3.54Z"/><path d="M1.17.58H.29a.11.11,0,0,1-.1-.1.1.1,0,0,1,.1-.1h.88a.09.09,0,0,1,.1.1A.1.1,0,0,1,1.17.58Z"/><path d="M4.67.58H3.78a.11.11,0,0,1-.1-.1.1.1,0,0,1,.1-.1h.89a.1.1,0,0,1,.1.1A.11.11,0,0,1,4.67.58Z"/></g></g></svg>