<svg xmlns="http://www.w3.org/2000/svg" viewBox="0 0 4.89 5.33"><g id="Layer_2" data-name="Layer 2"><g id="Layer_1-2" data-name="Layer 1"><path d="M3.75,4.56H.53a.46.46,0,1,1,0-.92H3.75a.46.46,0,0,1,0,.92ZM.53,3.84a.26.26,0,0,0,0,.52H3.75a.26.26,0,0,0,0-.52Z"/><path d="M3.05,5.33H1.23a.71.71,0,0,1-.66-.47L.44,4.49a.1.1,0,0,1,0-.09.12.12,0,0,1,.08,0H3.75a.12.12,0,0,1,.08,0,.1.1,0,0,1,0,.09l-.14.37A.71.71,0,0,1,3.05,5.33ZM.67,4.56l.09.24a.51.51,0,0,0,.47.33H3.05a.51.51,0,0,0,.47-.33l.09-.24Z"/><path d="M3.3,3.84H1l-.06,0A2.3,2.3,0,0,1,.13,1.58a.1.1,0,0,1,.1-.08H4.05a.1.1,0,0,1,.1.08,2.3,2.3,0,0,1-.79,2.24ZM1,3.64H3.26A2,2,0,0,0,4,1.7H.31A2,2,0,0,0,1,3.64Z"/><path d="M3.83,3.23a.11.11,0,0,1-.1-.09A.12.12,0,0,1,3.82,3a.9.9,0,0,0,.86-.81H4.1a.09.09,0,0,1-.1-.1A.1.1,0,0,1,4.1,2h.69a.11.11,0,0,1,.1.1,1.13,1.13,0,0,1-1,1.11Z"/><path d="M1.24,1.23a.1.1,0,0,1-.07,0,.11.11,0,0,1,0-.14A.66.66,0,0,0,1.23.29L1.15.15a.11.11,0,0,1,0-.14.11.11,0,0,1,.14,0l.08.14a.87.87,0,0,1-.09,1A.11.11,0,0,1,1.24,1.23Z"/><path d="M2,1.23a.07.07,0,0,1-.06,0,.1.1,0,0,1,0-.14A.68.68,0,0,0,2,.29L1.94.15A.11.11,0,0,1,2,0a.11.11,0,0,1,.14,0l.08.14a.87.87,0,0,1-.09,1A.11.11,0,0,1,2,1.23Z"/><path d="M2.81,1.23a.08.08,0,0,1-.07,0,.11.11,0,0,1,0-.14A.66.66,0,0,0,2.8.29L2.72.15a.1.1,0,0,1,0-.14.1.1,0,0,1,.13,0L3,.19a.86.86,0,0,1-.09,1A.11.11,0,0,1,2.81,1.23Z"/><path d="M3.18,2.29h-3a.09.09,0,0,1-.1-.1.1.1,0,0,1,.1-.1h3a.1.1,0,0,1,.1.1A.09.09,0,0,1,3.18,2.29Z"/><path d="M4.68,5.33H.1a.1.1,0,0,1-.1-.1.09.09,0,0,1,.1-.1H4.68a.09.09,0,0,1,.1.1A.1.1,0,0,1,4.68,5.33Z"/></g></g></svg>