<svg xmlns="http://www.w3.org/2000/svg" viewBox="0 0 5.41 5.4"><g id="Layer_2" data-name="Layer 2"><g id="Layer_1-2" data-name="Layer 1"><path d="M1.23,1.48h0A.59.59,0,0,1,.67,1.1,1.2,1.2,0,0,1,.54.53v0A.43.43,0,0,1,.77.12,1,1,0,0,1,1.21,0a.83.83,0,0,1,.48.16.43.43,0,0,1,.2.37,1.24,1.24,0,0,1-.13.58A.63.63,0,0,1,1.23,1.48Zm0-.2c.15,0,.27-.08.37-.27A1.06,1.06,0,0,0,1.69.53.26.26,0,0,0,1.58.32.77.77,0,0,0,1.21.2.69.69,0,0,0,.86.3.22.22,0,0,0,.74.51v0A1,1,0,0,0,.85,1C1,1.19,1.07,1.29,1.21,1.28Z"/><path d="M.71,2.9a.09.09,0,0,1-.1-.1V2.31a.09.09,0,0,1,.1-.1.1.1,0,0,1,.1.1V2.8A.1.1,0,0,1,.71,2.9Z"/><path d="M1.72,2.9a.1.1,0,0,1-.1-.1V2.31a.1.1,0,0,1,.1-.1.09.09,0,0,1,.1.1V2.8A.09.09,0,0,1,1.72,2.9Z"/><path d="M2.33,2.9H.1A.09.09,0,0,1,0,2.8V2.52a.8.8,0,0,1,.7-.87h1a.8.8,0,0,1,.7.86V2.8A.1.1,0,0,1,2.33,2.9ZM.2,2.7h2V2.52c0-.37-.24-.67-.5-.67H.7c-.26,0-.49.3-.5.67Z"/><path d="M4,4h0A.58.58,0,0,1,3.4,3.6,1.2,1.2,0,0,1,3.26,3V3a.45.45,0,0,1,.23-.39.89.89,0,0,1,.45-.12.91.91,0,0,1,.48.15.48.48,0,0,1,.2.38,1.17,1.17,0,0,1-.14.57A.6.6,0,0,1,4,4Zm0-.2c.15,0,.27-.09.37-.27A1.06,1.06,0,0,0,4.42,3a.26.26,0,0,0-.11-.21.77.77,0,0,0-.37-.12.77.77,0,0,0-.35.09A.26.26,0,0,0,3.46,3V3a1,1,0,0,0,.12.48C3.67,3.69,3.8,3.79,3.94,3.78Z"/><path d="M3.44,5.4a.09.09,0,0,1-.1-.1V4.81a.09.09,0,0,1,.1-.1.1.1,0,0,1,.1.1V5.3A.1.1,0,0,1,3.44,5.4Z"/><path d="M4.45,5.4a.09.09,0,0,1-.1-.1V4.81a.09.09,0,0,1,.1-.1.1.1,0,0,1,.1.1V5.3A.1.1,0,0,1,4.45,5.4Z"/><path d="M2.9,2.23l-.06,0a.08.08,0,0,1,0-.08l0-.54,0-1.1a.09.09,0,0,1,0-.07.08.08,0,0,1,.07,0H4.6a.11.11,0,0,1,.08,0A.11.11,0,0,1,4.7.5L4.57,2a.11.11,0,0,1-.1.09h-1l-.56.18Zm0-1.64,0,1V2l.45-.15h.94L4.49.59Z"/><path d="M4.12,1H3.29a.09.09,0,0,1-.1-.1.1.1,0,0,1,.1-.1h.83a.1.1,0,0,1,.1.1A.09.09,0,0,1,4.12,1Z"/><path d="M4,1.52H3.39a.11.11,0,0,1-.1-.1.1.1,0,0,1,.1-.1H4a.1.1,0,0,1,.1.1A.11.11,0,0,1,4,1.52Z"/><path d="M2,5.05H2l-.57-.18h-1a.11.11,0,0,1-.1-.09L.23,3.32a.11.11,0,0,1,0-.08.08.08,0,0,1,.07,0H2.1a.11.11,0,0,1,.08,0,.07.07,0,0,1,0,.07l-.05,1.1V5s0,.06-.05.07S2.06,5.05,2,5.05ZM.55,4.67h.94l.45.15V4.4l.05-1H.44Z"/><path d="M1.65,3.86H.81a.09.09,0,0,1-.1-.1.1.1,0,0,1,.1-.1h.84a.1.1,0,0,1,.09.1A.09.09,0,0,1,1.65,3.86Z"/><path d="M1.54,4.34H.91a.1.1,0,0,1-.1-.1.11.11,0,0,1,.1-.1h.63a.11.11,0,0,1,.1.1A.1.1,0,0,1,1.54,4.34Z"/><path d="M5.31,5.4H.64a.09.09,0,0,1-.1-.1.1.1,0,0,1,.1-.1H5.31a.1.1,0,0,1,.1.1A.09.09,0,0,1,5.31,5.4Z"/><path d="M1.21,2.21a.11.11,0,0,1-.1-.1v0a.1.1,0,0,1,.1-.1.09.09,0,0,1,.1.1v0A.1.1,0,0,1,1.21,2.21Z"/><path d="M1.23,2.6a.09.09,0,0,1-.1-.1v0a.09.09,0,0,1,.1-.1.1.1,0,0,1,.1.1v0A.1.1,0,0,1,1.23,2.6Z"/><path d="M5.06,5.4H2.83a.09.09,0,0,1-.1-.1V5a.81.81,0,0,1,.7-.87h.13a.23.23,0,0,1,.17.08l.21.22.21-.22a.25.25,0,0,1,.18-.08h.12A.83.83,0,0,1,5.16,5V5.3A.1.1,0,0,1,5.06,5.4ZM2.93,5.2H5V5c0-.36-.24-.67-.51-.67H4.33l0,0L4,4.65a.1.1,0,0,1-.14,0l-.28-.29,0,0H3.43c-.27,0-.49.31-.5.68Z"/><path d="M2.83,2.9H.91a.1.1,0,0,1-.1-.1.11.11,0,0,1,.1-.1H2.83a.11.11,0,0,1,.1.1A.1.1,0,0,1,2.83,2.9Z"/></g></g></svg>