<svg xmlns="http://www.w3.org/2000/svg" viewBox="0 0 3.93 5.11"><g id="Layer_2" data-name="Layer 2"><g id="Layer_1-2" data-name="Layer 1"><path d="M2.54.67H.11A.1.1,0,0,1,0,.57a.09.09,0,0,1,.1-.1H2.54a.1.1,0,0,1,.1.1A.11.11,0,0,1,2.54.67Z"/><path d="M2,.67a.11.11,0,0,1-.1-.1V.43A.11.11,0,0,1,2,.33a.1.1,0,0,1,.1.1V.57A.1.1,0,0,1,2,.67Z"/><path d="M1.32.67a.11.11,0,0,1-.1-.1V.43a.11.11,0,0,1,.1-.1.1.1,0,0,1,.1.1V.57A.1.1,0,0,1,1.32.67Z"/><path d="M.69.67a.11.11,0,0,1-.1-.1V.43a.11.11,0,0,1,.1-.1.1.1,0,0,1,.1.1V.57A.1.1,0,0,1,.69.67Z"/><path d="M1.82,5.11h-1a.39.39,0,0,1-.39-.4V4.5a.35.35,0,0,1,.08-.22A.33.33,0,0,1,.4,4.06L0,.51A.48.48,0,0,1,.12.15.47.47,0,0,1,.46,0H2.19a.49.49,0,0,1,.34.15.44.44,0,0,1,.11.36L2.25,4.06a.34.34,0,0,1-.12.22.31.31,0,0,1,.09.22v.21A.4.4,0,0,1,1.82,5.11ZM.74,4.39a.11.11,0,0,0-.11.11v.21a.19.19,0,0,0,.19.2h1a.2.2,0,0,0,.2-.2V4.5a.11.11,0,0,0-.11-.11h0a.1.1,0,0,1-.1-.1.09.09,0,0,1,.1-.1A.18.18,0,0,0,2.05,4L2.44.49a.23.23,0,0,0-.06-.2A.25.25,0,0,0,2.19.2H.46A.25.25,0,0,0,.27.29.24.24,0,0,0,.2.49L.6,4a.17.17,0,0,0,.17.15.1.1,0,0,1,.1.1.11.11,0,0,1-.1.1Z"/><path d="M1.88,4.39H.77a.1.1,0,0,1-.1-.1.09.09,0,0,1,.1-.1H1.88a.1.1,0,0,1,.1.1A.11.11,0,0,1,1.88,4.39Z"/><path d="M2.22,3.5H.43a.09.09,0,0,1-.1-.09l-.23-2a.11.11,0,0,1,0-.08.09.09,0,0,1,.07,0H2.44a.11.11,0,0,1,.08,0,.08.08,0,0,1,0,.08l-.22,2A.1.1,0,0,1,2.22,3.5ZM.52,3.3H2.13l.2-1.8h-2Z"/><path d="M3.82,1.36h-1a.11.11,0,0,1-.1-.1.1.1,0,0,1,.1-.1h1a.1.1,0,0,1,.1.1A.11.11,0,0,1,3.82,1.36Z"/><path d="M3,1.36a.1.1,0,0,1-.1-.1V1.14A.09.09,0,0,1,3,1a.1.1,0,0,1,.1.1v.12A.11.11,0,0,1,3,1.36Z"/><path d="M3.44,1.36a.1.1,0,0,1-.1-.1V1.14a.09.09,0,0,1,.1-.1.1.1,0,0,1,.1.1v.12A.11.11,0,0,1,3.44,1.36Z"/><path d="M3.22,5.11H2.37a.09.09,0,0,1-.1-.1.1.1,0,0,1,.1-.1h.85a.15.15,0,0,0,.15-.15V4.58a.08.08,0,0,0-.08-.08h0a.11.11,0,0,1-.1-.1.1.1,0,0,1,.1-.1.13.13,0,0,0,.13-.12l.34-3A.23.23,0,0,0,3.67,1,.17.17,0,0,0,3.52,1H2.84a.11.11,0,0,1-.1-.1.1.1,0,0,1,.1-.1h.68a.4.4,0,0,1,.3.13.38.38,0,0,1,.1.32l-.33,3a.34.34,0,0,1-.09.19.29.29,0,0,1,.07.18v.18A.35.35,0,0,1,3.22,5.11Z"/><path d="M3.26,4.5h-.8a.1.1,0,0,1-.1-.1.09.09,0,0,1,.1-.1h.8a.09.09,0,0,1,.1.1A.1.1,0,0,1,3.26,4.5Z"/><path d="M3.55,3.75h-1a.09.09,0,0,1-.1-.1.1.1,0,0,1,.1-.1h.91l.17-1.5H2.75a.1.1,0,0,1-.1-.1.11.11,0,0,1,.1-.1h1a.08.08,0,0,1,.07,0,.11.11,0,0,1,0,.08L3.65,3.66A.11.11,0,0,1,3.55,3.75Z"/><path d="M3.83,5.11H.14A.09.09,0,0,1,0,5a.1.1,0,0,1,.1-.1H3.83a.11.11,0,0,1,.1.1A.1.1,0,0,1,3.83,5.11Z"/><path d="M1.83,2.21h-1a.09.09,0,0,1-.1-.1A.1.1,0,0,1,.82,2h1a.11.11,0,0,1,.1.1A.1.1,0,0,1,1.83,2.21Z"/><path d="M1.77,2.61H.88a.09.09,0,0,1-.1-.1.1.1,0,0,1,.1-.1h.89a.11.11,0,0,1,.1.1A.1.1,0,0,1,1.77,2.61Z"/><path d="M1.67,3H1a.09.09,0,0,1-.1-.1.1.1,0,0,1,.1-.1h.69a.11.11,0,0,1,.1.1A.1.1,0,0,1,1.67,3Z"/></g></g></svg>