<svg xmlns="http://www.w3.org/2000/svg" viewBox="0 0 5.55 3.64"><g id="Layer_2" data-name="Layer 2"><g id="Layer_1-2" data-name="Layer 1"><path d="M4.69,3.64H.86A.26.26,0,0,1,.6,3.38V.26A.26.26,0,0,1,.86,0H4.69A.26.26,0,0,1,5,.26V3.38A.26.26,0,0,1,4.69,3.64ZM.86.19A.07.07,0,0,0,.79.26V3.38a.07.07,0,0,0,.07.07H4.69a.07.07,0,0,0,.07-.07V.26A.07.07,0,0,0,4.69.19Z"/><path d="M4.41,3.19H1.14a.09.09,0,0,1-.09-.09V.54A.09.09,0,0,1,1.14.45H4.41A.09.09,0,0,1,4.5.54V3.1A.09.09,0,0,1,4.41,3.19ZM1.24,3H4.31V.64H1.24Z"/><path d="M3.62,2.45H1.93a.09.09,0,0,1-.09-.09V1.29a.09.09,0,0,1,.09-.1H3.62a.1.1,0,0,1,.1.1V2.36A.1.1,0,0,1,3.62,2.45ZM2,2.26h1.5V1.38H2Z"/><path d="M.7.35H.09A.09.09,0,0,1,0,.26.1.1,0,0,1,.09.16H.7a.1.1,0,0,1,.09.1A.09.09,0,0,1,.7.35Z"/><path d="M.7.79H.09A.09.09,0,0,1,0,.7.1.1,0,0,1,.09.6H.7A.1.1,0,0,1,.79.7.09.09,0,0,1,.7.79Z"/><path d="M.7,1.23H.09A.09.09,0,0,1,0,1.14.09.09,0,0,1,.09,1H.7a.09.09,0,0,1,.09.1A.09.09,0,0,1,.7,1.23Z"/><path d="M.7,1.67H.09A.09.09,0,0,1,0,1.58a.09.09,0,0,1,.09-.1H.7a.09.09,0,0,1,.09.1A.09.09,0,0,1,.7,1.67Z"/><path d="M.7,2.11H.09A.09.09,0,0,1,0,2a.09.09,0,0,1,.09-.09H.7A.09.09,0,0,1,.79,2,.09.09,0,0,1,.7,2.11Z"/><path d="M.7,2.55H.09A.09.09,0,0,1,0,2.45a.09.09,0,0,1,.09-.09H.7a.09.09,0,0,1,.09.09A.09.09,0,0,1,.7,2.55Z"/><path d="M.7,3H.09A.1.1,0,0,1,0,2.89.09.09,0,0,1,.09,2.8H.7a.09.09,0,0,1,.09.09A.1.1,0,0,1,.7,3Z"/><path d="M.7,3.42H.09a.09.09,0,1,1,0-.18H.7a.09.09,0,1,1,0,.18Z"/><path d="M5.46.35h-.6a.09.09,0,0,1-.1-.09.1.1,0,0,1,.1-.1h.6a.1.1,0,0,1,.09.1A.09.09,0,0,1,5.46.35Z"/><path d="M5.46.79h-.6A.09.09,0,0,1,4.76.7a.1.1,0,0,1,.1-.1h.6a.1.1,0,0,1,.09.1A.09.09,0,0,1,5.46.79Z"/><path d="M5.46,1.23h-.6a.09.09,0,0,1-.1-.09.09.09,0,0,1,.1-.1h.6a.09.09,0,0,1,.09.1A.09.09,0,0,1,5.46,1.23Z"/><path d="M5.46,1.67h-.6a.09.09,0,0,1-.1-.09.09.09,0,0,1,.1-.1h.6a.09.09,0,0,1,.09.1A.09.09,0,0,1,5.46,1.67Z"/><path d="M5.46,2.11h-.6a.09.09,0,0,1-.1-.1.09.09,0,0,1,.1-.09h.6A.09.09,0,0,1,5.55,2,.09.09,0,0,1,5.46,2.11Z"/><path d="M5.46,2.55h-.6a.09.09,0,0,1-.1-.1.09.09,0,0,1,.1-.09h.6a.09.09,0,0,1,.09.09A.09.09,0,0,1,5.46,2.55Z"/><path d="M5.46,3h-.6a.1.1,0,0,1-.1-.1.09.09,0,0,1,.1-.09h.6a.09.09,0,0,1,.09.09A.1.1,0,0,1,5.46,3Z"/><path d="M5.46,3.42h-.6a.09.09,0,1,1,0-.18h.6a.09.09,0,0,1,0,.18Z"/></g></g></svg>