<svg xmlns="http://www.w3.org/2000/svg" viewBox="0 0 5.27 4.64"><g id="Layer_2" data-name="Layer 2"><g id="Layer_1-2" data-name="Layer 1"><path d="M5.07,3.93H.21a.1.1,0,0,1-.1-.1V3.3a.52.52,0,0,1,.52-.52h4a.53.53,0,0,1,.53.52v.53A.11.11,0,0,1,5.07,3.93ZM.3,3.73H5V3.3A.33.33,0,0,0,4.64,3h-4A.33.33,0,0,0,.3,3.3Z"/><path d="M4.91,3.07a.09.09,0,0,1-.1-.1V2.88a2.18,2.18,0,0,0-4.35,0V3a.09.09,0,0,1-.1.1A.1.1,0,0,1,.26,3V2.88A2.38,2.38,0,0,1,5,2.88V3A.1.1,0,0,1,4.91,3.07Z"/><path d="M4.84,2.44H3.77a.1.1,0,0,1-.1-.1.11.11,0,0,1,.1-.1H4.84a.1.1,0,0,1,.1.1A.09.09,0,0,1,4.84,2.44Z"/><path d="M1.36,2.44H1.12a.1.1,0,0,1-.1-.1.11.11,0,0,1,.1-.1h.24a.11.11,0,0,1,.1.1A.1.1,0,0,1,1.36,2.44Z"/><path d="M3.1,2.44H2.66a.1.1,0,0,1-.1-.1.11.11,0,0,1,.1-.1H3.1a.1.1,0,0,1,.1.1A.09.09,0,0,1,3.1,2.44Zm-.87,0H1.79a.1.1,0,0,1-.1-.1.11.11,0,0,1,.1-.1h.44a.11.11,0,0,1,.1.1A.1.1,0,0,1,2.23,2.44Z"/><path d="M3.77,2.44H3.54a.09.09,0,0,1-.1-.1.1.1,0,0,1,.1-.1h.23a.1.1,0,0,1,.1.1A.09.09,0,0,1,3.77,2.44Z"/><path d="M1.12,2.44H.43a.09.09,0,0,1-.1-.1.1.1,0,0,1,.1-.1h.69a.1.1,0,0,1,.1.1A.09.09,0,0,1,1.12,2.44Z"/><path d="M2.91.73h0a1.57,1.57,0,0,0-.53,0,.11.11,0,0,1-.08,0,.11.11,0,0,1,0-.07V.38A.38.38,0,1,1,3,.38V.63A.11.11,0,0,1,3,.7.09.09,0,0,1,2.91.73ZM2.64.2a.18.18,0,0,0-.18.18V.52a2,2,0,0,1,.35,0V.38A.18.18,0,0,0,2.64.2Z"/><path d="M5.07,3.53H1.79a.1.1,0,0,1-.1-.1.09.09,0,0,1,.1-.1H5.07a.1.1,0,0,1,.1.1A.11.11,0,0,1,5.07,3.53Z"/><path d="M1.34,3.53H.21a.1.1,0,0,1-.1-.1.09.09,0,0,1,.1-.1H1.34a.1.1,0,0,1,.1.1A.11.11,0,0,1,1.34,3.53Z"/><path d="M5.17,3.93H.1a.1.1,0,0,1-.1-.1.09.09,0,0,1,.1-.1H5.17a.09.09,0,0,1,.1.1A.1.1,0,0,1,5.17,3.93Z"/><path d="M4.39,4.64H.88a.11.11,0,0,1-.1-.1.1.1,0,0,1,.1-.1H4.39a.1.1,0,0,1,.1.1A.11.11,0,0,1,4.39,4.64Z"/></g></g></svg>